G04 EAGLE Gerber RS-274X export*
G75*
%MOIN*%
%FSLAX24Y24*%
%LPD*%
%INBottom Soldermask*%
%IPPOS*%
%AMOC8*
5,1,8,0,0,1.08239X$1,22.5*%
G01*
%ADD10C,0.080000*%
%ADD11R,0.086000X0.086000*%
%ADD12C,0.086000*%
%ADD13C,0.183000*%
%ADD14P,0.058449X8X112.500000*%
%ADD15P,0.058449X8X292.500000*%
%ADD16C,0.136000*%
%ADD17C,0.053496*%
%ADD18C,0.135921*%
%ADD19C,0.054000*%
%ADD20C,0.035780*%
%ADD21C,0.010000*%


D10*
X7500Y10500D03*
X8500Y10500D03*
X9500Y10500D03*
X10500Y10500D03*
X11500Y10500D03*
X12500Y10500D03*
X14500Y10500D03*
X15500Y10500D03*
X16500Y10500D03*
X17500Y10500D03*
X18500Y10500D03*
X19500Y10500D03*
X19500Y29500D03*
X18500Y29500D03*
X17500Y29500D03*
X16500Y29500D03*
X15500Y29500D03*
X14500Y29500D03*
X13500Y29500D03*
X12500Y29500D03*
X11000Y29500D03*
X10000Y29500D03*
X9000Y29500D03*
X8000Y29500D03*
X7000Y29500D03*
X6000Y29500D03*
X5000Y29500D03*
X4000Y29500D03*
X3000Y29500D03*
X2000Y29500D03*
X6500Y10500D03*
X5500Y10500D03*
D11*
X59000Y35500D03*
D12*
X57622Y35500D03*
X56244Y35500D03*
X54866Y35500D03*
X53488Y35500D03*
D10*
X44500Y35500D03*
X43500Y35500D03*
D11*
X19500Y35500D03*
D12*
X18122Y35500D03*
X16744Y35500D03*
X15366Y35500D03*
X13988Y35500D03*
D10*
X12000Y35500D03*
X11000Y35500D03*
X10000Y35500D03*
X56500Y11450D03*
X56500Y10450D03*
X56500Y9450D03*
X56500Y8450D03*
X56500Y7450D03*
X56500Y6450D03*
X56500Y5450D03*
X56500Y4450D03*
D13*
X60606Y29000D03*
X62969Y29000D03*
X61787Y30850D03*
D10*
X8000Y35500D03*
X7000Y35500D03*
D11*
X5000Y3500D03*
D12*
X6378Y3500D03*
X7756Y3500D03*
X9134Y3500D03*
X10512Y3500D03*
X11890Y3500D03*
D10*
X5000Y35500D03*
X4000Y35500D03*
D11*
X36000Y3500D03*
D12*
X37378Y3500D03*
X38756Y3500D03*
X40134Y3500D03*
X41512Y3500D03*
X42890Y3500D03*
D11*
X39000Y35500D03*
D12*
X37622Y35500D03*
X36244Y35500D03*
X34866Y35500D03*
X33488Y35500D03*
D10*
X31500Y35500D03*
X30500Y35500D03*
X29500Y35500D03*
X51500Y35500D03*
X50500Y35500D03*
X49500Y35500D03*
X27500Y35500D03*
X26500Y35500D03*
X24500Y35500D03*
X23500Y35500D03*
X47500Y35500D03*
X46500Y35500D03*
D11*
X15000Y3500D03*
D12*
X16378Y3500D03*
X17756Y3500D03*
X19134Y3500D03*
X20512Y3500D03*
X21890Y3500D03*
D11*
X25000Y3500D03*
D12*
X26378Y3500D03*
X27756Y3500D03*
X29134Y3500D03*
X30512Y3500D03*
X31890Y3500D03*
D14*
X40500Y23500D03*
X40500Y28500D03*
X38500Y23500D03*
X38500Y28500D03*
D15*
X27000Y28500D03*
X27000Y23500D03*
X29000Y28500D03*
X29000Y23500D03*
D14*
X36500Y23500D03*
X36500Y28500D03*
D15*
X31000Y28500D03*
X31000Y23500D03*
D16*
X39000Y14500D03*
X39000Y17000D03*
X39000Y19500D03*
X2000Y38000D03*
X63000Y2000D03*
X63000Y38000D03*
X2000Y2000D03*
D17*
X60263Y19500D02*
X60737Y19500D01*
X60737Y18500D02*
X60263Y18500D01*
D18*
X62500Y20500D03*
X62500Y16500D03*
D19*
X26500Y13240D02*
X26500Y12760D01*
X27500Y12760D02*
X27500Y13240D01*
X28500Y13240D02*
X28500Y12760D01*
X29500Y12760D02*
X29500Y13240D01*
X30500Y13240D02*
X30500Y12760D01*
X31500Y12760D02*
X31500Y13240D01*
X32500Y13240D02*
X32500Y12760D01*
X33500Y12760D02*
X33500Y13240D01*
X34500Y13240D02*
X34500Y12760D01*
X34500Y15760D02*
X34500Y16240D01*
X33500Y16240D02*
X33500Y15760D01*
X32500Y15760D02*
X32500Y16240D01*
X31500Y16240D02*
X31500Y15760D01*
X30500Y15760D02*
X30500Y16240D01*
X29500Y16240D02*
X29500Y15760D01*
X28500Y15760D02*
X28500Y16240D01*
X27500Y16240D02*
X27500Y15760D01*
X26500Y15760D02*
X26500Y16240D01*
D20*
X14625Y16290D03*
X43740Y32445D03*
X33885Y32445D03*
X27945Y31815D03*
X16875Y23670D03*
X27945Y22590D03*
X19755Y20475D03*
X15300Y15975D03*
X11385Y7740D03*
X22725Y24435D03*
X22725Y18810D03*
X24750Y10845D03*
X35775Y21285D03*
X27405Y10890D03*
X18270Y20745D03*
X18360Y20070D03*
X25020Y8775D03*
X12870Y23355D03*
X12690Y18990D03*
X22455Y19485D03*
X31815Y6255D03*
X11340Y26685D03*
X32715Y4500D03*
X36450Y4500D03*
X22905Y4455D03*
X33165Y22860D03*
X45180Y34380D03*
X30015Y24030D03*
X41445Y34380D03*
X39060Y34380D03*
X33210Y32175D03*
X27945Y32175D03*
X26865Y27585D03*
X30330Y33570D03*
X29520Y34380D03*
X27945Y35955D03*
D21*
X0Y1000D02*
X4Y913D01*
X15Y826D01*
X34Y741D01*
X60Y658D01*
X94Y577D01*
X134Y500D01*
X181Y426D01*
X234Y357D01*
X293Y293D01*
X357Y234D01*
X426Y181D01*
X500Y134D01*
X577Y94D01*
X658Y60D01*
X741Y34D01*
X826Y15D01*
X913Y4D01*
X1000Y0D01*
X64000Y0D01*
X64087Y4D01*
X64174Y15D01*
X64259Y34D01*
X64342Y60D01*
X64423Y94D01*
X64500Y134D01*
X64574Y181D01*
X64643Y234D01*
X64707Y293D01*
X64766Y357D01*
X64819Y426D01*
X64866Y500D01*
X64906Y577D01*
X64940Y658D01*
X64966Y741D01*
X64985Y826D01*
X64996Y913D01*
X65000Y1000D01*
X65000Y39000D01*
X64996Y39087D01*
X64985Y39174D01*
X64966Y39259D01*
X64940Y39342D01*
X64906Y39423D01*
X64866Y39500D01*
X64819Y39574D01*
X64766Y39643D01*
X64707Y39707D01*
X64643Y39766D01*
X64574Y39819D01*
X64500Y39866D01*
X64423Y39906D01*
X64342Y39940D01*
X64259Y39966D01*
X64174Y39985D01*
X64087Y39996D01*
X64000Y40000D01*
X1000Y40000D01*
X913Y39996D01*
X826Y39985D01*
X741Y39966D01*
X658Y39940D01*
X577Y39906D01*
X500Y39866D01*
X426Y39819D01*
X357Y39766D01*
X293Y39707D01*
X234Y39643D01*
X181Y39574D01*
X134Y39500D01*
X94Y39423D01*
X60Y39342D01*
X34Y39259D01*
X15Y39174D01*
X4Y39087D01*
X0Y39000D01*
X0Y1000D01*
M02*
