G04 EAGLE Gerber RS-274X export*
G75*
%MOIN*%
%FSLAX24Y24*%
%LPD*%
%INBottom Copper*%
%IPPOS*%
%AMOC8*
5,1,8,0,0,1.08239X$1,22.5*%
G01*
%ADD10C,0.074000*%
%ADD11R,0.080000X0.080000*%
%ADD12C,0.080000*%
%ADD13C,0.177000*%
%ADD14P,0.051955X8X112.500000*%
%ADD15P,0.051955X8X292.500000*%
%ADD16C,0.130000*%
%ADD17C,0.047496*%
%ADD18C,0.129921*%
%ADD19C,0.048000*%
%ADD20P,0.068191X8X112.500000*%
%ADD21C,0.012000*%
%ADD22C,0.024000*%
%ADD23C,0.024000*%
%ADD24C,0.029780*%

G36*
X64001Y201D02*
X64001Y201D01*
X64002Y201D01*
X64123Y210D01*
X64124Y210D01*
X64129Y212D01*
X64359Y286D01*
X64360Y287D01*
X64362Y288D01*
X64367Y290D01*
X64562Y432D01*
X64563Y433D01*
X64565Y434D01*
X64568Y438D01*
X64710Y633D01*
X64711Y635D01*
X64712Y636D01*
X64714Y641D01*
X64788Y871D01*
X64789Y872D01*
X64790Y877D01*
X64799Y998D01*
X64799Y1000D01*
X64799Y39000D01*
X64799Y39001D01*
X64799Y39002D01*
X64790Y39123D01*
X64790Y39124D01*
X64788Y39129D01*
X64714Y39359D01*
X64713Y39360D01*
X64712Y39362D01*
X64710Y39367D01*
X64568Y39562D01*
X64567Y39563D01*
X64566Y39565D01*
X64562Y39568D01*
X64367Y39710D01*
X64365Y39711D01*
X64364Y39712D01*
X64359Y39714D01*
X64129Y39788D01*
X64128Y39789D01*
X64123Y39790D01*
X64002Y39799D01*
X64000Y39799D01*
X1000Y39799D01*
X999Y39799D01*
X998Y39799D01*
X877Y39790D01*
X876Y39790D01*
X871Y39788D01*
X641Y39714D01*
X640Y39713D01*
X638Y39712D01*
X633Y39710D01*
X438Y39568D01*
X437Y39567D01*
X435Y39566D01*
X432Y39562D01*
X290Y39367D01*
X289Y39365D01*
X288Y39364D01*
X286Y39359D01*
X212Y39129D01*
X211Y39128D01*
X210Y39123D01*
X201Y39002D01*
X201Y39000D01*
X201Y1000D01*
X201Y999D01*
X201Y998D01*
X210Y877D01*
X210Y876D01*
X212Y871D01*
X286Y641D01*
X287Y640D01*
X288Y638D01*
X290Y633D01*
X432Y438D01*
X433Y437D01*
X434Y435D01*
X438Y432D01*
X633Y290D01*
X635Y289D01*
X636Y288D01*
X641Y286D01*
X871Y212D01*
X872Y211D01*
X877Y210D01*
X998Y201D01*
X1000Y201D01*
X64000Y201D01*
X64001Y201D01*
G37*
%LPC*%
G36*
X28432Y15419D02*
X28432Y15419D01*
X28307Y15471D01*
X28211Y15567D01*
X28159Y15692D01*
X28159Y16308D01*
X28165Y16322D01*
X28166Y16327D01*
X28167Y16331D01*
X28167Y16332D01*
X28167Y16336D01*
X28166Y16341D01*
X28164Y16345D01*
X28162Y16350D01*
X28159Y16354D01*
X27544Y16969D01*
X27478Y17035D01*
X27444Y17116D01*
X27444Y34051D01*
X27444Y34055D01*
X27443Y34059D01*
X27443Y34060D01*
X27443Y34061D01*
X27441Y34064D01*
X27439Y34068D01*
X27438Y34069D01*
X27438Y34070D01*
X27436Y34072D01*
X26487Y35021D01*
X26484Y35023D01*
X26481Y35025D01*
X26480Y35026D01*
X26479Y35026D01*
X26476Y35027D01*
X26472Y35029D01*
X26471Y35029D01*
X26470Y35029D01*
X26469Y35029D01*
X26466Y35029D01*
X26406Y35029D01*
X26233Y35101D01*
X26101Y35233D01*
X26029Y35406D01*
X26029Y35594D01*
X26101Y35767D01*
X26233Y35899D01*
X26406Y35971D01*
X26594Y35971D01*
X26767Y35899D01*
X26899Y35767D01*
X26971Y35594D01*
X26971Y35406D01*
X26906Y35251D01*
X26906Y35249D01*
X26906Y35248D01*
X26905Y35247D01*
X26904Y35242D01*
X26905Y35237D01*
X26905Y35232D01*
X26907Y35228D01*
X26909Y35224D01*
X26913Y35219D01*
X27779Y34353D01*
X27782Y34351D01*
X27784Y34349D01*
X27786Y34348D01*
X27787Y34347D01*
X27790Y34346D01*
X27793Y34345D01*
X27794Y34345D01*
X27796Y34345D01*
X27799Y34345D01*
X27802Y34344D01*
X27804Y34345D01*
X27806Y34345D01*
X27809Y34346D01*
X27811Y34347D01*
X27813Y34348D01*
X27815Y34348D01*
X27817Y34350D01*
X27819Y34352D01*
X27821Y34353D01*
X27822Y34354D01*
X27824Y34357D01*
X27825Y34359D01*
X27826Y34361D01*
X27827Y34363D01*
X27828Y34365D01*
X27829Y34368D01*
X27829Y34371D01*
X27829Y34372D01*
X27829Y34374D01*
X27829Y34546D01*
X27829Y34550D01*
X27828Y34554D01*
X27828Y34555D01*
X27828Y34556D01*
X27826Y34559D01*
X27824Y34563D01*
X27823Y34564D01*
X27823Y34565D01*
X27821Y34567D01*
X27478Y34910D01*
X27443Y34993D01*
X27443Y34994D01*
X27443Y34995D01*
X27443Y34996D01*
X27441Y34999D01*
X27439Y35003D01*
X27438Y35004D01*
X27438Y35005D01*
X27436Y35007D01*
X27422Y35021D01*
X27419Y35023D01*
X27416Y35025D01*
X27415Y35026D01*
X27414Y35026D01*
X27412Y35027D01*
X27233Y35101D01*
X27101Y35233D01*
X27029Y35406D01*
X27029Y35594D01*
X27082Y35720D01*
X27082Y35721D01*
X27083Y35725D01*
X27084Y35730D01*
X27083Y35735D01*
X27083Y35739D01*
X27083Y35740D01*
X27081Y35744D01*
X27079Y35748D01*
X27075Y35752D01*
X26912Y35916D01*
X26841Y35987D01*
X26372Y36456D01*
X26369Y36458D01*
X26366Y36460D01*
X26365Y36461D01*
X26364Y36461D01*
X26361Y36462D01*
X26357Y36464D01*
X26356Y36464D01*
X26355Y36464D01*
X26354Y36464D01*
X26351Y36464D01*
X19359Y36464D01*
X19356Y36464D01*
X19353Y36464D01*
X19351Y36463D01*
X19349Y36463D01*
X19347Y36461D01*
X19344Y36460D01*
X19342Y36459D01*
X19341Y36458D01*
X19339Y36456D01*
X19336Y36454D01*
X19335Y36453D01*
X19334Y36451D01*
X19333Y36448D01*
X19331Y36446D01*
X19331Y36444D01*
X19330Y36442D01*
X19330Y36440D01*
X19329Y36437D01*
X19330Y36435D01*
X19329Y36433D01*
X19330Y36430D01*
X19330Y36427D01*
X19331Y36425D01*
X19332Y36424D01*
X19333Y36421D01*
X19334Y36418D01*
X19336Y36416D01*
X19337Y36416D01*
X19337Y36415D01*
X19338Y36414D01*
X19481Y36271D01*
X19547Y36205D01*
X19581Y36124D01*
X19581Y36030D01*
X19581Y36029D01*
X19581Y36028D01*
X19582Y36024D01*
X19582Y36021D01*
X19583Y36020D01*
X19583Y36019D01*
X19585Y36015D01*
X19587Y36012D01*
X19588Y36011D01*
X19591Y36008D01*
X19594Y36006D01*
X19595Y36005D01*
X19596Y36005D01*
X19599Y36003D01*
X19603Y36002D01*
X19604Y36002D01*
X19605Y36001D01*
X19610Y36001D01*
X19942Y36001D01*
X20001Y35942D01*
X20001Y35670D01*
X20001Y35669D01*
X20001Y35668D01*
X20002Y35664D01*
X20002Y35661D01*
X20003Y35660D01*
X20003Y35659D01*
X20005Y35655D01*
X20007Y35652D01*
X20008Y35651D01*
X20011Y35648D01*
X20014Y35646D01*
X20015Y35645D01*
X20016Y35645D01*
X20019Y35643D01*
X20023Y35642D01*
X20024Y35642D01*
X20025Y35641D01*
X20030Y35641D01*
X20284Y35641D01*
X20365Y35607D01*
X27123Y28849D01*
X27126Y28847D01*
X27129Y28845D01*
X27130Y28844D01*
X27131Y28844D01*
X27134Y28843D01*
X27138Y28841D01*
X27139Y28841D01*
X27140Y28841D01*
X27141Y28841D01*
X27341Y28641D01*
X27341Y28359D01*
X27141Y28159D01*
X26859Y28159D01*
X26659Y28359D01*
X26659Y28641D01*
X26662Y28644D01*
X26663Y28645D01*
X26664Y28646D01*
X26666Y28649D01*
X26668Y28652D01*
X26668Y28653D01*
X26669Y28654D01*
X26670Y28658D01*
X26671Y28661D01*
X26671Y28662D01*
X26671Y28663D01*
X26670Y28667D01*
X26670Y28671D01*
X26670Y28672D01*
X26670Y28673D01*
X26668Y28676D01*
X26667Y28680D01*
X26666Y28680D01*
X26666Y28681D01*
X26662Y28686D01*
X20157Y35191D01*
X20154Y35193D01*
X20151Y35195D01*
X20150Y35196D01*
X20149Y35196D01*
X20146Y35197D01*
X20142Y35199D01*
X20141Y35199D01*
X20140Y35199D01*
X20139Y35199D01*
X20136Y35199D01*
X20030Y35199D01*
X20029Y35199D01*
X20028Y35199D01*
X20024Y35198D01*
X20021Y35198D01*
X20020Y35197D01*
X20019Y35197D01*
X20015Y35195D01*
X20012Y35193D01*
X20011Y35192D01*
X20008Y35189D01*
X20006Y35186D01*
X20005Y35185D01*
X20005Y35184D01*
X20003Y35181D01*
X20002Y35177D01*
X20002Y35176D01*
X20001Y35175D01*
X20001Y35170D01*
X20001Y35058D01*
X19942Y34999D01*
X19058Y34999D01*
X18999Y35058D01*
X18999Y35942D01*
X19059Y36001D01*
X19062Y36001D01*
X19064Y36002D01*
X19066Y36002D01*
X19068Y36004D01*
X19071Y36005D01*
X19073Y36006D01*
X19074Y36007D01*
X19076Y36009D01*
X19079Y36011D01*
X19080Y36012D01*
X19081Y36014D01*
X19082Y36017D01*
X19084Y36019D01*
X19084Y36021D01*
X19085Y36023D01*
X19085Y36025D01*
X19086Y36028D01*
X19085Y36030D01*
X19086Y36032D01*
X19085Y36035D01*
X19085Y36038D01*
X19084Y36040D01*
X19083Y36041D01*
X19082Y36044D01*
X19081Y36047D01*
X19079Y36049D01*
X19078Y36049D01*
X19078Y36050D01*
X19077Y36051D01*
X19057Y36071D01*
X19054Y36073D01*
X19051Y36075D01*
X19050Y36076D01*
X19049Y36076D01*
X19046Y36077D01*
X19042Y36079D01*
X19041Y36079D01*
X19040Y36079D01*
X19039Y36079D01*
X19036Y36079D01*
X13139Y36079D01*
X13135Y36079D01*
X13131Y36078D01*
X13130Y36078D01*
X13129Y36078D01*
X13126Y36076D01*
X13122Y36074D01*
X13121Y36073D01*
X13120Y36073D01*
X13118Y36071D01*
X12479Y35432D01*
X12477Y35429D01*
X12475Y35426D01*
X12474Y35425D01*
X12474Y35424D01*
X12473Y35421D01*
X12471Y35417D01*
X12471Y35416D01*
X12471Y35415D01*
X12471Y35414D01*
X12471Y35411D01*
X12471Y35406D01*
X12399Y35233D01*
X12267Y35101D01*
X12094Y35029D01*
X11906Y35029D01*
X11733Y35101D01*
X11601Y35233D01*
X11529Y35406D01*
X11529Y35594D01*
X11601Y35767D01*
X11733Y35899D01*
X11906Y35971D01*
X12094Y35971D01*
X12267Y35899D01*
X12274Y35892D01*
X12275Y35891D01*
X12278Y35889D01*
X12281Y35887D01*
X12282Y35886D01*
X12283Y35886D01*
X12287Y35885D01*
X12291Y35884D01*
X12292Y35884D01*
X12293Y35884D01*
X12296Y35884D01*
X12300Y35884D01*
X12301Y35885D01*
X12302Y35885D01*
X12306Y35886D01*
X12309Y35888D01*
X12310Y35888D01*
X12311Y35889D01*
X12315Y35892D01*
X12837Y36414D01*
X12839Y36417D01*
X12841Y36419D01*
X12842Y36421D01*
X12843Y36422D01*
X12844Y36425D01*
X12845Y36428D01*
X12845Y36429D01*
X12845Y36431D01*
X12845Y36434D01*
X12846Y36437D01*
X12845Y36439D01*
X12845Y36441D01*
X12844Y36444D01*
X12843Y36446D01*
X12842Y36448D01*
X12842Y36450D01*
X12840Y36452D01*
X12838Y36454D01*
X12837Y36456D01*
X12836Y36457D01*
X12833Y36459D01*
X12831Y36460D01*
X12829Y36461D01*
X12827Y36462D01*
X12825Y36463D01*
X12822Y36464D01*
X12819Y36464D01*
X12818Y36464D01*
X12816Y36464D01*
X9289Y36464D01*
X9285Y36464D01*
X9281Y36463D01*
X9280Y36463D01*
X9279Y36463D01*
X9276Y36461D01*
X9272Y36459D01*
X9271Y36458D01*
X9270Y36458D01*
X9268Y36456D01*
X8466Y35653D01*
X8465Y35653D01*
X8463Y35649D01*
X8460Y35646D01*
X8460Y35645D01*
X8459Y35641D01*
X8457Y35636D01*
X8457Y35632D01*
X8458Y35627D01*
X8459Y35621D01*
X8471Y35594D01*
X8471Y35406D01*
X8399Y35233D01*
X8267Y35101D01*
X8094Y35029D01*
X7906Y35029D01*
X7733Y35101D01*
X7601Y35233D01*
X7529Y35406D01*
X7529Y35594D01*
X7601Y35767D01*
X7733Y35899D01*
X7906Y35971D01*
X8094Y35971D01*
X8121Y35959D01*
X8122Y35959D01*
X8126Y35958D01*
X8131Y35957D01*
X8136Y35958D01*
X8140Y35958D01*
X8141Y35958D01*
X8145Y35960D01*
X8149Y35962D01*
X8153Y35966D01*
X8994Y36806D01*
X9060Y36872D01*
X9141Y36906D01*
X26499Y36906D01*
X26580Y36872D01*
X27012Y36440D01*
X27013Y36440D01*
X27013Y36439D01*
X27017Y36437D01*
X27020Y36435D01*
X27021Y36434D01*
X27022Y36434D01*
X27025Y36433D01*
X27029Y36432D01*
X27030Y36432D01*
X27031Y36432D01*
X27035Y36432D01*
X27038Y36432D01*
X27039Y36433D01*
X27040Y36433D01*
X27044Y36434D01*
X27047Y36436D01*
X27048Y36436D01*
X27049Y36437D01*
X27053Y36440D01*
X27100Y36487D01*
X27181Y36521D01*
X46959Y36521D01*
X47040Y36487D01*
X47548Y35979D01*
X47551Y35977D01*
X47554Y35975D01*
X47555Y35974D01*
X47556Y35974D01*
X47559Y35973D01*
X47563Y35971D01*
X47564Y35971D01*
X47565Y35971D01*
X47566Y35971D01*
X47569Y35971D01*
X47594Y35971D01*
X47767Y35899D01*
X47899Y35767D01*
X47971Y35594D01*
X47971Y35406D01*
X47899Y35233D01*
X47767Y35101D01*
X47594Y35029D01*
X47406Y35029D01*
X47233Y35101D01*
X47101Y35233D01*
X47029Y35406D01*
X47029Y35594D01*
X47102Y35770D01*
X47103Y35771D01*
X47104Y35772D01*
X47104Y35773D01*
X47105Y35777D01*
X47106Y35781D01*
X47106Y35782D01*
X47106Y35783D01*
X47106Y35786D01*
X47106Y35790D01*
X47105Y35791D01*
X47105Y35792D01*
X47104Y35796D01*
X47102Y35799D01*
X47102Y35800D01*
X47101Y35801D01*
X47098Y35805D01*
X46832Y36071D01*
X46829Y36073D01*
X46826Y36075D01*
X46825Y36076D01*
X46824Y36076D01*
X46821Y36077D01*
X46817Y36079D01*
X46816Y36079D01*
X46815Y36079D01*
X46814Y36079D01*
X46811Y36079D01*
X38495Y36079D01*
X38493Y36079D01*
X38491Y36079D01*
X38488Y36078D01*
X38485Y36078D01*
X38483Y36077D01*
X38482Y36076D01*
X38479Y36074D01*
X38477Y36073D01*
X38475Y36072D01*
X38474Y36071D01*
X38472Y36068D01*
X38470Y36066D01*
X38469Y36064D01*
X38468Y36063D01*
X38468Y36060D01*
X38466Y36057D01*
X38466Y36055D01*
X38466Y36054D01*
X38466Y36051D01*
X38466Y36048D01*
X38466Y36046D01*
X38466Y36044D01*
X38468Y36039D01*
X38489Y35988D01*
X38490Y35987D01*
X38490Y35985D01*
X38492Y35983D01*
X38494Y35980D01*
X38495Y35979D01*
X38496Y35977D01*
X38499Y35976D01*
X38501Y35974D01*
X38503Y35973D01*
X38505Y35972D01*
X38507Y35972D01*
X38510Y35971D01*
X38512Y35971D01*
X38514Y35970D01*
X38517Y35971D01*
X38520Y35970D01*
X38521Y35971D01*
X38523Y35971D01*
X38526Y35972D01*
X38529Y35973D01*
X38530Y35974D01*
X38532Y35975D01*
X38536Y35979D01*
X38558Y36001D01*
X39442Y36001D01*
X39501Y35942D01*
X39501Y35560D01*
X39501Y35559D01*
X39501Y35558D01*
X39502Y35554D01*
X39502Y35551D01*
X39503Y35550D01*
X39503Y35549D01*
X39505Y35545D01*
X39507Y35542D01*
X39508Y35541D01*
X39511Y35538D01*
X39514Y35536D01*
X39515Y35535D01*
X39516Y35535D01*
X39519Y35533D01*
X39523Y35532D01*
X39524Y35532D01*
X39525Y35531D01*
X39530Y35531D01*
X39699Y35531D01*
X39780Y35497D01*
X39846Y35431D01*
X40343Y34934D01*
X40346Y34932D01*
X40349Y34930D01*
X40350Y34929D01*
X40351Y34929D01*
X40354Y34928D01*
X40358Y34926D01*
X40359Y34926D01*
X40360Y34926D01*
X40361Y34926D01*
X40364Y34926D01*
X50771Y34926D01*
X50775Y34926D01*
X50779Y34927D01*
X50780Y34927D01*
X50781Y34927D01*
X50784Y34929D01*
X50788Y34931D01*
X50789Y34932D01*
X50790Y34932D01*
X50792Y34934D01*
X51084Y35226D01*
X51084Y35227D01*
X51087Y35230D01*
X51090Y35234D01*
X51091Y35239D01*
X51093Y35243D01*
X51093Y35244D01*
X51092Y35248D01*
X51092Y35253D01*
X51091Y35258D01*
X51029Y35406D01*
X51029Y35594D01*
X51101Y35767D01*
X51233Y35899D01*
X51406Y35971D01*
X51594Y35971D01*
X51767Y35899D01*
X51769Y35897D01*
X51770Y35896D01*
X51773Y35894D01*
X51776Y35892D01*
X51777Y35891D01*
X51778Y35891D01*
X51782Y35890D01*
X51786Y35889D01*
X51787Y35889D01*
X51788Y35889D01*
X51791Y35889D01*
X51795Y35889D01*
X51796Y35890D01*
X51797Y35890D01*
X51801Y35891D01*
X51804Y35893D01*
X51805Y35893D01*
X51806Y35894D01*
X51810Y35897D01*
X52334Y36421D01*
X52400Y36487D01*
X52481Y36521D01*
X58674Y36521D01*
X58755Y36487D01*
X59037Y36205D01*
X59071Y36124D01*
X59071Y36030D01*
X59071Y36029D01*
X59071Y36028D01*
X59072Y36024D01*
X59072Y36021D01*
X59073Y36020D01*
X59073Y36019D01*
X59075Y36015D01*
X59077Y36012D01*
X59078Y36011D01*
X59081Y36008D01*
X59084Y36006D01*
X59085Y36005D01*
X59086Y36005D01*
X59089Y36003D01*
X59093Y36002D01*
X59094Y36002D01*
X59095Y36001D01*
X59100Y36001D01*
X59442Y36001D01*
X59501Y35942D01*
X59501Y35058D01*
X59442Y34999D01*
X58558Y34999D01*
X58499Y35058D01*
X58499Y35942D01*
X58567Y36009D01*
X58567Y36010D01*
X58569Y36011D01*
X58570Y36012D01*
X58571Y36014D01*
X58572Y36017D01*
X58574Y36019D01*
X58574Y36021D01*
X58575Y36023D01*
X58575Y36025D01*
X58576Y36028D01*
X58575Y36030D01*
X58576Y36032D01*
X58575Y36035D01*
X58575Y36038D01*
X58574Y36040D01*
X58573Y36041D01*
X58572Y36044D01*
X58571Y36047D01*
X58569Y36049D01*
X58568Y36049D01*
X58568Y36050D01*
X58567Y36051D01*
X58547Y36071D01*
X58544Y36073D01*
X58541Y36075D01*
X58540Y36076D01*
X58539Y36076D01*
X58536Y36077D01*
X58532Y36079D01*
X58531Y36079D01*
X58530Y36079D01*
X58529Y36079D01*
X58526Y36079D01*
X52629Y36079D01*
X52625Y36079D01*
X52621Y36078D01*
X52620Y36078D01*
X52619Y36078D01*
X52616Y36076D01*
X52612Y36074D01*
X52611Y36073D01*
X52610Y36073D01*
X52608Y36071D01*
X51979Y35442D01*
X51977Y35439D01*
X51975Y35436D01*
X51974Y35435D01*
X51974Y35434D01*
X51973Y35431D01*
X51971Y35427D01*
X51971Y35426D01*
X51971Y35425D01*
X51971Y35424D01*
X51971Y35421D01*
X51971Y35406D01*
X51899Y35233D01*
X51767Y35101D01*
X51594Y35029D01*
X51524Y35029D01*
X51520Y35029D01*
X51516Y35028D01*
X51515Y35028D01*
X51514Y35028D01*
X51511Y35026D01*
X51507Y35024D01*
X51506Y35023D01*
X51505Y35023D01*
X51503Y35021D01*
X51000Y34518D01*
X50919Y34484D01*
X45535Y34484D01*
X45533Y34484D01*
X45531Y34484D01*
X45528Y34483D01*
X45525Y34483D01*
X45523Y34482D01*
X45522Y34481D01*
X45519Y34479D01*
X45517Y34478D01*
X45515Y34477D01*
X45514Y34476D01*
X45512Y34473D01*
X45510Y34471D01*
X45509Y34469D01*
X45508Y34468D01*
X45508Y34465D01*
X45506Y34462D01*
X45506Y34460D01*
X45506Y34459D01*
X45506Y34456D01*
X45506Y34453D01*
X45506Y34451D01*
X45506Y34449D01*
X45508Y34444D01*
X45541Y34364D01*
X45541Y34276D01*
X45507Y34195D01*
X45445Y34133D01*
X45364Y34099D01*
X45314Y34099D01*
X45310Y34099D01*
X45306Y34098D01*
X45305Y34098D01*
X45304Y34098D01*
X45301Y34096D01*
X45297Y34094D01*
X45296Y34093D01*
X45295Y34093D01*
X45293Y34091D01*
X43796Y32593D01*
X43794Y32592D01*
X43793Y32590D01*
X43792Y32588D01*
X43790Y32586D01*
X43789Y32584D01*
X43789Y32582D01*
X43788Y32579D01*
X43787Y32577D01*
X43787Y32575D01*
X43787Y32573D01*
X43788Y32570D01*
X43788Y32567D01*
X43788Y32565D01*
X43789Y32563D01*
X43790Y32561D01*
X43791Y32558D01*
X43792Y32556D01*
X43793Y32555D01*
X43795Y32553D01*
X43797Y32551D01*
X43799Y32550D01*
X43800Y32548D01*
X43805Y32546D01*
X43850Y32527D01*
X43868Y32509D01*
X43871Y32507D01*
X43874Y32505D01*
X43875Y32504D01*
X43876Y32504D01*
X43879Y32503D01*
X43883Y32501D01*
X43884Y32501D01*
X43885Y32501D01*
X43886Y32501D01*
X43889Y32501D01*
X52886Y32501D01*
X52890Y32501D01*
X52894Y32502D01*
X52895Y32502D01*
X52896Y32502D01*
X52899Y32504D01*
X52903Y32506D01*
X52904Y32507D01*
X52905Y32507D01*
X52907Y32509D01*
X55746Y35348D01*
X55748Y35352D01*
X55751Y35356D01*
X55753Y35360D01*
X55754Y35365D01*
X55754Y35370D01*
X55754Y35374D01*
X55753Y35374D01*
X55753Y35375D01*
X55752Y35380D01*
X55743Y35400D01*
X55743Y35600D01*
X55820Y35784D01*
X55960Y35925D01*
X56144Y36001D01*
X56344Y36001D01*
X56528Y35925D01*
X56669Y35784D01*
X56745Y35600D01*
X56745Y35400D01*
X56669Y35216D01*
X56528Y35075D01*
X56344Y34999D01*
X56144Y34999D01*
X55955Y35078D01*
X55951Y35079D01*
X55946Y35080D01*
X55941Y35079D01*
X55937Y35079D01*
X55936Y35079D01*
X55932Y35077D01*
X55928Y35075D01*
X55924Y35071D01*
X53134Y32282D01*
X53032Y32179D01*
X43889Y32179D01*
X43885Y32179D01*
X43881Y32178D01*
X43880Y32178D01*
X43879Y32178D01*
X43876Y32176D01*
X43872Y32174D01*
X43871Y32173D01*
X43870Y32173D01*
X43868Y32171D01*
X43850Y32153D01*
X43769Y32119D01*
X43681Y32119D01*
X43600Y32153D01*
X43538Y32215D01*
X43519Y32260D01*
X43518Y32262D01*
X43517Y32263D01*
X43516Y32266D01*
X43514Y32268D01*
X43513Y32269D01*
X43511Y32271D01*
X43509Y32272D01*
X43507Y32274D01*
X43505Y32275D01*
X43503Y32276D01*
X43500Y32276D01*
X43498Y32277D01*
X43496Y32277D01*
X43494Y32278D01*
X43491Y32278D01*
X43488Y32278D01*
X43486Y32277D01*
X43484Y32277D01*
X43482Y32276D01*
X43479Y32275D01*
X43478Y32274D01*
X43476Y32273D01*
X43472Y32269D01*
X37141Y25938D01*
X37139Y25937D01*
X37138Y25935D01*
X37137Y25933D01*
X37135Y25931D01*
X37134Y25929D01*
X37134Y25927D01*
X37133Y25924D01*
X37132Y25922D01*
X37132Y25920D01*
X37132Y25918D01*
X37133Y25915D01*
X37133Y25912D01*
X37133Y25910D01*
X37134Y25908D01*
X37135Y25906D01*
X37136Y25903D01*
X37137Y25901D01*
X37138Y25900D01*
X37140Y25898D01*
X37142Y25896D01*
X37144Y25895D01*
X37145Y25893D01*
X37150Y25891D01*
X37195Y25872D01*
X37213Y25854D01*
X37216Y25852D01*
X37219Y25850D01*
X37220Y25849D01*
X37221Y25849D01*
X37224Y25848D01*
X37228Y25846D01*
X37229Y25846D01*
X37230Y25846D01*
X37231Y25846D01*
X37234Y25846D01*
X48907Y25846D01*
X49328Y25424D01*
X49331Y25422D01*
X49334Y25420D01*
X49335Y25419D01*
X49336Y25419D01*
X49340Y25418D01*
X49343Y25416D01*
X49344Y25416D01*
X49345Y25416D01*
X49346Y25416D01*
X49349Y25416D01*
X49672Y25416D01*
X49916Y25172D01*
X49916Y24828D01*
X49672Y24584D01*
X49328Y24584D01*
X49084Y24828D01*
X49084Y25172D01*
X49085Y25173D01*
X49086Y25174D01*
X49088Y25177D01*
X49090Y25180D01*
X49090Y25181D01*
X49091Y25182D01*
X49091Y25185D01*
X49092Y25189D01*
X49092Y25190D01*
X49093Y25191D01*
X49092Y25195D01*
X49092Y25199D01*
X49092Y25200D01*
X49092Y25201D01*
X49090Y25204D01*
X49089Y25208D01*
X49088Y25208D01*
X49088Y25209D01*
X49084Y25213D01*
X48782Y25516D01*
X48779Y25518D01*
X48776Y25520D01*
X48775Y25521D01*
X48774Y25521D01*
X48770Y25522D01*
X48767Y25524D01*
X48766Y25524D01*
X48765Y25524D01*
X48764Y25524D01*
X48761Y25524D01*
X37234Y25524D01*
X37230Y25524D01*
X37226Y25523D01*
X37225Y25523D01*
X37224Y25523D01*
X37221Y25521D01*
X37217Y25519D01*
X37216Y25518D01*
X37215Y25518D01*
X37213Y25516D01*
X37195Y25498D01*
X37114Y25464D01*
X37026Y25464D01*
X36945Y25498D01*
X36883Y25560D01*
X36864Y25605D01*
X36863Y25607D01*
X36862Y25608D01*
X36861Y25611D01*
X36859Y25613D01*
X36858Y25614D01*
X36856Y25616D01*
X36854Y25617D01*
X36852Y25619D01*
X36850Y25620D01*
X36848Y25621D01*
X36845Y25621D01*
X36843Y25622D01*
X36841Y25622D01*
X36839Y25623D01*
X36836Y25623D01*
X36833Y25623D01*
X36831Y25622D01*
X36829Y25622D01*
X36827Y25621D01*
X36824Y25620D01*
X36823Y25619D01*
X36821Y25618D01*
X36817Y25614D01*
X32258Y21056D01*
X32256Y21053D01*
X32254Y21051D01*
X32253Y21049D01*
X32252Y21048D01*
X32251Y21045D01*
X32250Y21042D01*
X32250Y21041D01*
X32250Y21039D01*
X32250Y21036D01*
X32249Y21033D01*
X32250Y21031D01*
X32250Y21029D01*
X32251Y21026D01*
X32252Y21024D01*
X32253Y21022D01*
X32253Y21020D01*
X32255Y21018D01*
X32257Y21016D01*
X32258Y21014D01*
X32259Y21013D01*
X32262Y21011D01*
X32264Y21010D01*
X32266Y21009D01*
X32268Y21008D01*
X32270Y21007D01*
X32273Y21006D01*
X32276Y21006D01*
X32277Y21006D01*
X32279Y21006D01*
X32596Y21006D01*
X32600Y21006D01*
X32604Y21007D01*
X32605Y21007D01*
X32606Y21007D01*
X32609Y21009D01*
X32613Y21011D01*
X32614Y21012D01*
X32615Y21012D01*
X32617Y21014D01*
X35853Y24251D01*
X40052Y24251D01*
X40453Y23849D01*
X40456Y23847D01*
X40459Y23845D01*
X40460Y23844D01*
X40461Y23844D01*
X40465Y23843D01*
X40468Y23841D01*
X40469Y23841D01*
X40470Y23841D01*
X40471Y23841D01*
X40474Y23841D01*
X40641Y23841D01*
X40841Y23641D01*
X40841Y23359D01*
X40641Y23159D01*
X40359Y23159D01*
X40159Y23359D01*
X40159Y23641D01*
X40162Y23644D01*
X40163Y23645D01*
X40164Y23646D01*
X40166Y23649D01*
X40168Y23652D01*
X40168Y23653D01*
X40169Y23654D01*
X40169Y23657D01*
X40171Y23661D01*
X40170Y23662D01*
X40171Y23663D01*
X40170Y23667D01*
X40170Y23671D01*
X40170Y23672D01*
X40170Y23673D01*
X40168Y23676D01*
X40167Y23680D01*
X40166Y23680D01*
X40166Y23681D01*
X40162Y23685D01*
X39927Y23921D01*
X39924Y23923D01*
X39921Y23925D01*
X39920Y23926D01*
X39919Y23926D01*
X39915Y23927D01*
X39912Y23929D01*
X39911Y23929D01*
X39910Y23929D01*
X39909Y23929D01*
X39906Y23929D01*
X35999Y23929D01*
X35995Y23929D01*
X35991Y23928D01*
X35990Y23928D01*
X35989Y23928D01*
X35986Y23926D01*
X35982Y23924D01*
X35981Y23923D01*
X35980Y23923D01*
X35978Y23921D01*
X32844Y20787D01*
X32742Y20684D01*
X30634Y20684D01*
X30630Y20684D01*
X30626Y20683D01*
X30625Y20683D01*
X30624Y20683D01*
X30621Y20681D01*
X30617Y20679D01*
X30616Y20678D01*
X30615Y20678D01*
X30613Y20676D01*
X30595Y20658D01*
X30550Y20639D01*
X30548Y20638D01*
X30547Y20637D01*
X30544Y20636D01*
X30542Y20634D01*
X30541Y20633D01*
X30539Y20631D01*
X30538Y20629D01*
X30536Y20627D01*
X30535Y20625D01*
X30534Y20623D01*
X30534Y20620D01*
X30533Y20618D01*
X30533Y20616D01*
X30532Y20614D01*
X30532Y20611D01*
X30532Y20608D01*
X30533Y20606D01*
X30533Y20604D01*
X30534Y20602D01*
X30535Y20599D01*
X30536Y20598D01*
X30537Y20596D01*
X30541Y20592D01*
X34177Y16955D01*
X34211Y16874D01*
X34211Y16714D01*
X34211Y16710D01*
X34212Y16706D01*
X34212Y16705D01*
X34212Y16704D01*
X34214Y16701D01*
X34216Y16697D01*
X34217Y16696D01*
X34217Y16695D01*
X34219Y16693D01*
X34347Y16565D01*
X34351Y16562D01*
X34355Y16559D01*
X34360Y16558D01*
X34364Y16557D01*
X34369Y16557D01*
X34374Y16557D01*
X34379Y16559D01*
X34432Y16581D01*
X34568Y16581D01*
X34693Y16529D01*
X34789Y16433D01*
X34841Y16308D01*
X34841Y15692D01*
X34789Y15567D01*
X34693Y15471D01*
X34568Y15419D01*
X34432Y15419D01*
X34307Y15471D01*
X34211Y15567D01*
X34159Y15692D01*
X34159Y16116D01*
X34159Y16120D01*
X34158Y16124D01*
X34158Y16125D01*
X34158Y16126D01*
X34156Y16129D01*
X34154Y16133D01*
X34153Y16134D01*
X34153Y16135D01*
X34151Y16137D01*
X33869Y16419D01*
X33846Y16442D01*
X33843Y16444D01*
X33840Y16446D01*
X33839Y16447D01*
X33838Y16447D01*
X33835Y16448D01*
X33831Y16450D01*
X33830Y16450D01*
X33829Y16450D01*
X33825Y16450D01*
X33822Y16450D01*
X33821Y16450D01*
X33820Y16450D01*
X33816Y16448D01*
X33812Y16447D01*
X33812Y16446D01*
X33811Y16446D01*
X33808Y16444D01*
X33805Y16441D01*
X33804Y16441D01*
X33803Y16440D01*
X33801Y16437D01*
X33799Y16434D01*
X33799Y16433D01*
X33798Y16432D01*
X33798Y16428D01*
X33797Y16424D01*
X33797Y16423D01*
X33796Y16423D01*
X33797Y16419D01*
X33797Y16415D01*
X33797Y16414D01*
X33797Y16413D01*
X33798Y16412D01*
X33799Y16410D01*
X33841Y16308D01*
X33841Y15692D01*
X33789Y15567D01*
X33693Y15471D01*
X33568Y15419D01*
X33432Y15419D01*
X33307Y15471D01*
X33211Y15567D01*
X33159Y15692D01*
X33159Y16308D01*
X33211Y16433D01*
X33307Y16529D01*
X33432Y16581D01*
X33568Y16581D01*
X33693Y16529D01*
X33745Y16476D01*
X33749Y16474D01*
X33752Y16472D01*
X33752Y16471D01*
X33753Y16471D01*
X33757Y16470D01*
X33761Y16468D01*
X33762Y16468D01*
X33766Y16468D01*
X33770Y16468D01*
X33771Y16468D01*
X33772Y16468D01*
X33776Y16470D01*
X33779Y16471D01*
X33780Y16471D01*
X33781Y16472D01*
X33784Y16474D01*
X33787Y16477D01*
X33788Y16477D01*
X33788Y16478D01*
X33790Y16481D01*
X33793Y16484D01*
X33793Y16485D01*
X33793Y16486D01*
X33794Y16490D01*
X33795Y16494D01*
X33795Y16495D01*
X33795Y16499D01*
X33795Y16503D01*
X33794Y16504D01*
X33794Y16505D01*
X33794Y16506D01*
X33793Y16508D01*
X33769Y16566D01*
X33769Y16726D01*
X33769Y16729D01*
X33769Y16730D01*
X33768Y16734D01*
X33768Y16735D01*
X33768Y16736D01*
X33767Y16738D01*
X33766Y16740D01*
X33764Y16743D01*
X33763Y16744D01*
X33763Y16745D01*
X33762Y16746D01*
X33761Y16746D01*
X33761Y16747D01*
X27936Y22572D01*
X27933Y22574D01*
X27931Y22576D01*
X27929Y22577D01*
X27928Y22578D01*
X27925Y22579D01*
X27922Y22580D01*
X27921Y22580D01*
X27919Y22580D01*
X27916Y22580D01*
X27913Y22581D01*
X27911Y22580D01*
X27909Y22580D01*
X27906Y22579D01*
X27904Y22578D01*
X27902Y22577D01*
X27900Y22577D01*
X27898Y22575D01*
X27896Y22573D01*
X27894Y22572D01*
X27893Y22571D01*
X27891Y22568D01*
X27890Y22566D01*
X27889Y22564D01*
X27888Y22562D01*
X27887Y22560D01*
X27886Y22557D01*
X27886Y22554D01*
X27886Y22553D01*
X27886Y22551D01*
X27886Y17264D01*
X27886Y17260D01*
X27887Y17256D01*
X27887Y17255D01*
X27887Y17254D01*
X27889Y17251D01*
X27891Y17247D01*
X27892Y17246D01*
X27892Y17245D01*
X27894Y17243D01*
X28548Y16589D01*
X28551Y16587D01*
X28554Y16585D01*
X28555Y16584D01*
X28556Y16584D01*
X28559Y16583D01*
X28563Y16581D01*
X28564Y16581D01*
X28565Y16581D01*
X28566Y16581D01*
X28568Y16581D01*
X28693Y16529D01*
X28789Y16433D01*
X28841Y16308D01*
X28841Y15692D01*
X28789Y15567D01*
X28693Y15471D01*
X28568Y15419D01*
X28432Y15419D01*
G37*
%LPD*%
%LPC*%
G36*
X24558Y2999D02*
X24558Y2999D01*
X24499Y3058D01*
X24499Y3942D01*
X24532Y3974D01*
X24534Y3977D01*
X24536Y3979D01*
X24536Y3981D01*
X24537Y3982D01*
X24538Y3985D01*
X24539Y3988D01*
X24540Y3989D01*
X24540Y3991D01*
X24540Y3994D01*
X24540Y3997D01*
X24540Y3999D01*
X24540Y4001D01*
X24539Y4004D01*
X24538Y4006D01*
X24537Y4008D01*
X24536Y4010D01*
X24535Y4012D01*
X24533Y4014D01*
X24532Y4016D01*
X24530Y4017D01*
X24528Y4019D01*
X24526Y4020D01*
X24524Y4021D01*
X24522Y4022D01*
X24519Y4023D01*
X24517Y4024D01*
X24514Y4024D01*
X24513Y4024D01*
X24512Y4024D01*
X24511Y4024D01*
X22081Y4024D01*
X22077Y4023D01*
X22072Y4023D01*
X22068Y4020D01*
X22064Y4018D01*
X22063Y4018D01*
X22060Y4014D01*
X22057Y4011D01*
X22055Y4007D01*
X22053Y4002D01*
X22053Y3997D01*
X22052Y3993D01*
X22052Y3992D01*
X22053Y3988D01*
X22054Y3984D01*
X22055Y3983D01*
X22057Y3979D01*
X22060Y3976D01*
X22060Y3975D01*
X22064Y3972D01*
X22067Y3970D01*
X22067Y3969D01*
X22072Y3967D01*
X22082Y3964D01*
X22152Y3928D01*
X22216Y3882D01*
X22272Y3826D01*
X22318Y3762D01*
X22354Y3692D01*
X22378Y3617D01*
X22387Y3559D01*
X21920Y3559D01*
X21919Y3559D01*
X21918Y3559D01*
X21914Y3558D01*
X21910Y3558D01*
X21909Y3557D01*
X21908Y3557D01*
X21905Y3555D01*
X21902Y3553D01*
X21901Y3552D01*
X21900Y3552D01*
X21898Y3549D01*
X21895Y3546D01*
X21895Y3545D01*
X21894Y3544D01*
X21893Y3541D01*
X21891Y3537D01*
X21891Y3536D01*
X21891Y3535D01*
X21891Y3530D01*
X21891Y3499D01*
X21889Y3499D01*
X21889Y3530D01*
X21889Y3531D01*
X21889Y3532D01*
X21888Y3536D01*
X21887Y3539D01*
X21887Y3540D01*
X21887Y3541D01*
X21885Y3545D01*
X21883Y3548D01*
X21882Y3549D01*
X21879Y3552D01*
X21876Y3554D01*
X21875Y3555D01*
X21874Y3555D01*
X21871Y3557D01*
X21867Y3558D01*
X21866Y3558D01*
X21865Y3559D01*
X21860Y3559D01*
X21392Y3559D01*
X21401Y3617D01*
X21426Y3692D01*
X21461Y3762D01*
X21508Y3826D01*
X21564Y3882D01*
X21627Y3928D01*
X21698Y3964D01*
X21707Y3967D01*
X21708Y3967D01*
X21712Y3969D01*
X21716Y3972D01*
X21719Y3975D01*
X21722Y3978D01*
X21722Y3979D01*
X21724Y3983D01*
X21726Y3987D01*
X21726Y3988D01*
X21727Y3992D01*
X21727Y3997D01*
X21726Y4002D01*
X21725Y4006D01*
X21723Y4010D01*
X21720Y4014D01*
X21716Y4017D01*
X21713Y4020D01*
X21712Y4020D01*
X21708Y4022D01*
X21704Y4024D01*
X21703Y4024D01*
X21698Y4024D01*
X21653Y4024D01*
X21551Y4127D01*
X15646Y10031D01*
X15646Y10032D01*
X15642Y10034D01*
X15638Y10037D01*
X15634Y10038D01*
X15629Y10040D01*
X15624Y10040D01*
X15620Y10039D01*
X15619Y10039D01*
X15614Y10038D01*
X15594Y10029D01*
X15406Y10029D01*
X15233Y10101D01*
X15101Y10233D01*
X15029Y10406D01*
X15029Y10594D01*
X15101Y10767D01*
X15233Y10899D01*
X15406Y10971D01*
X15594Y10971D01*
X15767Y10899D01*
X15899Y10767D01*
X15971Y10594D01*
X15971Y10406D01*
X15907Y10251D01*
X15906Y10251D01*
X15905Y10247D01*
X15904Y10242D01*
X15905Y10237D01*
X15905Y10232D01*
X15907Y10228D01*
X15909Y10224D01*
X15913Y10219D01*
X21778Y4354D01*
X21781Y4352D01*
X21784Y4350D01*
X21785Y4349D01*
X21786Y4349D01*
X21790Y4348D01*
X21793Y4346D01*
X21794Y4346D01*
X21795Y4346D01*
X21796Y4346D01*
X21799Y4346D01*
X22496Y4346D01*
X22499Y4346D01*
X22502Y4346D01*
X22504Y4347D01*
X22506Y4347D01*
X22508Y4349D01*
X22511Y4350D01*
X22513Y4351D01*
X22514Y4352D01*
X22516Y4354D01*
X22519Y4356D01*
X22520Y4357D01*
X22521Y4359D01*
X22522Y4362D01*
X22524Y4364D01*
X22524Y4366D01*
X22525Y4368D01*
X22525Y4370D01*
X22526Y4373D01*
X22525Y4375D01*
X22526Y4377D01*
X22525Y4380D01*
X22525Y4383D01*
X22524Y4385D01*
X22523Y4386D01*
X22522Y4389D01*
X22521Y4392D01*
X22519Y4394D01*
X22518Y4394D01*
X22518Y4395D01*
X22517Y4396D01*
X22514Y4398D01*
X22511Y4400D01*
X22510Y4401D01*
X22509Y4401D01*
X22506Y4402D01*
X22502Y4404D01*
X22501Y4404D01*
X22500Y4404D01*
X22499Y4404D01*
X22496Y4404D01*
X22263Y4404D01*
X22161Y4507D01*
X16639Y10029D01*
X16635Y10031D01*
X16631Y10034D01*
X16627Y10036D01*
X16622Y10037D01*
X16617Y10037D01*
X16613Y10037D01*
X16613Y10036D01*
X16612Y10036D01*
X16607Y10035D01*
X16594Y10029D01*
X16406Y10029D01*
X16233Y10101D01*
X16101Y10233D01*
X16029Y10406D01*
X16029Y10594D01*
X16101Y10767D01*
X16233Y10899D01*
X16406Y10971D01*
X16594Y10971D01*
X16767Y10899D01*
X16899Y10767D01*
X16971Y10594D01*
X16971Y10406D01*
X16904Y10244D01*
X16903Y10242D01*
X16902Y10241D01*
X16902Y10238D01*
X16901Y10235D01*
X16902Y10232D01*
X16902Y10231D01*
X16902Y10229D01*
X16902Y10225D01*
X16904Y10223D01*
X16904Y10222D01*
X16904Y10221D01*
X16906Y10217D01*
X16910Y10212D01*
X22388Y4734D01*
X22391Y4732D01*
X22394Y4730D01*
X22395Y4729D01*
X22396Y4729D01*
X22400Y4728D01*
X22403Y4726D01*
X22404Y4726D01*
X22405Y4726D01*
X22406Y4726D01*
X22409Y4726D01*
X22496Y4726D01*
X22500Y4726D01*
X22504Y4727D01*
X22505Y4727D01*
X22506Y4727D01*
X22509Y4729D01*
X22513Y4731D01*
X22514Y4732D01*
X22515Y4732D01*
X22517Y4734D01*
X22535Y4752D01*
X22616Y4786D01*
X22704Y4786D01*
X22785Y4752D01*
X22847Y4690D01*
X22881Y4609D01*
X22881Y4521D01*
X22847Y4440D01*
X22803Y4396D01*
X22801Y4393D01*
X22799Y4391D01*
X22798Y4389D01*
X22797Y4388D01*
X22796Y4385D01*
X22795Y4382D01*
X22795Y4381D01*
X22795Y4379D01*
X22795Y4376D01*
X22794Y4373D01*
X22795Y4371D01*
X22795Y4369D01*
X22796Y4366D01*
X22797Y4364D01*
X22798Y4362D01*
X22798Y4360D01*
X22800Y4358D01*
X22802Y4356D01*
X22803Y4354D01*
X22804Y4353D01*
X22807Y4351D01*
X22809Y4350D01*
X22811Y4349D01*
X22813Y4348D01*
X22815Y4347D01*
X22818Y4346D01*
X22821Y4346D01*
X22822Y4346D01*
X22824Y4346D01*
X23351Y4346D01*
X23354Y4346D01*
X23357Y4346D01*
X23359Y4347D01*
X23361Y4347D01*
X23363Y4349D01*
X23366Y4350D01*
X23368Y4351D01*
X23369Y4352D01*
X23371Y4354D01*
X23373Y4356D01*
X23374Y4357D01*
X23376Y4359D01*
X23377Y4362D01*
X23378Y4364D01*
X23379Y4366D01*
X23380Y4368D01*
X23380Y4370D01*
X23381Y4373D01*
X23380Y4375D01*
X23380Y4377D01*
X23380Y4380D01*
X23379Y4383D01*
X23379Y4385D01*
X23378Y4386D01*
X23377Y4389D01*
X23375Y4392D01*
X23374Y4394D01*
X23373Y4394D01*
X23373Y4395D01*
X23372Y4396D01*
X23371Y4397D01*
X17927Y9841D01*
X17924Y9843D01*
X17921Y9845D01*
X17920Y9846D01*
X17919Y9846D01*
X17915Y9847D01*
X17912Y9849D01*
X17911Y9849D01*
X17910Y9849D01*
X17909Y9849D01*
X17906Y9849D01*
X17808Y9849D01*
X17706Y9952D01*
X17632Y10026D01*
X17628Y10028D01*
X17624Y10031D01*
X17620Y10033D01*
X17615Y10034D01*
X17610Y10034D01*
X17606Y10034D01*
X17605Y10034D01*
X17600Y10032D01*
X17594Y10029D01*
X17406Y10029D01*
X17233Y10101D01*
X17101Y10233D01*
X17029Y10406D01*
X17029Y10594D01*
X17101Y10767D01*
X17233Y10899D01*
X17406Y10971D01*
X17594Y10971D01*
X17767Y10899D01*
X17899Y10767D01*
X17971Y10594D01*
X17971Y10406D01*
X17901Y10237D01*
X17900Y10232D01*
X17899Y10228D01*
X17898Y10228D01*
X17899Y10223D01*
X17899Y10218D01*
X17900Y10218D01*
X17902Y10214D01*
X17903Y10210D01*
X17904Y10210D01*
X17904Y10209D01*
X17907Y10205D01*
X17933Y10179D01*
X17936Y10177D01*
X17939Y10175D01*
X17940Y10174D01*
X17941Y10174D01*
X17945Y10173D01*
X17948Y10171D01*
X17949Y10171D01*
X17950Y10171D01*
X17951Y10171D01*
X17954Y10171D01*
X18052Y10171D01*
X23598Y4624D01*
X23601Y4622D01*
X23604Y4620D01*
X23605Y4619D01*
X23606Y4619D01*
X23610Y4618D01*
X23613Y4616D01*
X23614Y4616D01*
X23615Y4616D01*
X23616Y4616D01*
X23619Y4616D01*
X31441Y4616D01*
X31444Y4616D01*
X31447Y4616D01*
X31449Y4617D01*
X31451Y4617D01*
X31453Y4619D01*
X31456Y4620D01*
X31458Y4621D01*
X31459Y4622D01*
X31461Y4624D01*
X31463Y4626D01*
X31464Y4627D01*
X31466Y4629D01*
X31467Y4632D01*
X31468Y4634D01*
X31469Y4636D01*
X31470Y4638D01*
X31470Y4640D01*
X31471Y4643D01*
X31470Y4645D01*
X31470Y4647D01*
X31470Y4650D01*
X31469Y4653D01*
X31469Y4655D01*
X31468Y4656D01*
X31467Y4659D01*
X31465Y4662D01*
X31464Y4664D01*
X31463Y4664D01*
X31463Y4665D01*
X31462Y4666D01*
X25236Y10892D01*
X25233Y10894D01*
X25231Y10896D01*
X25229Y10896D01*
X25228Y10898D01*
X25225Y10898D01*
X25222Y10900D01*
X25221Y10900D01*
X25219Y10900D01*
X25216Y10900D01*
X25213Y10900D01*
X25211Y10900D01*
X25209Y10900D01*
X25206Y10899D01*
X25204Y10898D01*
X25202Y10897D01*
X25200Y10897D01*
X25198Y10895D01*
X25196Y10893D01*
X25194Y10892D01*
X25193Y10890D01*
X25191Y10888D01*
X25190Y10886D01*
X25189Y10884D01*
X25188Y10882D01*
X25187Y10879D01*
X25186Y10877D01*
X25186Y10874D01*
X25186Y10873D01*
X25186Y10872D01*
X25186Y10871D01*
X25186Y8194D01*
X25186Y8190D01*
X25187Y8186D01*
X25187Y8185D01*
X25187Y8184D01*
X25189Y8181D01*
X25191Y8177D01*
X25192Y8176D01*
X25192Y8175D01*
X25194Y8173D01*
X25212Y8155D01*
X25246Y8074D01*
X25246Y7986D01*
X25212Y7905D01*
X25150Y7843D01*
X25069Y7809D01*
X24981Y7809D01*
X24900Y7843D01*
X24838Y7905D01*
X24804Y7986D01*
X24804Y8074D01*
X24838Y8155D01*
X24856Y8173D01*
X24858Y8176D01*
X24860Y8179D01*
X24861Y8180D01*
X24861Y8181D01*
X24862Y8184D01*
X24864Y8188D01*
X24864Y8189D01*
X24864Y8190D01*
X24864Y8191D01*
X24864Y8194D01*
X24864Y10457D01*
X24864Y10459D01*
X24864Y10461D01*
X24863Y10464D01*
X24863Y10467D01*
X24862Y10469D01*
X24861Y10470D01*
X24859Y10473D01*
X24858Y10475D01*
X24857Y10477D01*
X24856Y10478D01*
X24853Y10480D01*
X24851Y10482D01*
X24849Y10483D01*
X24848Y10484D01*
X24845Y10485D01*
X24842Y10486D01*
X24840Y10486D01*
X24839Y10486D01*
X24836Y10486D01*
X24833Y10487D01*
X24831Y10486D01*
X24829Y10486D01*
X24824Y10484D01*
X24739Y10449D01*
X24651Y10449D01*
X24570Y10483D01*
X24508Y10545D01*
X24474Y10626D01*
X24474Y10651D01*
X24474Y10655D01*
X24473Y10659D01*
X24473Y10660D01*
X24473Y10661D01*
X24471Y10664D01*
X24469Y10668D01*
X24468Y10669D01*
X24468Y10670D01*
X24466Y10672D01*
X6117Y29021D01*
X6114Y29023D01*
X6111Y29025D01*
X6110Y29026D01*
X6109Y29026D01*
X6105Y29027D01*
X6102Y29029D01*
X6101Y29029D01*
X6100Y29029D01*
X6099Y29029D01*
X6096Y29029D01*
X5906Y29029D01*
X5733Y29101D01*
X5601Y29233D01*
X5529Y29406D01*
X5529Y29594D01*
X5601Y29767D01*
X5733Y29899D01*
X5906Y29971D01*
X6094Y29971D01*
X6267Y29899D01*
X6399Y29767D01*
X6471Y29594D01*
X6471Y29406D01*
X6399Y29233D01*
X6398Y29232D01*
X6396Y29229D01*
X6394Y29226D01*
X6394Y29225D01*
X6393Y29224D01*
X6392Y29221D01*
X6391Y29217D01*
X6391Y29216D01*
X6391Y29215D01*
X6392Y29211D01*
X6392Y29207D01*
X6392Y29206D01*
X6392Y29205D01*
X6394Y29202D01*
X6395Y29199D01*
X6396Y29198D01*
X6396Y29197D01*
X6400Y29193D01*
X9519Y26073D01*
X9522Y26071D01*
X9524Y26069D01*
X9526Y26069D01*
X9527Y26067D01*
X9530Y26067D01*
X9533Y26065D01*
X9534Y26065D01*
X9536Y26065D01*
X9539Y26065D01*
X9542Y26065D01*
X9544Y26065D01*
X9546Y26065D01*
X9549Y26066D01*
X9551Y26067D01*
X9553Y26068D01*
X9555Y26068D01*
X9557Y26070D01*
X9559Y26072D01*
X9561Y26073D01*
X9562Y26075D01*
X9564Y26077D01*
X9565Y26079D01*
X9566Y26081D01*
X9567Y26083D01*
X9568Y26086D01*
X9569Y26088D01*
X9569Y26091D01*
X9569Y26092D01*
X9569Y26093D01*
X9569Y26094D01*
X9569Y26169D01*
X9603Y26250D01*
X9665Y26312D01*
X9731Y26339D01*
X9733Y26341D01*
X9735Y26341D01*
X9737Y26343D01*
X9739Y26345D01*
X9740Y26346D01*
X9742Y26347D01*
X9743Y26350D01*
X9745Y26352D01*
X9746Y26354D01*
X9747Y26356D01*
X9748Y26358D01*
X9748Y26361D01*
X9749Y26363D01*
X9749Y26365D01*
X9749Y26368D01*
X9749Y26370D01*
X9748Y26372D01*
X9748Y26374D01*
X9747Y26377D01*
X9746Y26380D01*
X9745Y26381D01*
X9744Y26383D01*
X9740Y26387D01*
X7107Y29021D01*
X7104Y29023D01*
X7101Y29025D01*
X7100Y29026D01*
X7099Y29026D01*
X7095Y29027D01*
X7092Y29029D01*
X7091Y29029D01*
X7090Y29029D01*
X7089Y29029D01*
X7086Y29029D01*
X6906Y29029D01*
X6733Y29101D01*
X6601Y29233D01*
X6529Y29406D01*
X6529Y29594D01*
X6601Y29767D01*
X6733Y29899D01*
X6906Y29971D01*
X7094Y29971D01*
X7267Y29899D01*
X7399Y29767D01*
X7471Y29594D01*
X7471Y29406D01*
X7399Y29233D01*
X7395Y29229D01*
X7394Y29228D01*
X7393Y29227D01*
X7391Y29224D01*
X7389Y29221D01*
X7389Y29220D01*
X7388Y29219D01*
X7387Y29216D01*
X7386Y29212D01*
X7386Y29211D01*
X7386Y29210D01*
X7387Y29206D01*
X7387Y29202D01*
X7387Y29201D01*
X7387Y29200D01*
X7389Y29197D01*
X7390Y29194D01*
X7391Y29193D01*
X7391Y29192D01*
X7395Y29188D01*
X30914Y5668D01*
X30917Y5666D01*
X30919Y5664D01*
X30921Y5664D01*
X30922Y5662D01*
X30925Y5662D01*
X30928Y5660D01*
X30929Y5660D01*
X30931Y5660D01*
X30934Y5660D01*
X30937Y5660D01*
X30939Y5660D01*
X30941Y5660D01*
X30944Y5661D01*
X30946Y5662D01*
X30948Y5663D01*
X30950Y5663D01*
X30952Y5665D01*
X30954Y5667D01*
X30956Y5668D01*
X30957Y5670D01*
X30959Y5672D01*
X30960Y5674D01*
X30961Y5676D01*
X30962Y5678D01*
X30963Y5681D01*
X30964Y5683D01*
X30964Y5686D01*
X30964Y5687D01*
X30964Y5688D01*
X30964Y5689D01*
X30964Y5709D01*
X30998Y5790D01*
X31060Y5852D01*
X31141Y5886D01*
X31166Y5886D01*
X31170Y5886D01*
X31174Y5887D01*
X31175Y5887D01*
X31176Y5887D01*
X31179Y5889D01*
X31183Y5891D01*
X31184Y5892D01*
X31185Y5892D01*
X31187Y5894D01*
X32062Y6769D01*
X32064Y6772D01*
X32066Y6774D01*
X32066Y6776D01*
X32068Y6777D01*
X32068Y6780D01*
X32070Y6783D01*
X32070Y6784D01*
X32070Y6786D01*
X32070Y6789D01*
X32070Y6792D01*
X32070Y6794D01*
X32070Y6796D01*
X32069Y6799D01*
X32068Y6801D01*
X32067Y6803D01*
X32067Y6805D01*
X32065Y6807D01*
X32063Y6809D01*
X32062Y6811D01*
X32060Y6812D01*
X32058Y6814D01*
X32056Y6815D01*
X32054Y6816D01*
X32052Y6817D01*
X32049Y6818D01*
X32047Y6819D01*
X32044Y6819D01*
X32043Y6819D01*
X32042Y6819D01*
X32041Y6819D01*
X32021Y6819D01*
X31940Y6853D01*
X31922Y6871D01*
X31919Y6873D01*
X31916Y6875D01*
X31915Y6876D01*
X31914Y6876D01*
X31911Y6877D01*
X31907Y6879D01*
X31906Y6879D01*
X31905Y6879D01*
X31904Y6879D01*
X31901Y6879D01*
X30238Y6879D01*
X30136Y6982D01*
X8097Y29021D01*
X8094Y29023D01*
X8091Y29025D01*
X8090Y29026D01*
X8089Y29026D01*
X8085Y29027D01*
X8082Y29029D01*
X8081Y29029D01*
X8080Y29029D01*
X8079Y29029D01*
X8076Y29029D01*
X7906Y29029D01*
X7733Y29101D01*
X7601Y29233D01*
X7529Y29406D01*
X7529Y29594D01*
X7601Y29767D01*
X7733Y29899D01*
X7906Y29971D01*
X8094Y29971D01*
X8267Y29899D01*
X8399Y29767D01*
X8471Y29594D01*
X8471Y29406D01*
X8399Y29233D01*
X8390Y29224D01*
X8389Y29223D01*
X8388Y29222D01*
X8386Y29219D01*
X8384Y29216D01*
X8384Y29215D01*
X8383Y29214D01*
X8382Y29211D01*
X8381Y29207D01*
X8381Y29206D01*
X8381Y29205D01*
X8382Y29201D01*
X8382Y29197D01*
X8382Y29196D01*
X8382Y29195D01*
X8384Y29192D01*
X8385Y29189D01*
X8386Y29188D01*
X8386Y29187D01*
X8390Y29183D01*
X30363Y7209D01*
X30366Y7207D01*
X30369Y7205D01*
X30370Y7204D01*
X30371Y7204D01*
X30375Y7203D01*
X30378Y7201D01*
X30379Y7201D01*
X30380Y7201D01*
X30381Y7201D01*
X30384Y7201D01*
X30946Y7201D01*
X30949Y7201D01*
X30952Y7201D01*
X30954Y7202D01*
X30956Y7202D01*
X30958Y7204D01*
X30961Y7205D01*
X30963Y7206D01*
X30964Y7207D01*
X30966Y7209D01*
X30968Y7211D01*
X30969Y7212D01*
X30971Y7214D01*
X30972Y7217D01*
X30973Y7219D01*
X30974Y7221D01*
X30975Y7223D01*
X30975Y7225D01*
X30976Y7228D01*
X30975Y7230D01*
X30975Y7232D01*
X30975Y7235D01*
X30974Y7238D01*
X30974Y7240D01*
X30973Y7241D01*
X30972Y7244D01*
X30970Y7247D01*
X30969Y7249D01*
X30968Y7249D01*
X30968Y7250D01*
X30967Y7251D01*
X30906Y7312D01*
X25744Y12473D01*
X25744Y13396D01*
X25744Y13400D01*
X25743Y13404D01*
X25743Y13405D01*
X25743Y13406D01*
X25741Y13409D01*
X25739Y13413D01*
X25738Y13414D01*
X25738Y13415D01*
X25736Y13417D01*
X10129Y29024D01*
X10128Y29024D01*
X10125Y29027D01*
X10121Y29030D01*
X10116Y29031D01*
X10112Y29032D01*
X10111Y29032D01*
X10111Y29033D01*
X10107Y29032D01*
X10102Y29032D01*
X10097Y29030D01*
X10094Y29029D01*
X9906Y29029D01*
X9733Y29101D01*
X9601Y29233D01*
X9529Y29406D01*
X9529Y29594D01*
X9601Y29767D01*
X9733Y29899D01*
X9906Y29971D01*
X10094Y29971D01*
X10267Y29899D01*
X10399Y29767D01*
X10471Y29594D01*
X10471Y29406D01*
X10399Y29234D01*
X10399Y29233D01*
X10398Y29229D01*
X10397Y29224D01*
X10398Y29220D01*
X10398Y29215D01*
X10400Y29210D01*
X10402Y29206D01*
X10406Y29202D01*
X25880Y13727D01*
X25883Y13725D01*
X25886Y13722D01*
X25887Y13722D01*
X25888Y13722D01*
X25892Y13720D01*
X25895Y13719D01*
X25896Y13719D01*
X25897Y13719D01*
X25901Y13719D01*
X25905Y13719D01*
X25906Y13719D01*
X25907Y13719D01*
X25910Y13721D01*
X25914Y13722D01*
X25915Y13722D01*
X25916Y13723D01*
X25919Y13725D01*
X25922Y13727D01*
X25922Y13728D01*
X25923Y13729D01*
X25925Y13732D01*
X25927Y13735D01*
X25927Y13736D01*
X25928Y13737D01*
X25929Y13741D01*
X25930Y13744D01*
X25930Y13745D01*
X25930Y13746D01*
X25930Y13750D01*
X25929Y13754D01*
X25929Y13755D01*
X25929Y13756D01*
X25928Y13759D01*
X25904Y13816D01*
X25904Y13841D01*
X25904Y13845D01*
X25903Y13849D01*
X25903Y13850D01*
X25903Y13851D01*
X25901Y13854D01*
X25899Y13858D01*
X25898Y13859D01*
X25898Y13860D01*
X25896Y13862D01*
X14799Y24958D01*
X14799Y25331D01*
X14799Y25335D01*
X14798Y25339D01*
X14798Y25340D01*
X14798Y25341D01*
X14796Y25344D01*
X14794Y25348D01*
X14793Y25349D01*
X14793Y25350D01*
X14791Y25352D01*
X11121Y29021D01*
X11117Y29024D01*
X11114Y29027D01*
X11113Y29027D01*
X11109Y29028D01*
X11105Y29030D01*
X11104Y29030D01*
X11100Y29029D01*
X11096Y29029D01*
X10906Y29029D01*
X10733Y29101D01*
X10601Y29233D01*
X10529Y29406D01*
X10529Y29594D01*
X10601Y29767D01*
X10733Y29899D01*
X10906Y29971D01*
X11094Y29971D01*
X11267Y29899D01*
X11399Y29767D01*
X11471Y29594D01*
X11471Y29406D01*
X11398Y29230D01*
X11397Y29229D01*
X11396Y29228D01*
X11396Y29227D01*
X11395Y29224D01*
X11395Y29223D01*
X11394Y29220D01*
X11394Y29218D01*
X11394Y29217D01*
X11394Y29214D01*
X11394Y29210D01*
X11395Y29209D01*
X11395Y29208D01*
X11396Y29205D01*
X11398Y29201D01*
X11398Y29200D01*
X11399Y29199D01*
X11402Y29195D01*
X11499Y29098D01*
X11502Y29096D01*
X11504Y29094D01*
X11506Y29094D01*
X11507Y29092D01*
X11510Y29092D01*
X11513Y29090D01*
X11514Y29090D01*
X11516Y29090D01*
X11519Y29090D01*
X11522Y29090D01*
X11524Y29090D01*
X11526Y29090D01*
X11529Y29091D01*
X11531Y29092D01*
X11533Y29093D01*
X11535Y29093D01*
X11537Y29095D01*
X11539Y29097D01*
X11541Y29098D01*
X11542Y29100D01*
X11544Y29102D01*
X11545Y29104D01*
X11546Y29106D01*
X11547Y29108D01*
X11548Y29111D01*
X11549Y29113D01*
X11549Y29116D01*
X11549Y29117D01*
X11549Y29118D01*
X11549Y29119D01*
X11549Y30476D01*
X11549Y30480D01*
X11548Y30484D01*
X11548Y30485D01*
X11548Y30486D01*
X11546Y30489D01*
X11544Y30493D01*
X11543Y30494D01*
X11543Y30495D01*
X11541Y30497D01*
X7017Y35021D01*
X7014Y35023D01*
X7011Y35025D01*
X7010Y35026D01*
X7009Y35026D01*
X7006Y35027D01*
X7002Y35029D01*
X7001Y35029D01*
X7000Y35029D01*
X6999Y35029D01*
X6996Y35029D01*
X6906Y35029D01*
X6733Y35101D01*
X6601Y35233D01*
X6529Y35406D01*
X6529Y35594D01*
X6601Y35767D01*
X6733Y35899D01*
X6906Y35971D01*
X7094Y35971D01*
X7267Y35899D01*
X7399Y35767D01*
X7471Y35594D01*
X7471Y35406D01*
X7415Y35272D01*
X7414Y35268D01*
X7413Y35263D01*
X7414Y35258D01*
X7414Y35254D01*
X7414Y35253D01*
X7416Y35249D01*
X7418Y35245D01*
X7422Y35241D01*
X11957Y30705D01*
X11991Y30624D01*
X11991Y29648D01*
X11991Y29644D01*
X11992Y29640D01*
X11992Y29639D01*
X11992Y29638D01*
X11994Y29635D01*
X11996Y29631D01*
X11997Y29630D01*
X12000Y29627D01*
X12002Y29624D01*
X12003Y29624D01*
X12004Y29623D01*
X12007Y29622D01*
X12011Y29620D01*
X12012Y29620D01*
X12013Y29619D01*
X12016Y29619D01*
X12020Y29618D01*
X12021Y29619D01*
X12022Y29619D01*
X12026Y29619D01*
X12030Y29620D01*
X12030Y29621D01*
X12031Y29621D01*
X12035Y29623D01*
X12038Y29625D01*
X12039Y29625D01*
X12039Y29626D01*
X12042Y29629D01*
X12045Y29632D01*
X12045Y29633D01*
X12046Y29634D01*
X12047Y29637D01*
X12101Y29767D01*
X12233Y29899D01*
X12406Y29971D01*
X12594Y29971D01*
X12767Y29899D01*
X12899Y29767D01*
X12971Y29594D01*
X12971Y29406D01*
X12899Y29233D01*
X12767Y29101D01*
X12594Y29029D01*
X12406Y29029D01*
X12233Y29101D01*
X12101Y29233D01*
X12047Y29363D01*
X12045Y29367D01*
X12043Y29370D01*
X12042Y29371D01*
X12042Y29372D01*
X12039Y29374D01*
X12036Y29377D01*
X12035Y29377D01*
X12035Y29378D01*
X12031Y29379D01*
X12027Y29381D01*
X12026Y29381D01*
X12022Y29381D01*
X12018Y29381D01*
X12017Y29381D01*
X12016Y29381D01*
X12012Y29380D01*
X12009Y29379D01*
X12008Y29379D01*
X12007Y29378D01*
X12004Y29376D01*
X12001Y29374D01*
X12000Y29373D01*
X11999Y29373D01*
X11997Y29370D01*
X11995Y29367D01*
X11994Y29366D01*
X11994Y29365D01*
X11993Y29361D01*
X11991Y29358D01*
X11991Y29356D01*
X11991Y29355D01*
X11991Y29352D01*
X11991Y29254D01*
X11991Y29250D01*
X11992Y29246D01*
X11992Y29245D01*
X11992Y29244D01*
X11994Y29241D01*
X11996Y29237D01*
X11997Y29236D01*
X11997Y29235D01*
X11999Y29233D01*
X25432Y15801D01*
X25433Y15799D01*
X25435Y15798D01*
X25437Y15797D01*
X25439Y15795D01*
X25441Y15794D01*
X25443Y15794D01*
X25446Y15793D01*
X25448Y15792D01*
X25450Y15792D01*
X25452Y15792D01*
X25455Y15793D01*
X25458Y15793D01*
X25460Y15793D01*
X25462Y15794D01*
X25464Y15795D01*
X25467Y15796D01*
X25469Y15797D01*
X25470Y15798D01*
X25472Y15800D01*
X25474Y15802D01*
X25475Y15804D01*
X25477Y15805D01*
X25479Y15810D01*
X25498Y15855D01*
X25516Y15873D01*
X25518Y15876D01*
X25520Y15879D01*
X25521Y15880D01*
X25521Y15881D01*
X25522Y15884D01*
X25524Y15888D01*
X25524Y15889D01*
X25524Y15890D01*
X25524Y15891D01*
X25524Y15894D01*
X25524Y20106D01*
X25524Y20110D01*
X25523Y20114D01*
X25523Y20115D01*
X25523Y20116D01*
X25521Y20119D01*
X25519Y20123D01*
X25518Y20124D01*
X25518Y20125D01*
X25516Y20127D01*
X16621Y29021D01*
X16617Y29024D01*
X16614Y29027D01*
X16613Y29027D01*
X16609Y29028D01*
X16605Y29030D01*
X16604Y29030D01*
X16600Y29029D01*
X16596Y29029D01*
X16406Y29029D01*
X16233Y29101D01*
X16101Y29233D01*
X16029Y29406D01*
X16029Y29594D01*
X16101Y29767D01*
X16233Y29899D01*
X16406Y29971D01*
X16594Y29971D01*
X16767Y29899D01*
X16899Y29767D01*
X16971Y29594D01*
X16971Y29406D01*
X16898Y29230D01*
X16897Y29229D01*
X16896Y29228D01*
X16896Y29227D01*
X16895Y29224D01*
X16895Y29223D01*
X16894Y29220D01*
X16894Y29218D01*
X16894Y29217D01*
X16894Y29214D01*
X16894Y29210D01*
X16895Y29209D01*
X16895Y29208D01*
X16896Y29205D01*
X16898Y29201D01*
X16898Y29200D01*
X16899Y29199D01*
X16902Y29195D01*
X25743Y20354D01*
X25846Y20252D01*
X25846Y15894D01*
X25846Y15890D01*
X25847Y15886D01*
X25847Y15885D01*
X25847Y15884D01*
X25849Y15881D01*
X25851Y15877D01*
X25852Y15876D01*
X25852Y15875D01*
X25854Y15873D01*
X25872Y15855D01*
X25906Y15774D01*
X25906Y15686D01*
X25872Y15605D01*
X25810Y15543D01*
X25765Y15524D01*
X25763Y15523D01*
X25762Y15522D01*
X25759Y15521D01*
X25757Y15519D01*
X25756Y15518D01*
X25754Y15516D01*
X25753Y15514D01*
X25751Y15512D01*
X25750Y15510D01*
X25749Y15508D01*
X25749Y15505D01*
X25748Y15503D01*
X25748Y15501D01*
X25747Y15499D01*
X25747Y15496D01*
X25747Y15493D01*
X25748Y15491D01*
X25748Y15489D01*
X25749Y15487D01*
X25750Y15484D01*
X25751Y15483D01*
X25752Y15481D01*
X25756Y15477D01*
X25878Y15354D01*
X25881Y15352D01*
X25884Y15350D01*
X25885Y15349D01*
X25886Y15349D01*
X25889Y15348D01*
X25893Y15346D01*
X25894Y15346D01*
X25895Y15346D01*
X25896Y15346D01*
X25899Y15346D01*
X29706Y15346D01*
X29710Y15346D01*
X29714Y15347D01*
X29715Y15347D01*
X29716Y15347D01*
X29719Y15349D01*
X29723Y15351D01*
X29724Y15352D01*
X29725Y15352D01*
X29727Y15354D01*
X30151Y15778D01*
X30153Y15781D01*
X30155Y15784D01*
X30156Y15785D01*
X30156Y15786D01*
X30157Y15789D01*
X30159Y15793D01*
X30159Y15794D01*
X30159Y15795D01*
X30159Y15796D01*
X30159Y15799D01*
X30159Y16308D01*
X30211Y16433D01*
X30307Y16529D01*
X30432Y16581D01*
X30568Y16581D01*
X30693Y16529D01*
X30789Y16433D01*
X30841Y16308D01*
X30841Y15692D01*
X30789Y15567D01*
X30693Y15471D01*
X30568Y15419D01*
X30429Y15419D01*
X30425Y15419D01*
X30421Y15418D01*
X30420Y15418D01*
X30419Y15418D01*
X30416Y15416D01*
X30412Y15414D01*
X30411Y15413D01*
X30410Y15413D01*
X30408Y15411D01*
X29935Y14938D01*
X29854Y14904D01*
X25819Y14904D01*
X25816Y14904D01*
X25813Y14904D01*
X25811Y14903D01*
X25809Y14903D01*
X25807Y14901D01*
X25804Y14900D01*
X25802Y14899D01*
X25801Y14898D01*
X25799Y14896D01*
X25797Y14894D01*
X25796Y14893D01*
X25794Y14891D01*
X25793Y14888D01*
X25792Y14886D01*
X25791Y14884D01*
X25790Y14882D01*
X25790Y14880D01*
X25789Y14877D01*
X25790Y14875D01*
X25790Y14873D01*
X25790Y14870D01*
X25791Y14867D01*
X25791Y14865D01*
X25792Y14864D01*
X25793Y14861D01*
X25795Y14858D01*
X25796Y14856D01*
X25797Y14856D01*
X25797Y14855D01*
X25798Y14854D01*
X26623Y14029D01*
X26626Y14027D01*
X26629Y14025D01*
X26630Y14024D01*
X26631Y14024D01*
X26635Y14023D01*
X26638Y14021D01*
X26639Y14021D01*
X26640Y14021D01*
X26641Y14021D01*
X26644Y14021D01*
X29932Y14021D01*
X30376Y13577D01*
X30380Y13574D01*
X30383Y13571D01*
X30384Y13571D01*
X30388Y13570D01*
X30392Y13568D01*
X30393Y13568D01*
X30397Y13569D01*
X30402Y13569D01*
X30407Y13570D01*
X30432Y13581D01*
X30568Y13581D01*
X30693Y13529D01*
X30789Y13433D01*
X30841Y13308D01*
X30841Y12692D01*
X30789Y12567D01*
X30693Y12471D01*
X30568Y12419D01*
X30432Y12419D01*
X30307Y12471D01*
X30211Y12567D01*
X30159Y12692D01*
X30159Y13308D01*
X30161Y13311D01*
X30161Y13312D01*
X30162Y13316D01*
X30163Y13321D01*
X30162Y13325D01*
X30162Y13330D01*
X30160Y13335D01*
X30158Y13339D01*
X30154Y13343D01*
X29807Y13691D01*
X29804Y13693D01*
X29801Y13695D01*
X29800Y13696D01*
X29799Y13696D01*
X29795Y13697D01*
X29792Y13699D01*
X29791Y13699D01*
X29790Y13699D01*
X29789Y13699D01*
X29786Y13699D01*
X26498Y13699D01*
X26396Y13802D01*
X26387Y13810D01*
X26386Y13812D01*
X26384Y13813D01*
X26382Y13814D01*
X26379Y13816D01*
X26378Y13817D01*
X26376Y13818D01*
X26373Y13818D01*
X26370Y13819D01*
X26368Y13819D01*
X26366Y13819D01*
X26364Y13819D01*
X26361Y13818D01*
X26359Y13818D01*
X26357Y13817D01*
X26354Y13816D01*
X26352Y13815D01*
X26350Y13814D01*
X26348Y13813D01*
X26347Y13811D01*
X26344Y13809D01*
X26343Y13807D01*
X26342Y13806D01*
X26339Y13801D01*
X26312Y13735D01*
X26250Y13673D01*
X26169Y13639D01*
X26081Y13639D01*
X26024Y13663D01*
X26020Y13664D01*
X26017Y13665D01*
X26016Y13665D01*
X26015Y13665D01*
X26011Y13665D01*
X26007Y13665D01*
X26006Y13664D01*
X26005Y13664D01*
X26002Y13662D01*
X25998Y13661D01*
X25997Y13661D01*
X25996Y13660D01*
X25994Y13657D01*
X25991Y13655D01*
X25990Y13654D01*
X25988Y13650D01*
X25986Y13647D01*
X25986Y13646D01*
X25985Y13645D01*
X25984Y13641D01*
X25984Y13638D01*
X25984Y13637D01*
X25984Y13636D01*
X25984Y13632D01*
X25985Y13628D01*
X25985Y13627D01*
X25985Y13626D01*
X25987Y13623D01*
X25989Y13619D01*
X25990Y13618D01*
X25990Y13617D01*
X25992Y13615D01*
X26066Y13542D01*
X26066Y12619D01*
X26066Y12615D01*
X26067Y12611D01*
X26067Y12610D01*
X26067Y12609D01*
X26069Y12606D01*
X26071Y12602D01*
X26072Y12601D01*
X26072Y12600D01*
X26074Y12598D01*
X31133Y7539D01*
X31136Y7537D01*
X31139Y7535D01*
X31140Y7534D01*
X31141Y7534D01*
X31145Y7533D01*
X31148Y7531D01*
X31149Y7531D01*
X31150Y7531D01*
X31151Y7531D01*
X31154Y7531D01*
X32242Y7531D01*
X32512Y7261D01*
X32513Y7260D01*
X32513Y7259D01*
X32517Y7257D01*
X32520Y7255D01*
X32521Y7255D01*
X32522Y7254D01*
X32525Y7253D01*
X32529Y7252D01*
X32530Y7252D01*
X32531Y7252D01*
X32535Y7252D01*
X32538Y7253D01*
X32539Y7253D01*
X32540Y7253D01*
X32544Y7255D01*
X32547Y7256D01*
X32548Y7257D01*
X32549Y7257D01*
X32553Y7261D01*
X34921Y9628D01*
X34922Y9631D01*
X34924Y9632D01*
X34924Y9633D01*
X34925Y9634D01*
X34926Y9635D01*
X34926Y9636D01*
X34927Y9640D01*
X34928Y9640D01*
X34928Y9641D01*
X34929Y9643D01*
X34929Y9644D01*
X34929Y9645D01*
X34929Y9646D01*
X34929Y9649D01*
X34929Y22232D01*
X36151Y23453D01*
X36153Y23456D01*
X36155Y23459D01*
X36156Y23460D01*
X36156Y23461D01*
X36157Y23465D01*
X36159Y23468D01*
X36159Y23469D01*
X36159Y23470D01*
X36159Y23471D01*
X36159Y23474D01*
X36159Y23641D01*
X36359Y23841D01*
X36641Y23841D01*
X36841Y23641D01*
X36841Y23359D01*
X36641Y23159D01*
X36359Y23159D01*
X36356Y23162D01*
X36355Y23163D01*
X36354Y23164D01*
X36351Y23166D01*
X36348Y23168D01*
X36347Y23168D01*
X36346Y23169D01*
X36343Y23169D01*
X36339Y23171D01*
X36338Y23170D01*
X36337Y23171D01*
X36333Y23170D01*
X36329Y23170D01*
X36328Y23170D01*
X36327Y23170D01*
X36324Y23168D01*
X36320Y23167D01*
X36320Y23166D01*
X36319Y23166D01*
X36315Y23162D01*
X35259Y22107D01*
X35257Y22104D01*
X35255Y22101D01*
X35254Y22100D01*
X35254Y22099D01*
X35253Y22095D01*
X35251Y22092D01*
X35251Y22091D01*
X35251Y22090D01*
X35251Y22089D01*
X35251Y22086D01*
X35251Y20534D01*
X35251Y20531D01*
X35251Y20528D01*
X35252Y20526D01*
X35252Y20524D01*
X35254Y20522D01*
X35255Y20519D01*
X35256Y20517D01*
X35257Y20516D01*
X35259Y20514D01*
X35261Y20512D01*
X35262Y20511D01*
X35264Y20509D01*
X35267Y20508D01*
X35269Y20507D01*
X35271Y20506D01*
X35273Y20505D01*
X35275Y20505D01*
X35278Y20504D01*
X35280Y20505D01*
X35282Y20505D01*
X35285Y20505D01*
X35288Y20506D01*
X35290Y20506D01*
X35291Y20507D01*
X35294Y20508D01*
X35297Y20510D01*
X35299Y20511D01*
X35299Y20512D01*
X35300Y20512D01*
X35301Y20513D01*
X35362Y20574D01*
X38151Y23363D01*
X38153Y23366D01*
X38155Y23369D01*
X38156Y23370D01*
X38156Y23371D01*
X38157Y23375D01*
X38159Y23378D01*
X38159Y23379D01*
X38159Y23380D01*
X38159Y23381D01*
X38159Y23384D01*
X38159Y23641D01*
X38359Y23841D01*
X38641Y23841D01*
X38841Y23641D01*
X38841Y23359D01*
X38641Y23159D01*
X38414Y23159D01*
X38410Y23159D01*
X38406Y23158D01*
X38405Y23158D01*
X38404Y23158D01*
X38401Y23156D01*
X38397Y23154D01*
X38396Y23153D01*
X38395Y23153D01*
X38393Y23151D01*
X35589Y20347D01*
X35587Y20344D01*
X35585Y20341D01*
X35584Y20340D01*
X35584Y20339D01*
X35583Y20335D01*
X35581Y20332D01*
X35581Y20331D01*
X35581Y20330D01*
X35581Y20329D01*
X35581Y20326D01*
X35581Y19717D01*
X35581Y19713D01*
X35582Y19709D01*
X35582Y19708D01*
X35582Y19707D01*
X35584Y19704D01*
X35586Y19700D01*
X35587Y19699D01*
X35590Y19696D01*
X35592Y19693D01*
X35593Y19693D01*
X35594Y19692D01*
X35597Y19691D01*
X35601Y19689D01*
X35602Y19689D01*
X35603Y19689D01*
X35606Y19688D01*
X35610Y19688D01*
X35611Y19688D01*
X35612Y19688D01*
X35616Y19689D01*
X35620Y19689D01*
X35620Y19690D01*
X35621Y19690D01*
X35625Y19692D01*
X35628Y19694D01*
X35629Y19694D01*
X35629Y19695D01*
X35632Y19698D01*
X35635Y19701D01*
X35635Y19702D01*
X35636Y19703D01*
X35637Y19706D01*
X35668Y19780D01*
X35730Y19842D01*
X35811Y19876D01*
X35899Y19876D01*
X35980Y19842D01*
X35998Y19824D01*
X36001Y19822D01*
X36004Y19820D01*
X36005Y19819D01*
X36006Y19819D01*
X36009Y19818D01*
X36013Y19816D01*
X36014Y19816D01*
X36015Y19816D01*
X36016Y19816D01*
X36019Y19816D01*
X37396Y19816D01*
X37400Y19816D01*
X37404Y19817D01*
X37405Y19817D01*
X37406Y19817D01*
X37409Y19819D01*
X37413Y19821D01*
X37414Y19822D01*
X37415Y19822D01*
X37417Y19824D01*
X41843Y24251D01*
X45461Y24251D01*
X45465Y24251D01*
X45469Y24252D01*
X45470Y24252D01*
X45471Y24252D01*
X45474Y24254D01*
X45478Y24256D01*
X45479Y24257D01*
X45480Y24257D01*
X45482Y24259D01*
X46408Y25186D01*
X47086Y25186D01*
X47090Y25186D01*
X47094Y25187D01*
X47095Y25187D01*
X47099Y25189D01*
X47102Y25191D01*
X47103Y25192D01*
X47104Y25192D01*
X47106Y25194D01*
X47328Y25416D01*
X47672Y25416D01*
X47916Y25172D01*
X47916Y24828D01*
X47672Y24584D01*
X47328Y24584D01*
X47084Y24828D01*
X47084Y24835D01*
X47084Y24836D01*
X47084Y24837D01*
X47083Y24841D01*
X47083Y24844D01*
X47082Y24845D01*
X47082Y24846D01*
X47080Y24850D01*
X47078Y24853D01*
X47077Y24854D01*
X47074Y24857D01*
X47071Y24859D01*
X47070Y24860D01*
X47069Y24860D01*
X47066Y24862D01*
X47062Y24863D01*
X47061Y24863D01*
X47060Y24864D01*
X47055Y24864D01*
X46554Y24864D01*
X46550Y24864D01*
X46546Y24863D01*
X46545Y24863D01*
X46544Y24863D01*
X46541Y24861D01*
X46537Y24859D01*
X46536Y24858D01*
X46535Y24858D01*
X46533Y24856D01*
X45607Y23929D01*
X41989Y23929D01*
X41985Y23929D01*
X41981Y23928D01*
X41980Y23928D01*
X41979Y23928D01*
X41976Y23926D01*
X41972Y23924D01*
X41971Y23923D01*
X41970Y23923D01*
X41968Y23921D01*
X37542Y19494D01*
X36019Y19494D01*
X36015Y19494D01*
X36011Y19493D01*
X36010Y19493D01*
X36009Y19493D01*
X36006Y19491D01*
X36002Y19489D01*
X36001Y19488D01*
X36000Y19488D01*
X35998Y19486D01*
X35980Y19468D01*
X35899Y19434D01*
X35811Y19434D01*
X35730Y19468D01*
X35668Y19530D01*
X35637Y19604D01*
X35637Y19605D01*
X35635Y19608D01*
X35633Y19611D01*
X35632Y19612D01*
X35632Y19613D01*
X35630Y19614D01*
X35629Y19615D01*
X35626Y19618D01*
X35625Y19618D01*
X35625Y19619D01*
X35624Y19619D01*
X35623Y19619D01*
X35621Y19620D01*
X35617Y19621D01*
X35616Y19622D01*
X35615Y19622D01*
X35610Y19622D01*
X35609Y19622D01*
X35608Y19622D01*
X35607Y19622D01*
X35606Y19622D01*
X35603Y19621D01*
X35601Y19621D01*
X35600Y19620D01*
X35599Y19620D01*
X35598Y19620D01*
X35597Y19619D01*
X35594Y19618D01*
X35592Y19616D01*
X35591Y19616D01*
X35591Y19615D01*
X35590Y19614D01*
X35589Y19614D01*
X35587Y19611D01*
X35586Y19609D01*
X35585Y19608D01*
X35584Y19607D01*
X35584Y19606D01*
X35583Y19603D01*
X35582Y19601D01*
X35582Y19600D01*
X35581Y19599D01*
X35581Y19597D01*
X35581Y19596D01*
X35581Y19593D01*
X35581Y19019D01*
X35581Y19015D01*
X35582Y19011D01*
X35582Y19010D01*
X35582Y19009D01*
X35584Y19006D01*
X35586Y19002D01*
X35587Y19001D01*
X35587Y19000D01*
X35589Y18998D01*
X35607Y18980D01*
X35641Y18899D01*
X35641Y18811D01*
X35607Y18730D01*
X35545Y18668D01*
X35464Y18634D01*
X35376Y18634D01*
X35291Y18669D01*
X35289Y18670D01*
X35287Y18671D01*
X35285Y18671D01*
X35282Y18672D01*
X35280Y18671D01*
X35278Y18672D01*
X35275Y18671D01*
X35272Y18671D01*
X35271Y18670D01*
X35269Y18669D01*
X35266Y18668D01*
X35264Y18667D01*
X35262Y18665D01*
X35261Y18664D01*
X35259Y18662D01*
X35257Y18660D01*
X35256Y18658D01*
X35255Y18657D01*
X35254Y18654D01*
X35252Y18652D01*
X35252Y18650D01*
X35251Y18648D01*
X35251Y18642D01*
X35251Y12449D01*
X35251Y12446D01*
X35251Y12443D01*
X35252Y12441D01*
X35252Y12439D01*
X35254Y12437D01*
X35255Y12434D01*
X35256Y12432D01*
X35257Y12431D01*
X35259Y12429D01*
X35261Y12427D01*
X35262Y12426D01*
X35264Y12424D01*
X35267Y12423D01*
X35269Y12422D01*
X35271Y12421D01*
X35273Y12420D01*
X35275Y12420D01*
X35278Y12419D01*
X35280Y12420D01*
X35282Y12420D01*
X35285Y12420D01*
X35288Y12421D01*
X35290Y12421D01*
X35291Y12422D01*
X35294Y12423D01*
X35297Y12425D01*
X35299Y12426D01*
X35299Y12427D01*
X35300Y12427D01*
X35301Y12428D01*
X35362Y12489D01*
X38543Y15671D01*
X38861Y15671D01*
X38865Y15671D01*
X38869Y15672D01*
X38870Y15672D01*
X38871Y15672D01*
X38874Y15674D01*
X38878Y15676D01*
X38879Y15677D01*
X38880Y15677D01*
X38882Y15679D01*
X44986Y21783D01*
X44988Y21786D01*
X44990Y21789D01*
X44991Y21790D01*
X44991Y21791D01*
X44992Y21795D01*
X44994Y21798D01*
X44994Y21799D01*
X44994Y21800D01*
X44994Y21801D01*
X44994Y21804D01*
X44994Y23167D01*
X45151Y23323D01*
X45153Y23326D01*
X45155Y23329D01*
X45156Y23330D01*
X45156Y23331D01*
X45157Y23335D01*
X45159Y23338D01*
X45159Y23339D01*
X45159Y23340D01*
X45159Y23341D01*
X45159Y23344D01*
X45159Y23641D01*
X45359Y23841D01*
X45641Y23841D01*
X45841Y23641D01*
X45841Y23359D01*
X45641Y23159D01*
X45454Y23159D01*
X45450Y23159D01*
X45446Y23158D01*
X45445Y23158D01*
X45444Y23158D01*
X45441Y23156D01*
X45437Y23154D01*
X45436Y23153D01*
X45435Y23153D01*
X45433Y23151D01*
X45324Y23042D01*
X45322Y23039D01*
X45320Y23036D01*
X45319Y23035D01*
X45319Y23034D01*
X45318Y23030D01*
X45316Y23027D01*
X45316Y23026D01*
X45316Y23025D01*
X45316Y23024D01*
X45316Y23021D01*
X45316Y21658D01*
X39007Y15349D01*
X38689Y15349D01*
X38685Y15349D01*
X38681Y15348D01*
X38680Y15348D01*
X38679Y15348D01*
X38676Y15346D01*
X38672Y15344D01*
X38671Y15343D01*
X38670Y15343D01*
X38668Y15341D01*
X35589Y12262D01*
X35587Y12259D01*
X35585Y12256D01*
X35584Y12255D01*
X35584Y12254D01*
X35583Y12250D01*
X35581Y12247D01*
X35581Y12246D01*
X35581Y12245D01*
X35581Y12244D01*
X35581Y12241D01*
X35581Y11164D01*
X35581Y11160D01*
X35582Y11156D01*
X35582Y11155D01*
X35582Y11154D01*
X35584Y11151D01*
X35586Y11147D01*
X35587Y11146D01*
X35587Y11145D01*
X35589Y11143D01*
X35607Y11125D01*
X35641Y11044D01*
X35641Y10956D01*
X35607Y10875D01*
X35545Y10813D01*
X35464Y10779D01*
X35376Y10779D01*
X35291Y10814D01*
X35289Y10815D01*
X35287Y10816D01*
X35285Y10816D01*
X35282Y10817D01*
X35280Y10816D01*
X35278Y10817D01*
X35275Y10816D01*
X35272Y10816D01*
X35271Y10815D01*
X35269Y10814D01*
X35266Y10813D01*
X35264Y10812D01*
X35262Y10810D01*
X35261Y10809D01*
X35259Y10807D01*
X35257Y10805D01*
X35256Y10803D01*
X35255Y10802D01*
X35254Y10799D01*
X35252Y10797D01*
X35252Y10795D01*
X35251Y10793D01*
X35251Y10787D01*
X35251Y9503D01*
X32702Y6954D01*
X32591Y6843D01*
X31414Y5667D01*
X31412Y5664D01*
X31410Y5661D01*
X31409Y5660D01*
X31409Y5659D01*
X31408Y5655D01*
X31406Y5652D01*
X31406Y5651D01*
X31406Y5650D01*
X31406Y5649D01*
X31406Y5646D01*
X31406Y5621D01*
X31372Y5540D01*
X31310Y5478D01*
X31229Y5444D01*
X31209Y5444D01*
X31206Y5444D01*
X31203Y5444D01*
X31201Y5443D01*
X31199Y5443D01*
X31197Y5441D01*
X31194Y5440D01*
X31192Y5439D01*
X31191Y5438D01*
X31189Y5436D01*
X31187Y5434D01*
X31186Y5433D01*
X31184Y5431D01*
X31183Y5428D01*
X31182Y5426D01*
X31181Y5424D01*
X31180Y5422D01*
X31180Y5420D01*
X31179Y5417D01*
X31180Y5415D01*
X31180Y5413D01*
X31180Y5410D01*
X31181Y5407D01*
X31181Y5405D01*
X31182Y5404D01*
X31183Y5401D01*
X31185Y5398D01*
X31186Y5396D01*
X31187Y5396D01*
X31187Y5395D01*
X31188Y5394D01*
X31848Y4734D01*
X31851Y4732D01*
X31854Y4730D01*
X31855Y4729D01*
X31856Y4729D01*
X31860Y4728D01*
X31863Y4726D01*
X31864Y4726D01*
X31865Y4726D01*
X31866Y4726D01*
X31869Y4726D01*
X36026Y4726D01*
X36030Y4726D01*
X36034Y4727D01*
X36035Y4727D01*
X36036Y4727D01*
X36039Y4729D01*
X36043Y4731D01*
X36044Y4732D01*
X36045Y4732D01*
X36047Y4734D01*
X36065Y4752D01*
X36146Y4786D01*
X36234Y4786D01*
X36315Y4752D01*
X36377Y4690D01*
X36411Y4609D01*
X36411Y4521D01*
X36376Y4436D01*
X36375Y4434D01*
X36374Y4432D01*
X36374Y4430D01*
X36373Y4427D01*
X36374Y4425D01*
X36373Y4423D01*
X36374Y4420D01*
X36374Y4417D01*
X36375Y4416D01*
X36376Y4414D01*
X36377Y4411D01*
X36378Y4409D01*
X36380Y4407D01*
X36381Y4406D01*
X36383Y4404D01*
X36385Y4402D01*
X36387Y4401D01*
X36388Y4400D01*
X36391Y4399D01*
X36393Y4397D01*
X36395Y4397D01*
X36397Y4396D01*
X36403Y4396D01*
X39337Y4396D01*
X39808Y3924D01*
X39809Y3923D01*
X39810Y3923D01*
X39813Y3921D01*
X39816Y3918D01*
X39817Y3918D01*
X39818Y3918D01*
X39822Y3917D01*
X39825Y3916D01*
X39826Y3916D01*
X39827Y3915D01*
X39831Y3916D01*
X39835Y3916D01*
X39836Y3916D01*
X39837Y3917D01*
X39840Y3918D01*
X39844Y3919D01*
X39845Y3920D01*
X39846Y3921D01*
X39850Y3924D01*
X39850Y3925D01*
X40034Y4001D01*
X40233Y4001D01*
X40418Y3925D01*
X40558Y3784D01*
X40635Y3600D01*
X40635Y3400D01*
X40558Y3216D01*
X40418Y3075D01*
X40233Y2999D01*
X40034Y2999D01*
X39850Y3075D01*
X39709Y3216D01*
X39633Y3400D01*
X39633Y3600D01*
X39639Y3613D01*
X39639Y3614D01*
X39639Y3615D01*
X39639Y3616D01*
X39640Y3618D01*
X39641Y3623D01*
X39640Y3627D01*
X39640Y3632D01*
X39638Y3637D01*
X39636Y3641D01*
X39632Y3645D01*
X39212Y4066D01*
X39209Y4068D01*
X39206Y4070D01*
X39205Y4071D01*
X39204Y4071D01*
X39200Y4072D01*
X39197Y4074D01*
X39196Y4074D01*
X39195Y4074D01*
X39194Y4074D01*
X39191Y4074D01*
X31723Y4074D01*
X31512Y4286D01*
X31509Y4288D01*
X31506Y4290D01*
X31505Y4291D01*
X31504Y4291D01*
X31500Y4292D01*
X31497Y4294D01*
X31496Y4294D01*
X31495Y4294D01*
X31494Y4294D01*
X31491Y4294D01*
X28758Y4294D01*
X28756Y4294D01*
X28754Y4294D01*
X28751Y4293D01*
X28748Y4293D01*
X28746Y4292D01*
X28745Y4291D01*
X28742Y4289D01*
X28740Y4288D01*
X28738Y4287D01*
X28737Y4286D01*
X28735Y4283D01*
X28733Y4281D01*
X28732Y4279D01*
X28731Y4278D01*
X28730Y4275D01*
X28729Y4272D01*
X28729Y4270D01*
X28729Y4269D01*
X28729Y4266D01*
X28728Y4263D01*
X28729Y4261D01*
X28729Y4259D01*
X28731Y4254D01*
X28766Y4169D01*
X28766Y4081D01*
X28732Y4000D01*
X28670Y3938D01*
X28589Y3904D01*
X28501Y3904D01*
X28420Y3938D01*
X28402Y3956D01*
X28399Y3958D01*
X28396Y3960D01*
X28395Y3961D01*
X28394Y3961D01*
X28391Y3962D01*
X28387Y3964D01*
X28386Y3964D01*
X28385Y3964D01*
X28384Y3964D01*
X28381Y3964D01*
X28070Y3964D01*
X28068Y3964D01*
X28065Y3964D01*
X28063Y3963D01*
X28061Y3963D01*
X28058Y3961D01*
X28056Y3960D01*
X28054Y3959D01*
X28053Y3958D01*
X28051Y3956D01*
X28048Y3954D01*
X28047Y3953D01*
X28046Y3951D01*
X28045Y3948D01*
X28043Y3946D01*
X28043Y3944D01*
X28042Y3942D01*
X28042Y3940D01*
X28041Y3937D01*
X28041Y3935D01*
X28041Y3933D01*
X28042Y3930D01*
X28042Y3927D01*
X28043Y3925D01*
X28043Y3924D01*
X28045Y3921D01*
X28046Y3918D01*
X28048Y3916D01*
X28049Y3916D01*
X28049Y3915D01*
X28050Y3914D01*
X28180Y3784D01*
X28257Y3600D01*
X28257Y3400D01*
X28180Y3216D01*
X28040Y3075D01*
X27856Y2999D01*
X27656Y2999D01*
X27472Y3075D01*
X27331Y3216D01*
X27255Y3400D01*
X27255Y3600D01*
X27331Y3784D01*
X27462Y3914D01*
X27464Y3917D01*
X27466Y3919D01*
X27467Y3921D01*
X27468Y3922D01*
X27468Y3925D01*
X27470Y3928D01*
X27470Y3929D01*
X27470Y3931D01*
X27470Y3934D01*
X27471Y3937D01*
X27470Y3939D01*
X27470Y3941D01*
X27469Y3944D01*
X27468Y3946D01*
X27467Y3948D01*
X27467Y3950D01*
X27465Y3952D01*
X27463Y3954D01*
X27462Y3956D01*
X27461Y3957D01*
X27458Y3959D01*
X27456Y3960D01*
X27454Y3961D01*
X27452Y3962D01*
X27450Y3963D01*
X27447Y3964D01*
X27444Y3964D01*
X27443Y3964D01*
X27441Y3964D01*
X27194Y3964D01*
X27190Y3964D01*
X27186Y3963D01*
X27185Y3963D01*
X27184Y3963D01*
X27181Y3961D01*
X27177Y3959D01*
X27176Y3958D01*
X27175Y3958D01*
X27173Y3956D01*
X26874Y3657D01*
X26872Y3653D01*
X26869Y3649D01*
X26867Y3645D01*
X26866Y3640D01*
X26866Y3635D01*
X26866Y3631D01*
X26866Y3630D01*
X26868Y3625D01*
X26879Y3600D01*
X26879Y3400D01*
X26802Y3216D01*
X26662Y3075D01*
X26478Y2999D01*
X26278Y2999D01*
X26094Y3075D01*
X25953Y3216D01*
X25877Y3400D01*
X25877Y3600D01*
X25885Y3618D01*
X25886Y3622D01*
X25887Y3627D01*
X25886Y3632D01*
X25886Y3636D01*
X25886Y3637D01*
X25884Y3641D01*
X25882Y3645D01*
X25878Y3649D01*
X25512Y4016D01*
X25509Y4018D01*
X25506Y4020D01*
X25505Y4021D01*
X25504Y4021D01*
X25500Y4022D01*
X25497Y4024D01*
X25496Y4024D01*
X25495Y4024D01*
X25494Y4024D01*
X25491Y4024D01*
X25489Y4024D01*
X25486Y4024D01*
X25483Y4024D01*
X25481Y4023D01*
X25479Y4023D01*
X25477Y4021D01*
X25474Y4020D01*
X25473Y4019D01*
X25471Y4018D01*
X25469Y4016D01*
X25467Y4014D01*
X25466Y4013D01*
X25464Y4011D01*
X25463Y4008D01*
X25462Y4006D01*
X25461Y4004D01*
X25461Y4002D01*
X25460Y4000D01*
X25460Y3997D01*
X25460Y3995D01*
X25460Y3993D01*
X25460Y3990D01*
X25461Y3987D01*
X25461Y3985D01*
X25462Y3984D01*
X25463Y3981D01*
X25465Y3978D01*
X25467Y3976D01*
X25467Y3975D01*
X25468Y3974D01*
X25501Y3942D01*
X25501Y3058D01*
X25442Y2999D01*
X24558Y2999D01*
G37*
%LPD*%
G36*
X28304Y25046D02*
X28304Y25046D01*
X28306Y25046D01*
X28311Y25048D01*
X28391Y25081D01*
X28416Y25081D01*
X28420Y25081D01*
X28424Y25082D01*
X28425Y25082D01*
X28426Y25082D01*
X28429Y25084D01*
X28433Y25086D01*
X28434Y25087D01*
X28435Y25087D01*
X28437Y25089D01*
X36621Y33273D01*
X36623Y33276D01*
X36625Y33279D01*
X36626Y33280D01*
X36626Y33281D01*
X36627Y33285D01*
X36629Y33288D01*
X36629Y33289D01*
X36629Y33290D01*
X36629Y33291D01*
X36629Y33294D01*
X36629Y33319D01*
X36663Y33400D01*
X36725Y33462D01*
X36806Y33496D01*
X36894Y33496D01*
X36979Y33461D01*
X36981Y33460D01*
X36983Y33459D01*
X36985Y33459D01*
X36988Y33458D01*
X36990Y33459D01*
X36992Y33458D01*
X36995Y33459D01*
X36998Y33459D01*
X36999Y33460D01*
X37001Y33461D01*
X37004Y33462D01*
X37006Y33463D01*
X37008Y33465D01*
X37009Y33466D01*
X37011Y33468D01*
X37013Y33470D01*
X37014Y33472D01*
X37015Y33473D01*
X37016Y33476D01*
X37018Y33478D01*
X37018Y33480D01*
X37019Y33482D01*
X37019Y33488D01*
X37019Y34992D01*
X37200Y35172D01*
X37201Y35173D01*
X37202Y35174D01*
X37203Y35177D01*
X37206Y35180D01*
X37206Y35181D01*
X37207Y35182D01*
X37207Y35186D01*
X37208Y35189D01*
X37208Y35190D01*
X37209Y35191D01*
X37208Y35195D01*
X37208Y35199D01*
X37208Y35200D01*
X37208Y35201D01*
X37206Y35204D01*
X37205Y35208D01*
X37204Y35209D01*
X37204Y35210D01*
X37200Y35214D01*
X37198Y35216D01*
X37121Y35400D01*
X37121Y35600D01*
X37198Y35784D01*
X37338Y35925D01*
X37522Y36001D01*
X37722Y36001D01*
X37906Y35925D01*
X38026Y35804D01*
X38029Y35802D01*
X38032Y35799D01*
X38033Y35799D01*
X38034Y35799D01*
X38038Y35797D01*
X38041Y35796D01*
X38042Y35796D01*
X38043Y35796D01*
X38047Y35796D01*
X38051Y35796D01*
X38052Y35796D01*
X38053Y35796D01*
X38056Y35798D01*
X38060Y35799D01*
X38061Y35799D01*
X38062Y35800D01*
X38064Y35802D01*
X38068Y35804D01*
X38068Y35805D01*
X38069Y35806D01*
X38071Y35809D01*
X38073Y35812D01*
X38073Y35813D01*
X38074Y35814D01*
X38075Y35818D01*
X38076Y35821D01*
X38076Y35822D01*
X38076Y35823D01*
X38076Y35827D01*
X38075Y35831D01*
X38075Y35832D01*
X38075Y35833D01*
X38074Y35836D01*
X38059Y35871D01*
X38059Y35959D01*
X38092Y36039D01*
X38093Y36041D01*
X38094Y36043D01*
X38094Y36045D01*
X38095Y36048D01*
X38094Y36050D01*
X38094Y36052D01*
X38094Y36055D01*
X38094Y36058D01*
X38093Y36059D01*
X38092Y36061D01*
X38091Y36064D01*
X38090Y36066D01*
X38088Y36068D01*
X38087Y36069D01*
X38085Y36071D01*
X38083Y36073D01*
X38081Y36074D01*
X38080Y36075D01*
X38077Y36076D01*
X38075Y36078D01*
X38073Y36078D01*
X38071Y36079D01*
X38065Y36079D01*
X27444Y36079D01*
X27441Y36079D01*
X27438Y36079D01*
X27436Y36078D01*
X27434Y36078D01*
X27432Y36076D01*
X27429Y36075D01*
X27427Y36074D01*
X27426Y36073D01*
X27424Y36071D01*
X27421Y36069D01*
X27420Y36068D01*
X27419Y36066D01*
X27418Y36063D01*
X27416Y36061D01*
X27416Y36059D01*
X27415Y36057D01*
X27415Y36055D01*
X27414Y36052D01*
X27415Y36050D01*
X27414Y36048D01*
X27415Y36045D01*
X27415Y36042D01*
X27416Y36040D01*
X27417Y36039D01*
X27418Y36036D01*
X27419Y36033D01*
X27421Y36031D01*
X27422Y36031D01*
X27422Y36030D01*
X27423Y36029D01*
X27456Y35996D01*
X27473Y35979D01*
X27476Y35977D01*
X27479Y35975D01*
X27480Y35974D01*
X27481Y35974D01*
X27484Y35973D01*
X27488Y35971D01*
X27489Y35971D01*
X27490Y35971D01*
X27491Y35971D01*
X27494Y35971D01*
X27594Y35971D01*
X27767Y35899D01*
X27899Y35767D01*
X27971Y35594D01*
X27971Y35406D01*
X27899Y35233D01*
X27874Y35209D01*
X27874Y35208D01*
X27872Y35205D01*
X27869Y35201D01*
X27867Y35196D01*
X27866Y35192D01*
X27866Y35191D01*
X27866Y35187D01*
X27866Y35182D01*
X27868Y35177D01*
X27887Y35132D01*
X27887Y35131D01*
X27887Y35130D01*
X27887Y35129D01*
X27889Y35126D01*
X27891Y35122D01*
X27892Y35121D01*
X27892Y35120D01*
X27894Y35118D01*
X28237Y34775D01*
X28271Y34694D01*
X28271Y31950D01*
X28271Y31948D01*
X28271Y31946D01*
X28272Y31943D01*
X28272Y31940D01*
X28273Y31938D01*
X28274Y31937D01*
X28276Y31934D01*
X28277Y31932D01*
X28278Y31930D01*
X28279Y31929D01*
X28282Y31927D01*
X28284Y31925D01*
X28286Y31924D01*
X28287Y31923D01*
X28290Y31923D01*
X28293Y31921D01*
X28295Y31921D01*
X28296Y31921D01*
X28299Y31921D01*
X28302Y31921D01*
X28304Y31921D01*
X28306Y31921D01*
X28311Y31923D01*
X28391Y31956D01*
X28479Y31956D01*
X28560Y31922D01*
X28578Y31904D01*
X28581Y31902D01*
X28584Y31900D01*
X28585Y31899D01*
X28586Y31899D01*
X28589Y31898D01*
X28593Y31896D01*
X28594Y31896D01*
X28595Y31896D01*
X28596Y31896D01*
X28599Y31896D01*
X28992Y31896D01*
X28994Y31896D01*
X28996Y31896D01*
X28999Y31897D01*
X29002Y31897D01*
X29004Y31898D01*
X29005Y31899D01*
X29008Y31901D01*
X29010Y31902D01*
X29012Y31903D01*
X29013Y31904D01*
X29015Y31907D01*
X29017Y31909D01*
X29018Y31911D01*
X29019Y31912D01*
X29020Y31915D01*
X29021Y31918D01*
X29021Y31920D01*
X29021Y31921D01*
X29021Y31924D01*
X29022Y31927D01*
X29021Y31929D01*
X29021Y31931D01*
X29019Y31936D01*
X28984Y32021D01*
X28984Y32109D01*
X29018Y32190D01*
X29080Y32252D01*
X29161Y32286D01*
X29186Y32286D01*
X29190Y32286D01*
X29194Y32287D01*
X29195Y32287D01*
X29196Y32287D01*
X29199Y32289D01*
X29203Y32291D01*
X29204Y32292D01*
X29205Y32292D01*
X29207Y32294D01*
X29413Y32501D01*
X33771Y32501D01*
X33775Y32501D01*
X33779Y32502D01*
X33780Y32502D01*
X33781Y32502D01*
X33784Y32504D01*
X33788Y32506D01*
X33789Y32507D01*
X33790Y32507D01*
X33792Y32509D01*
X33810Y32527D01*
X33891Y32561D01*
X33979Y32561D01*
X34060Y32527D01*
X34122Y32465D01*
X34156Y32384D01*
X34156Y32296D01*
X34122Y32215D01*
X34060Y32153D01*
X33979Y32119D01*
X33891Y32119D01*
X33810Y32153D01*
X33792Y32171D01*
X33789Y32173D01*
X33786Y32175D01*
X33785Y32176D01*
X33784Y32176D01*
X33781Y32177D01*
X33777Y32179D01*
X33776Y32179D01*
X33775Y32179D01*
X33774Y32179D01*
X33771Y32179D01*
X29559Y32179D01*
X29555Y32179D01*
X29551Y32178D01*
X29550Y32178D01*
X29549Y32178D01*
X29546Y32176D01*
X29542Y32174D01*
X29541Y32173D01*
X29540Y32173D01*
X29538Y32171D01*
X29434Y32067D01*
X29432Y32064D01*
X29430Y32061D01*
X29429Y32060D01*
X29429Y32059D01*
X29428Y32055D01*
X29426Y32052D01*
X29426Y32051D01*
X29426Y32050D01*
X29426Y32049D01*
X29426Y32046D01*
X29426Y32021D01*
X29391Y31936D01*
X29390Y31934D01*
X29389Y31932D01*
X29389Y31930D01*
X29388Y31927D01*
X29389Y31925D01*
X29388Y31923D01*
X29389Y31920D01*
X29389Y31917D01*
X29390Y31916D01*
X29391Y31914D01*
X29392Y31911D01*
X29393Y31909D01*
X29395Y31907D01*
X29396Y31906D01*
X29398Y31904D01*
X29400Y31902D01*
X29402Y31901D01*
X29403Y31900D01*
X29406Y31899D01*
X29408Y31897D01*
X29410Y31897D01*
X29412Y31896D01*
X29418Y31896D01*
X34376Y31896D01*
X34380Y31896D01*
X34384Y31897D01*
X34385Y31897D01*
X34386Y31897D01*
X34389Y31899D01*
X34393Y31901D01*
X34394Y31902D01*
X34395Y31902D01*
X34397Y31904D01*
X34415Y31922D01*
X34496Y31956D01*
X34584Y31956D01*
X34665Y31922D01*
X34727Y31860D01*
X34761Y31779D01*
X34761Y31691D01*
X34727Y31610D01*
X34665Y31548D01*
X34584Y31514D01*
X34496Y31514D01*
X34415Y31548D01*
X34397Y31566D01*
X34394Y31568D01*
X34391Y31570D01*
X34390Y31571D01*
X34389Y31571D01*
X34386Y31572D01*
X34382Y31574D01*
X34381Y31574D01*
X34380Y31574D01*
X34379Y31574D01*
X34376Y31574D01*
X28599Y31574D01*
X28595Y31574D01*
X28591Y31573D01*
X28590Y31573D01*
X28589Y31573D01*
X28586Y31571D01*
X28582Y31569D01*
X28581Y31568D01*
X28580Y31568D01*
X28578Y31566D01*
X28560Y31548D01*
X28479Y31514D01*
X28391Y31514D01*
X28311Y31547D01*
X28309Y31548D01*
X28307Y31549D01*
X28305Y31549D01*
X28302Y31550D01*
X28300Y31549D01*
X28298Y31549D01*
X28295Y31549D01*
X28292Y31549D01*
X28291Y31548D01*
X28289Y31547D01*
X28286Y31546D01*
X28284Y31545D01*
X28282Y31543D01*
X28281Y31542D01*
X28279Y31540D01*
X28277Y31538D01*
X28276Y31536D01*
X28275Y31535D01*
X28274Y31532D01*
X28272Y31530D01*
X28272Y31528D01*
X28271Y31526D01*
X28271Y31520D01*
X28271Y30080D01*
X28271Y30078D01*
X28271Y30076D01*
X28272Y30073D01*
X28272Y30070D01*
X28273Y30068D01*
X28274Y30067D01*
X28276Y30064D01*
X28277Y30062D01*
X28278Y30060D01*
X28279Y30059D01*
X28282Y30057D01*
X28284Y30055D01*
X28286Y30054D01*
X28287Y30053D01*
X28290Y30053D01*
X28293Y30051D01*
X28295Y30051D01*
X28296Y30051D01*
X28299Y30051D01*
X28302Y30051D01*
X28304Y30051D01*
X28306Y30051D01*
X28311Y30053D01*
X28391Y30086D01*
X28479Y30086D01*
X28560Y30052D01*
X28622Y29990D01*
X28656Y29909D01*
X28656Y29884D01*
X28656Y29880D01*
X28657Y29876D01*
X28657Y29875D01*
X28657Y29874D01*
X28659Y29871D01*
X28661Y29867D01*
X28662Y29866D01*
X28662Y29865D01*
X28664Y29863D01*
X29218Y29310D01*
X29219Y29308D01*
X29221Y29307D01*
X29223Y29306D01*
X29226Y29304D01*
X29227Y29303D01*
X29229Y29302D01*
X29232Y29302D01*
X29235Y29301D01*
X29237Y29301D01*
X29239Y29301D01*
X29241Y29301D01*
X29244Y29302D01*
X29246Y29302D01*
X29248Y29303D01*
X29251Y29304D01*
X29253Y29305D01*
X29255Y29306D01*
X29257Y29307D01*
X29258Y29309D01*
X29261Y29311D01*
X29262Y29313D01*
X29263Y29314D01*
X29266Y29319D01*
X29293Y29385D01*
X29355Y29447D01*
X29436Y29481D01*
X29524Y29481D01*
X29605Y29447D01*
X29667Y29385D01*
X29701Y29304D01*
X29701Y29285D01*
X29701Y29284D01*
X29701Y29283D01*
X29702Y29279D01*
X29702Y29276D01*
X29703Y29275D01*
X29703Y29274D01*
X29705Y29270D01*
X29707Y29267D01*
X29708Y29266D01*
X29711Y29263D01*
X29714Y29261D01*
X29715Y29260D01*
X29716Y29260D01*
X29719Y29258D01*
X29723Y29257D01*
X29724Y29257D01*
X29725Y29256D01*
X29730Y29256D01*
X30746Y29256D01*
X30750Y29256D01*
X30754Y29257D01*
X30755Y29257D01*
X30756Y29257D01*
X30759Y29259D01*
X30763Y29261D01*
X30764Y29262D01*
X30765Y29262D01*
X30767Y29264D01*
X30785Y29282D01*
X30866Y29316D01*
X30954Y29316D01*
X31035Y29282D01*
X31097Y29220D01*
X31131Y29139D01*
X31131Y29051D01*
X31097Y28970D01*
X31035Y28908D01*
X31009Y28897D01*
X31006Y28895D01*
X31002Y28893D01*
X31002Y28892D01*
X31001Y28892D01*
X30998Y28889D01*
X30996Y28886D01*
X30995Y28885D01*
X30993Y28881D01*
X30992Y28877D01*
X30992Y28876D01*
X30991Y28876D01*
X30991Y28872D01*
X30991Y28868D01*
X30991Y28867D01*
X30991Y28866D01*
X30992Y28862D01*
X30993Y28859D01*
X30994Y28858D01*
X30994Y28857D01*
X30996Y28854D01*
X30998Y28851D01*
X30999Y28850D01*
X31000Y28849D01*
X31003Y28847D01*
X31006Y28845D01*
X31007Y28844D01*
X31011Y28843D01*
X31015Y28841D01*
X31016Y28841D01*
X31017Y28841D01*
X31020Y28841D01*
X31141Y28841D01*
X31341Y28641D01*
X31341Y28359D01*
X31141Y28159D01*
X30859Y28159D01*
X30659Y28359D01*
X30659Y28641D01*
X30854Y28836D01*
X30855Y28837D01*
X30856Y28839D01*
X30858Y28841D01*
X30859Y28843D01*
X30860Y28845D01*
X30861Y28847D01*
X30861Y28850D01*
X30862Y28853D01*
X30862Y28855D01*
X30862Y28857D01*
X30862Y28859D01*
X30862Y28862D01*
X30861Y28864D01*
X30861Y28866D01*
X30859Y28868D01*
X30858Y28871D01*
X30857Y28873D01*
X30856Y28874D01*
X30854Y28876D01*
X30852Y28878D01*
X30850Y28879D01*
X30849Y28881D01*
X30844Y28883D01*
X30785Y28908D01*
X30767Y28926D01*
X30764Y28928D01*
X30761Y28930D01*
X30760Y28931D01*
X30759Y28931D01*
X30756Y28932D01*
X30752Y28934D01*
X30751Y28934D01*
X30750Y28934D01*
X30749Y28934D01*
X30746Y28934D01*
X29664Y28934D01*
X29661Y28934D01*
X29658Y28934D01*
X29656Y28933D01*
X29654Y28933D01*
X29652Y28931D01*
X29649Y28930D01*
X29647Y28929D01*
X29646Y28928D01*
X29644Y28926D01*
X29642Y28924D01*
X29641Y28923D01*
X29639Y28921D01*
X29638Y28918D01*
X29637Y28916D01*
X29636Y28914D01*
X29635Y28912D01*
X29635Y28910D01*
X29634Y28907D01*
X29635Y28905D01*
X29635Y28903D01*
X29635Y28900D01*
X29636Y28897D01*
X29636Y28895D01*
X29637Y28894D01*
X29638Y28891D01*
X29640Y28888D01*
X29641Y28886D01*
X29642Y28886D01*
X29642Y28885D01*
X29643Y28884D01*
X29808Y28719D01*
X29811Y28717D01*
X29814Y28715D01*
X29815Y28714D01*
X29816Y28714D01*
X29820Y28713D01*
X29823Y28711D01*
X29824Y28711D01*
X29825Y28711D01*
X29826Y28711D01*
X29829Y28711D01*
X29854Y28711D01*
X29935Y28677D01*
X29997Y28615D01*
X30031Y28534D01*
X30031Y28446D01*
X29997Y28365D01*
X29935Y28303D01*
X29854Y28269D01*
X29766Y28269D01*
X29685Y28303D01*
X29623Y28365D01*
X29589Y28446D01*
X29589Y28471D01*
X29589Y28475D01*
X29588Y28479D01*
X29588Y28480D01*
X29588Y28481D01*
X29586Y28484D01*
X29584Y28488D01*
X29583Y28489D01*
X29583Y28490D01*
X29581Y28492D01*
X28437Y29636D01*
X28434Y29638D01*
X28431Y29640D01*
X28430Y29641D01*
X28429Y29641D01*
X28425Y29642D01*
X28422Y29644D01*
X28421Y29644D01*
X28420Y29644D01*
X28419Y29644D01*
X28416Y29644D01*
X28391Y29644D01*
X28311Y29677D01*
X28309Y29678D01*
X28307Y29679D01*
X28305Y29679D01*
X28302Y29680D01*
X28300Y29679D01*
X28298Y29679D01*
X28295Y29679D01*
X28292Y29679D01*
X28291Y29678D01*
X28289Y29677D01*
X28286Y29676D01*
X28284Y29675D01*
X28282Y29673D01*
X28281Y29672D01*
X28279Y29670D01*
X28277Y29668D01*
X28276Y29666D01*
X28275Y29665D01*
X28274Y29662D01*
X28272Y29660D01*
X28272Y29658D01*
X28271Y29656D01*
X28271Y29650D01*
X28271Y25075D01*
X28271Y25073D01*
X28271Y25071D01*
X28272Y25068D01*
X28272Y25065D01*
X28273Y25063D01*
X28274Y25062D01*
X28276Y25059D01*
X28277Y25057D01*
X28278Y25055D01*
X28279Y25054D01*
X28282Y25052D01*
X28284Y25050D01*
X28286Y25049D01*
X28287Y25048D01*
X28290Y25048D01*
X28293Y25046D01*
X28295Y25046D01*
X28296Y25046D01*
X28299Y25046D01*
X28302Y25046D01*
X28304Y25046D01*
G37*
%LPC*%
G36*
X6278Y2999D02*
X6278Y2999D01*
X6094Y3075D01*
X5953Y3216D01*
X5877Y3400D01*
X5877Y3600D01*
X5953Y3784D01*
X6094Y3925D01*
X6278Y4001D01*
X6478Y4001D01*
X6662Y3925D01*
X6671Y3915D01*
X6672Y3914D01*
X6673Y3913D01*
X6676Y3912D01*
X6679Y3909D01*
X6680Y3909D01*
X6681Y3908D01*
X6685Y3908D01*
X6688Y3907D01*
X6689Y3907D01*
X6690Y3906D01*
X6694Y3907D01*
X6698Y3907D01*
X6699Y3907D01*
X6700Y3907D01*
X6703Y3909D01*
X6707Y3910D01*
X6707Y3911D01*
X6708Y3911D01*
X6713Y3915D01*
X13086Y10288D01*
X13088Y10291D01*
X13090Y10294D01*
X13091Y10295D01*
X13091Y10296D01*
X13092Y10300D01*
X13094Y10303D01*
X13094Y10304D01*
X13094Y10305D01*
X13094Y10306D01*
X13094Y10309D01*
X13094Y15357D01*
X13197Y15459D01*
X13851Y16113D01*
X13853Y16116D01*
X13855Y16119D01*
X13856Y16120D01*
X13856Y16121D01*
X13857Y16125D01*
X13859Y16128D01*
X13859Y16129D01*
X13859Y16130D01*
X13859Y16131D01*
X13859Y16134D01*
X13859Y16159D01*
X13893Y16240D01*
X13955Y16302D01*
X14036Y16336D01*
X14124Y16336D01*
X14205Y16302D01*
X14267Y16240D01*
X14301Y16159D01*
X14301Y16071D01*
X14267Y15990D01*
X14205Y15928D01*
X14124Y15894D01*
X14099Y15894D01*
X14095Y15894D01*
X14091Y15893D01*
X14090Y15893D01*
X14089Y15893D01*
X14086Y15891D01*
X14082Y15889D01*
X14081Y15888D01*
X14080Y15888D01*
X14078Y15886D01*
X13800Y15607D01*
X13798Y15606D01*
X13797Y15604D01*
X13796Y15602D01*
X13794Y15599D01*
X13793Y15598D01*
X13792Y15596D01*
X13792Y15593D01*
X13791Y15590D01*
X13791Y15588D01*
X13791Y15586D01*
X13791Y15584D01*
X13792Y15581D01*
X13792Y15579D01*
X13793Y15577D01*
X13794Y15574D01*
X13795Y15572D01*
X13796Y15570D01*
X13797Y15568D01*
X13799Y15567D01*
X13801Y15564D01*
X13803Y15563D01*
X13804Y15562D01*
X13809Y15559D01*
X13875Y15532D01*
X13937Y15470D01*
X13971Y15389D01*
X13971Y15301D01*
X13937Y15220D01*
X13919Y15202D01*
X13917Y15199D01*
X13915Y15196D01*
X13914Y15195D01*
X13914Y15194D01*
X13913Y15191D01*
X13911Y15187D01*
X13911Y15186D01*
X13911Y15185D01*
X13911Y15184D01*
X13911Y15181D01*
X13911Y10309D01*
X13911Y10305D01*
X13912Y10301D01*
X13912Y10300D01*
X13912Y10299D01*
X13914Y10296D01*
X13916Y10292D01*
X13917Y10291D01*
X13917Y10290D01*
X13919Y10288D01*
X15176Y9032D01*
X15176Y4030D01*
X15176Y4029D01*
X15176Y4028D01*
X15177Y4024D01*
X15177Y4021D01*
X15178Y4020D01*
X15178Y4019D01*
X15180Y4015D01*
X15182Y4012D01*
X15183Y4011D01*
X15186Y4008D01*
X15189Y4006D01*
X15190Y4005D01*
X15191Y4005D01*
X15194Y4003D01*
X15198Y4002D01*
X15199Y4002D01*
X15200Y4001D01*
X15205Y4001D01*
X15442Y4001D01*
X15501Y3942D01*
X15501Y3058D01*
X15442Y2999D01*
X14558Y2999D01*
X14499Y3058D01*
X14499Y3942D01*
X14558Y4001D01*
X14825Y4001D01*
X14826Y4001D01*
X14827Y4001D01*
X14831Y4002D01*
X14834Y4002D01*
X14835Y4003D01*
X14836Y4003D01*
X14840Y4005D01*
X14843Y4007D01*
X14844Y4008D01*
X14847Y4011D01*
X14849Y4014D01*
X14850Y4015D01*
X14850Y4016D01*
X14852Y4019D01*
X14853Y4023D01*
X14853Y4024D01*
X14854Y4025D01*
X14854Y4030D01*
X14854Y8886D01*
X14854Y8890D01*
X14853Y8894D01*
X14853Y8895D01*
X14853Y8896D01*
X14851Y8899D01*
X14849Y8903D01*
X14848Y8904D01*
X14848Y8905D01*
X14846Y8907D01*
X13589Y10163D01*
X13589Y15181D01*
X13589Y15185D01*
X13588Y15189D01*
X13588Y15190D01*
X13588Y15191D01*
X13586Y15194D01*
X13584Y15198D01*
X13583Y15199D01*
X13583Y15200D01*
X13581Y15202D01*
X13563Y15220D01*
X13536Y15286D01*
X13534Y15288D01*
X13534Y15290D01*
X13532Y15292D01*
X13530Y15294D01*
X13529Y15295D01*
X13528Y15297D01*
X13525Y15298D01*
X13523Y15300D01*
X13521Y15301D01*
X13519Y15302D01*
X13517Y15303D01*
X13514Y15303D01*
X13512Y15304D01*
X13510Y15304D01*
X13507Y15304D01*
X13505Y15304D01*
X13503Y15303D01*
X13501Y15303D01*
X13498Y15302D01*
X13495Y15301D01*
X13494Y15300D01*
X13492Y15299D01*
X13488Y15295D01*
X13424Y15232D01*
X13422Y15229D01*
X13420Y15226D01*
X13419Y15225D01*
X13419Y15224D01*
X13418Y15220D01*
X13416Y15217D01*
X13416Y15216D01*
X13416Y15215D01*
X13416Y15214D01*
X13416Y15211D01*
X13416Y10163D01*
X6885Y3632D01*
X6882Y3628D01*
X6879Y3625D01*
X6879Y3624D01*
X6878Y3620D01*
X6876Y3615D01*
X6877Y3611D01*
X6877Y3606D01*
X6878Y3600D01*
X6879Y3600D01*
X6879Y3400D01*
X6802Y3216D01*
X6662Y3075D01*
X6478Y2999D01*
X6278Y2999D01*
G37*
%LPD*%
%LPC*%
G36*
X37003Y2589D02*
X37003Y2589D01*
X36538Y3054D01*
X36537Y3055D01*
X36537Y3056D01*
X36534Y3058D01*
X36530Y3060D01*
X36529Y3060D01*
X36529Y3061D01*
X36525Y3062D01*
X36521Y3063D01*
X36520Y3063D01*
X36519Y3063D01*
X36516Y3063D01*
X36512Y3062D01*
X36511Y3062D01*
X36510Y3062D01*
X36506Y3060D01*
X36503Y3059D01*
X36502Y3058D01*
X36501Y3058D01*
X36497Y3054D01*
X36442Y2999D01*
X35558Y2999D01*
X35499Y3058D01*
X35499Y3942D01*
X35558Y4001D01*
X36442Y4001D01*
X36501Y3942D01*
X36501Y3559D01*
X36501Y3555D01*
X36502Y3551D01*
X36502Y3550D01*
X36502Y3549D01*
X36504Y3546D01*
X36506Y3542D01*
X36507Y3541D01*
X36507Y3540D01*
X36509Y3538D01*
X37128Y2919D01*
X37131Y2917D01*
X37134Y2915D01*
X37135Y2914D01*
X37136Y2914D01*
X37140Y2913D01*
X37143Y2911D01*
X37144Y2911D01*
X37145Y2911D01*
X37146Y2911D01*
X37149Y2911D01*
X49586Y2911D01*
X49590Y2911D01*
X49594Y2912D01*
X49595Y2912D01*
X49596Y2912D01*
X49599Y2914D01*
X49603Y2916D01*
X49604Y2917D01*
X49605Y2917D01*
X49607Y2919D01*
X56021Y9333D01*
X56023Y9336D01*
X56025Y9339D01*
X56026Y9340D01*
X56026Y9341D01*
X56027Y9345D01*
X56029Y9348D01*
X56029Y9349D01*
X56029Y9350D01*
X56029Y9351D01*
X56029Y9354D01*
X56029Y9544D01*
X56101Y9717D01*
X56233Y9849D01*
X56406Y9921D01*
X56594Y9921D01*
X56767Y9849D01*
X56899Y9717D01*
X56971Y9544D01*
X56971Y9356D01*
X56899Y9183D01*
X56767Y9051D01*
X56594Y8979D01*
X56406Y8979D01*
X56233Y9051D01*
X56232Y9052D01*
X56229Y9054D01*
X56226Y9056D01*
X56225Y9056D01*
X56224Y9057D01*
X56221Y9058D01*
X56217Y9059D01*
X56216Y9059D01*
X56215Y9059D01*
X56211Y9058D01*
X56207Y9058D01*
X56206Y9058D01*
X56205Y9058D01*
X56202Y9056D01*
X56199Y9055D01*
X56198Y9054D01*
X56197Y9054D01*
X56193Y9050D01*
X49834Y2692D01*
X49732Y2589D01*
X37003Y2589D01*
G37*
%LPD*%
%LPC*%
G36*
X23826Y14299D02*
X23826Y14299D01*
X23745Y14333D01*
X23683Y14395D01*
X23649Y14476D01*
X23649Y14501D01*
X23649Y14505D01*
X23648Y14509D01*
X23648Y14510D01*
X23648Y14511D01*
X23646Y14514D01*
X23644Y14518D01*
X23643Y14519D01*
X23643Y14520D01*
X23641Y14522D01*
X9136Y29027D01*
X9135Y29027D01*
X9132Y29030D01*
X9128Y29033D01*
X9123Y29034D01*
X9119Y29035D01*
X9118Y29035D01*
X9114Y29035D01*
X9109Y29035D01*
X9104Y29033D01*
X9094Y29029D01*
X8906Y29029D01*
X8733Y29101D01*
X8601Y29233D01*
X8529Y29406D01*
X8529Y29594D01*
X8601Y29767D01*
X8733Y29899D01*
X8906Y29971D01*
X9094Y29971D01*
X9267Y29899D01*
X9399Y29767D01*
X9471Y29594D01*
X9471Y29406D01*
X9402Y29241D01*
X9401Y29236D01*
X9400Y29231D01*
X9400Y29227D01*
X9401Y29222D01*
X9403Y29218D01*
X9405Y29213D01*
X9408Y29209D01*
X23868Y14749D01*
X23871Y14747D01*
X23874Y14745D01*
X23875Y14744D01*
X23876Y14744D01*
X23880Y14743D01*
X23883Y14741D01*
X23884Y14741D01*
X23885Y14741D01*
X23886Y14741D01*
X23889Y14741D01*
X23914Y14741D01*
X23995Y14707D01*
X24057Y14645D01*
X24091Y14564D01*
X24091Y14476D01*
X24057Y14395D01*
X23995Y14333D01*
X23914Y14299D01*
X23826Y14299D01*
G37*
%LPD*%
%LPC*%
G36*
X13406Y29029D02*
X13406Y29029D01*
X13233Y29101D01*
X13101Y29233D01*
X13029Y29406D01*
X13029Y29594D01*
X13101Y29767D01*
X13233Y29899D01*
X13406Y29971D01*
X13561Y29971D01*
X13565Y29971D01*
X13569Y29972D01*
X13570Y29972D01*
X13571Y29972D01*
X13574Y29974D01*
X13578Y29976D01*
X13579Y29977D01*
X13580Y29977D01*
X13582Y29979D01*
X13692Y30089D01*
X14013Y30411D01*
X15627Y30411D01*
X15629Y30411D01*
X15631Y30411D01*
X15634Y30412D01*
X15637Y30412D01*
X15639Y30413D01*
X15640Y30414D01*
X15643Y30416D01*
X15645Y30417D01*
X15647Y30418D01*
X15648Y30419D01*
X15650Y30422D01*
X15652Y30424D01*
X15653Y30426D01*
X15654Y30427D01*
X15655Y30430D01*
X15656Y30433D01*
X15656Y30435D01*
X15656Y30436D01*
X15656Y30439D01*
X15657Y30442D01*
X15656Y30444D01*
X15656Y30446D01*
X15654Y30451D01*
X15619Y30536D01*
X15619Y30561D01*
X15619Y30565D01*
X15618Y30569D01*
X15618Y30570D01*
X15618Y30571D01*
X15617Y30573D01*
X15616Y30574D01*
X15614Y30578D01*
X15613Y30579D01*
X15613Y30580D01*
X15612Y30581D01*
X15611Y30581D01*
X15611Y30582D01*
X11157Y35036D01*
X11153Y35039D01*
X11149Y35041D01*
X11149Y35042D01*
X11144Y35043D01*
X11140Y35044D01*
X11135Y35044D01*
X11130Y35044D01*
X11125Y35042D01*
X11094Y35029D01*
X10906Y35029D01*
X10733Y35101D01*
X10601Y35233D01*
X10529Y35406D01*
X10529Y35594D01*
X10601Y35767D01*
X10733Y35899D01*
X10906Y35971D01*
X11094Y35971D01*
X11267Y35899D01*
X11399Y35767D01*
X11471Y35594D01*
X11471Y35406D01*
X11411Y35262D01*
X11410Y35257D01*
X11409Y35253D01*
X11409Y35252D01*
X11409Y35248D01*
X11410Y35243D01*
X11412Y35239D01*
X11414Y35234D01*
X11417Y35230D01*
X15838Y30809D01*
X15841Y30807D01*
X15844Y30805D01*
X15845Y30804D01*
X15846Y30804D01*
X15850Y30803D01*
X15853Y30801D01*
X15854Y30801D01*
X15855Y30801D01*
X15856Y30801D01*
X15859Y30801D01*
X15884Y30801D01*
X15965Y30767D01*
X16027Y30705D01*
X16054Y30639D01*
X16056Y30637D01*
X16056Y30635D01*
X16058Y30633D01*
X16060Y30631D01*
X16061Y30630D01*
X16062Y30628D01*
X16065Y30627D01*
X16067Y30625D01*
X16069Y30624D01*
X16071Y30623D01*
X16073Y30622D01*
X16076Y30622D01*
X16078Y30621D01*
X16080Y30621D01*
X16083Y30621D01*
X16085Y30621D01*
X16087Y30622D01*
X16089Y30622D01*
X16092Y30623D01*
X16095Y30624D01*
X16096Y30625D01*
X16098Y30626D01*
X16102Y30630D01*
X16381Y30908D01*
X16383Y30911D01*
X16385Y30914D01*
X16386Y30915D01*
X16386Y30916D01*
X16387Y30920D01*
X16389Y30923D01*
X16389Y30924D01*
X16389Y30925D01*
X16389Y30926D01*
X16389Y30929D01*
X16389Y30954D01*
X16423Y31035D01*
X16485Y31097D01*
X16566Y31131D01*
X16654Y31131D01*
X16735Y31097D01*
X16797Y31035D01*
X16831Y30954D01*
X16831Y30866D01*
X16797Y30785D01*
X16735Y30723D01*
X16654Y30689D01*
X16629Y30689D01*
X16625Y30689D01*
X16621Y30688D01*
X16620Y30688D01*
X16619Y30688D01*
X16616Y30686D01*
X16612Y30684D01*
X16611Y30683D01*
X16610Y30683D01*
X16608Y30681D01*
X16119Y30192D01*
X16017Y30089D01*
X14159Y30089D01*
X14155Y30089D01*
X14151Y30088D01*
X14150Y30088D01*
X14149Y30088D01*
X14146Y30086D01*
X14142Y30084D01*
X14141Y30083D01*
X14140Y30083D01*
X14138Y30081D01*
X13919Y29862D01*
X13917Y29859D01*
X13915Y29856D01*
X13914Y29855D01*
X13914Y29854D01*
X13913Y29850D01*
X13911Y29847D01*
X13911Y29846D01*
X13911Y29845D01*
X13911Y29844D01*
X13911Y29841D01*
X13911Y29798D01*
X13907Y29795D01*
X13904Y29791D01*
X13901Y29787D01*
X13900Y29782D01*
X13899Y29778D01*
X13899Y29773D01*
X13899Y29768D01*
X13901Y29763D01*
X13971Y29594D01*
X13971Y29406D01*
X13899Y29233D01*
X13767Y29101D01*
X13594Y29029D01*
X13406Y29029D01*
G37*
%LPD*%
%LPC*%
G36*
X26521Y26949D02*
X26521Y26949D01*
X26440Y26983D01*
X26378Y27045D01*
X26344Y27126D01*
X26344Y27151D01*
X26344Y27155D01*
X26343Y27159D01*
X26343Y27160D01*
X26343Y27161D01*
X26341Y27164D01*
X26339Y27168D01*
X26338Y27169D01*
X26338Y27170D01*
X26336Y27172D01*
X18438Y35069D01*
X18438Y35070D01*
X18434Y35072D01*
X18430Y35075D01*
X18426Y35076D01*
X18421Y35078D01*
X18416Y35078D01*
X18412Y35077D01*
X18406Y35076D01*
X18222Y34999D01*
X18022Y34999D01*
X17838Y35075D01*
X17698Y35216D01*
X17621Y35400D01*
X17621Y35600D01*
X17698Y35784D01*
X17838Y35925D01*
X18022Y36001D01*
X18222Y36001D01*
X18406Y35925D01*
X18547Y35784D01*
X18623Y35600D01*
X18623Y35400D01*
X18612Y35375D01*
X18611Y35371D01*
X18610Y35366D01*
X18611Y35361D01*
X18611Y35357D01*
X18611Y35356D01*
X18613Y35352D01*
X18615Y35348D01*
X18619Y35344D01*
X26563Y27399D01*
X26566Y27397D01*
X26569Y27395D01*
X26570Y27394D01*
X26571Y27394D01*
X26575Y27393D01*
X26578Y27391D01*
X26579Y27391D01*
X26580Y27391D01*
X26581Y27391D01*
X26584Y27391D01*
X26609Y27391D01*
X26690Y27357D01*
X26752Y27295D01*
X26786Y27214D01*
X26786Y27126D01*
X26752Y27045D01*
X26690Y26983D01*
X26609Y26949D01*
X26521Y26949D01*
G37*
%LPD*%
%LPC*%
G36*
X16278Y2999D02*
X16278Y2999D01*
X16094Y3075D01*
X15953Y3216D01*
X15877Y3400D01*
X15877Y3600D01*
X15953Y3784D01*
X16094Y3925D01*
X16101Y3927D01*
X16105Y3930D01*
X16109Y3932D01*
X16109Y3933D01*
X16112Y3936D01*
X16115Y3940D01*
X16117Y3944D01*
X16119Y3949D01*
X16119Y3954D01*
X16119Y8446D01*
X16119Y8450D01*
X16118Y8454D01*
X16118Y8455D01*
X16118Y8456D01*
X16116Y8459D01*
X16114Y8463D01*
X16113Y8464D01*
X16113Y8465D01*
X16111Y8467D01*
X14557Y10021D01*
X14554Y10023D01*
X14551Y10025D01*
X14550Y10026D01*
X14549Y10026D01*
X14545Y10027D01*
X14542Y10029D01*
X14541Y10029D01*
X14540Y10029D01*
X14539Y10029D01*
X14536Y10029D01*
X14406Y10029D01*
X14233Y10101D01*
X14101Y10233D01*
X14029Y10406D01*
X14029Y10594D01*
X14101Y10767D01*
X14233Y10899D01*
X14406Y10971D01*
X14594Y10971D01*
X14767Y10899D01*
X14899Y10767D01*
X14971Y10594D01*
X14971Y10406D01*
X14899Y10233D01*
X14870Y10204D01*
X14869Y10203D01*
X14868Y10202D01*
X14866Y10199D01*
X14864Y10196D01*
X14864Y10195D01*
X14863Y10194D01*
X14862Y10191D01*
X14861Y10187D01*
X14861Y10186D01*
X14861Y10185D01*
X14862Y10181D01*
X14862Y10177D01*
X14862Y10176D01*
X14862Y10175D01*
X14864Y10172D01*
X14865Y10169D01*
X14866Y10168D01*
X14866Y10167D01*
X14870Y10163D01*
X16338Y8694D01*
X16441Y8592D01*
X16441Y4030D01*
X16441Y4029D01*
X16441Y4028D01*
X16442Y4024D01*
X16442Y4021D01*
X16443Y4020D01*
X16443Y4019D01*
X16445Y4015D01*
X16447Y4012D01*
X16448Y4011D01*
X16451Y4008D01*
X16454Y4006D01*
X16455Y4005D01*
X16456Y4005D01*
X16459Y4003D01*
X16463Y4002D01*
X16464Y4002D01*
X16465Y4001D01*
X16470Y4001D01*
X16478Y4001D01*
X16662Y3925D01*
X16802Y3784D01*
X16879Y3600D01*
X16879Y3400D01*
X16802Y3216D01*
X16662Y3075D01*
X16478Y2999D01*
X16278Y2999D01*
G37*
%LPD*%
%LPC*%
G36*
X60477Y28014D02*
X60477Y28014D01*
X60226Y28081D01*
X60001Y28211D01*
X59818Y28395D01*
X59688Y28620D01*
X59621Y28870D01*
X59621Y29130D01*
X59626Y29150D01*
X59634Y29180D01*
X59657Y29267D01*
X59665Y29297D01*
X59688Y29380D01*
X59818Y29605D01*
X60001Y29789D01*
X60226Y29919D01*
X60477Y29986D01*
X60736Y29986D01*
X60987Y29919D01*
X61212Y29789D01*
X61395Y29605D01*
X61525Y29380D01*
X61592Y29130D01*
X61592Y28870D01*
X61585Y28843D01*
X61577Y28814D01*
X61554Y28726D01*
X61546Y28697D01*
X61525Y28620D01*
X61395Y28395D01*
X61212Y28211D01*
X60987Y28081D01*
X60736Y28014D01*
X60477Y28014D01*
G37*
%LPD*%
%LPC*%
G36*
X53950Y29750D02*
X53950Y29750D01*
X53859Y29788D01*
X53788Y29859D01*
X53762Y29923D01*
X53760Y29926D01*
X53759Y29928D01*
X53757Y29930D01*
X53757Y29931D01*
X53756Y29931D01*
X53755Y29932D01*
X52417Y31271D01*
X52414Y31273D01*
X52411Y31275D01*
X52410Y31276D01*
X52409Y31276D01*
X52406Y31277D01*
X52402Y31279D01*
X52401Y31279D01*
X52400Y31279D01*
X52399Y31279D01*
X52396Y31279D01*
X49625Y31279D01*
X49622Y31279D01*
X49619Y31279D01*
X49617Y31278D01*
X49616Y31278D01*
X49615Y31277D01*
X49614Y31277D01*
X49550Y31250D01*
X49450Y31250D01*
X49359Y31288D01*
X49288Y31359D01*
X49250Y31450D01*
X49250Y31550D01*
X49288Y31641D01*
X49359Y31712D01*
X49450Y31750D01*
X49550Y31750D01*
X49614Y31723D01*
X49617Y31722D01*
X49620Y31721D01*
X49623Y31721D01*
X49624Y31721D01*
X49625Y31721D01*
X52544Y31721D01*
X52625Y31687D01*
X54068Y30245D01*
X54070Y30243D01*
X54072Y30241D01*
X54075Y30240D01*
X54075Y30239D01*
X54076Y30239D01*
X54077Y30238D01*
X54141Y30212D01*
X54212Y30141D01*
X54250Y30050D01*
X54250Y29950D01*
X54212Y29859D01*
X54141Y29788D01*
X54050Y29750D01*
X53950Y29750D01*
G37*
%LPD*%
%LPC*%
G36*
X1831Y1149D02*
X1831Y1149D01*
X1518Y1279D01*
X1279Y1518D01*
X1149Y1831D01*
X1149Y2169D01*
X1279Y2482D01*
X1518Y2721D01*
X1831Y2851D01*
X2169Y2851D01*
X2482Y2721D01*
X2721Y2482D01*
X2851Y2169D01*
X2851Y1831D01*
X2721Y1518D01*
X2482Y1279D01*
X2169Y1149D01*
X1831Y1149D01*
G37*
%LPD*%
%LPC*%
G36*
X1831Y37149D02*
X1831Y37149D01*
X1518Y37279D01*
X1279Y37518D01*
X1149Y37831D01*
X1149Y38169D01*
X1279Y38482D01*
X1518Y38721D01*
X1831Y38851D01*
X2169Y38851D01*
X2482Y38721D01*
X2721Y38482D01*
X2851Y38169D01*
X2851Y37831D01*
X2721Y37518D01*
X2482Y37279D01*
X2169Y37149D01*
X1831Y37149D01*
G37*
%LPD*%
%LPC*%
G36*
X62831Y1149D02*
X62831Y1149D01*
X62518Y1279D01*
X62279Y1518D01*
X62149Y1831D01*
X62149Y2169D01*
X62279Y2482D01*
X62518Y2721D01*
X62831Y2851D01*
X63169Y2851D01*
X63482Y2721D01*
X63721Y2482D01*
X63851Y2169D01*
X63851Y1831D01*
X63721Y1518D01*
X63482Y1279D01*
X63169Y1149D01*
X62831Y1149D01*
G37*
%LPD*%
%LPC*%
G36*
X62831Y37149D02*
X62831Y37149D01*
X62518Y37279D01*
X62279Y37518D01*
X62149Y37831D01*
X62149Y38169D01*
X62279Y38482D01*
X62518Y38721D01*
X62831Y38851D01*
X63169Y38851D01*
X63482Y38721D01*
X63721Y38482D01*
X63851Y38169D01*
X63851Y37831D01*
X63721Y37518D01*
X63482Y37279D01*
X63169Y37149D01*
X62831Y37149D01*
G37*
%LPD*%
%LPC*%
G36*
X38851Y13749D02*
X38851Y13749D01*
X38575Y13864D01*
X38364Y14075D01*
X38249Y14351D01*
X38249Y14649D01*
X38364Y14925D01*
X38575Y15136D01*
X38851Y15251D01*
X39149Y15251D01*
X39425Y15136D01*
X39636Y14925D01*
X39751Y14649D01*
X39751Y14351D01*
X39636Y14075D01*
X39425Y13864D01*
X39149Y13749D01*
X38851Y13749D01*
G37*
%LPD*%
%LPC*%
G36*
X38851Y16249D02*
X38851Y16249D01*
X38575Y16364D01*
X38364Y16575D01*
X38249Y16851D01*
X38249Y17149D01*
X38364Y17425D01*
X38575Y17636D01*
X38851Y17751D01*
X39149Y17751D01*
X39425Y17636D01*
X39636Y17425D01*
X39751Y17149D01*
X39751Y16851D01*
X39636Y16575D01*
X39425Y16364D01*
X39149Y16249D01*
X38851Y16249D01*
G37*
%LPD*%
%LPC*%
G36*
X62351Y19750D02*
X62351Y19750D01*
X62075Y19864D01*
X61864Y20075D01*
X61750Y20351D01*
X61750Y20649D01*
X61864Y20925D01*
X62075Y21136D01*
X62351Y21250D01*
X62649Y21250D01*
X62925Y21136D01*
X63136Y20925D01*
X63250Y20649D01*
X63250Y20351D01*
X63136Y20075D01*
X62925Y19864D01*
X62649Y19750D01*
X62351Y19750D01*
G37*
%LPD*%
%LPC*%
G36*
X62351Y15750D02*
X62351Y15750D01*
X62075Y15864D01*
X61864Y16075D01*
X61750Y16351D01*
X61750Y16649D01*
X61864Y16925D01*
X62075Y17136D01*
X62351Y17250D01*
X62649Y17250D01*
X62925Y17136D01*
X63136Y16925D01*
X63250Y16649D01*
X63250Y16351D01*
X63136Y16075D01*
X62925Y15864D01*
X62649Y15750D01*
X62351Y15750D01*
G37*
%LPD*%
%LPC*%
G36*
X47359Y18159D02*
X47359Y18159D01*
X47159Y18359D01*
X47159Y18601D01*
X47159Y18605D01*
X47158Y18609D01*
X47158Y18610D01*
X47158Y18611D01*
X47156Y18614D01*
X47154Y18618D01*
X47153Y18619D01*
X47153Y18620D01*
X47151Y18622D01*
X45592Y20181D01*
X45589Y20183D01*
X45586Y20185D01*
X45585Y20186D01*
X45584Y20186D01*
X45580Y20187D01*
X45577Y20189D01*
X45576Y20189D01*
X45575Y20189D01*
X45574Y20189D01*
X45571Y20189D01*
X45304Y20189D01*
X45300Y20189D01*
X45297Y20188D01*
X45296Y20188D01*
X45295Y20188D01*
X45291Y20186D01*
X45288Y20184D01*
X45287Y20183D01*
X45286Y20183D01*
X45284Y20181D01*
X45241Y20138D01*
X45150Y20100D01*
X45050Y20100D01*
X44959Y20138D01*
X44888Y20209D01*
X44850Y20300D01*
X44850Y20400D01*
X44888Y20491D01*
X44959Y20562D01*
X45050Y20600D01*
X45150Y20600D01*
X45241Y20562D01*
X45284Y20519D01*
X45287Y20517D01*
X45290Y20515D01*
X45291Y20514D01*
X45292Y20514D01*
X45295Y20513D01*
X45299Y20511D01*
X45300Y20511D01*
X45301Y20511D01*
X45302Y20511D01*
X45304Y20511D01*
X45717Y20511D01*
X47378Y18849D01*
X47381Y18847D01*
X47384Y18845D01*
X47385Y18844D01*
X47386Y18844D01*
X47390Y18843D01*
X47393Y18841D01*
X47394Y18841D01*
X47395Y18841D01*
X47396Y18841D01*
X47399Y18841D01*
X47641Y18841D01*
X47841Y18641D01*
X47841Y18359D01*
X47641Y18159D01*
X47359Y18159D01*
G37*
%LPD*%
%LPC*%
G36*
X31471Y34099D02*
X31471Y34099D01*
X31390Y34133D01*
X31328Y34195D01*
X31294Y34276D01*
X31294Y34301D01*
X31294Y34305D01*
X31293Y34309D01*
X31293Y34310D01*
X31293Y34311D01*
X31291Y34314D01*
X31289Y34318D01*
X31288Y34319D01*
X31288Y34320D01*
X31286Y34322D01*
X30687Y34921D01*
X30587Y35021D01*
X30584Y35023D01*
X30581Y35025D01*
X30580Y35026D01*
X30579Y35026D01*
X30575Y35027D01*
X30572Y35029D01*
X30571Y35029D01*
X30570Y35029D01*
X30569Y35029D01*
X30566Y35029D01*
X30406Y35029D01*
X30233Y35101D01*
X30101Y35233D01*
X30029Y35406D01*
X30029Y35594D01*
X30101Y35767D01*
X30233Y35899D01*
X30406Y35971D01*
X30594Y35971D01*
X30767Y35899D01*
X30899Y35767D01*
X30971Y35594D01*
X30971Y35406D01*
X30902Y35241D01*
X30901Y35236D01*
X30900Y35231D01*
X30900Y35227D01*
X30901Y35222D01*
X30903Y35217D01*
X30905Y35213D01*
X30906Y35212D01*
X30906Y35169D01*
X30906Y35165D01*
X30907Y35161D01*
X30907Y35160D01*
X30907Y35159D01*
X30909Y35156D01*
X30911Y35152D01*
X30912Y35151D01*
X30912Y35150D01*
X30914Y35148D01*
X31513Y34549D01*
X31516Y34547D01*
X31519Y34545D01*
X31520Y34544D01*
X31521Y34544D01*
X31525Y34543D01*
X31528Y34541D01*
X31529Y34541D01*
X31530Y34541D01*
X31531Y34541D01*
X31534Y34541D01*
X31559Y34541D01*
X31640Y34507D01*
X31702Y34445D01*
X31736Y34364D01*
X31736Y34276D01*
X31702Y34195D01*
X31640Y34133D01*
X31559Y34099D01*
X31471Y34099D01*
G37*
%LPD*%
%LPC*%
G36*
X4558Y2999D02*
X4558Y2999D01*
X4499Y3058D01*
X4499Y3942D01*
X4558Y4001D01*
X5442Y4001D01*
X5501Y3942D01*
X5501Y3058D01*
X5442Y2999D01*
X4558Y2999D01*
G37*
%LPD*%
%LPC*%
G36*
X36144Y34999D02*
X36144Y34999D01*
X35960Y35075D01*
X35820Y35216D01*
X35743Y35400D01*
X35743Y35600D01*
X35820Y35784D01*
X35960Y35925D01*
X36144Y36001D01*
X36344Y36001D01*
X36528Y35925D01*
X36669Y35784D01*
X36745Y35600D01*
X36745Y35400D01*
X36669Y35216D01*
X36528Y35075D01*
X36344Y34999D01*
X36144Y34999D01*
G37*
%LPD*%
%LPC*%
G36*
X37278Y2999D02*
X37278Y2999D01*
X37094Y3075D01*
X36953Y3216D01*
X36877Y3400D01*
X36877Y3600D01*
X36953Y3784D01*
X37094Y3925D01*
X37278Y4001D01*
X37478Y4001D01*
X37662Y3925D01*
X37802Y3784D01*
X37879Y3600D01*
X37879Y3400D01*
X37802Y3216D01*
X37662Y3075D01*
X37478Y2999D01*
X37278Y2999D01*
G37*
%LPD*%
%LPC*%
G36*
X29034Y2999D02*
X29034Y2999D01*
X28850Y3075D01*
X28709Y3216D01*
X28633Y3400D01*
X28633Y3600D01*
X28709Y3784D01*
X28850Y3925D01*
X29034Y4001D01*
X29233Y4001D01*
X29418Y3925D01*
X29558Y3784D01*
X29635Y3600D01*
X29635Y3400D01*
X29558Y3216D01*
X29418Y3075D01*
X29233Y2999D01*
X29034Y2999D01*
G37*
%LPD*%
%LPC*%
G36*
X57522Y34999D02*
X57522Y34999D01*
X57338Y35075D01*
X57198Y35216D01*
X57121Y35400D01*
X57121Y35600D01*
X57198Y35784D01*
X57338Y35925D01*
X57522Y36001D01*
X57722Y36001D01*
X57906Y35925D01*
X58047Y35784D01*
X58123Y35600D01*
X58123Y35400D01*
X58047Y35216D01*
X57906Y35075D01*
X57722Y34999D01*
X57522Y34999D01*
G37*
%LPD*%
%LPC*%
G36*
X19034Y2999D02*
X19034Y2999D01*
X18850Y3075D01*
X18709Y3216D01*
X18633Y3400D01*
X18633Y3600D01*
X18709Y3784D01*
X18850Y3925D01*
X19034Y4001D01*
X19233Y4001D01*
X19418Y3925D01*
X19558Y3784D01*
X19635Y3600D01*
X19635Y3400D01*
X19558Y3216D01*
X19418Y3075D01*
X19233Y2999D01*
X19034Y2999D01*
G37*
%LPD*%
%LPC*%
G36*
X38656Y2999D02*
X38656Y2999D01*
X38472Y3075D01*
X38331Y3216D01*
X38255Y3400D01*
X38255Y3600D01*
X38331Y3784D01*
X38472Y3925D01*
X38656Y4001D01*
X38856Y4001D01*
X39040Y3925D01*
X39180Y3784D01*
X39257Y3600D01*
X39257Y3400D01*
X39180Y3216D01*
X39040Y3075D01*
X38856Y2999D01*
X38656Y2999D01*
G37*
%LPD*%
%LPC*%
G36*
X9034Y2999D02*
X9034Y2999D01*
X8850Y3075D01*
X8709Y3216D01*
X8633Y3400D01*
X8633Y3600D01*
X8709Y3784D01*
X8850Y3925D01*
X9034Y4001D01*
X9233Y4001D01*
X9418Y3925D01*
X9558Y3784D01*
X9635Y3600D01*
X9635Y3400D01*
X9558Y3216D01*
X9418Y3075D01*
X9233Y2999D01*
X9034Y2999D01*
G37*
%LPD*%
%LPC*%
G36*
X16644Y34999D02*
X16644Y34999D01*
X16460Y35075D01*
X16320Y35216D01*
X16243Y35400D01*
X16243Y35600D01*
X16320Y35784D01*
X16460Y35925D01*
X16644Y36001D01*
X16844Y36001D01*
X17028Y35925D01*
X17169Y35784D01*
X17245Y35600D01*
X17245Y35400D01*
X17169Y35216D01*
X17028Y35075D01*
X16844Y34999D01*
X16644Y34999D01*
G37*
%LPD*%
%LPC*%
G36*
X7656Y2999D02*
X7656Y2999D01*
X7472Y3075D01*
X7331Y3216D01*
X7255Y3400D01*
X7255Y3600D01*
X7331Y3784D01*
X7472Y3925D01*
X7656Y4001D01*
X7856Y4001D01*
X8040Y3925D01*
X8180Y3784D01*
X8257Y3600D01*
X8257Y3400D01*
X8180Y3216D01*
X8040Y3075D01*
X7856Y2999D01*
X7656Y2999D01*
G37*
%LPD*%
%LPC*%
G36*
X17656Y2999D02*
X17656Y2999D01*
X17472Y3075D01*
X17331Y3216D01*
X17255Y3400D01*
X17255Y3600D01*
X17331Y3784D01*
X17472Y3925D01*
X17656Y4001D01*
X17856Y4001D01*
X18040Y3925D01*
X18180Y3784D01*
X18257Y3600D01*
X18257Y3400D01*
X18180Y3216D01*
X18040Y3075D01*
X17856Y2999D01*
X17656Y2999D01*
G37*
%LPD*%
%LPC*%
G36*
X56406Y7979D02*
X56406Y7979D01*
X56233Y8051D01*
X56101Y8183D01*
X56029Y8356D01*
X56029Y8544D01*
X56101Y8717D01*
X56233Y8849D01*
X56406Y8921D01*
X56594Y8921D01*
X56767Y8849D01*
X56899Y8717D01*
X56971Y8544D01*
X56971Y8356D01*
X56899Y8183D01*
X56767Y8051D01*
X56594Y7979D01*
X56406Y7979D01*
G37*
%LPD*%
%LPC*%
G36*
X56406Y9979D02*
X56406Y9979D01*
X56233Y10051D01*
X56101Y10183D01*
X56029Y10356D01*
X56029Y10544D01*
X56101Y10717D01*
X56233Y10849D01*
X56406Y10921D01*
X56594Y10921D01*
X56767Y10849D01*
X56899Y10717D01*
X56971Y10544D01*
X56971Y10356D01*
X56899Y10183D01*
X56767Y10051D01*
X56594Y9979D01*
X56406Y9979D01*
G37*
%LPD*%
%LPC*%
G36*
X19406Y10029D02*
X19406Y10029D01*
X19233Y10101D01*
X19101Y10233D01*
X19029Y10406D01*
X19029Y10594D01*
X19101Y10767D01*
X19233Y10899D01*
X19406Y10971D01*
X19594Y10971D01*
X19767Y10899D01*
X19899Y10767D01*
X19971Y10594D01*
X19971Y10406D01*
X19899Y10233D01*
X19767Y10101D01*
X19594Y10029D01*
X19406Y10029D01*
G37*
%LPD*%
%LPC*%
G36*
X56406Y6979D02*
X56406Y6979D01*
X56233Y7051D01*
X56101Y7183D01*
X56029Y7356D01*
X56029Y7544D01*
X56101Y7717D01*
X56233Y7849D01*
X56406Y7921D01*
X56594Y7921D01*
X56767Y7849D01*
X56899Y7717D01*
X56971Y7544D01*
X56971Y7356D01*
X56899Y7183D01*
X56767Y7051D01*
X56594Y6979D01*
X56406Y6979D01*
G37*
%LPD*%
%LPC*%
G36*
X12406Y10029D02*
X12406Y10029D01*
X12233Y10101D01*
X12101Y10233D01*
X12029Y10406D01*
X12029Y10594D01*
X12101Y10767D01*
X12233Y10899D01*
X12406Y10971D01*
X12594Y10971D01*
X12767Y10899D01*
X12899Y10767D01*
X12971Y10594D01*
X12971Y10406D01*
X12899Y10233D01*
X12767Y10101D01*
X12594Y10029D01*
X12406Y10029D01*
G37*
%LPD*%
%LPC*%
G36*
X9406Y10029D02*
X9406Y10029D01*
X9233Y10101D01*
X9101Y10233D01*
X9029Y10406D01*
X9029Y10594D01*
X9101Y10767D01*
X9233Y10899D01*
X9406Y10971D01*
X9594Y10971D01*
X9767Y10899D01*
X9899Y10767D01*
X9971Y10594D01*
X9971Y10406D01*
X9899Y10233D01*
X9767Y10101D01*
X9594Y10029D01*
X9406Y10029D01*
G37*
%LPD*%
%LPC*%
G36*
X8406Y10029D02*
X8406Y10029D01*
X8233Y10101D01*
X8101Y10233D01*
X8029Y10406D01*
X8029Y10594D01*
X8101Y10767D01*
X8233Y10899D01*
X8406Y10971D01*
X8594Y10971D01*
X8767Y10899D01*
X8899Y10767D01*
X8971Y10594D01*
X8971Y10406D01*
X8899Y10233D01*
X8767Y10101D01*
X8594Y10029D01*
X8406Y10029D01*
G37*
%LPD*%
%LPC*%
G36*
X7406Y10029D02*
X7406Y10029D01*
X7233Y10101D01*
X7101Y10233D01*
X7029Y10406D01*
X7029Y10594D01*
X7101Y10767D01*
X7233Y10899D01*
X7406Y10971D01*
X7594Y10971D01*
X7767Y10899D01*
X7899Y10767D01*
X7971Y10594D01*
X7971Y10406D01*
X7899Y10233D01*
X7767Y10101D01*
X7594Y10029D01*
X7406Y10029D01*
G37*
%LPD*%
%LPC*%
G36*
X6406Y10029D02*
X6406Y10029D01*
X6233Y10101D01*
X6101Y10233D01*
X6029Y10406D01*
X6029Y10594D01*
X6101Y10767D01*
X6233Y10899D01*
X6406Y10971D01*
X6594Y10971D01*
X6767Y10899D01*
X6899Y10767D01*
X6971Y10594D01*
X6971Y10406D01*
X6899Y10233D01*
X6767Y10101D01*
X6594Y10029D01*
X6406Y10029D01*
G37*
%LPD*%
%LPC*%
G36*
X5406Y10029D02*
X5406Y10029D01*
X5233Y10101D01*
X5101Y10233D01*
X5029Y10406D01*
X5029Y10594D01*
X5101Y10767D01*
X5233Y10899D01*
X5406Y10971D01*
X5594Y10971D01*
X5767Y10899D01*
X5899Y10767D01*
X5971Y10594D01*
X5971Y10406D01*
X5899Y10233D01*
X5767Y10101D01*
X5594Y10029D01*
X5406Y10029D01*
G37*
%LPD*%
%LPC*%
G36*
X18406Y10029D02*
X18406Y10029D01*
X18233Y10101D01*
X18101Y10233D01*
X18029Y10406D01*
X18029Y10594D01*
X18101Y10767D01*
X18233Y10899D01*
X18406Y10971D01*
X18594Y10971D01*
X18767Y10899D01*
X18899Y10767D01*
X18971Y10594D01*
X18971Y10406D01*
X18899Y10233D01*
X18767Y10101D01*
X18594Y10029D01*
X18406Y10029D01*
G37*
%LPD*%
%LPC*%
G36*
X56406Y10979D02*
X56406Y10979D01*
X56233Y11051D01*
X56101Y11183D01*
X56029Y11356D01*
X56029Y11544D01*
X56101Y11717D01*
X56233Y11849D01*
X56406Y11921D01*
X56594Y11921D01*
X56767Y11849D01*
X56899Y11717D01*
X56971Y11544D01*
X56971Y11356D01*
X56899Y11183D01*
X56767Y11051D01*
X56594Y10979D01*
X56406Y10979D01*
G37*
%LPD*%
%LPC*%
G36*
X56406Y5979D02*
X56406Y5979D01*
X56233Y6051D01*
X56101Y6183D01*
X56029Y6356D01*
X56029Y6544D01*
X56101Y6717D01*
X56233Y6849D01*
X56406Y6921D01*
X56594Y6921D01*
X56767Y6849D01*
X56899Y6717D01*
X56971Y6544D01*
X56971Y6356D01*
X56899Y6183D01*
X56767Y6051D01*
X56594Y5979D01*
X56406Y5979D01*
G37*
%LPD*%
%LPC*%
G36*
X18406Y29029D02*
X18406Y29029D01*
X18233Y29101D01*
X18101Y29233D01*
X18029Y29406D01*
X18029Y29594D01*
X18101Y29767D01*
X18233Y29899D01*
X18406Y29971D01*
X18594Y29971D01*
X18767Y29899D01*
X18899Y29767D01*
X18971Y29594D01*
X18971Y29406D01*
X18899Y29233D01*
X18767Y29101D01*
X18594Y29029D01*
X18406Y29029D01*
G37*
%LPD*%
%LPC*%
G36*
X4906Y35029D02*
X4906Y35029D01*
X4733Y35101D01*
X4601Y35233D01*
X4529Y35406D01*
X4529Y35594D01*
X4601Y35767D01*
X4733Y35899D01*
X4906Y35971D01*
X5094Y35971D01*
X5267Y35899D01*
X5399Y35767D01*
X5471Y35594D01*
X5471Y35406D01*
X5399Y35233D01*
X5267Y35101D01*
X5094Y35029D01*
X4906Y35029D01*
G37*
%LPD*%
%LPC*%
G36*
X50406Y35029D02*
X50406Y35029D01*
X50233Y35101D01*
X50101Y35233D01*
X50029Y35406D01*
X50029Y35594D01*
X50101Y35767D01*
X50233Y35899D01*
X50406Y35971D01*
X50594Y35971D01*
X50767Y35899D01*
X50899Y35767D01*
X50971Y35594D01*
X50971Y35406D01*
X50899Y35233D01*
X50767Y35101D01*
X50594Y35029D01*
X50406Y35029D01*
G37*
%LPD*%
%LPC*%
G36*
X15406Y29029D02*
X15406Y29029D01*
X15233Y29101D01*
X15101Y29233D01*
X15029Y29406D01*
X15029Y29594D01*
X15101Y29767D01*
X15233Y29899D01*
X15406Y29971D01*
X15594Y29971D01*
X15767Y29899D01*
X15899Y29767D01*
X15971Y29594D01*
X15971Y29406D01*
X15899Y29233D01*
X15767Y29101D01*
X15594Y29029D01*
X15406Y29029D01*
G37*
%LPD*%
%LPC*%
G36*
X19406Y29029D02*
X19406Y29029D01*
X19233Y29101D01*
X19101Y29233D01*
X19029Y29406D01*
X19029Y29594D01*
X19101Y29767D01*
X19233Y29899D01*
X19406Y29971D01*
X19594Y29971D01*
X19767Y29899D01*
X19899Y29767D01*
X19971Y29594D01*
X19971Y29406D01*
X19899Y29233D01*
X19767Y29101D01*
X19594Y29029D01*
X19406Y29029D01*
G37*
%LPD*%
%LPC*%
G36*
X1906Y29029D02*
X1906Y29029D01*
X1733Y29101D01*
X1601Y29233D01*
X1529Y29406D01*
X1529Y29594D01*
X1601Y29767D01*
X1733Y29899D01*
X1906Y29971D01*
X2094Y29971D01*
X2267Y29899D01*
X2399Y29767D01*
X2471Y29594D01*
X2471Y29406D01*
X2399Y29233D01*
X2267Y29101D01*
X2094Y29029D01*
X1906Y29029D01*
G37*
%LPD*%
%LPC*%
G36*
X2906Y29029D02*
X2906Y29029D01*
X2733Y29101D01*
X2601Y29233D01*
X2529Y29406D01*
X2529Y29594D01*
X2601Y29767D01*
X2733Y29899D01*
X2906Y29971D01*
X3094Y29971D01*
X3267Y29899D01*
X3399Y29767D01*
X3471Y29594D01*
X3471Y29406D01*
X3399Y29233D01*
X3267Y29101D01*
X3094Y29029D01*
X2906Y29029D01*
G37*
%LPD*%
%LPC*%
G36*
X14406Y29029D02*
X14406Y29029D01*
X14233Y29101D01*
X14101Y29233D01*
X14029Y29406D01*
X14029Y29594D01*
X14101Y29767D01*
X14233Y29899D01*
X14406Y29971D01*
X14594Y29971D01*
X14767Y29899D01*
X14899Y29767D01*
X14971Y29594D01*
X14971Y29406D01*
X14899Y29233D01*
X14767Y29101D01*
X14594Y29029D01*
X14406Y29029D01*
G37*
%LPD*%
%LPC*%
G36*
X46406Y35029D02*
X46406Y35029D01*
X46233Y35101D01*
X46101Y35233D01*
X46029Y35406D01*
X46029Y35594D01*
X46101Y35767D01*
X46233Y35899D01*
X46406Y35971D01*
X46594Y35971D01*
X46767Y35899D01*
X46899Y35767D01*
X46971Y35594D01*
X46971Y35406D01*
X46899Y35233D01*
X46767Y35101D01*
X46594Y35029D01*
X46406Y35029D01*
G37*
%LPD*%
%LPC*%
G36*
X44406Y35029D02*
X44406Y35029D01*
X44233Y35101D01*
X44101Y35233D01*
X44029Y35406D01*
X44029Y35594D01*
X44101Y35767D01*
X44233Y35899D01*
X44406Y35971D01*
X44594Y35971D01*
X44767Y35899D01*
X44899Y35767D01*
X44971Y35594D01*
X44971Y35406D01*
X44899Y35233D01*
X44767Y35101D01*
X44594Y35029D01*
X44406Y35029D01*
G37*
%LPD*%
%LPC*%
G36*
X17406Y29029D02*
X17406Y29029D01*
X17233Y29101D01*
X17101Y29233D01*
X17029Y29406D01*
X17029Y29594D01*
X17101Y29767D01*
X17233Y29899D01*
X17406Y29971D01*
X17594Y29971D01*
X17767Y29899D01*
X17899Y29767D01*
X17971Y29594D01*
X17971Y29406D01*
X17899Y29233D01*
X17767Y29101D01*
X17594Y29029D01*
X17406Y29029D01*
G37*
%LPD*%
%LPC*%
G36*
X31406Y35029D02*
X31406Y35029D01*
X31233Y35101D01*
X31101Y35233D01*
X31029Y35406D01*
X31029Y35594D01*
X31101Y35767D01*
X31233Y35899D01*
X31406Y35971D01*
X31594Y35971D01*
X31767Y35899D01*
X31899Y35767D01*
X31971Y35594D01*
X31971Y35406D01*
X31899Y35233D01*
X31767Y35101D01*
X31594Y35029D01*
X31406Y35029D01*
G37*
%LPD*%
%LPC*%
G36*
X24406Y35029D02*
X24406Y35029D01*
X24233Y35101D01*
X24101Y35233D01*
X24029Y35406D01*
X24029Y35594D01*
X24101Y35767D01*
X24233Y35899D01*
X24406Y35971D01*
X24594Y35971D01*
X24767Y35899D01*
X24899Y35767D01*
X24971Y35594D01*
X24971Y35406D01*
X24899Y35233D01*
X24767Y35101D01*
X24594Y35029D01*
X24406Y35029D01*
G37*
%LPD*%
%LPC*%
G36*
X3906Y29029D02*
X3906Y29029D01*
X3733Y29101D01*
X3601Y29233D01*
X3529Y29406D01*
X3529Y29594D01*
X3601Y29767D01*
X3733Y29899D01*
X3906Y29971D01*
X4094Y29971D01*
X4267Y29899D01*
X4399Y29767D01*
X4471Y29594D01*
X4471Y29406D01*
X4399Y29233D01*
X4267Y29101D01*
X4094Y29029D01*
X3906Y29029D01*
G37*
%LPD*%
%LPC*%
G36*
X32432Y15419D02*
X32432Y15419D01*
X32307Y15471D01*
X32211Y15567D01*
X32159Y15692D01*
X32159Y16308D01*
X32211Y16433D01*
X32307Y16529D01*
X32432Y16581D01*
X32568Y16581D01*
X32693Y16529D01*
X32789Y16433D01*
X32841Y16308D01*
X32841Y15692D01*
X32789Y15567D01*
X32693Y15471D01*
X32568Y15419D01*
X32432Y15419D01*
G37*
%LPD*%
%LPC*%
G36*
X27432Y15419D02*
X27432Y15419D01*
X27307Y15471D01*
X27211Y15567D01*
X27159Y15692D01*
X27159Y16308D01*
X27211Y16433D01*
X27307Y16529D01*
X27432Y16581D01*
X27568Y16581D01*
X27693Y16529D01*
X27789Y16433D01*
X27841Y16308D01*
X27841Y15692D01*
X27789Y15567D01*
X27693Y15471D01*
X27568Y15419D01*
X27432Y15419D01*
G37*
%LPD*%
%LPC*%
G36*
X31432Y15419D02*
X31432Y15419D01*
X31307Y15471D01*
X31211Y15567D01*
X31159Y15692D01*
X31159Y16308D01*
X31211Y16433D01*
X31307Y16529D01*
X31432Y16581D01*
X31568Y16581D01*
X31693Y16529D01*
X31789Y16433D01*
X31841Y16308D01*
X31841Y15692D01*
X31789Y15567D01*
X31693Y15471D01*
X31568Y15419D01*
X31432Y15419D01*
G37*
%LPD*%
%LPC*%
G36*
X29432Y15419D02*
X29432Y15419D01*
X29307Y15471D01*
X29211Y15567D01*
X29159Y15692D01*
X29159Y16308D01*
X29211Y16433D01*
X29307Y16529D01*
X29432Y16581D01*
X29568Y16581D01*
X29693Y16529D01*
X29789Y16433D01*
X29841Y16308D01*
X29841Y15692D01*
X29789Y15567D01*
X29693Y15471D01*
X29568Y15419D01*
X29432Y15419D01*
G37*
%LPD*%
%LPC*%
G36*
X26432Y12419D02*
X26432Y12419D01*
X26307Y12471D01*
X26211Y12567D01*
X26159Y12692D01*
X26159Y13308D01*
X26211Y13433D01*
X26307Y13529D01*
X26432Y13581D01*
X26568Y13581D01*
X26693Y13529D01*
X26789Y13433D01*
X26841Y13308D01*
X26841Y12692D01*
X26789Y12567D01*
X26693Y12471D01*
X26568Y12419D01*
X26432Y12419D01*
G37*
%LPD*%
%LPC*%
G36*
X26432Y15419D02*
X26432Y15419D01*
X26307Y15471D01*
X26211Y15567D01*
X26159Y15692D01*
X26159Y16308D01*
X26211Y16433D01*
X26307Y16529D01*
X26432Y16581D01*
X26568Y16581D01*
X26693Y16529D01*
X26789Y16433D01*
X26841Y16308D01*
X26841Y15692D01*
X26789Y15567D01*
X26693Y15471D01*
X26568Y15419D01*
X26432Y15419D01*
G37*
%LPD*%
%LPC*%
G36*
X28432Y12419D02*
X28432Y12419D01*
X28307Y12471D01*
X28211Y12567D01*
X28159Y12692D01*
X28159Y13308D01*
X28211Y13433D01*
X28307Y13529D01*
X28432Y13581D01*
X28568Y13581D01*
X28693Y13529D01*
X28789Y13433D01*
X28841Y13308D01*
X28841Y12692D01*
X28789Y12567D01*
X28693Y12471D01*
X28568Y12419D01*
X28432Y12419D01*
G37*
%LPD*%
%LPC*%
G36*
X60195Y18162D02*
X60195Y18162D01*
X60071Y18213D01*
X59976Y18308D01*
X59924Y18433D01*
X59924Y18567D01*
X59976Y18692D01*
X60071Y18787D01*
X60195Y18838D01*
X60805Y18838D01*
X60929Y18787D01*
X61024Y18692D01*
X61076Y18567D01*
X61076Y18433D01*
X61024Y18308D01*
X60929Y18213D01*
X60805Y18162D01*
X60195Y18162D01*
G37*
%LPD*%
%LPC*%
G36*
X61622Y29877D02*
X61622Y29877D01*
X61514Y29902D01*
X61410Y29938D01*
X61310Y29986D01*
X61216Y30045D01*
X61130Y30114D01*
X61051Y30193D01*
X60982Y30279D01*
X60923Y30373D01*
X60875Y30473D01*
X60839Y30577D01*
X60814Y30685D01*
X60802Y30791D01*
X61728Y30791D01*
X61728Y29865D01*
X61622Y29877D01*
G37*
%LPD*%
%LPC*%
G36*
X61847Y30791D02*
X61847Y30791D01*
X62773Y30791D01*
X62761Y30685D01*
X62736Y30577D01*
X62700Y30473D01*
X62652Y30373D01*
X62593Y30279D01*
X62524Y30193D01*
X62445Y30114D01*
X62359Y30045D01*
X62265Y29986D01*
X62165Y29938D01*
X62061Y29902D01*
X61953Y29877D01*
X61847Y29865D01*
X61847Y30791D01*
G37*
%LPD*%
%LPC*%
G36*
X62803Y28027D02*
X62803Y28027D01*
X62695Y28051D01*
X62591Y28088D01*
X62491Y28136D01*
X62397Y28195D01*
X62311Y28264D01*
X62232Y28342D01*
X62163Y28429D01*
X62104Y28522D01*
X62056Y28622D01*
X62020Y28727D01*
X61995Y28835D01*
X61983Y28941D01*
X62909Y28941D01*
X62909Y28015D01*
X62803Y28027D01*
G37*
%LPD*%
%LPC*%
G36*
X63028Y28941D02*
X63028Y28941D01*
X63954Y28941D01*
X63942Y28835D01*
X63917Y28727D01*
X63881Y28622D01*
X63833Y28522D01*
X63774Y28429D01*
X63705Y28342D01*
X63626Y28264D01*
X63540Y28195D01*
X63446Y28136D01*
X63346Y28088D01*
X63242Y28051D01*
X63134Y28027D01*
X63028Y28015D01*
X63028Y28941D01*
G37*
%LPD*%
%LPC*%
G36*
X61983Y29059D02*
X61983Y29059D01*
X61995Y29165D01*
X62020Y29273D01*
X62056Y29378D01*
X62104Y29478D01*
X62163Y29571D01*
X62232Y29658D01*
X62311Y29736D01*
X62397Y29805D01*
X62491Y29864D01*
X62591Y29912D01*
X62695Y29949D01*
X62803Y29973D01*
X62909Y29985D01*
X62909Y29059D01*
X61983Y29059D01*
G37*
%LPD*%
%LPC*%
G36*
X61847Y30910D02*
X61847Y30910D01*
X61847Y31836D01*
X61953Y31824D01*
X62061Y31799D01*
X62165Y31763D01*
X62265Y31715D01*
X62359Y31656D01*
X62445Y31587D01*
X62524Y31508D01*
X62593Y31422D01*
X62652Y31328D01*
X62700Y31228D01*
X62736Y31124D01*
X62761Y31016D01*
X62773Y30910D01*
X61847Y30910D01*
G37*
%LPD*%
%LPC*%
G36*
X60802Y30910D02*
X60802Y30910D01*
X60814Y31016D01*
X60839Y31124D01*
X60875Y31228D01*
X60923Y31328D01*
X60982Y31422D01*
X61051Y31508D01*
X61130Y31587D01*
X61216Y31656D01*
X61310Y31715D01*
X61410Y31763D01*
X61514Y31799D01*
X61622Y31824D01*
X61728Y31836D01*
X61728Y30910D01*
X60802Y30910D01*
G37*
%LPD*%
%LPC*%
G36*
X63028Y29059D02*
X63028Y29059D01*
X63028Y29985D01*
X63134Y29973D01*
X63242Y29949D01*
X63346Y29912D01*
X63446Y29864D01*
X63540Y29805D01*
X63626Y29736D01*
X63705Y29658D01*
X63774Y29571D01*
X63833Y29478D01*
X63881Y29378D01*
X63917Y29273D01*
X63942Y29165D01*
X63954Y29059D01*
X63028Y29059D01*
G37*
%LPD*%
%LPC*%
G36*
X45328Y24584D02*
X45328Y24584D01*
X45084Y24828D01*
X45084Y25172D01*
X45328Y25416D01*
X45672Y25416D01*
X45916Y25172D01*
X45916Y24828D01*
X45672Y24584D01*
X45328Y24584D01*
G37*
%LPD*%
%LPC*%
G36*
X49359Y18159D02*
X49359Y18159D01*
X49159Y18359D01*
X49159Y18641D01*
X49359Y18841D01*
X49641Y18841D01*
X49841Y18641D01*
X49841Y18359D01*
X49641Y18159D01*
X49359Y18159D01*
G37*
%LPD*%
%LPC*%
G36*
X47359Y23159D02*
X47359Y23159D01*
X47159Y23359D01*
X47159Y23641D01*
X47359Y23841D01*
X47641Y23841D01*
X47841Y23641D01*
X47841Y23359D01*
X47641Y23159D01*
X47359Y23159D01*
G37*
%LPD*%
%LPC*%
G36*
X45359Y18159D02*
X45359Y18159D01*
X45159Y18359D01*
X45159Y18641D01*
X45359Y18841D01*
X45641Y18841D01*
X45841Y18641D01*
X45841Y18359D01*
X45641Y18159D01*
X45359Y18159D01*
G37*
%LPD*%
%LPC*%
G36*
X28859Y28159D02*
X28859Y28159D01*
X28659Y28359D01*
X28659Y28641D01*
X28859Y28841D01*
X29141Y28841D01*
X29341Y28641D01*
X29341Y28359D01*
X29141Y28159D01*
X28859Y28159D01*
G37*
%LPD*%
%LPC*%
G36*
X40359Y28159D02*
X40359Y28159D01*
X40159Y28359D01*
X40159Y28641D01*
X40359Y28841D01*
X40641Y28841D01*
X40841Y28641D01*
X40841Y28359D01*
X40641Y28159D01*
X40359Y28159D01*
G37*
%LPD*%
%LPC*%
G36*
X26859Y23159D02*
X26859Y23159D01*
X26659Y23359D01*
X26659Y23641D01*
X26859Y23841D01*
X27141Y23841D01*
X27341Y23641D01*
X27341Y23359D01*
X27141Y23159D01*
X26859Y23159D01*
G37*
%LPD*%
%LPC*%
G36*
X49359Y23159D02*
X49359Y23159D01*
X49159Y23359D01*
X49159Y23641D01*
X49359Y23841D01*
X49641Y23841D01*
X49841Y23641D01*
X49841Y23359D01*
X49641Y23159D01*
X49359Y23159D01*
G37*
%LPD*%
%LPC*%
G36*
X39059Y19441D02*
X39059Y19441D01*
X39749Y19441D01*
X39738Y19353D01*
X39712Y19258D01*
X39675Y19167D01*
X39626Y19082D01*
X39566Y19004D01*
X39496Y18934D01*
X39470Y18914D01*
X39432Y18885D01*
X39418Y18874D01*
X39333Y18825D01*
X39242Y18788D01*
X39147Y18762D01*
X39059Y18751D01*
X39059Y19441D01*
G37*
%LPD*%
%LPC*%
G36*
X38251Y19559D02*
X38251Y19559D01*
X38262Y19647D01*
X38269Y19673D01*
X38277Y19703D01*
X38285Y19732D01*
X38288Y19742D01*
X38325Y19833D01*
X38374Y19918D01*
X38434Y19996D01*
X38504Y20066D01*
X38506Y20067D01*
X38544Y20096D01*
X38544Y20097D01*
X38582Y20126D01*
X38667Y20175D01*
X38758Y20212D01*
X38853Y20238D01*
X38941Y20249D01*
X38941Y19559D01*
X38251Y19559D01*
G37*
%LPD*%
%LPC*%
G36*
X38853Y18762D02*
X38853Y18762D01*
X38758Y18788D01*
X38667Y18825D01*
X38582Y18874D01*
X38504Y18934D01*
X38434Y19004D01*
X38374Y19082D01*
X38325Y19167D01*
X38288Y19258D01*
X38262Y19353D01*
X38251Y19441D01*
X38941Y19441D01*
X38941Y18751D01*
X38853Y18762D01*
G37*
%LPD*%
%LPC*%
G36*
X39059Y19559D02*
X39059Y19559D01*
X39059Y20249D01*
X39147Y20238D01*
X39242Y20212D01*
X39333Y20175D01*
X39418Y20126D01*
X39496Y20066D01*
X39566Y19996D01*
X39626Y19918D01*
X39675Y19833D01*
X39712Y19742D01*
X39738Y19647D01*
X39749Y19559D01*
X39059Y19559D01*
G37*
%LPD*%
%LPC*%
G36*
X54369Y35559D02*
X54369Y35559D01*
X54378Y35617D01*
X54402Y35692D01*
X54438Y35762D01*
X54484Y35826D01*
X54540Y35882D01*
X54604Y35928D01*
X54674Y35964D01*
X54749Y35988D01*
X54807Y35998D01*
X54807Y35559D01*
X54369Y35559D01*
G37*
%LPD*%
%LPC*%
G36*
X14869Y35559D02*
X14869Y35559D01*
X14878Y35617D01*
X14902Y35692D01*
X14938Y35762D01*
X14984Y35826D01*
X15040Y35882D01*
X15104Y35928D01*
X15174Y35964D01*
X15249Y35988D01*
X15307Y35998D01*
X15307Y35559D01*
X14869Y35559D01*
G37*
%LPD*%
%LPC*%
G36*
X15425Y35441D02*
X15425Y35441D01*
X15864Y35441D01*
X15855Y35383D01*
X15830Y35308D01*
X15794Y35238D01*
X15748Y35174D01*
X15692Y35118D01*
X15629Y35072D01*
X15558Y35036D01*
X15483Y35012D01*
X15425Y35002D01*
X15425Y35441D01*
G37*
%LPD*%
%LPC*%
G36*
X32991Y35559D02*
X32991Y35559D01*
X33000Y35617D01*
X33024Y35692D01*
X33060Y35762D01*
X33106Y35826D01*
X33162Y35882D01*
X33226Y35928D01*
X33296Y35964D01*
X33371Y35988D01*
X33429Y35998D01*
X33429Y35559D01*
X32991Y35559D01*
G37*
%LPD*%
%LPC*%
G36*
X13871Y35012D02*
X13871Y35012D01*
X13796Y35036D01*
X13726Y35072D01*
X13662Y35118D01*
X13606Y35174D01*
X13560Y35238D01*
X13524Y35308D01*
X13500Y35383D01*
X13491Y35441D01*
X13929Y35441D01*
X13929Y35002D01*
X13871Y35012D01*
G37*
%LPD*%
%LPC*%
G36*
X21773Y3012D02*
X21773Y3012D01*
X21698Y3036D01*
X21627Y3072D01*
X21564Y3118D01*
X21508Y3174D01*
X21461Y3238D01*
X21426Y3308D01*
X21401Y3383D01*
X21392Y3441D01*
X21831Y3441D01*
X21831Y3002D01*
X21773Y3012D01*
G37*
%LPD*%
%LPC*%
G36*
X21949Y3441D02*
X21949Y3441D01*
X22387Y3441D01*
X22378Y3383D01*
X22354Y3308D01*
X22318Y3238D01*
X22272Y3174D01*
X22216Y3118D01*
X22152Y3072D01*
X22082Y3036D01*
X22007Y3012D01*
X21949Y3002D01*
X21949Y3441D01*
G37*
%LPD*%
%LPC*%
G36*
X30395Y3012D02*
X30395Y3012D01*
X30320Y3036D01*
X30249Y3072D01*
X30186Y3118D01*
X30130Y3174D01*
X30084Y3238D01*
X30048Y3308D01*
X30023Y3383D01*
X30014Y3441D01*
X30453Y3441D01*
X30453Y3002D01*
X30395Y3012D01*
G37*
%LPD*%
%LPC*%
G36*
X30571Y3441D02*
X30571Y3441D01*
X31009Y3441D01*
X31000Y3383D01*
X30976Y3308D01*
X30940Y3238D01*
X30894Y3174D01*
X30838Y3118D01*
X30774Y3072D01*
X30704Y3036D01*
X30629Y3012D01*
X30571Y3002D01*
X30571Y3441D01*
G37*
%LPD*%
%LPC*%
G36*
X31773Y3012D02*
X31773Y3012D01*
X31698Y3036D01*
X31627Y3072D01*
X31564Y3118D01*
X31508Y3174D01*
X31461Y3238D01*
X31426Y3308D01*
X31401Y3383D01*
X31392Y3441D01*
X31831Y3441D01*
X31831Y3002D01*
X31773Y3012D01*
G37*
%LPD*%
%LPC*%
G36*
X31949Y3441D02*
X31949Y3441D01*
X32387Y3441D01*
X32378Y3383D01*
X32354Y3308D01*
X32318Y3238D01*
X32272Y3174D01*
X32216Y3118D01*
X32152Y3072D01*
X32082Y3036D01*
X32007Y3012D01*
X31949Y3002D01*
X31949Y3441D01*
G37*
%LPD*%
%LPC*%
G36*
X41395Y3012D02*
X41395Y3012D01*
X41320Y3036D01*
X41249Y3072D01*
X41186Y3118D01*
X41130Y3174D01*
X41084Y3238D01*
X41048Y3308D01*
X41023Y3383D01*
X41014Y3441D01*
X41453Y3441D01*
X41453Y3002D01*
X41395Y3012D01*
G37*
%LPD*%
%LPC*%
G36*
X41571Y3441D02*
X41571Y3441D01*
X42009Y3441D01*
X42000Y3383D01*
X41976Y3308D01*
X41940Y3238D01*
X41894Y3174D01*
X41838Y3118D01*
X41774Y3072D01*
X41704Y3036D01*
X41629Y3012D01*
X41571Y3002D01*
X41571Y3441D01*
G37*
%LPD*%
%LPC*%
G36*
X42773Y3012D02*
X42773Y3012D01*
X42698Y3036D01*
X42627Y3072D01*
X42564Y3118D01*
X42508Y3174D01*
X42461Y3238D01*
X42426Y3308D01*
X42401Y3383D01*
X42392Y3441D01*
X42831Y3441D01*
X42831Y3002D01*
X42773Y3012D01*
G37*
%LPD*%
%LPC*%
G36*
X42949Y3441D02*
X42949Y3441D01*
X43387Y3441D01*
X43378Y3383D01*
X43354Y3308D01*
X43318Y3238D01*
X43272Y3174D01*
X43216Y3118D01*
X43152Y3072D01*
X43082Y3036D01*
X43007Y3012D01*
X42949Y3002D01*
X42949Y3441D01*
G37*
%LPD*%
%LPC*%
G36*
X15249Y35012D02*
X15249Y35012D01*
X15174Y35036D01*
X15104Y35072D01*
X15040Y35118D01*
X14984Y35174D01*
X14938Y35238D01*
X14902Y35308D01*
X14878Y35383D01*
X14869Y35441D01*
X15307Y35441D01*
X15307Y35002D01*
X15249Y35012D01*
G37*
%LPD*%
%LPC*%
G36*
X54749Y35012D02*
X54749Y35012D01*
X54674Y35036D01*
X54604Y35072D01*
X54540Y35118D01*
X54484Y35174D01*
X54438Y35238D01*
X54402Y35308D01*
X54378Y35383D01*
X54369Y35441D01*
X54807Y35441D01*
X54807Y35002D01*
X54749Y35012D01*
G37*
%LPD*%
%LPC*%
G36*
X54925Y35441D02*
X54925Y35441D01*
X55364Y35441D01*
X55355Y35383D01*
X55330Y35308D01*
X55294Y35238D01*
X55248Y35174D01*
X55192Y35118D01*
X55129Y35072D01*
X55058Y35036D01*
X54983Y35012D01*
X54925Y35002D01*
X54925Y35441D01*
G37*
%LPD*%
%LPC*%
G36*
X10395Y3012D02*
X10395Y3012D01*
X10320Y3036D01*
X10249Y3072D01*
X10186Y3118D01*
X10130Y3174D01*
X10084Y3238D01*
X10048Y3308D01*
X10023Y3383D01*
X10014Y3441D01*
X10453Y3441D01*
X10453Y3002D01*
X10395Y3012D01*
G37*
%LPD*%
%LPC*%
G36*
X10571Y3441D02*
X10571Y3441D01*
X11009Y3441D01*
X11000Y3383D01*
X10976Y3308D01*
X10940Y3238D01*
X10894Y3174D01*
X10838Y3118D01*
X10774Y3072D01*
X10704Y3036D01*
X10629Y3012D01*
X10571Y3002D01*
X10571Y3441D01*
G37*
%LPD*%
%LPC*%
G36*
X11773Y3012D02*
X11773Y3012D01*
X11698Y3036D01*
X11627Y3072D01*
X11564Y3118D01*
X11508Y3174D01*
X11461Y3238D01*
X11426Y3308D01*
X11401Y3383D01*
X11392Y3441D01*
X11831Y3441D01*
X11831Y3002D01*
X11773Y3012D01*
G37*
%LPD*%
%LPC*%
G36*
X20571Y3441D02*
X20571Y3441D01*
X21009Y3441D01*
X21000Y3383D01*
X20976Y3308D01*
X20940Y3238D01*
X20894Y3174D01*
X20838Y3118D01*
X20774Y3072D01*
X20704Y3036D01*
X20629Y3012D01*
X20571Y3002D01*
X20571Y3441D01*
G37*
%LPD*%
%LPC*%
G36*
X20395Y3012D02*
X20395Y3012D01*
X20320Y3036D01*
X20249Y3072D01*
X20186Y3118D01*
X20130Y3174D01*
X20084Y3238D01*
X20048Y3308D01*
X20023Y3383D01*
X20014Y3441D01*
X20453Y3441D01*
X20453Y3002D01*
X20395Y3012D01*
G37*
%LPD*%
%LPC*%
G36*
X11949Y3441D02*
X11949Y3441D01*
X12387Y3441D01*
X12378Y3383D01*
X12354Y3308D01*
X12318Y3238D01*
X12272Y3174D01*
X12216Y3118D01*
X12152Y3072D01*
X12082Y3036D01*
X12007Y3012D01*
X11949Y3002D01*
X11949Y3441D01*
G37*
%LPD*%
%LPC*%
G36*
X42949Y3559D02*
X42949Y3559D01*
X42949Y3998D01*
X43007Y3988D01*
X43082Y3964D01*
X43152Y3928D01*
X43216Y3882D01*
X43272Y3826D01*
X43318Y3762D01*
X43354Y3692D01*
X43378Y3617D01*
X43387Y3559D01*
X42949Y3559D01*
G37*
%LPD*%
%LPC*%
G36*
X30014Y3559D02*
X30014Y3559D01*
X30023Y3617D01*
X30048Y3692D01*
X30084Y3762D01*
X30130Y3826D01*
X30186Y3882D01*
X30249Y3928D01*
X30320Y3964D01*
X30395Y3988D01*
X30453Y3998D01*
X30453Y3559D01*
X30014Y3559D01*
G37*
%LPD*%
%LPC*%
G36*
X20571Y3559D02*
X20571Y3559D01*
X20571Y3998D01*
X20629Y3988D01*
X20704Y3964D01*
X20774Y3928D01*
X20838Y3882D01*
X20894Y3826D01*
X20940Y3762D01*
X20976Y3692D01*
X21000Y3617D01*
X21009Y3559D01*
X20571Y3559D01*
G37*
%LPD*%
%LPC*%
G36*
X20014Y3559D02*
X20014Y3559D01*
X20023Y3617D01*
X20048Y3692D01*
X20084Y3762D01*
X20130Y3826D01*
X20186Y3882D01*
X20249Y3928D01*
X20320Y3964D01*
X20395Y3988D01*
X20453Y3998D01*
X20453Y3559D01*
X20014Y3559D01*
G37*
%LPD*%
%LPC*%
G36*
X11949Y3559D02*
X11949Y3559D01*
X11949Y3998D01*
X12007Y3988D01*
X12082Y3964D01*
X12152Y3928D01*
X12216Y3882D01*
X12272Y3826D01*
X12318Y3762D01*
X12354Y3692D01*
X12378Y3617D01*
X12387Y3559D01*
X11949Y3559D01*
G37*
%LPD*%
%LPC*%
G36*
X31949Y3559D02*
X31949Y3559D01*
X31949Y3998D01*
X32007Y3988D01*
X32082Y3964D01*
X32152Y3928D01*
X32216Y3882D01*
X32272Y3826D01*
X32318Y3762D01*
X32354Y3692D01*
X32378Y3617D01*
X32387Y3559D01*
X31949Y3559D01*
G37*
%LPD*%
%LPC*%
G36*
X10014Y3559D02*
X10014Y3559D01*
X10023Y3617D01*
X10048Y3692D01*
X10084Y3762D01*
X10130Y3826D01*
X10186Y3882D01*
X10249Y3928D01*
X10320Y3964D01*
X10395Y3988D01*
X10453Y3998D01*
X10453Y3559D01*
X10014Y3559D01*
G37*
%LPD*%
%LPC*%
G36*
X41571Y3559D02*
X41571Y3559D01*
X41571Y3998D01*
X41629Y3988D01*
X41704Y3964D01*
X41774Y3928D01*
X41838Y3882D01*
X41894Y3826D01*
X41940Y3762D01*
X41976Y3692D01*
X42000Y3617D01*
X42009Y3559D01*
X41571Y3559D01*
G37*
%LPD*%
%LPC*%
G36*
X31392Y3559D02*
X31392Y3559D01*
X31401Y3617D01*
X31426Y3692D01*
X31461Y3762D01*
X31508Y3826D01*
X31564Y3882D01*
X31627Y3928D01*
X31698Y3964D01*
X31773Y3988D01*
X31831Y3998D01*
X31831Y3559D01*
X31392Y3559D01*
G37*
%LPD*%
%LPC*%
G36*
X30571Y3559D02*
X30571Y3559D01*
X30571Y3998D01*
X30629Y3988D01*
X30704Y3964D01*
X30774Y3928D01*
X30838Y3882D01*
X30894Y3826D01*
X30940Y3762D01*
X30976Y3692D01*
X31000Y3617D01*
X31009Y3559D01*
X30571Y3559D01*
G37*
%LPD*%
%LPC*%
G36*
X41014Y3559D02*
X41014Y3559D01*
X41023Y3617D01*
X41048Y3692D01*
X41084Y3762D01*
X41130Y3826D01*
X41186Y3882D01*
X41249Y3928D01*
X41320Y3964D01*
X41395Y3988D01*
X41453Y3998D01*
X41453Y3559D01*
X41014Y3559D01*
G37*
%LPD*%
%LPC*%
G36*
X10571Y3559D02*
X10571Y3559D01*
X10571Y3998D01*
X10629Y3988D01*
X10704Y3964D01*
X10774Y3928D01*
X10838Y3882D01*
X10894Y3826D01*
X10940Y3762D01*
X10976Y3692D01*
X11000Y3617D01*
X11009Y3559D01*
X10571Y3559D01*
G37*
%LPD*%
%LPC*%
G36*
X42392Y3559D02*
X42392Y3559D01*
X42401Y3617D01*
X42426Y3692D01*
X42461Y3762D01*
X42508Y3826D01*
X42564Y3882D01*
X42627Y3928D01*
X42698Y3964D01*
X42773Y3988D01*
X42831Y3998D01*
X42831Y3559D01*
X42392Y3559D01*
G37*
%LPD*%
%LPC*%
G36*
X33371Y35012D02*
X33371Y35012D01*
X33296Y35036D01*
X33226Y35072D01*
X33162Y35118D01*
X33106Y35174D01*
X33060Y35238D01*
X33024Y35308D01*
X33000Y35383D01*
X32991Y35441D01*
X33429Y35441D01*
X33429Y35002D01*
X33371Y35012D01*
G37*
%LPD*%
%LPC*%
G36*
X33547Y35441D02*
X33547Y35441D01*
X33986Y35441D01*
X33977Y35383D01*
X33952Y35308D01*
X33916Y35238D01*
X33870Y35174D01*
X33814Y35118D01*
X33751Y35072D01*
X33680Y35036D01*
X33605Y35012D01*
X33547Y35002D01*
X33547Y35441D01*
G37*
%LPD*%
%LPC*%
G36*
X34749Y35012D02*
X34749Y35012D01*
X34674Y35036D01*
X34604Y35072D01*
X34540Y35118D01*
X34484Y35174D01*
X34438Y35238D01*
X34402Y35308D01*
X34378Y35383D01*
X34369Y35441D01*
X34807Y35441D01*
X34807Y35002D01*
X34749Y35012D01*
G37*
%LPD*%
%LPC*%
G36*
X34925Y35441D02*
X34925Y35441D01*
X35364Y35441D01*
X35355Y35383D01*
X35330Y35308D01*
X35294Y35238D01*
X35248Y35174D01*
X35192Y35118D01*
X35129Y35072D01*
X35058Y35036D01*
X34983Y35012D01*
X34925Y35002D01*
X34925Y35441D01*
G37*
%LPD*%
%LPC*%
G36*
X11392Y3559D02*
X11392Y3559D01*
X11401Y3617D01*
X11426Y3692D01*
X11461Y3762D01*
X11508Y3826D01*
X11564Y3882D01*
X11627Y3928D01*
X11698Y3964D01*
X11773Y3988D01*
X11831Y3998D01*
X11831Y3559D01*
X11392Y3559D01*
G37*
%LPD*%
%LPC*%
G36*
X54925Y35559D02*
X54925Y35559D01*
X54925Y35998D01*
X54983Y35988D01*
X55058Y35964D01*
X55129Y35928D01*
X55192Y35882D01*
X55248Y35826D01*
X55294Y35762D01*
X55330Y35692D01*
X55355Y35617D01*
X55364Y35559D01*
X54925Y35559D01*
G37*
%LPD*%
%LPC*%
G36*
X34925Y35559D02*
X34925Y35559D01*
X34925Y35998D01*
X34983Y35988D01*
X35058Y35964D01*
X35129Y35928D01*
X35192Y35882D01*
X35248Y35826D01*
X35294Y35762D01*
X35330Y35692D01*
X35355Y35617D01*
X35364Y35559D01*
X34925Y35559D01*
G37*
%LPD*%
%LPC*%
G36*
X34369Y35559D02*
X34369Y35559D01*
X34378Y35617D01*
X34402Y35692D01*
X34438Y35762D01*
X34484Y35826D01*
X34540Y35882D01*
X34604Y35928D01*
X34674Y35964D01*
X34749Y35988D01*
X34807Y35998D01*
X34807Y35559D01*
X34369Y35559D01*
G37*
%LPD*%
%LPC*%
G36*
X52991Y35559D02*
X52991Y35559D01*
X53000Y35617D01*
X53024Y35692D01*
X53060Y35762D01*
X53106Y35826D01*
X53162Y35882D01*
X53226Y35928D01*
X53296Y35964D01*
X53371Y35988D01*
X53429Y35998D01*
X53429Y35559D01*
X52991Y35559D01*
G37*
%LPD*%
%LPC*%
G36*
X14047Y35559D02*
X14047Y35559D01*
X14047Y35998D01*
X14105Y35988D01*
X14180Y35964D01*
X14251Y35928D01*
X14314Y35882D01*
X14370Y35826D01*
X14416Y35762D01*
X14452Y35692D01*
X14477Y35617D01*
X14486Y35559D01*
X14047Y35559D01*
G37*
%LPD*%
%LPC*%
G36*
X15425Y35559D02*
X15425Y35559D01*
X15425Y35998D01*
X15483Y35988D01*
X15558Y35964D01*
X15629Y35928D01*
X15692Y35882D01*
X15748Y35826D01*
X15794Y35762D01*
X15830Y35692D01*
X15855Y35617D01*
X15864Y35559D01*
X15425Y35559D01*
G37*
%LPD*%
%LPC*%
G36*
X33547Y35559D02*
X33547Y35559D01*
X33547Y35998D01*
X33605Y35988D01*
X33680Y35964D01*
X33751Y35928D01*
X33814Y35882D01*
X33870Y35826D01*
X33916Y35762D01*
X33952Y35692D01*
X33977Y35617D01*
X33986Y35559D01*
X33547Y35559D01*
G37*
%LPD*%
%LPC*%
G36*
X53547Y35441D02*
X53547Y35441D01*
X53986Y35441D01*
X53977Y35383D01*
X53952Y35308D01*
X53916Y35238D01*
X53870Y35174D01*
X53814Y35118D01*
X53751Y35072D01*
X53680Y35036D01*
X53605Y35012D01*
X53547Y35002D01*
X53547Y35441D01*
G37*
%LPD*%
%LPC*%
G36*
X53547Y35559D02*
X53547Y35559D01*
X53547Y35998D01*
X53605Y35988D01*
X53680Y35964D01*
X53751Y35928D01*
X53814Y35882D01*
X53870Y35826D01*
X53916Y35762D01*
X53952Y35692D01*
X53977Y35617D01*
X53986Y35559D01*
X53547Y35559D01*
G37*
%LPD*%
%LPC*%
G36*
X53371Y35012D02*
X53371Y35012D01*
X53296Y35036D01*
X53226Y35072D01*
X53162Y35118D01*
X53106Y35174D01*
X53060Y35238D01*
X53024Y35308D01*
X53000Y35383D01*
X52991Y35441D01*
X53429Y35441D01*
X53429Y35002D01*
X53371Y35012D01*
G37*
%LPD*%
%LPC*%
G36*
X14047Y35441D02*
X14047Y35441D01*
X14486Y35441D01*
X14477Y35383D01*
X14452Y35308D01*
X14416Y35238D01*
X14370Y35174D01*
X14314Y35118D01*
X14251Y35072D01*
X14180Y35036D01*
X14105Y35012D01*
X14047Y35002D01*
X14047Y35441D01*
G37*
%LPD*%
%LPC*%
G36*
X13491Y35559D02*
X13491Y35559D01*
X13500Y35617D01*
X13524Y35692D01*
X13560Y35762D01*
X13606Y35826D01*
X13662Y35882D01*
X13726Y35928D01*
X13796Y35964D01*
X13871Y35988D01*
X13929Y35998D01*
X13929Y35559D01*
X13491Y35559D01*
G37*
%LPD*%
%LPC*%
G36*
X34559Y13059D02*
X34559Y13059D01*
X34559Y13576D01*
X34599Y13568D01*
X34661Y13542D01*
X34717Y13505D01*
X34765Y13457D01*
X34802Y13401D01*
X34828Y13339D01*
X34841Y13274D01*
X34841Y13059D01*
X34559Y13059D01*
G37*
%LPD*%
%LPC*%
G36*
X27559Y13059D02*
X27559Y13059D01*
X27559Y13576D01*
X27599Y13568D01*
X27661Y13542D01*
X27717Y13505D01*
X27765Y13457D01*
X27802Y13401D01*
X27828Y13339D01*
X27841Y13274D01*
X27841Y13059D01*
X27559Y13059D01*
G37*
%LPD*%
%LPC*%
G36*
X31559Y13059D02*
X31559Y13059D01*
X31559Y13576D01*
X31599Y13568D01*
X31661Y13542D01*
X31717Y13505D01*
X31765Y13457D01*
X31802Y13401D01*
X31828Y13339D01*
X31841Y13274D01*
X31841Y13059D01*
X31559Y13059D01*
G37*
%LPD*%
%LPC*%
G36*
X33559Y13059D02*
X33559Y13059D01*
X33559Y13576D01*
X33599Y13568D01*
X33661Y13542D01*
X33717Y13505D01*
X33765Y13457D01*
X33802Y13401D01*
X33828Y13339D01*
X33841Y13274D01*
X33841Y13059D01*
X33559Y13059D01*
G37*
%LPD*%
%LPC*%
G36*
X29559Y13059D02*
X29559Y13059D01*
X29559Y13576D01*
X29599Y13568D01*
X29661Y13542D01*
X29717Y13505D01*
X29765Y13457D01*
X29802Y13401D01*
X29828Y13339D01*
X29841Y13274D01*
X29841Y13059D01*
X29559Y13059D01*
G37*
%LPD*%
%LPC*%
G36*
X32559Y13059D02*
X32559Y13059D01*
X32559Y13576D01*
X32599Y13568D01*
X32661Y13542D01*
X32717Y13505D01*
X32765Y13457D01*
X32802Y13401D01*
X32828Y13339D01*
X32841Y13274D01*
X32841Y13059D01*
X32559Y13059D01*
G37*
%LPD*%
%LPC*%
G36*
X33559Y12941D02*
X33559Y12941D01*
X33841Y12941D01*
X33841Y12726D01*
X33828Y12661D01*
X33802Y12599D01*
X33796Y12589D01*
X33765Y12543D01*
X33717Y12495D01*
X33661Y12458D01*
X33599Y12432D01*
X33559Y12424D01*
X33559Y12941D01*
G37*
%LPD*%
%LPC*%
G36*
X27559Y12941D02*
X27559Y12941D01*
X27841Y12941D01*
X27841Y12726D01*
X27828Y12661D01*
X27802Y12599D01*
X27796Y12589D01*
X27765Y12543D01*
X27717Y12495D01*
X27661Y12458D01*
X27599Y12432D01*
X27559Y12424D01*
X27559Y12941D01*
G37*
%LPD*%
%LPC*%
G36*
X34559Y12941D02*
X34559Y12941D01*
X34841Y12941D01*
X34841Y12726D01*
X34828Y12661D01*
X34802Y12599D01*
X34796Y12589D01*
X34765Y12543D01*
X34717Y12495D01*
X34661Y12458D01*
X34599Y12432D01*
X34559Y12424D01*
X34559Y12941D01*
G37*
%LPD*%
%LPC*%
G36*
X29559Y12941D02*
X29559Y12941D01*
X29841Y12941D01*
X29841Y12726D01*
X29828Y12661D01*
X29802Y12599D01*
X29796Y12589D01*
X29765Y12543D01*
X29717Y12495D01*
X29661Y12458D01*
X29599Y12432D01*
X29559Y12424D01*
X29559Y12941D01*
G37*
%LPD*%
%LPC*%
G36*
X31559Y12941D02*
X31559Y12941D01*
X31841Y12941D01*
X31841Y12726D01*
X31828Y12661D01*
X31802Y12599D01*
X31796Y12589D01*
X31765Y12543D01*
X31717Y12495D01*
X31661Y12458D01*
X31599Y12432D01*
X31559Y12424D01*
X31559Y12941D01*
G37*
%LPD*%
%LPC*%
G36*
X32559Y12941D02*
X32559Y12941D01*
X32841Y12941D01*
X32841Y12726D01*
X32828Y12661D01*
X32802Y12599D01*
X32796Y12589D01*
X32765Y12543D01*
X32717Y12495D01*
X32661Y12458D01*
X32599Y12432D01*
X32559Y12424D01*
X32559Y12941D01*
G37*
%LPD*%
%LPC*%
G36*
X31401Y12432D02*
X31401Y12432D01*
X31339Y12458D01*
X31283Y12495D01*
X31235Y12543D01*
X31198Y12599D01*
X31172Y12661D01*
X31159Y12726D01*
X31159Y12941D01*
X31441Y12941D01*
X31441Y12424D01*
X31401Y12432D01*
G37*
%LPD*%
%LPC*%
G36*
X27401Y12432D02*
X27401Y12432D01*
X27339Y12458D01*
X27283Y12495D01*
X27235Y12543D01*
X27198Y12599D01*
X27172Y12661D01*
X27159Y12726D01*
X27159Y12941D01*
X27441Y12941D01*
X27441Y12424D01*
X27401Y12432D01*
G37*
%LPD*%
%LPC*%
G36*
X29401Y12432D02*
X29401Y12432D01*
X29339Y12458D01*
X29283Y12495D01*
X29235Y12543D01*
X29198Y12599D01*
X29172Y12661D01*
X29159Y12726D01*
X29159Y12941D01*
X29441Y12941D01*
X29441Y12424D01*
X29401Y12432D01*
G37*
%LPD*%
%LPC*%
G36*
X33401Y12432D02*
X33401Y12432D01*
X33339Y12458D01*
X33283Y12495D01*
X33235Y12543D01*
X33198Y12599D01*
X33172Y12661D01*
X33159Y12726D01*
X33159Y12941D01*
X33441Y12941D01*
X33441Y12424D01*
X33401Y12432D01*
G37*
%LPD*%
%LPC*%
G36*
X34401Y12432D02*
X34401Y12432D01*
X34339Y12458D01*
X34283Y12495D01*
X34235Y12543D01*
X34198Y12599D01*
X34172Y12661D01*
X34159Y12726D01*
X34159Y12941D01*
X34441Y12941D01*
X34441Y12424D01*
X34401Y12432D01*
G37*
%LPD*%
%LPC*%
G36*
X32401Y12432D02*
X32401Y12432D01*
X32339Y12458D01*
X32283Y12495D01*
X32235Y12543D01*
X32198Y12599D01*
X32172Y12661D01*
X32159Y12726D01*
X32159Y12941D01*
X32441Y12941D01*
X32441Y12424D01*
X32401Y12432D01*
G37*
%LPD*%
%LPC*%
G36*
X27159Y13059D02*
X27159Y13059D01*
X27159Y13274D01*
X27172Y13339D01*
X27198Y13401D01*
X27201Y13405D01*
X27235Y13457D01*
X27283Y13505D01*
X27339Y13542D01*
X27401Y13568D01*
X27441Y13576D01*
X27441Y13059D01*
X27159Y13059D01*
G37*
%LPD*%
%LPC*%
G36*
X29159Y13059D02*
X29159Y13059D01*
X29159Y13274D01*
X29172Y13339D01*
X29198Y13401D01*
X29201Y13405D01*
X29235Y13457D01*
X29283Y13505D01*
X29339Y13542D01*
X29401Y13568D01*
X29441Y13576D01*
X29441Y13059D01*
X29159Y13059D01*
G37*
%LPD*%
%LPC*%
G36*
X31159Y13059D02*
X31159Y13059D01*
X31159Y13274D01*
X31172Y13339D01*
X31198Y13401D01*
X31201Y13405D01*
X31235Y13457D01*
X31283Y13505D01*
X31339Y13542D01*
X31401Y13568D01*
X31441Y13576D01*
X31441Y13059D01*
X31159Y13059D01*
G37*
%LPD*%
%LPC*%
G36*
X32159Y13059D02*
X32159Y13059D01*
X32159Y13274D01*
X32172Y13339D01*
X32198Y13401D01*
X32201Y13405D01*
X32235Y13457D01*
X32283Y13505D01*
X32339Y13542D01*
X32401Y13568D01*
X32441Y13576D01*
X32441Y13059D01*
X32159Y13059D01*
G37*
%LPD*%
%LPC*%
G36*
X33159Y13059D02*
X33159Y13059D01*
X33159Y13274D01*
X33172Y13339D01*
X33198Y13401D01*
X33201Y13405D01*
X33235Y13457D01*
X33283Y13505D01*
X33339Y13542D01*
X33401Y13568D01*
X33441Y13576D01*
X33441Y13059D01*
X33159Y13059D01*
G37*
%LPD*%
%LPC*%
G36*
X34159Y13059D02*
X34159Y13059D01*
X34159Y13274D01*
X34172Y13339D01*
X34198Y13401D01*
X34201Y13405D01*
X34235Y13457D01*
X34283Y13505D01*
X34339Y13542D01*
X34401Y13568D01*
X34441Y13576D01*
X34441Y13059D01*
X34159Y13059D01*
G37*
%LPD*%
%LPC*%
G36*
X23033Y35559D02*
X23033Y35559D01*
X23041Y35610D01*
X23064Y35681D01*
X23097Y35747D01*
X23141Y35807D01*
X23193Y35859D01*
X23253Y35903D01*
X23319Y35936D01*
X23390Y35959D01*
X23441Y35967D01*
X23441Y35559D01*
X23033Y35559D01*
G37*
%LPD*%
%LPC*%
G36*
X49559Y35441D02*
X49559Y35441D01*
X49967Y35441D01*
X49959Y35390D01*
X49936Y35319D01*
X49903Y35253D01*
X49859Y35193D01*
X49807Y35141D01*
X49747Y35097D01*
X49681Y35064D01*
X49610Y35041D01*
X49559Y35033D01*
X49559Y35441D01*
G37*
%LPD*%
%LPC*%
G36*
X29390Y35041D02*
X29390Y35041D01*
X29319Y35064D01*
X29253Y35097D01*
X29193Y35141D01*
X29141Y35193D01*
X29097Y35253D01*
X29064Y35319D01*
X29041Y35390D01*
X29033Y35441D01*
X29441Y35441D01*
X29441Y35033D01*
X29390Y35041D01*
G37*
%LPD*%
%LPC*%
G36*
X56559Y4509D02*
X56559Y4509D01*
X56559Y4917D01*
X56610Y4909D01*
X56681Y4886D01*
X56747Y4853D01*
X56807Y4809D01*
X56859Y4757D01*
X56903Y4697D01*
X56936Y4631D01*
X56959Y4560D01*
X56967Y4509D01*
X56559Y4509D01*
G37*
%LPD*%
%LPC*%
G36*
X3890Y35041D02*
X3890Y35041D01*
X3819Y35064D01*
X3753Y35097D01*
X3693Y35141D01*
X3641Y35193D01*
X3597Y35253D01*
X3564Y35319D01*
X3541Y35390D01*
X3533Y35441D01*
X3941Y35441D01*
X3941Y35033D01*
X3890Y35041D01*
G37*
%LPD*%
%LPC*%
G36*
X4890Y29041D02*
X4890Y29041D01*
X4819Y29064D01*
X4753Y29097D01*
X4693Y29141D01*
X4641Y29193D01*
X4597Y29253D01*
X4564Y29319D01*
X4541Y29390D01*
X4533Y29441D01*
X4941Y29441D01*
X4941Y29033D01*
X4890Y29041D01*
G37*
%LPD*%
%LPC*%
G36*
X5059Y29441D02*
X5059Y29441D01*
X5467Y29441D01*
X5459Y29390D01*
X5436Y29319D01*
X5403Y29253D01*
X5359Y29193D01*
X5307Y29141D01*
X5247Y29097D01*
X5181Y29064D01*
X5110Y29041D01*
X5059Y29033D01*
X5059Y29441D01*
G37*
%LPD*%
%LPC*%
G36*
X4533Y29559D02*
X4533Y29559D01*
X4541Y29610D01*
X4564Y29681D01*
X4597Y29747D01*
X4641Y29807D01*
X4693Y29859D01*
X4753Y29903D01*
X4819Y29936D01*
X4890Y29959D01*
X4941Y29967D01*
X4941Y29559D01*
X4533Y29559D01*
G37*
%LPD*%
%LPC*%
G36*
X5059Y29559D02*
X5059Y29559D01*
X5059Y29967D01*
X5110Y29959D01*
X5181Y29936D01*
X5247Y29903D01*
X5307Y29859D01*
X5359Y29807D01*
X5403Y29747D01*
X5436Y29681D01*
X5459Y29610D01*
X5467Y29559D01*
X5059Y29559D01*
G37*
%LPD*%
%LPC*%
G36*
X4059Y35441D02*
X4059Y35441D01*
X4467Y35441D01*
X4459Y35390D01*
X4436Y35319D01*
X4403Y35253D01*
X4359Y35193D01*
X4307Y35141D01*
X4247Y35097D01*
X4181Y35064D01*
X4110Y35041D01*
X4059Y35033D01*
X4059Y35441D01*
G37*
%LPD*%
%LPC*%
G36*
X29559Y35441D02*
X29559Y35441D01*
X29967Y35441D01*
X29959Y35390D01*
X29936Y35319D01*
X29903Y35253D01*
X29859Y35193D01*
X29807Y35141D01*
X29747Y35097D01*
X29681Y35064D01*
X29610Y35041D01*
X29559Y35033D01*
X29559Y35441D01*
G37*
%LPD*%
%LPC*%
G36*
X9890Y35041D02*
X9890Y35041D01*
X9819Y35064D01*
X9753Y35097D01*
X9693Y35141D01*
X9641Y35193D01*
X9597Y35253D01*
X9564Y35319D01*
X9541Y35390D01*
X9533Y35441D01*
X9941Y35441D01*
X9941Y35033D01*
X9890Y35041D01*
G37*
%LPD*%
%LPC*%
G36*
X10059Y35441D02*
X10059Y35441D01*
X10467Y35441D01*
X10459Y35390D01*
X10436Y35319D01*
X10403Y35253D01*
X10359Y35193D01*
X10307Y35141D01*
X10247Y35097D01*
X10181Y35064D01*
X10110Y35041D01*
X10059Y35033D01*
X10059Y35441D01*
G37*
%LPD*%
%LPC*%
G36*
X23390Y35041D02*
X23390Y35041D01*
X23319Y35064D01*
X23253Y35097D01*
X23193Y35141D01*
X23141Y35193D01*
X23097Y35253D01*
X23064Y35319D01*
X23041Y35390D01*
X23033Y35441D01*
X23441Y35441D01*
X23441Y35033D01*
X23390Y35041D01*
G37*
%LPD*%
%LPC*%
G36*
X56559Y5509D02*
X56559Y5509D01*
X56559Y5917D01*
X56610Y5909D01*
X56681Y5886D01*
X56747Y5853D01*
X56807Y5809D01*
X56859Y5757D01*
X56903Y5697D01*
X56936Y5631D01*
X56959Y5560D01*
X56967Y5509D01*
X56559Y5509D01*
G37*
%LPD*%
%LPC*%
G36*
X56033Y4509D02*
X56033Y4509D01*
X56041Y4560D01*
X56064Y4631D01*
X56097Y4697D01*
X56141Y4757D01*
X56193Y4809D01*
X56253Y4853D01*
X56319Y4886D01*
X56390Y4909D01*
X56441Y4917D01*
X56441Y4509D01*
X56033Y4509D01*
G37*
%LPD*%
%LPC*%
G36*
X56559Y5391D02*
X56559Y5391D01*
X56967Y5391D01*
X56959Y5340D01*
X56936Y5269D01*
X56903Y5203D01*
X56859Y5143D01*
X56807Y5091D01*
X56747Y5047D01*
X56681Y5014D01*
X56610Y4991D01*
X56559Y4983D01*
X56559Y5391D01*
G37*
%LPD*%
%LPC*%
G36*
X43390Y35041D02*
X43390Y35041D01*
X43319Y35064D01*
X43253Y35097D01*
X43193Y35141D01*
X43141Y35193D01*
X43097Y35253D01*
X43064Y35319D01*
X43041Y35390D01*
X43033Y35441D01*
X43441Y35441D01*
X43441Y35033D01*
X43390Y35041D01*
G37*
%LPD*%
%LPC*%
G36*
X43033Y35559D02*
X43033Y35559D01*
X43041Y35610D01*
X43064Y35681D01*
X43097Y35747D01*
X43141Y35807D01*
X43193Y35859D01*
X43253Y35903D01*
X43319Y35936D01*
X43390Y35959D01*
X43441Y35967D01*
X43441Y35559D01*
X43033Y35559D01*
G37*
%LPD*%
%LPC*%
G36*
X29559Y35559D02*
X29559Y35559D01*
X29559Y35967D01*
X29610Y35959D01*
X29681Y35936D01*
X29747Y35903D01*
X29807Y35859D01*
X29859Y35807D01*
X29903Y35747D01*
X29936Y35681D01*
X29959Y35610D01*
X29967Y35559D01*
X29559Y35559D01*
G37*
%LPD*%
%LPC*%
G36*
X49033Y35559D02*
X49033Y35559D01*
X49041Y35610D01*
X49064Y35681D01*
X49097Y35747D01*
X49141Y35807D01*
X49193Y35859D01*
X49253Y35903D01*
X49319Y35936D01*
X49390Y35959D01*
X49441Y35967D01*
X49441Y35559D01*
X49033Y35559D01*
G37*
%LPD*%
%LPC*%
G36*
X43559Y35441D02*
X43559Y35441D01*
X43967Y35441D01*
X43959Y35390D01*
X43936Y35319D01*
X43903Y35253D01*
X43859Y35193D01*
X43807Y35141D01*
X43747Y35097D01*
X43681Y35064D01*
X43610Y35041D01*
X43559Y35033D01*
X43559Y35441D01*
G37*
%LPD*%
%LPC*%
G36*
X29033Y35559D02*
X29033Y35559D01*
X29041Y35610D01*
X29064Y35681D01*
X29097Y35747D01*
X29141Y35807D01*
X29193Y35859D01*
X29253Y35903D01*
X29319Y35936D01*
X29390Y35959D01*
X29441Y35967D01*
X29441Y35559D01*
X29033Y35559D01*
G37*
%LPD*%
%LPC*%
G36*
X43559Y35559D02*
X43559Y35559D01*
X43559Y35967D01*
X43610Y35959D01*
X43681Y35936D01*
X43747Y35903D01*
X43807Y35859D01*
X43859Y35807D01*
X43903Y35747D01*
X43936Y35681D01*
X43959Y35610D01*
X43967Y35559D01*
X43559Y35559D01*
G37*
%LPD*%
%LPC*%
G36*
X49559Y35559D02*
X49559Y35559D01*
X49559Y35967D01*
X49610Y35959D01*
X49681Y35936D01*
X49747Y35903D01*
X49807Y35859D01*
X49859Y35807D01*
X49903Y35747D01*
X49936Y35681D01*
X49959Y35610D01*
X49967Y35559D01*
X49559Y35559D01*
G37*
%LPD*%
%LPC*%
G36*
X11033Y10559D02*
X11033Y10559D01*
X11041Y10610D01*
X11064Y10681D01*
X11097Y10747D01*
X11141Y10807D01*
X11193Y10859D01*
X11253Y10903D01*
X11319Y10936D01*
X11390Y10959D01*
X11441Y10967D01*
X11441Y10559D01*
X11033Y10559D01*
G37*
%LPD*%
%LPC*%
G36*
X10033Y10559D02*
X10033Y10559D01*
X10041Y10610D01*
X10064Y10681D01*
X10097Y10747D01*
X10141Y10807D01*
X10193Y10859D01*
X10253Y10903D01*
X10319Y10936D01*
X10390Y10959D01*
X10441Y10967D01*
X10441Y10559D01*
X10033Y10559D01*
G37*
%LPD*%
%LPC*%
G36*
X11559Y10559D02*
X11559Y10559D01*
X11559Y10967D01*
X11610Y10959D01*
X11681Y10936D01*
X11747Y10903D01*
X11807Y10859D01*
X11859Y10807D01*
X11903Y10747D01*
X11936Y10681D01*
X11959Y10610D01*
X11967Y10559D01*
X11559Y10559D01*
G37*
%LPD*%
%LPC*%
G36*
X10559Y10559D02*
X10559Y10559D01*
X10559Y10967D01*
X10610Y10959D01*
X10681Y10936D01*
X10747Y10903D01*
X10807Y10859D01*
X10859Y10807D01*
X10903Y10747D01*
X10936Y10681D01*
X10959Y10610D01*
X10967Y10559D01*
X10559Y10559D01*
G37*
%LPD*%
%LPC*%
G36*
X3533Y35559D02*
X3533Y35559D01*
X3541Y35610D01*
X3564Y35681D01*
X3597Y35747D01*
X3641Y35807D01*
X3693Y35859D01*
X3753Y35903D01*
X3819Y35936D01*
X3890Y35959D01*
X3941Y35967D01*
X3941Y35559D01*
X3533Y35559D01*
G37*
%LPD*%
%LPC*%
G36*
X49390Y35041D02*
X49390Y35041D01*
X49319Y35064D01*
X49253Y35097D01*
X49193Y35141D01*
X49141Y35193D01*
X49097Y35253D01*
X49064Y35319D01*
X49041Y35390D01*
X49033Y35441D01*
X49441Y35441D01*
X49441Y35033D01*
X49390Y35041D01*
G37*
%LPD*%
%LPC*%
G36*
X23559Y35441D02*
X23559Y35441D01*
X23967Y35441D01*
X23959Y35390D01*
X23936Y35319D01*
X23903Y35253D01*
X23859Y35193D01*
X23807Y35141D01*
X23747Y35097D01*
X23681Y35064D01*
X23610Y35041D01*
X23559Y35033D01*
X23559Y35441D01*
G37*
%LPD*%
%LPC*%
G36*
X11559Y10441D02*
X11559Y10441D01*
X11967Y10441D01*
X11959Y10390D01*
X11936Y10319D01*
X11903Y10253D01*
X11859Y10193D01*
X11807Y10141D01*
X11747Y10097D01*
X11681Y10064D01*
X11610Y10041D01*
X11559Y10033D01*
X11559Y10441D01*
G37*
%LPD*%
%LPC*%
G36*
X11390Y10041D02*
X11390Y10041D01*
X11319Y10064D01*
X11253Y10097D01*
X11193Y10141D01*
X11141Y10193D01*
X11097Y10253D01*
X11064Y10319D01*
X11041Y10390D01*
X11033Y10441D01*
X11441Y10441D01*
X11441Y10033D01*
X11390Y10041D01*
G37*
%LPD*%
%LPC*%
G36*
X10559Y10441D02*
X10559Y10441D01*
X10967Y10441D01*
X10959Y10390D01*
X10936Y10319D01*
X10903Y10253D01*
X10859Y10193D01*
X10807Y10141D01*
X10747Y10097D01*
X10681Y10064D01*
X10610Y10041D01*
X10559Y10033D01*
X10559Y10441D01*
G37*
%LPD*%
%LPC*%
G36*
X10390Y10041D02*
X10390Y10041D01*
X10319Y10064D01*
X10253Y10097D01*
X10193Y10141D01*
X10141Y10193D01*
X10097Y10253D01*
X10064Y10319D01*
X10041Y10390D01*
X10033Y10441D01*
X10441Y10441D01*
X10441Y10033D01*
X10390Y10041D01*
G37*
%LPD*%
%LPC*%
G36*
X4059Y35559D02*
X4059Y35559D01*
X4059Y35967D01*
X4110Y35959D01*
X4181Y35936D01*
X4247Y35903D01*
X4307Y35859D01*
X4359Y35807D01*
X4403Y35747D01*
X4436Y35681D01*
X4459Y35610D01*
X4467Y35559D01*
X4059Y35559D01*
G37*
%LPD*%
%LPC*%
G36*
X9533Y35559D02*
X9533Y35559D01*
X9541Y35610D01*
X9564Y35681D01*
X9597Y35747D01*
X9641Y35807D01*
X9693Y35859D01*
X9753Y35903D01*
X9819Y35936D01*
X9890Y35959D01*
X9941Y35967D01*
X9941Y35559D01*
X9533Y35559D01*
G37*
%LPD*%
%LPC*%
G36*
X10059Y35559D02*
X10059Y35559D01*
X10059Y35967D01*
X10110Y35959D01*
X10181Y35936D01*
X10247Y35903D01*
X10307Y35859D01*
X10359Y35807D01*
X10403Y35747D01*
X10436Y35681D01*
X10459Y35610D01*
X10467Y35559D01*
X10059Y35559D01*
G37*
%LPD*%
%LPC*%
G36*
X23559Y35559D02*
X23559Y35559D01*
X23559Y35967D01*
X23610Y35959D01*
X23681Y35936D01*
X23747Y35903D01*
X23807Y35859D01*
X23859Y35807D01*
X23903Y35747D01*
X23936Y35681D01*
X23959Y35610D01*
X23967Y35559D01*
X23559Y35559D01*
G37*
%LPD*%
%LPC*%
G36*
X56559Y4391D02*
X56559Y4391D01*
X56967Y4391D01*
X56959Y4340D01*
X56936Y4269D01*
X56903Y4203D01*
X56859Y4143D01*
X56807Y4091D01*
X56747Y4047D01*
X56681Y4014D01*
X56610Y3991D01*
X56559Y3983D01*
X56559Y4391D01*
G37*
%LPD*%
%LPC*%
G36*
X56033Y5509D02*
X56033Y5509D01*
X56041Y5560D01*
X56064Y5631D01*
X56097Y5697D01*
X56141Y5757D01*
X56193Y5809D01*
X56253Y5853D01*
X56319Y5886D01*
X56390Y5909D01*
X56441Y5917D01*
X56441Y5509D01*
X56033Y5509D01*
G37*
%LPD*%
%LPC*%
G36*
X56390Y3991D02*
X56390Y3991D01*
X56319Y4014D01*
X56253Y4047D01*
X56193Y4091D01*
X56141Y4143D01*
X56097Y4203D01*
X56064Y4269D01*
X56041Y4340D01*
X56033Y4391D01*
X56441Y4391D01*
X56441Y3983D01*
X56390Y3991D01*
G37*
%LPD*%
%LPC*%
G36*
X56390Y4991D02*
X56390Y4991D01*
X56319Y5014D01*
X56253Y5047D01*
X56193Y5091D01*
X56141Y5143D01*
X56097Y5203D01*
X56064Y5269D01*
X56041Y5340D01*
X56033Y5391D01*
X56441Y5391D01*
X56441Y4983D01*
X56390Y4991D01*
G37*
%LPD*%
%LPC*%
G36*
X60229Y19162D02*
X60229Y19162D01*
X60164Y19175D01*
X60102Y19200D01*
X60047Y19237D01*
X60000Y19284D01*
X59963Y19340D01*
X59937Y19401D01*
X59929Y19441D01*
X60441Y19441D01*
X60441Y19162D01*
X60229Y19162D01*
G37*
%LPD*%
%LPC*%
G36*
X59929Y19559D02*
X59929Y19559D01*
X59937Y19599D01*
X59963Y19660D01*
X60000Y19716D01*
X60047Y19763D01*
X60102Y19800D01*
X60164Y19825D01*
X60229Y19838D01*
X60441Y19838D01*
X60441Y19559D01*
X59929Y19559D01*
G37*
%LPD*%
%LPC*%
G36*
X60559Y19559D02*
X60559Y19559D01*
X60559Y19838D01*
X60771Y19838D01*
X60836Y19825D01*
X60898Y19800D01*
X60953Y19763D01*
X61000Y19716D01*
X61037Y19660D01*
X61063Y19599D01*
X61071Y19559D01*
X60559Y19559D01*
G37*
%LPD*%
%LPC*%
G36*
X60559Y19162D02*
X60559Y19162D01*
X60559Y19441D01*
X61071Y19441D01*
X61063Y19401D01*
X61037Y19340D01*
X61022Y19317D01*
X61000Y19284D01*
X60953Y19237D01*
X60898Y19200D01*
X60836Y19175D01*
X60771Y19162D01*
X60559Y19162D01*
G37*
%LPD*%
%LPC*%
G36*
X47559Y27059D02*
X47559Y27059D01*
X47559Y27416D01*
X47672Y27416D01*
X47916Y27172D01*
X47916Y27059D01*
X47559Y27059D01*
G37*
%LPD*%
%LPC*%
G36*
X49559Y27059D02*
X49559Y27059D01*
X49559Y27416D01*
X49672Y27416D01*
X49916Y27172D01*
X49916Y27059D01*
X49559Y27059D01*
G37*
%LPD*%
%LPC*%
G36*
X45559Y27059D02*
X45559Y27059D01*
X45559Y27416D01*
X45672Y27416D01*
X45916Y27172D01*
X45916Y27059D01*
X45559Y27059D01*
G37*
%LPD*%
%LPC*%
G36*
X49559Y26584D02*
X49559Y26584D01*
X49559Y26941D01*
X49916Y26941D01*
X49916Y26828D01*
X49672Y26584D01*
X49559Y26584D01*
G37*
%LPD*%
%LPC*%
G36*
X47084Y27059D02*
X47084Y27059D01*
X47084Y27172D01*
X47328Y27416D01*
X47441Y27416D01*
X47441Y27059D01*
X47084Y27059D01*
G37*
%LPD*%
%LPC*%
G36*
X49084Y27059D02*
X49084Y27059D01*
X49084Y27172D01*
X49328Y27416D01*
X49441Y27416D01*
X49441Y27059D01*
X49084Y27059D01*
G37*
%LPD*%
%LPC*%
G36*
X47559Y26584D02*
X47559Y26584D01*
X47559Y26941D01*
X47916Y26941D01*
X47916Y26828D01*
X47672Y26584D01*
X47559Y26584D01*
G37*
%LPD*%
%LPC*%
G36*
X45084Y27059D02*
X45084Y27059D01*
X45084Y27172D01*
X45328Y27416D01*
X45441Y27416D01*
X45441Y27059D01*
X45084Y27059D01*
G37*
%LPD*%
%LPC*%
G36*
X45559Y26584D02*
X45559Y26584D01*
X45559Y26941D01*
X45916Y26941D01*
X45916Y26828D01*
X45672Y26584D01*
X45559Y26584D01*
G37*
%LPD*%
%LPC*%
G36*
X45328Y26584D02*
X45328Y26584D01*
X45084Y26828D01*
X45084Y26941D01*
X45441Y26941D01*
X45441Y26584D01*
X45328Y26584D01*
G37*
%LPD*%
%LPC*%
G36*
X49328Y26584D02*
X49328Y26584D01*
X49084Y26828D01*
X49084Y26941D01*
X49441Y26941D01*
X49441Y26584D01*
X49328Y26584D01*
G37*
%LPD*%
%LPC*%
G36*
X47328Y26584D02*
X47328Y26584D01*
X47084Y26828D01*
X47084Y26941D01*
X47441Y26941D01*
X47441Y26584D01*
X47328Y26584D01*
G37*
%LPD*%
%LPC*%
G36*
X60499Y19499D02*
X60499Y19499D01*
X60499Y19501D01*
X60501Y19501D01*
X60501Y19499D01*
X60499Y19499D01*
G37*
%LPD*%
%LPC*%
G36*
X61787Y30850D02*
X61787Y30850D01*
X61787Y30851D01*
X61788Y30851D01*
X61788Y30850D01*
X61787Y30850D01*
G37*
%LPD*%
%LPC*%
G36*
X56499Y4449D02*
X56499Y4449D01*
X56499Y4451D01*
X56501Y4451D01*
X56501Y4449D01*
X56499Y4449D01*
G37*
%LPD*%
%LPC*%
G36*
X56499Y5449D02*
X56499Y5449D01*
X56499Y5451D01*
X56501Y5451D01*
X56501Y5449D01*
X56499Y5449D01*
G37*
%LPD*%
%LPC*%
G36*
X34865Y35499D02*
X34865Y35499D01*
X34865Y35501D01*
X34867Y35501D01*
X34867Y35499D01*
X34865Y35499D01*
G37*
%LPD*%
%LPC*%
G36*
X11499Y10499D02*
X11499Y10499D01*
X11499Y10501D01*
X11501Y10501D01*
X11501Y10499D01*
X11499Y10499D01*
G37*
%LPD*%
%LPC*%
G36*
X10499Y10499D02*
X10499Y10499D01*
X10499Y10501D01*
X10501Y10501D01*
X10501Y10499D01*
X10499Y10499D01*
G37*
%LPD*%
%LPC*%
G36*
X54865Y35499D02*
X54865Y35499D01*
X54865Y35501D01*
X54867Y35501D01*
X54867Y35499D01*
X54865Y35499D01*
G37*
%LPD*%
%LPC*%
G36*
X53487Y35499D02*
X53487Y35499D01*
X53487Y35501D01*
X53489Y35501D01*
X53489Y35499D01*
X53487Y35499D01*
G37*
%LPD*%
%LPC*%
G36*
X47499Y26999D02*
X47499Y26999D01*
X47499Y27001D01*
X47501Y27001D01*
X47501Y26999D01*
X47499Y26999D01*
G37*
%LPD*%
%LPC*%
G36*
X45499Y26999D02*
X45499Y26999D01*
X45499Y27001D01*
X45501Y27001D01*
X45501Y26999D01*
X45499Y26999D01*
G37*
%LPD*%
%LPC*%
G36*
X49499Y26999D02*
X49499Y26999D01*
X49499Y27001D01*
X49501Y27001D01*
X49501Y26999D01*
X49499Y26999D01*
G37*
%LPD*%
%LPC*%
G36*
X31889Y3499D02*
X31889Y3499D01*
X31889Y3501D01*
X31891Y3501D01*
X31891Y3499D01*
X31889Y3499D01*
G37*
%LPD*%
%LPC*%
G36*
X30511Y3499D02*
X30511Y3499D01*
X30511Y3501D01*
X30513Y3501D01*
X30513Y3499D01*
X30511Y3499D01*
G37*
%LPD*%
%LPC*%
G36*
X41511Y3499D02*
X41511Y3499D01*
X41511Y3501D01*
X41513Y3501D01*
X41513Y3499D01*
X41511Y3499D01*
G37*
%LPD*%
%LPC*%
G36*
X20511Y3499D02*
X20511Y3499D01*
X20511Y3501D01*
X20513Y3501D01*
X20513Y3499D01*
X20511Y3499D01*
G37*
%LPD*%
%LPC*%
G36*
X10511Y3499D02*
X10511Y3499D01*
X10511Y3501D01*
X10513Y3501D01*
X10513Y3499D01*
X10511Y3499D01*
G37*
%LPD*%
%LPC*%
G36*
X11889Y3499D02*
X11889Y3499D01*
X11889Y3501D01*
X11891Y3501D01*
X11891Y3499D01*
X11889Y3499D01*
G37*
%LPD*%
%LPC*%
G36*
X42889Y3499D02*
X42889Y3499D01*
X42889Y3501D01*
X42891Y3501D01*
X42891Y3499D01*
X42889Y3499D01*
G37*
%LPD*%
%LPC*%
G36*
X49499Y35499D02*
X49499Y35499D01*
X49499Y35501D01*
X49501Y35501D01*
X49501Y35499D01*
X49499Y35499D01*
G37*
%LPD*%
%LPC*%
G36*
X33487Y35499D02*
X33487Y35499D01*
X33487Y35501D01*
X33489Y35501D01*
X33489Y35499D01*
X33487Y35499D01*
G37*
%LPD*%
%LPC*%
G36*
X27499Y12999D02*
X27499Y12999D01*
X27499Y13001D01*
X27501Y13001D01*
X27501Y12999D01*
X27499Y12999D01*
G37*
%LPD*%
%LPC*%
G36*
X29499Y12999D02*
X29499Y12999D01*
X29499Y13001D01*
X29501Y13001D01*
X29501Y12999D01*
X29499Y12999D01*
G37*
%LPD*%
%LPC*%
G36*
X31499Y12999D02*
X31499Y12999D01*
X31499Y13001D01*
X31501Y13001D01*
X31501Y12999D01*
X31499Y12999D01*
G37*
%LPD*%
%LPC*%
G36*
X34499Y12999D02*
X34499Y12999D01*
X34499Y13001D01*
X34501Y13001D01*
X34501Y12999D01*
X34499Y12999D01*
G37*
%LPD*%
%LPC*%
G36*
X33499Y12999D02*
X33499Y12999D01*
X33499Y13001D01*
X33501Y13001D01*
X33501Y12999D01*
X33499Y12999D01*
G37*
%LPD*%
%LPC*%
G36*
X62968Y28999D02*
X62968Y28999D01*
X62968Y29001D01*
X62969Y29001D01*
X62969Y28999D01*
X62968Y28999D01*
G37*
%LPD*%
%LPC*%
G36*
X32499Y12999D02*
X32499Y12999D01*
X32499Y13001D01*
X32501Y13001D01*
X32501Y12999D01*
X32499Y12999D01*
G37*
%LPD*%
%LPC*%
G36*
X3999Y35499D02*
X3999Y35499D01*
X3999Y35501D01*
X4001Y35501D01*
X4001Y35499D01*
X3999Y35499D01*
G37*
%LPD*%
%LPC*%
G36*
X4999Y29499D02*
X4999Y29499D01*
X4999Y29501D01*
X5001Y29501D01*
X5001Y29499D01*
X4999Y29499D01*
G37*
%LPD*%
%LPC*%
G36*
X9999Y35499D02*
X9999Y35499D01*
X9999Y35501D01*
X10001Y35501D01*
X10001Y35499D01*
X9999Y35499D01*
G37*
%LPD*%
%LPC*%
G36*
X13987Y35499D02*
X13987Y35499D01*
X13987Y35501D01*
X13989Y35501D01*
X13989Y35499D01*
X13987Y35499D01*
G37*
%LPD*%
%LPC*%
G36*
X15365Y35499D02*
X15365Y35499D01*
X15365Y35501D01*
X15367Y35501D01*
X15367Y35499D01*
X15365Y35499D01*
G37*
%LPD*%
%LPC*%
G36*
X23499Y35499D02*
X23499Y35499D01*
X23499Y35501D01*
X23501Y35501D01*
X23501Y35499D01*
X23499Y35499D01*
G37*
%LPD*%
%LPC*%
G36*
X29499Y35499D02*
X29499Y35499D01*
X29499Y35501D01*
X29501Y35501D01*
X29501Y35499D01*
X29499Y35499D01*
G37*
%LPD*%
%LPC*%
G36*
X43499Y35499D02*
X43499Y35499D01*
X43499Y35501D01*
X43501Y35501D01*
X43501Y35499D01*
X43499Y35499D01*
G37*
%LPD*%
%LPC*%
G36*
X38999Y19499D02*
X38999Y19499D01*
X38999Y19501D01*
X39001Y19501D01*
X39001Y19499D01*
X38999Y19499D01*
G37*
%LPD*%
D10*
X7500Y10500D03*
X8500Y10500D03*
X9500Y10500D03*
X10500Y10500D03*
X11500Y10500D03*
X12500Y10500D03*
X14500Y10500D03*
X15500Y10500D03*
X16500Y10500D03*
X17500Y10500D03*
X18500Y10500D03*
X19500Y10500D03*
X19500Y29500D03*
X18500Y29500D03*
X17500Y29500D03*
X16500Y29500D03*
X15500Y29500D03*
X14500Y29500D03*
X13500Y29500D03*
X12500Y29500D03*
X11000Y29500D03*
X10000Y29500D03*
X9000Y29500D03*
X8000Y29500D03*
X7000Y29500D03*
X6000Y29500D03*
X5000Y29500D03*
X4000Y29500D03*
X3000Y29500D03*
X2000Y29500D03*
X6500Y10500D03*
X5500Y10500D03*
D11*
X59000Y35500D03*
D12*
X57622Y35500D03*
X56244Y35500D03*
X54866Y35500D03*
X53488Y35500D03*
D10*
X44500Y35500D03*
X43500Y35500D03*
D11*
X19500Y35500D03*
D12*
X18122Y35500D03*
X16744Y35500D03*
X15366Y35500D03*
X13988Y35500D03*
D10*
X12000Y35500D03*
X11000Y35500D03*
X10000Y35500D03*
X56500Y11450D03*
X56500Y10450D03*
X56500Y9450D03*
X56500Y8450D03*
X56500Y7450D03*
X56500Y6450D03*
X56500Y5450D03*
X56500Y4450D03*
D13*
X60606Y29000D03*
X62969Y29000D03*
X61787Y30850D03*
D10*
X8000Y35500D03*
X7000Y35500D03*
D11*
X5000Y3500D03*
D12*
X6378Y3500D03*
X7756Y3500D03*
X9134Y3500D03*
X10512Y3500D03*
X11890Y3500D03*
D10*
X5000Y35500D03*
X4000Y35500D03*
D11*
X36000Y3500D03*
D12*
X37378Y3500D03*
X38756Y3500D03*
X40134Y3500D03*
X41512Y3500D03*
X42890Y3500D03*
D11*
X39000Y35500D03*
D12*
X37622Y35500D03*
X36244Y35500D03*
X34866Y35500D03*
X33488Y35500D03*
D10*
X31500Y35500D03*
X30500Y35500D03*
X29500Y35500D03*
X51500Y35500D03*
X50500Y35500D03*
X49500Y35500D03*
X27500Y35500D03*
X26500Y35500D03*
X24500Y35500D03*
X23500Y35500D03*
X47500Y35500D03*
X46500Y35500D03*
D11*
X15000Y3500D03*
D12*
X16378Y3500D03*
X17756Y3500D03*
X19134Y3500D03*
X20512Y3500D03*
X21890Y3500D03*
D11*
X25000Y3500D03*
D12*
X26378Y3500D03*
X27756Y3500D03*
X29134Y3500D03*
X30512Y3500D03*
X31890Y3500D03*
D14*
X40500Y23500D03*
X40500Y28500D03*
X38500Y23500D03*
X38500Y28500D03*
D15*
X27000Y28500D03*
X27000Y23500D03*
X29000Y28500D03*
X29000Y23500D03*
D14*
X36500Y23500D03*
X36500Y28500D03*
D15*
X31000Y28500D03*
X31000Y23500D03*
D16*
X39000Y14500D03*
X39000Y17000D03*
X39000Y19500D03*
D17*
X60263Y19500D02*
X60737Y19500D01*
X60737Y18500D02*
X60263Y18500D01*
D18*
X62500Y20500D03*
X62500Y16500D03*
D19*
X26500Y13240D02*
X26500Y12760D01*
X27500Y12760D02*
X27500Y13240D01*
X28500Y13240D02*
X28500Y12760D01*
X29500Y12760D02*
X29500Y13240D01*
X30500Y13240D02*
X30500Y12760D01*
X31500Y12760D02*
X31500Y13240D01*
X32500Y13240D02*
X32500Y12760D01*
X33500Y12760D02*
X33500Y13240D01*
X34500Y13240D02*
X34500Y12760D01*
X34500Y15760D02*
X34500Y16240D01*
X33500Y16240D02*
X33500Y15760D01*
X32500Y15760D02*
X32500Y16240D01*
X31500Y16240D02*
X31500Y15760D01*
X30500Y15760D02*
X30500Y16240D01*
X29500Y16240D02*
X29500Y15760D01*
X28500Y15760D02*
X28500Y16240D01*
X27500Y16240D02*
X27500Y15760D01*
X26500Y15760D02*
X26500Y16240D01*
D15*
X47500Y23500D03*
X47500Y18500D03*
X49500Y23500D03*
X49500Y18500D03*
X45500Y23500D03*
X45500Y18500D03*
D20*
X45500Y25000D03*
X45500Y27000D03*
X47500Y25000D03*
X47500Y27000D03*
X49500Y25000D03*
X49500Y27000D03*
D21*
X56100Y35475D02*
X56210Y35475D01*
X56100Y35475D02*
X52965Y32340D01*
X43725Y32340D01*
X33935Y32340D02*
X29480Y32340D01*
X29205Y32065D01*
X16610Y30910D02*
X15950Y30250D01*
X14080Y30250D01*
X13750Y29920D01*
X13750Y29865D01*
X13530Y29645D01*
X13530Y29535D01*
X56210Y35475D02*
X56244Y35500D01*
X13530Y29535D02*
X13500Y29500D01*
D22*
X43725Y32340D03*
X33935Y32340D03*
X29205Y32065D03*
X16610Y30910D03*
D21*
X14080Y16115D02*
X13255Y15290D01*
X13255Y10230D01*
X6545Y3520D01*
X6380Y3520D01*
X6378Y3500D01*
X48840Y25685D02*
X49500Y25025D01*
X48840Y25685D02*
X37070Y25685D01*
X30910Y29095D02*
X29645Y29095D01*
X29480Y29260D01*
X49500Y25025D02*
X49500Y25000D01*
D22*
X14080Y16115D03*
X37070Y25685D03*
X30910Y29095D03*
X29480Y29260D03*
D21*
X16500Y29370D02*
X16500Y29500D01*
X16500Y29370D02*
X25685Y20185D01*
X25685Y15730D01*
D22*
X25685Y15730D03*
D21*
X40480Y23540D02*
X40480Y23595D01*
X39985Y24090D01*
X35920Y24090D01*
X32675Y20845D01*
X30470Y20845D01*
X40480Y23540D02*
X40500Y23500D01*
X9020Y29370D02*
X9020Y29480D01*
X9020Y29370D02*
X23870Y14520D01*
X9020Y29480D02*
X9000Y29500D01*
D22*
X30470Y20845D03*
X23870Y14520D03*
D21*
X15015Y8965D02*
X15015Y3520D01*
X15015Y8965D02*
X13750Y10230D01*
X13750Y15345D01*
X15015Y3520D02*
X15000Y3500D01*
D22*
X13750Y15345D03*
D21*
X14520Y10450D02*
X14520Y10285D01*
X16280Y8525D01*
X16280Y3905D01*
X16335Y3850D01*
X16335Y3520D01*
X14520Y10450D02*
X14500Y10500D01*
X16335Y3520D02*
X16378Y3500D01*
X46475Y25025D02*
X47465Y25025D01*
X46475Y25025D02*
X45540Y24090D01*
X41910Y24090D01*
X37475Y19655D01*
X35855Y19655D01*
X47465Y25025D02*
X47500Y25000D01*
D22*
X35855Y19655D03*
D21*
X6050Y29315D02*
X6050Y29480D01*
X6050Y29315D02*
X24695Y10670D01*
X6050Y29480D02*
X6000Y29500D01*
D22*
X24695Y10670D03*
D21*
X35420Y20405D02*
X38500Y23485D01*
X35420Y20405D02*
X35420Y18855D01*
X38500Y23485D02*
X38500Y23500D01*
X11000Y29370D02*
X11000Y29500D01*
X11000Y29370D02*
X14960Y25410D01*
X14960Y25025D01*
X26125Y13860D01*
D22*
X35420Y18855D03*
X26125Y13860D03*
D21*
X25025Y10890D02*
X25025Y8030D01*
X25025Y10890D02*
X9790Y26125D01*
D22*
X25025Y8030D03*
X9790Y26125D03*
D21*
X15510Y10450D02*
X15675Y10285D01*
X15675Y10230D01*
X21720Y4185D01*
X25570Y4185D01*
X26235Y3520D01*
X26345Y3520D01*
X15510Y10450D02*
X15500Y10500D01*
X26345Y3520D02*
X26378Y3500D01*
X45320Y23320D02*
X45500Y23500D01*
X45320Y23320D02*
X45320Y23265D01*
X45155Y23100D01*
X45155Y21725D01*
X38940Y15510D01*
X38610Y15510D01*
X35420Y12320D01*
X35420Y11000D01*
X28545Y4125D02*
X27115Y4125D01*
X26510Y3520D01*
X26400Y3520D01*
X26378Y3500D01*
D22*
X35420Y11000D03*
X28545Y4125D03*
D21*
X26565Y13860D02*
X15290Y25135D01*
X26565Y13860D02*
X29865Y13860D01*
X30470Y13255D01*
X30470Y13035D01*
X30500Y13000D01*
D22*
X15290Y25135D03*
D21*
X36410Y23485D02*
X36465Y23485D01*
X36410Y23485D02*
X35090Y22165D01*
X35090Y9570D01*
X32533Y7013D02*
X31185Y5665D01*
X32533Y7013D02*
X35090Y9570D01*
X36465Y23485D02*
X36500Y23500D01*
X10010Y29370D02*
X10010Y29480D01*
X10010Y29370D02*
X25905Y13475D01*
X25905Y12540D01*
X31075Y7370D01*
X32175Y7370D01*
X32533Y7013D01*
X10010Y29480D02*
X10000Y29500D01*
D22*
X31185Y5665D03*
D21*
X8030Y29315D02*
X8030Y29480D01*
X8030Y29315D02*
X30305Y7040D01*
X32065Y7040D01*
X8030Y29480D02*
X8000Y29500D01*
X56320Y9405D02*
X56485Y9405D01*
X56320Y9405D02*
X49665Y2750D01*
X37070Y2750D01*
X36355Y3465D01*
X36025Y3465D01*
X56485Y9405D02*
X56500Y9450D01*
X36025Y3465D02*
X36000Y3500D01*
D22*
X32065Y7040D03*
D21*
X7040Y29315D02*
X7040Y29480D01*
X7040Y29315D02*
X31790Y4565D01*
X36190Y4565D01*
X7040Y29480D02*
X7000Y29500D01*
D22*
X36190Y4565D03*
D21*
X16665Y10285D02*
X16500Y10450D01*
X16665Y10285D02*
X16665Y10230D01*
X22330Y4565D01*
X22660Y4565D01*
X16500Y10450D02*
X16500Y10500D01*
D22*
X22660Y4565D03*
D21*
X17545Y10340D02*
X17545Y10450D01*
X17545Y10340D02*
X17875Y10010D01*
X17985Y10010D01*
X23540Y4455D01*
X31570Y4455D01*
X31790Y4235D01*
X39270Y4235D01*
X39985Y3520D01*
X40095Y3520D01*
X17545Y10450D02*
X17500Y10500D01*
X40095Y3520D02*
X40134Y3500D01*
D23*
X51535Y35530D02*
X51755Y35530D01*
X52525Y36300D01*
X58630Y36300D01*
X58850Y36080D01*
X58850Y35640D01*
X58960Y35530D01*
X51535Y35530D02*
X51500Y35500D01*
X58960Y35530D02*
X59000Y35500D01*
X12265Y35530D02*
X12045Y35530D01*
X12265Y35530D02*
X13035Y36300D01*
X19140Y36300D01*
X19360Y36080D01*
X19360Y35640D01*
X19500Y35500D01*
X12045Y35530D02*
X12000Y35500D01*
X19580Y35420D02*
X20240Y35420D01*
X27005Y28655D01*
X27005Y28545D01*
X19580Y35420D02*
X19500Y35500D01*
X27005Y28545D02*
X27000Y28500D01*
X51425Y35255D02*
X51425Y35420D01*
X51425Y35255D02*
X50875Y34705D01*
X40260Y34705D01*
X39655Y35310D01*
X39215Y35310D01*
X39050Y35475D01*
X51425Y35420D02*
X51500Y35500D01*
X39050Y35475D02*
X39000Y35500D01*
X45210Y34320D02*
X32065Y21175D01*
X45210Y34320D02*
X45320Y34320D01*
D22*
X32065Y21175D03*
X45320Y34320D03*
D23*
X28490Y16335D02*
X28490Y16005D01*
X28490Y16335D02*
X27665Y17160D01*
X27665Y34155D01*
X26510Y35310D01*
X26510Y35475D01*
X28490Y16005D02*
X28500Y16000D01*
X26510Y35475D02*
X26500Y35500D01*
X30470Y15950D02*
X30470Y15785D01*
X29810Y15125D01*
X25795Y15125D01*
X11770Y29150D01*
X11770Y30580D01*
X7040Y35310D01*
X7040Y35475D01*
X30500Y16000D02*
X30470Y15950D01*
X7040Y35475D02*
X7000Y35500D01*
D21*
X28435Y24860D02*
X36850Y33275D01*
D22*
X28435Y24860D03*
X36850Y33275D03*
D21*
X29040Y23595D02*
X29040Y23540D01*
X29040Y23595D02*
X37180Y31735D01*
X37180Y34925D01*
X37620Y35365D01*
X37620Y35475D01*
X29040Y23540D02*
X29000Y23500D01*
X37620Y35475D02*
X37622Y35500D01*
X34540Y31735D02*
X28435Y31735D01*
D22*
X34540Y31735D03*
X28435Y31735D03*
D21*
X26565Y27170D02*
X18260Y35475D01*
X18150Y35475D01*
X18122Y35500D01*
D22*
X26565Y27170D03*
D21*
X36520Y28545D02*
X36520Y28600D01*
X38280Y30360D01*
X38280Y35200D01*
X38390Y35310D01*
X38390Y35695D01*
X38280Y35805D01*
X38280Y35915D01*
X36520Y28545D02*
X36500Y28500D01*
D22*
X38280Y35915D03*
D23*
X9185Y36685D02*
X8000Y35500D01*
X9185Y36685D02*
X26455Y36685D01*
X27033Y36108D02*
X27335Y35805D01*
X27033Y36108D02*
X26455Y36685D01*
X27335Y35805D02*
X27335Y35750D01*
X27500Y35585D01*
X27500Y35500D01*
X47465Y35530D02*
X47465Y35750D01*
X46915Y36300D01*
X27225Y36300D01*
X27033Y36108D01*
X47465Y35530D02*
X47500Y35500D01*
X34485Y16115D02*
X34485Y16005D01*
X34485Y16115D02*
X33990Y16610D01*
X33990Y16830D01*
X28050Y22770D01*
X28050Y34650D01*
X27665Y35035D01*
X27665Y35090D01*
X27555Y35200D01*
X27555Y35420D01*
X34485Y16005D02*
X34500Y16000D01*
X27555Y35420D02*
X27500Y35500D01*
D24*
X49500Y31500D03*
D23*
X52500Y31500D01*
X54000Y30000D01*
D24*
X54000Y30000D03*
D21*
X29810Y28490D02*
X28435Y29865D01*
X15840Y30580D02*
X11000Y35420D01*
X11000Y35500D01*
D22*
X29810Y28490D03*
X28435Y29865D03*
X15840Y30580D03*
D21*
X30745Y35090D02*
X31515Y34320D01*
X30745Y35090D02*
X30745Y35145D01*
X30525Y35365D01*
X30525Y35475D01*
X30500Y35500D01*
D22*
X31515Y34320D03*
D24*
X45100Y20350D03*
D21*
X45650Y20350D01*
X47500Y18500D01*
M02*
