G04 EAGLE Gerber RS-274X export*
G75*
%MOIN*%
%FSLAX24Y24*%
%LPD*%
%INTop Copper*%
%IPPOS*%
%AMOC8*
5,1,8,0,0,1.08239X$1,22.5*%
G01*
%ADD10C,0.000000*%
%ADD11C,0.074000*%
%ADD12R,0.080000X0.080000*%
%ADD13C,0.080000*%
%ADD14C,0.177000*%
%ADD15P,0.051955X8X112.500000*%
%ADD16P,0.051955X8X292.500000*%
%ADD17C,0.010000*%
%ADD18R,0.025000X0.050000*%
%ADD19C,0.130000*%
%ADD20C,0.047496*%
%ADD21C,0.129921*%
%ADD22C,0.048000*%
%ADD23R,0.050000X0.025000*%
%ADD24P,0.068191X8X112.500000*%
%ADD25C,0.012000*%
%ADD26C,0.024000*%
%ADD27C,0.024000*%
%ADD28C,0.029780*%

G36*
X64001Y201D02*
X64001Y201D01*
X64002Y201D01*
X64123Y210D01*
X64124Y210D01*
X64129Y212D01*
X64359Y286D01*
X64360Y287D01*
X64362Y288D01*
X64367Y290D01*
X64562Y432D01*
X64563Y433D01*
X64565Y434D01*
X64568Y438D01*
X64710Y633D01*
X64711Y635D01*
X64712Y636D01*
X64714Y641D01*
X64788Y871D01*
X64789Y872D01*
X64790Y877D01*
X64799Y998D01*
X64799Y1000D01*
X64799Y39000D01*
X64799Y39001D01*
X64799Y39002D01*
X64790Y39123D01*
X64790Y39124D01*
X64788Y39129D01*
X64714Y39359D01*
X64713Y39360D01*
X64712Y39362D01*
X64710Y39367D01*
X64568Y39562D01*
X64567Y39563D01*
X64566Y39565D01*
X64562Y39568D01*
X64367Y39710D01*
X64365Y39711D01*
X64364Y39712D01*
X64359Y39714D01*
X64129Y39788D01*
X64128Y39789D01*
X64123Y39790D01*
X64002Y39799D01*
X64000Y39799D01*
X1000Y39799D01*
X999Y39799D01*
X998Y39799D01*
X877Y39790D01*
X876Y39790D01*
X871Y39788D01*
X641Y39714D01*
X640Y39713D01*
X638Y39712D01*
X633Y39710D01*
X438Y39568D01*
X437Y39567D01*
X435Y39566D01*
X432Y39562D01*
X290Y39367D01*
X289Y39365D01*
X288Y39364D01*
X286Y39359D01*
X212Y39129D01*
X211Y39128D01*
X210Y39123D01*
X201Y39002D01*
X201Y39000D01*
X201Y1000D01*
X201Y999D01*
X201Y998D01*
X210Y877D01*
X210Y876D01*
X212Y871D01*
X286Y641D01*
X287Y640D01*
X288Y638D01*
X290Y633D01*
X432Y438D01*
X433Y437D01*
X434Y435D01*
X438Y432D01*
X633Y290D01*
X635Y289D01*
X636Y288D01*
X641Y286D01*
X871Y212D01*
X872Y211D01*
X877Y210D01*
X998Y201D01*
X1000Y201D01*
X64000Y201D01*
X64001Y201D01*
G37*
%LPC*%
G36*
X8568Y2589D02*
X8568Y2589D01*
X8082Y3076D01*
X8081Y3077D01*
X8080Y3078D01*
X8077Y3079D01*
X8074Y3082D01*
X8073Y3082D01*
X8072Y3083D01*
X8068Y3083D01*
X8065Y3084D01*
X8064Y3084D01*
X8063Y3085D01*
X8059Y3084D01*
X8055Y3084D01*
X8054Y3084D01*
X8053Y3084D01*
X8050Y3082D01*
X8046Y3081D01*
X8045Y3080D01*
X8044Y3080D01*
X8040Y3076D01*
X8040Y3075D01*
X7856Y2999D01*
X7656Y2999D01*
X7472Y3075D01*
X7331Y3216D01*
X7255Y3400D01*
X7255Y3600D01*
X7331Y3784D01*
X7472Y3925D01*
X7656Y4001D01*
X7856Y4001D01*
X8040Y3925D01*
X8180Y3784D01*
X8257Y3600D01*
X8257Y3400D01*
X8251Y3387D01*
X8250Y3382D01*
X8249Y3378D01*
X8249Y3377D01*
X8249Y3373D01*
X8250Y3368D01*
X8252Y3364D01*
X8254Y3359D01*
X8257Y3355D01*
X8693Y2919D01*
X8696Y2917D01*
X8699Y2915D01*
X8700Y2914D01*
X8701Y2914D01*
X8705Y2913D01*
X8708Y2911D01*
X8709Y2911D01*
X8710Y2911D01*
X8711Y2911D01*
X8714Y2911D01*
X12131Y2911D01*
X12135Y2911D01*
X12139Y2912D01*
X12140Y2912D01*
X12141Y2912D01*
X12144Y2914D01*
X12148Y2916D01*
X12149Y2917D01*
X12150Y2917D01*
X12152Y2919D01*
X13428Y4196D01*
X14396Y4196D01*
X14400Y4196D01*
X14404Y4197D01*
X14405Y4197D01*
X14406Y4197D01*
X14409Y4199D01*
X14413Y4201D01*
X14414Y4202D01*
X14415Y4202D01*
X14417Y4204D01*
X14457Y4244D01*
X14459Y4247D01*
X14461Y4249D01*
X14461Y4251D01*
X14463Y4252D01*
X14463Y4255D01*
X14465Y4258D01*
X14465Y4259D01*
X14465Y4261D01*
X14465Y4264D01*
X14465Y4267D01*
X14465Y4269D01*
X14465Y4271D01*
X14464Y4274D01*
X14463Y4276D01*
X14462Y4278D01*
X14462Y4280D01*
X14460Y4282D01*
X14458Y4284D01*
X14457Y4286D01*
X14455Y4287D01*
X14453Y4289D01*
X14451Y4290D01*
X14449Y4291D01*
X14447Y4292D01*
X14444Y4293D01*
X14442Y4294D01*
X14439Y4294D01*
X14438Y4294D01*
X14437Y4294D01*
X14436Y4294D01*
X10309Y4294D01*
X10305Y4294D01*
X10301Y4293D01*
X10300Y4293D01*
X10299Y4293D01*
X10296Y4291D01*
X10292Y4289D01*
X10291Y4288D01*
X10290Y4288D01*
X10288Y4286D01*
X9639Y3637D01*
X9639Y3636D01*
X9636Y3633D01*
X9633Y3629D01*
X9632Y3624D01*
X9631Y3620D01*
X9631Y3619D01*
X9631Y3615D01*
X9631Y3610D01*
X9633Y3605D01*
X9635Y3600D01*
X9635Y3400D01*
X9558Y3216D01*
X9418Y3075D01*
X9233Y2999D01*
X9034Y2999D01*
X8850Y3075D01*
X8709Y3216D01*
X8633Y3400D01*
X8633Y3600D01*
X8709Y3784D01*
X8850Y3925D01*
X9034Y4001D01*
X9233Y4001D01*
X9418Y3925D01*
X9424Y3918D01*
X9425Y3917D01*
X9426Y3916D01*
X9429Y3914D01*
X9432Y3912D01*
X9433Y3912D01*
X9434Y3911D01*
X9438Y3911D01*
X9441Y3910D01*
X9442Y3910D01*
X9443Y3909D01*
X9447Y3910D01*
X9451Y3910D01*
X9452Y3910D01*
X9453Y3910D01*
X9456Y3912D01*
X9460Y3913D01*
X9460Y3914D01*
X9461Y3914D01*
X9466Y3918D01*
X10163Y4616D01*
X14386Y4616D01*
X14390Y4616D01*
X14394Y4617D01*
X14395Y4617D01*
X14396Y4617D01*
X14399Y4619D01*
X14403Y4621D01*
X14404Y4622D01*
X14405Y4622D01*
X14407Y4624D01*
X20071Y10288D01*
X20073Y10291D01*
X20075Y10294D01*
X20076Y10295D01*
X20076Y10296D01*
X20077Y10300D01*
X20079Y10303D01*
X20079Y10304D01*
X20079Y10305D01*
X20079Y10306D01*
X20079Y10309D01*
X20079Y10847D01*
X23653Y14420D01*
X23656Y14424D01*
X23658Y14428D01*
X23659Y14428D01*
X23660Y14433D01*
X23661Y14437D01*
X23661Y14442D01*
X23661Y14447D01*
X23659Y14452D01*
X23649Y14476D01*
X23649Y14564D01*
X23683Y14645D01*
X23745Y14707D01*
X23826Y14741D01*
X23914Y14741D01*
X23938Y14731D01*
X23943Y14730D01*
X23947Y14729D01*
X23952Y14729D01*
X23957Y14730D01*
X23961Y14732D01*
X23965Y14734D01*
X23966Y14734D01*
X23970Y14737D01*
X30238Y21006D01*
X30306Y21006D01*
X30310Y21006D01*
X30314Y21007D01*
X30315Y21007D01*
X30316Y21007D01*
X30319Y21009D01*
X30323Y21011D01*
X30324Y21012D01*
X30325Y21012D01*
X30327Y21014D01*
X30345Y21032D01*
X30426Y21066D01*
X30514Y21066D01*
X30595Y21032D01*
X30657Y20970D01*
X30692Y20886D01*
X30693Y20885D01*
X30694Y20883D01*
X30695Y20881D01*
X30697Y20878D01*
X30698Y20877D01*
X30700Y20875D01*
X30702Y20874D01*
X30704Y20872D01*
X30706Y20871D01*
X30708Y20870D01*
X30711Y20870D01*
X30713Y20869D01*
X30715Y20869D01*
X30717Y20868D01*
X30720Y20869D01*
X30723Y20868D01*
X30725Y20869D01*
X30727Y20869D01*
X30729Y20870D01*
X30732Y20871D01*
X30734Y20872D01*
X30735Y20873D01*
X30740Y20877D01*
X31157Y21294D01*
X31159Y21297D01*
X31161Y21299D01*
X31162Y21301D01*
X31163Y21302D01*
X31164Y21305D01*
X31165Y21308D01*
X31165Y21309D01*
X31165Y21311D01*
X31165Y21314D01*
X31166Y21317D01*
X31165Y21319D01*
X31165Y21321D01*
X31164Y21324D01*
X31163Y21326D01*
X31162Y21328D01*
X31162Y21330D01*
X31160Y21332D01*
X31158Y21334D01*
X31157Y21336D01*
X31156Y21337D01*
X31153Y21339D01*
X31151Y21340D01*
X31149Y21341D01*
X31147Y21342D01*
X31145Y21343D01*
X31142Y21344D01*
X31139Y21344D01*
X31138Y21344D01*
X31136Y21344D01*
X25489Y21344D01*
X25485Y21344D01*
X25481Y21343D01*
X25480Y21343D01*
X25479Y21343D01*
X25476Y21341D01*
X25472Y21339D01*
X25471Y21338D01*
X25470Y21338D01*
X25468Y21336D01*
X14913Y10781D01*
X14913Y10780D01*
X14911Y10778D01*
X14909Y10776D01*
X14908Y10774D01*
X14907Y10773D01*
X14906Y10770D01*
X14905Y10767D01*
X14905Y10766D01*
X14905Y10764D01*
X14905Y10763D01*
X14905Y10760D01*
X14904Y10758D01*
X14905Y10756D01*
X14905Y10754D01*
X14907Y10749D01*
X14971Y10594D01*
X14971Y10406D01*
X14899Y10233D01*
X14767Y10101D01*
X14594Y10029D01*
X14406Y10029D01*
X14233Y10101D01*
X14101Y10233D01*
X14029Y10406D01*
X14029Y10594D01*
X14101Y10767D01*
X14233Y10899D01*
X14406Y10971D01*
X14594Y10971D01*
X14614Y10962D01*
X14615Y10962D01*
X14619Y10961D01*
X14624Y10960D01*
X14629Y10961D01*
X14633Y10961D01*
X14638Y10963D01*
X14642Y10965D01*
X14646Y10969D01*
X25343Y21666D01*
X33777Y21666D01*
X35618Y19824D01*
X35621Y19822D01*
X35624Y19820D01*
X35625Y19819D01*
X35626Y19819D01*
X35630Y19818D01*
X35633Y19816D01*
X35634Y19816D01*
X35635Y19816D01*
X35636Y19816D01*
X35639Y19816D01*
X35691Y19816D01*
X35695Y19816D01*
X35699Y19817D01*
X35700Y19817D01*
X35701Y19817D01*
X35704Y19819D01*
X35708Y19821D01*
X35709Y19822D01*
X35710Y19822D01*
X35712Y19824D01*
X35730Y19842D01*
X35811Y19876D01*
X35896Y19876D01*
X35899Y19876D01*
X35902Y19876D01*
X35904Y19877D01*
X35906Y19877D01*
X35908Y19879D01*
X35911Y19880D01*
X35913Y19881D01*
X35914Y19882D01*
X35916Y19884D01*
X35919Y19886D01*
X35920Y19887D01*
X35921Y19889D01*
X35922Y19892D01*
X35924Y19894D01*
X35924Y19896D01*
X35925Y19898D01*
X35925Y19900D01*
X35926Y19903D01*
X35925Y19905D01*
X35926Y19907D01*
X35925Y19910D01*
X35925Y19913D01*
X35924Y19915D01*
X35923Y19916D01*
X35922Y19919D01*
X35921Y19922D01*
X35919Y19924D01*
X35918Y19924D01*
X35918Y19925D01*
X35917Y19926D01*
X28369Y27474D01*
X28303Y27540D01*
X28269Y27621D01*
X28269Y27855D01*
X28269Y27856D01*
X28269Y27857D01*
X28268Y27861D01*
X28268Y27864D01*
X28267Y27865D01*
X28267Y27866D01*
X28265Y27870D01*
X28263Y27873D01*
X28262Y27874D01*
X28259Y27877D01*
X28256Y27879D01*
X28255Y27880D01*
X28254Y27880D01*
X28251Y27882D01*
X28247Y27883D01*
X28246Y27883D01*
X28245Y27884D01*
X28240Y27884D01*
X27658Y27884D01*
X27657Y27884D01*
X27653Y27883D01*
X27648Y27883D01*
X27644Y27880D01*
X27640Y27878D01*
X27636Y27875D01*
X27633Y27871D01*
X27630Y27868D01*
X27629Y27866D01*
X27627Y27865D01*
X27624Y27860D01*
X27623Y27857D01*
X27596Y27834D01*
X27595Y27833D01*
X27405Y27643D01*
X27324Y27609D01*
X26834Y27609D01*
X26830Y27609D01*
X26826Y27608D01*
X26825Y27608D01*
X26824Y27608D01*
X26821Y27606D01*
X26817Y27604D01*
X26816Y27603D01*
X26815Y27603D01*
X26813Y27601D01*
X26636Y27423D01*
X26634Y27422D01*
X26633Y27420D01*
X26632Y27419D01*
X26631Y27417D01*
X26630Y27416D01*
X26629Y27414D01*
X26629Y27412D01*
X26628Y27411D01*
X26628Y27410D01*
X26628Y27408D01*
X26627Y27407D01*
X26627Y27405D01*
X26627Y27403D01*
X26627Y27402D01*
X26627Y27401D01*
X26628Y27399D01*
X26628Y27397D01*
X26628Y27395D01*
X26629Y27393D01*
X26629Y27392D01*
X26629Y27391D01*
X26630Y27390D01*
X26631Y27388D01*
X26632Y27386D01*
X26633Y27385D01*
X26634Y27384D01*
X26635Y27383D01*
X26636Y27382D01*
X26637Y27381D01*
X26639Y27380D01*
X26640Y27378D01*
X26642Y27378D01*
X26642Y27377D01*
X26643Y27377D01*
X26645Y27376D01*
X26690Y27357D01*
X26752Y27295D01*
X26786Y27214D01*
X26786Y27189D01*
X26786Y27185D01*
X26787Y27181D01*
X26787Y27180D01*
X26787Y27179D01*
X26789Y27176D01*
X26791Y27172D01*
X26792Y27171D01*
X26792Y27170D01*
X26794Y27168D01*
X30253Y23709D01*
X30256Y23707D01*
X30259Y23705D01*
X30260Y23704D01*
X30261Y23704D01*
X30265Y23703D01*
X30268Y23701D01*
X30269Y23701D01*
X30270Y23701D01*
X30271Y23701D01*
X30274Y23701D01*
X30707Y23701D01*
X30711Y23701D01*
X30715Y23702D01*
X30716Y23702D01*
X30720Y23704D01*
X30723Y23706D01*
X30724Y23707D01*
X30725Y23707D01*
X30727Y23709D01*
X30859Y23841D01*
X31141Y23841D01*
X31341Y23641D01*
X31341Y23359D01*
X31141Y23159D01*
X30859Y23159D01*
X30657Y23361D01*
X30655Y23365D01*
X30653Y23368D01*
X30652Y23369D01*
X30649Y23372D01*
X30646Y23374D01*
X30645Y23375D01*
X30644Y23375D01*
X30641Y23377D01*
X30637Y23378D01*
X30636Y23378D01*
X30635Y23379D01*
X30630Y23379D01*
X30128Y23379D01*
X28697Y24810D01*
X28696Y24812D01*
X28694Y24813D01*
X28692Y24814D01*
X28689Y24816D01*
X28688Y24817D01*
X28686Y24818D01*
X28683Y24818D01*
X28680Y24819D01*
X28678Y24819D01*
X28676Y24819D01*
X28674Y24819D01*
X28671Y24818D01*
X28669Y24818D01*
X28667Y24817D01*
X28664Y24816D01*
X28662Y24815D01*
X28660Y24814D01*
X28658Y24813D01*
X28657Y24811D01*
X28654Y24809D01*
X28653Y24807D01*
X28652Y24806D01*
X28649Y24801D01*
X28622Y24735D01*
X28560Y24673D01*
X28479Y24639D01*
X28454Y24639D01*
X28450Y24639D01*
X28446Y24638D01*
X28445Y24638D01*
X28444Y24638D01*
X28441Y24636D01*
X28437Y24634D01*
X28436Y24633D01*
X28435Y24633D01*
X28433Y24631D01*
X27349Y23547D01*
X27347Y23544D01*
X27345Y23541D01*
X27344Y23540D01*
X27344Y23539D01*
X27343Y23535D01*
X27341Y23532D01*
X27341Y23531D01*
X27341Y23530D01*
X27341Y23529D01*
X27341Y23526D01*
X27341Y23359D01*
X27141Y23159D01*
X26859Y23159D01*
X26659Y23359D01*
X26659Y23641D01*
X26859Y23841D01*
X27141Y23841D01*
X27144Y23838D01*
X27145Y23837D01*
X27146Y23836D01*
X27149Y23834D01*
X27152Y23832D01*
X27153Y23832D01*
X27154Y23831D01*
X27157Y23831D01*
X27161Y23829D01*
X27162Y23830D01*
X27163Y23829D01*
X27167Y23830D01*
X27171Y23830D01*
X27172Y23830D01*
X27173Y23830D01*
X27176Y23832D01*
X27180Y23833D01*
X27180Y23834D01*
X27181Y23834D01*
X27185Y23838D01*
X28206Y24858D01*
X28208Y24861D01*
X28210Y24864D01*
X28211Y24865D01*
X28211Y24866D01*
X28212Y24870D01*
X28214Y24873D01*
X28214Y24874D01*
X28214Y24875D01*
X28214Y24876D01*
X28214Y24879D01*
X28214Y24904D01*
X28248Y24985D01*
X28310Y25047D01*
X28376Y25074D01*
X28378Y25076D01*
X28380Y25076D01*
X28382Y25078D01*
X28384Y25080D01*
X28385Y25081D01*
X28387Y25082D01*
X28388Y25085D01*
X28390Y25087D01*
X28391Y25089D01*
X28392Y25091D01*
X28393Y25093D01*
X28393Y25096D01*
X28394Y25098D01*
X28394Y25100D01*
X28394Y25103D01*
X28394Y25105D01*
X28393Y25107D01*
X28393Y25109D01*
X28392Y25112D01*
X28391Y25115D01*
X28390Y25116D01*
X28389Y25118D01*
X28385Y25122D01*
X26567Y26941D01*
X26564Y26943D01*
X26561Y26945D01*
X26560Y26946D01*
X26559Y26946D01*
X26555Y26947D01*
X26552Y26949D01*
X26551Y26949D01*
X26550Y26949D01*
X26549Y26949D01*
X26546Y26949D01*
X26521Y26949D01*
X26440Y26983D01*
X26378Y27045D01*
X26359Y27090D01*
X26358Y27092D01*
X26357Y27093D01*
X26356Y27096D01*
X26354Y27098D01*
X26353Y27099D01*
X26351Y27101D01*
X26349Y27102D01*
X26347Y27104D01*
X26345Y27105D01*
X26343Y27106D01*
X26340Y27106D01*
X26338Y27107D01*
X26336Y27107D01*
X26334Y27108D01*
X26331Y27108D01*
X26328Y27108D01*
X26326Y27107D01*
X26324Y27107D01*
X26322Y27106D01*
X26319Y27105D01*
X26318Y27104D01*
X26316Y27103D01*
X26312Y27099D01*
X13985Y14773D01*
X13904Y14739D01*
X13799Y14739D01*
X13795Y14739D01*
X13791Y14738D01*
X13790Y14738D01*
X13789Y14738D01*
X13786Y14736D01*
X13782Y14734D01*
X13781Y14733D01*
X13780Y14733D01*
X13778Y14731D01*
X9909Y10862D01*
X9907Y10859D01*
X9905Y10856D01*
X9904Y10855D01*
X9904Y10854D01*
X9903Y10851D01*
X9884Y10807D01*
X9883Y10802D01*
X9882Y10797D01*
X9883Y10793D01*
X9883Y10788D01*
X9885Y10784D01*
X9887Y10779D01*
X9891Y10775D01*
X9899Y10767D01*
X9971Y10594D01*
X9971Y10406D01*
X9899Y10233D01*
X9767Y10101D01*
X9594Y10029D01*
X9406Y10029D01*
X9233Y10101D01*
X9101Y10233D01*
X9029Y10406D01*
X9029Y10594D01*
X9101Y10767D01*
X9233Y10899D01*
X9406Y10971D01*
X9432Y10971D01*
X9437Y10972D01*
X9442Y10972D01*
X9446Y10975D01*
X9450Y10977D01*
X9453Y10980D01*
X9457Y10984D01*
X9459Y10989D01*
X9493Y11070D01*
X13570Y15147D01*
X13576Y15150D01*
X13578Y15151D01*
X13580Y15151D01*
X13581Y15153D01*
X13582Y15153D01*
X13583Y15154D01*
X13584Y15155D01*
X13585Y15156D01*
X13587Y15158D01*
X13588Y15160D01*
X13589Y15160D01*
X13590Y15162D01*
X13591Y15164D01*
X13592Y15166D01*
X13593Y15168D01*
X13593Y15171D01*
X13594Y15173D01*
X13594Y15175D01*
X13594Y15178D01*
X13594Y15181D01*
X13593Y15183D01*
X13593Y15185D01*
X13592Y15187D01*
X13591Y15190D01*
X13590Y15191D01*
X13589Y15193D01*
X13585Y15197D01*
X13563Y15220D01*
X13529Y15301D01*
X13529Y15389D01*
X13563Y15470D01*
X13581Y15488D01*
X13583Y15491D01*
X13585Y15494D01*
X13586Y15495D01*
X13586Y15496D01*
X13587Y15499D01*
X13589Y15503D01*
X13589Y15504D01*
X13589Y15505D01*
X13589Y15506D01*
X13589Y15509D01*
X13589Y28502D01*
X14190Y29103D01*
X14191Y29103D01*
X14192Y29104D01*
X14194Y29107D01*
X14196Y29110D01*
X14196Y29111D01*
X14197Y29112D01*
X14198Y29116D01*
X14199Y29120D01*
X14199Y29121D01*
X14199Y29122D01*
X14198Y29125D01*
X14198Y29129D01*
X14198Y29130D01*
X14198Y29131D01*
X14196Y29135D01*
X14195Y29138D01*
X14194Y29139D01*
X14194Y29140D01*
X14190Y29144D01*
X14101Y29233D01*
X14029Y29406D01*
X14029Y29594D01*
X14101Y29767D01*
X14233Y29899D01*
X14406Y29971D01*
X14551Y29971D01*
X14555Y29971D01*
X14559Y29972D01*
X14560Y29972D01*
X14561Y29972D01*
X14564Y29974D01*
X14568Y29976D01*
X14569Y29977D01*
X14570Y29977D01*
X14572Y29979D01*
X19411Y34818D01*
X19513Y34921D01*
X21646Y34921D01*
X21650Y34921D01*
X21654Y34922D01*
X21655Y34922D01*
X21656Y34922D01*
X21659Y34924D01*
X21663Y34926D01*
X21664Y34927D01*
X21665Y34927D01*
X21667Y34929D01*
X22992Y36254D01*
X22994Y36257D01*
X22996Y36259D01*
X22996Y36261D01*
X22998Y36262D01*
X22998Y36265D01*
X23000Y36268D01*
X23000Y36269D01*
X23000Y36271D01*
X23000Y36274D01*
X23000Y36277D01*
X23000Y36279D01*
X23000Y36281D01*
X22999Y36284D01*
X22998Y36286D01*
X22997Y36288D01*
X22997Y36290D01*
X22995Y36292D01*
X22993Y36294D01*
X22992Y36296D01*
X22990Y36297D01*
X22988Y36299D01*
X22986Y36300D01*
X22984Y36301D01*
X22982Y36302D01*
X22979Y36303D01*
X22977Y36304D01*
X22974Y36304D01*
X22973Y36304D01*
X22972Y36304D01*
X22971Y36304D01*
X6459Y36304D01*
X6455Y36304D01*
X6451Y36303D01*
X6450Y36303D01*
X6449Y36303D01*
X6446Y36301D01*
X6442Y36299D01*
X6441Y36298D01*
X6440Y36298D01*
X6438Y36296D01*
X5567Y35424D01*
X5498Y35424D01*
X5497Y35424D01*
X5493Y35423D01*
X5488Y35423D01*
X5484Y35420D01*
X5480Y35418D01*
X5477Y35415D01*
X5473Y35411D01*
X5471Y35406D01*
X5399Y35233D01*
X5267Y35101D01*
X5094Y35029D01*
X4906Y35029D01*
X4733Y35101D01*
X4601Y35233D01*
X4529Y35406D01*
X4529Y35594D01*
X4601Y35767D01*
X4733Y35899D01*
X4906Y35971D01*
X5094Y35971D01*
X5267Y35899D01*
X5400Y35766D01*
X5400Y35764D01*
X5402Y35762D01*
X5404Y35760D01*
X5405Y35759D01*
X5406Y35757D01*
X5409Y35756D01*
X5411Y35754D01*
X5413Y35753D01*
X5415Y35752D01*
X5417Y35752D01*
X5420Y35751D01*
X5422Y35750D01*
X5424Y35750D01*
X5427Y35750D01*
X5429Y35750D01*
X5431Y35751D01*
X5433Y35751D01*
X5436Y35752D01*
X5439Y35753D01*
X5440Y35754D01*
X5442Y35755D01*
X5446Y35759D01*
X6313Y36626D01*
X37797Y36626D01*
X38278Y36144D01*
X38281Y36142D01*
X38284Y36140D01*
X38285Y36139D01*
X38286Y36139D01*
X38290Y36138D01*
X38293Y36136D01*
X38294Y36136D01*
X38295Y36136D01*
X38296Y36136D01*
X38299Y36136D01*
X38324Y36136D01*
X38405Y36102D01*
X38467Y36040D01*
X38489Y35988D01*
X38490Y35987D01*
X38490Y35985D01*
X38492Y35983D01*
X38494Y35980D01*
X38495Y35979D01*
X38496Y35977D01*
X38499Y35976D01*
X38501Y35974D01*
X38503Y35973D01*
X38505Y35972D01*
X38507Y35972D01*
X38510Y35971D01*
X38512Y35971D01*
X38514Y35970D01*
X38517Y35971D01*
X38520Y35970D01*
X38521Y35971D01*
X38523Y35971D01*
X38526Y35972D01*
X38529Y35973D01*
X38530Y35974D01*
X38532Y35975D01*
X38536Y35979D01*
X38558Y36001D01*
X39442Y36001D01*
X39501Y35942D01*
X39501Y35058D01*
X39442Y34999D01*
X38569Y34999D01*
X38565Y34999D01*
X38561Y34998D01*
X38560Y34998D01*
X38559Y34998D01*
X38556Y34996D01*
X38552Y34994D01*
X38551Y34993D01*
X38550Y34993D01*
X38548Y34991D01*
X38075Y34518D01*
X37994Y34484D01*
X31730Y34484D01*
X31728Y34484D01*
X31726Y34484D01*
X31723Y34483D01*
X31720Y34483D01*
X31718Y34482D01*
X31717Y34481D01*
X31714Y34479D01*
X31712Y34478D01*
X31710Y34477D01*
X31709Y34476D01*
X31707Y34473D01*
X31705Y34471D01*
X31704Y34469D01*
X31703Y34468D01*
X31703Y34465D01*
X31701Y34462D01*
X31701Y34460D01*
X31701Y34459D01*
X31701Y34456D01*
X31701Y34453D01*
X31701Y34451D01*
X31701Y34449D01*
X31703Y34444D01*
X31736Y34364D01*
X31736Y34339D01*
X31736Y34335D01*
X31737Y34331D01*
X31737Y34330D01*
X31737Y34329D01*
X31739Y34326D01*
X31741Y34322D01*
X31742Y34321D01*
X31742Y34320D01*
X31744Y34318D01*
X33673Y32390D01*
X33674Y32388D01*
X33676Y32387D01*
X33678Y32386D01*
X33681Y32384D01*
X33682Y32383D01*
X33684Y32382D01*
X33687Y32382D01*
X33690Y32381D01*
X33692Y32381D01*
X33694Y32381D01*
X33696Y32381D01*
X33699Y32382D01*
X33701Y32382D01*
X33703Y32383D01*
X33706Y32384D01*
X33708Y32385D01*
X33710Y32386D01*
X33712Y32387D01*
X33713Y32389D01*
X33716Y32391D01*
X33717Y32393D01*
X33718Y32394D01*
X33721Y32399D01*
X33748Y32465D01*
X33810Y32527D01*
X33891Y32561D01*
X33979Y32561D01*
X34060Y32527D01*
X34078Y32509D01*
X34081Y32507D01*
X34084Y32505D01*
X34085Y32504D01*
X34086Y32504D01*
X34089Y32503D01*
X34093Y32501D01*
X34094Y32501D01*
X34095Y32501D01*
X34096Y32501D01*
X34099Y32501D01*
X43561Y32501D01*
X43565Y32501D01*
X43569Y32502D01*
X43570Y32502D01*
X43571Y32502D01*
X43574Y32504D01*
X43578Y32506D01*
X43579Y32507D01*
X43580Y32507D01*
X43582Y32509D01*
X43600Y32527D01*
X43681Y32561D01*
X43769Y32561D01*
X43854Y32526D01*
X43856Y32525D01*
X43858Y32524D01*
X43860Y32524D01*
X43863Y32523D01*
X43865Y32524D01*
X43867Y32523D01*
X43870Y32524D01*
X43873Y32524D01*
X43874Y32525D01*
X43876Y32526D01*
X43879Y32527D01*
X43881Y32528D01*
X43883Y32530D01*
X43884Y32531D01*
X43886Y32533D01*
X43888Y32535D01*
X43889Y32537D01*
X43890Y32538D01*
X43891Y32541D01*
X43893Y32543D01*
X43893Y32545D01*
X43894Y32547D01*
X43894Y32553D01*
X43894Y34992D01*
X44098Y35195D01*
X44098Y35196D01*
X44099Y35197D01*
X44101Y35200D01*
X44103Y35203D01*
X44104Y35204D01*
X44104Y35205D01*
X44105Y35208D01*
X44106Y35212D01*
X44106Y35213D01*
X44106Y35214D01*
X44106Y35218D01*
X44106Y35222D01*
X44105Y35223D01*
X44105Y35224D01*
X44104Y35227D01*
X44102Y35231D01*
X44029Y35406D01*
X44029Y35594D01*
X44101Y35767D01*
X44233Y35899D01*
X44406Y35971D01*
X44594Y35971D01*
X44767Y35899D01*
X44899Y35767D01*
X44971Y35594D01*
X44971Y35406D01*
X44899Y35233D01*
X44767Y35101D01*
X44594Y35029D01*
X44403Y35029D01*
X44401Y35030D01*
X44396Y35029D01*
X44392Y35029D01*
X44391Y35029D01*
X44387Y35027D01*
X44383Y35025D01*
X44379Y35021D01*
X44224Y34867D01*
X44222Y34864D01*
X44220Y34861D01*
X44219Y34860D01*
X44219Y34859D01*
X44218Y34855D01*
X44216Y34852D01*
X44216Y34851D01*
X44216Y34850D01*
X44216Y34849D01*
X44216Y34846D01*
X44216Y32053D01*
X44113Y31951D01*
X40843Y28680D01*
X40842Y28680D01*
X40841Y28679D01*
X40840Y28677D01*
X40839Y28676D01*
X40837Y28673D01*
X40837Y28672D01*
X40836Y28671D01*
X40836Y28667D01*
X40834Y28664D01*
X40835Y28662D01*
X40834Y28661D01*
X40835Y28658D01*
X40835Y28654D01*
X40835Y28653D01*
X40835Y28652D01*
X40837Y28649D01*
X40838Y28645D01*
X40839Y28644D01*
X40839Y28643D01*
X40841Y28642D01*
X40841Y28359D01*
X40641Y28159D01*
X40359Y28159D01*
X40159Y28359D01*
X40159Y28641D01*
X40359Y28841D01*
X40536Y28841D01*
X40540Y28841D01*
X40544Y28842D01*
X40545Y28842D01*
X40546Y28842D01*
X40549Y28844D01*
X40553Y28846D01*
X40554Y28847D01*
X40555Y28847D01*
X40557Y28849D01*
X43777Y32069D01*
X43779Y32072D01*
X43781Y32074D01*
X43781Y32076D01*
X43783Y32077D01*
X43783Y32080D01*
X43785Y32083D01*
X43785Y32084D01*
X43785Y32086D01*
X43785Y32089D01*
X43785Y32092D01*
X43785Y32094D01*
X43785Y32096D01*
X43784Y32099D01*
X43783Y32101D01*
X43782Y32103D01*
X43782Y32105D01*
X43780Y32107D01*
X43778Y32109D01*
X43777Y32111D01*
X43775Y32112D01*
X43773Y32114D01*
X43771Y32115D01*
X43769Y32116D01*
X43767Y32117D01*
X43764Y32118D01*
X43762Y32119D01*
X43759Y32119D01*
X43758Y32119D01*
X43757Y32119D01*
X43756Y32119D01*
X43681Y32119D01*
X43600Y32153D01*
X43582Y32171D01*
X43579Y32173D01*
X43576Y32175D01*
X43575Y32176D01*
X43574Y32176D01*
X43571Y32177D01*
X43567Y32179D01*
X43566Y32179D01*
X43565Y32179D01*
X43564Y32179D01*
X43561Y32179D01*
X34099Y32179D01*
X34095Y32179D01*
X34091Y32178D01*
X34090Y32178D01*
X34089Y32178D01*
X34086Y32176D01*
X34082Y32174D01*
X34081Y32173D01*
X34080Y32173D01*
X34078Y32171D01*
X34060Y32153D01*
X33994Y32126D01*
X33992Y32124D01*
X33990Y32124D01*
X33988Y32122D01*
X33986Y32120D01*
X33985Y32119D01*
X33983Y32118D01*
X33982Y32115D01*
X33980Y32113D01*
X33979Y32111D01*
X33978Y32109D01*
X33977Y32107D01*
X33977Y32104D01*
X33976Y32102D01*
X33976Y32100D01*
X33976Y32097D01*
X33976Y32095D01*
X33977Y32093D01*
X33977Y32091D01*
X33978Y32088D01*
X33979Y32085D01*
X33980Y32084D01*
X33981Y32082D01*
X33985Y32078D01*
X34278Y31785D01*
X34279Y31783D01*
X34281Y31782D01*
X34283Y31781D01*
X34286Y31779D01*
X34287Y31778D01*
X34289Y31777D01*
X34292Y31777D01*
X34295Y31776D01*
X34297Y31776D01*
X34299Y31776D01*
X34301Y31776D01*
X34304Y31777D01*
X34306Y31777D01*
X34308Y31778D01*
X34311Y31779D01*
X34313Y31780D01*
X34315Y31781D01*
X34317Y31782D01*
X34318Y31784D01*
X34321Y31786D01*
X34322Y31788D01*
X34323Y31789D01*
X34326Y31794D01*
X34353Y31860D01*
X34415Y31922D01*
X34496Y31956D01*
X34584Y31956D01*
X34665Y31922D01*
X34683Y31904D01*
X34686Y31902D01*
X34689Y31900D01*
X34690Y31899D01*
X34691Y31899D01*
X34694Y31898D01*
X34698Y31896D01*
X34699Y31896D01*
X34700Y31896D01*
X34701Y31896D01*
X34704Y31896D01*
X35267Y31896D01*
X35369Y31793D01*
X38320Y28843D01*
X38320Y28842D01*
X38321Y28841D01*
X38324Y28839D01*
X38327Y28837D01*
X38328Y28837D01*
X38329Y28836D01*
X38333Y28836D01*
X38336Y28834D01*
X38338Y28835D01*
X38339Y28834D01*
X38342Y28835D01*
X38346Y28835D01*
X38347Y28835D01*
X38348Y28835D01*
X38351Y28837D01*
X38355Y28838D01*
X38356Y28839D01*
X38357Y28839D01*
X38358Y28841D01*
X38641Y28841D01*
X38841Y28641D01*
X38841Y28359D01*
X38641Y28159D01*
X38359Y28159D01*
X38159Y28359D01*
X38159Y28536D01*
X38159Y28540D01*
X38158Y28544D01*
X38158Y28545D01*
X38158Y28546D01*
X38156Y28549D01*
X38154Y28553D01*
X38153Y28554D01*
X38153Y28555D01*
X38151Y28557D01*
X35142Y31566D01*
X35139Y31568D01*
X35136Y31570D01*
X35135Y31571D01*
X35134Y31571D01*
X35130Y31572D01*
X35127Y31574D01*
X35126Y31574D01*
X35125Y31574D01*
X35124Y31574D01*
X35121Y31574D01*
X34704Y31574D01*
X34700Y31574D01*
X34696Y31573D01*
X34695Y31573D01*
X34694Y31573D01*
X34691Y31571D01*
X34687Y31569D01*
X34686Y31568D01*
X34685Y31568D01*
X34683Y31566D01*
X34665Y31548D01*
X34599Y31521D01*
X34597Y31519D01*
X34595Y31519D01*
X34593Y31517D01*
X34591Y31515D01*
X34590Y31514D01*
X34588Y31513D01*
X34587Y31510D01*
X34585Y31508D01*
X34584Y31506D01*
X34583Y31504D01*
X34582Y31502D01*
X34582Y31499D01*
X34581Y31497D01*
X34581Y31495D01*
X34581Y31492D01*
X34581Y31490D01*
X34582Y31488D01*
X34582Y31486D01*
X34583Y31483D01*
X34584Y31480D01*
X34585Y31479D01*
X34586Y31477D01*
X34590Y31473D01*
X37231Y28832D01*
X37231Y28459D01*
X37231Y28455D01*
X37232Y28451D01*
X37232Y28450D01*
X37232Y28449D01*
X37234Y28446D01*
X37236Y28442D01*
X37237Y28441D01*
X37237Y28440D01*
X37239Y28438D01*
X45069Y20608D01*
X45072Y20606D01*
X45075Y20603D01*
X45076Y20603D01*
X45077Y20603D01*
X45081Y20602D01*
X45084Y20600D01*
X45086Y20600D01*
X45087Y20600D01*
X45090Y20600D01*
X45120Y20600D01*
X45121Y20600D01*
X45122Y20600D01*
X45126Y20601D01*
X45129Y20601D01*
X45130Y20602D01*
X45131Y20602D01*
X45135Y20604D01*
X45138Y20606D01*
X45139Y20607D01*
X45142Y20610D01*
X45144Y20613D01*
X45145Y20614D01*
X45145Y20615D01*
X45147Y20618D01*
X45148Y20621D01*
X45148Y20623D01*
X45149Y20624D01*
X45149Y20629D01*
X45149Y20967D01*
X45162Y20979D01*
X45162Y20980D01*
X45163Y20981D01*
X45165Y20984D01*
X45167Y20987D01*
X45168Y20988D01*
X45168Y20989D01*
X45169Y20993D01*
X45170Y20996D01*
X45170Y20997D01*
X45170Y20998D01*
X45170Y21002D01*
X45170Y21006D01*
X45169Y21007D01*
X45169Y21008D01*
X45168Y21011D01*
X45166Y21015D01*
X45166Y21016D01*
X45165Y21017D01*
X45162Y21021D01*
X45149Y21033D01*
X45149Y21367D01*
X45208Y21426D01*
X45310Y21426D01*
X45311Y21426D01*
X45312Y21426D01*
X45316Y21427D01*
X45319Y21427D01*
X45320Y21428D01*
X45321Y21428D01*
X45325Y21430D01*
X45328Y21432D01*
X45329Y21433D01*
X45332Y21436D01*
X45334Y21439D01*
X45335Y21440D01*
X45335Y21441D01*
X45337Y21444D01*
X45338Y21448D01*
X45338Y21449D01*
X45339Y21450D01*
X45339Y21455D01*
X45339Y23167D01*
X45339Y23171D01*
X45338Y23175D01*
X45338Y23176D01*
X45336Y23180D01*
X45334Y23183D01*
X45333Y23184D01*
X45333Y23185D01*
X45331Y23187D01*
X45159Y23359D01*
X45159Y23641D01*
X45361Y23843D01*
X45365Y23845D01*
X45368Y23847D01*
X45369Y23848D01*
X45372Y23851D01*
X45374Y23854D01*
X45375Y23855D01*
X45375Y23856D01*
X45377Y23859D01*
X45378Y23863D01*
X45378Y23864D01*
X45379Y23865D01*
X45379Y23870D01*
X45379Y24555D01*
X45379Y24556D01*
X45379Y24557D01*
X45378Y24561D01*
X45378Y24564D01*
X45377Y24565D01*
X45377Y24566D01*
X45375Y24570D01*
X45373Y24573D01*
X45372Y24574D01*
X45369Y24577D01*
X45366Y24579D01*
X45365Y24580D01*
X45364Y24580D01*
X45361Y24582D01*
X45357Y24583D01*
X45356Y24583D01*
X45355Y24584D01*
X45350Y24584D01*
X45328Y24584D01*
X45084Y24828D01*
X45084Y25172D01*
X45328Y25416D01*
X45672Y25416D01*
X45916Y25172D01*
X45916Y24828D01*
X45709Y24621D01*
X45707Y24618D01*
X45705Y24615D01*
X45704Y24614D01*
X45703Y24610D01*
X45701Y24606D01*
X45701Y24605D01*
X45701Y24604D01*
X45701Y24601D01*
X45701Y23793D01*
X45701Y23789D01*
X45702Y23785D01*
X45702Y23784D01*
X45704Y23780D01*
X45706Y23777D01*
X45707Y23776D01*
X45707Y23775D01*
X45709Y23773D01*
X45841Y23641D01*
X45841Y23359D01*
X45669Y23187D01*
X45667Y23184D01*
X45665Y23181D01*
X45664Y23180D01*
X45663Y23176D01*
X45661Y23172D01*
X45661Y23171D01*
X45661Y23170D01*
X45661Y23167D01*
X45661Y21455D01*
X45661Y21454D01*
X45661Y21453D01*
X45662Y21449D01*
X45662Y21446D01*
X45663Y21445D01*
X45663Y21444D01*
X45665Y21440D01*
X45667Y21437D01*
X45668Y21436D01*
X45671Y21433D01*
X45674Y21431D01*
X45675Y21430D01*
X45676Y21430D01*
X45679Y21428D01*
X45683Y21427D01*
X45684Y21427D01*
X45685Y21426D01*
X45690Y21426D01*
X45792Y21426D01*
X45851Y21367D01*
X45851Y21033D01*
X45838Y21021D01*
X45838Y21020D01*
X45837Y21019D01*
X45835Y21016D01*
X45833Y21013D01*
X45832Y21012D01*
X45832Y21011D01*
X45831Y21007D01*
X45830Y21004D01*
X45830Y21003D01*
X45830Y21002D01*
X45830Y20998D01*
X45830Y20994D01*
X45831Y20993D01*
X45831Y20992D01*
X45832Y20989D01*
X45834Y20985D01*
X45834Y20984D01*
X45835Y20983D01*
X45838Y20979D01*
X45851Y20967D01*
X45851Y20633D01*
X45792Y20574D01*
X45690Y20574D01*
X45689Y20574D01*
X45688Y20574D01*
X45684Y20573D01*
X45681Y20573D01*
X45680Y20572D01*
X45679Y20572D01*
X45675Y20570D01*
X45672Y20568D01*
X45671Y20567D01*
X45668Y20564D01*
X45666Y20561D01*
X45665Y20560D01*
X45665Y20559D01*
X45663Y20556D01*
X45662Y20552D01*
X45662Y20551D01*
X45661Y20550D01*
X45661Y20545D01*
X45661Y18833D01*
X45661Y18829D01*
X45662Y18825D01*
X45662Y18824D01*
X45664Y18821D01*
X45664Y18820D01*
X45666Y18817D01*
X45667Y18816D01*
X45667Y18815D01*
X45669Y18813D01*
X45841Y18641D01*
X45841Y18359D01*
X45641Y18159D01*
X45359Y18159D01*
X45159Y18359D01*
X45159Y18641D01*
X45162Y18644D01*
X45163Y18645D01*
X45164Y18646D01*
X45166Y18649D01*
X45168Y18652D01*
X45168Y18653D01*
X45169Y18654D01*
X45169Y18657D01*
X45171Y18661D01*
X45170Y18662D01*
X45171Y18663D01*
X45170Y18667D01*
X45170Y18671D01*
X45170Y18672D01*
X45170Y18673D01*
X45168Y18676D01*
X45167Y18680D01*
X45166Y18680D01*
X45166Y18681D01*
X45162Y18685D01*
X41082Y22766D01*
X41079Y22768D01*
X41076Y22770D01*
X41075Y22771D01*
X41074Y22771D01*
X41070Y22772D01*
X41067Y22774D01*
X41066Y22774D01*
X41065Y22774D01*
X41064Y22774D01*
X41061Y22774D01*
X35298Y22774D01*
X29812Y28261D01*
X29809Y28263D01*
X29806Y28265D01*
X29805Y28266D01*
X29804Y28266D01*
X29800Y28267D01*
X29797Y28269D01*
X29796Y28269D01*
X29795Y28269D01*
X29794Y28269D01*
X29791Y28269D01*
X29766Y28269D01*
X29685Y28303D01*
X29623Y28365D01*
X29589Y28446D01*
X29589Y28534D01*
X29592Y28540D01*
X29593Y28544D01*
X29594Y28547D01*
X29594Y28548D01*
X29594Y28549D01*
X29594Y28553D01*
X29593Y28557D01*
X29593Y28558D01*
X29593Y28559D01*
X29591Y28562D01*
X29590Y28566D01*
X29589Y28567D01*
X29589Y28568D01*
X29586Y28570D01*
X29584Y28573D01*
X29583Y28574D01*
X29582Y28574D01*
X29579Y28576D01*
X29576Y28578D01*
X29575Y28579D01*
X29574Y28579D01*
X29570Y28580D01*
X29566Y28580D01*
X29565Y28580D01*
X29561Y28580D01*
X29557Y28579D01*
X29556Y28579D01*
X29555Y28579D01*
X29552Y28577D01*
X29548Y28575D01*
X29547Y28575D01*
X29547Y28574D01*
X29546Y28574D01*
X29544Y28572D01*
X29349Y28377D01*
X29347Y28374D01*
X29345Y28371D01*
X29344Y28370D01*
X29344Y28369D01*
X29343Y28366D01*
X29341Y28362D01*
X29341Y28361D01*
X29341Y28360D01*
X29341Y28359D01*
X29141Y28159D01*
X28859Y28159D01*
X28851Y28167D01*
X28850Y28168D01*
X28849Y28169D01*
X28846Y28171D01*
X28843Y28173D01*
X28842Y28173D01*
X28841Y28174D01*
X28837Y28175D01*
X28834Y28176D01*
X28833Y28176D01*
X28832Y28176D01*
X28828Y28175D01*
X28824Y28175D01*
X28823Y28175D01*
X28822Y28175D01*
X28819Y28173D01*
X28815Y28172D01*
X28815Y28171D01*
X28814Y28171D01*
X28809Y28167D01*
X28716Y28074D01*
X28713Y28070D01*
X28710Y28066D01*
X28709Y28061D01*
X28708Y28057D01*
X28708Y28052D01*
X28708Y28047D01*
X28710Y28042D01*
X28711Y28039D01*
X28711Y28004D01*
X28711Y28003D01*
X28711Y28002D01*
X28713Y27967D01*
X28712Y27964D01*
X28712Y27962D01*
X28711Y27960D01*
X28711Y27954D01*
X28711Y27769D01*
X28711Y27765D01*
X28712Y27761D01*
X28712Y27760D01*
X28712Y27759D01*
X28714Y27756D01*
X28716Y27752D01*
X28717Y27751D01*
X28717Y27750D01*
X28719Y27748D01*
X38742Y17725D01*
X38746Y17722D01*
X38750Y17720D01*
X38754Y17718D01*
X38759Y17717D01*
X38764Y17717D01*
X38768Y17717D01*
X38769Y17717D01*
X38774Y17719D01*
X38851Y17751D01*
X39149Y17751D01*
X39425Y17636D01*
X39636Y17425D01*
X39751Y17149D01*
X39751Y16850D01*
X39750Y16847D01*
X39749Y16842D01*
X39749Y16837D01*
X39750Y16833D01*
X39752Y16828D01*
X39754Y16824D01*
X39757Y16820D01*
X39958Y16619D01*
X39961Y16617D01*
X39964Y16615D01*
X39965Y16614D01*
X39966Y16614D01*
X39969Y16613D01*
X39973Y16611D01*
X39974Y16611D01*
X39975Y16611D01*
X39976Y16611D01*
X39979Y16611D01*
X51359Y16611D01*
X51440Y16577D01*
X51506Y16511D01*
X56180Y11837D01*
X56181Y11837D01*
X56182Y11836D01*
X56185Y11834D01*
X56188Y11832D01*
X56189Y11831D01*
X56190Y11831D01*
X56193Y11830D01*
X56197Y11829D01*
X56198Y11829D01*
X56199Y11829D01*
X56203Y11829D01*
X56207Y11829D01*
X56208Y11830D01*
X56209Y11830D01*
X56212Y11831D01*
X56215Y11833D01*
X56216Y11833D01*
X56217Y11834D01*
X56221Y11837D01*
X56233Y11849D01*
X56406Y11921D01*
X56594Y11921D01*
X56767Y11849D01*
X56899Y11717D01*
X56971Y11544D01*
X56971Y11356D01*
X56899Y11183D01*
X56767Y11051D01*
X56739Y11039D01*
X56735Y11037D01*
X56731Y11034D01*
X56728Y11031D01*
X56725Y11027D01*
X56723Y11022D01*
X56721Y11018D01*
X56721Y11012D01*
X56721Y10888D01*
X56721Y10887D01*
X56722Y10883D01*
X56722Y10878D01*
X56725Y10874D01*
X56727Y10870D01*
X56730Y10866D01*
X56734Y10863D01*
X56739Y10861D01*
X56767Y10849D01*
X56899Y10717D01*
X56971Y10544D01*
X56971Y10356D01*
X56899Y10183D01*
X56767Y10051D01*
X56594Y9979D01*
X56406Y9979D01*
X56233Y10051D01*
X56101Y10183D01*
X56029Y10356D01*
X56029Y10544D01*
X56101Y10717D01*
X56233Y10849D01*
X56261Y10861D01*
X56265Y10863D01*
X56269Y10866D01*
X56272Y10869D01*
X56275Y10873D01*
X56277Y10878D01*
X56279Y10882D01*
X56279Y10888D01*
X56279Y11012D01*
X56279Y11013D01*
X56278Y11017D01*
X56278Y11022D01*
X56275Y11026D01*
X56273Y11030D01*
X56270Y11034D01*
X56266Y11037D01*
X56261Y11039D01*
X56233Y11051D01*
X56101Y11183D01*
X56028Y11359D01*
X56028Y11360D01*
X56028Y11361D01*
X56026Y11364D01*
X56024Y11368D01*
X56023Y11369D01*
X56023Y11370D01*
X56021Y11372D01*
X51232Y16161D01*
X51229Y16163D01*
X51226Y16165D01*
X51225Y16166D01*
X51224Y16166D01*
X51221Y16167D01*
X51217Y16169D01*
X51216Y16169D01*
X51215Y16169D01*
X51214Y16169D01*
X51211Y16169D01*
X39831Y16169D01*
X39750Y16203D01*
X39528Y16425D01*
X39527Y16425D01*
X39526Y16426D01*
X39523Y16428D01*
X39520Y16430D01*
X39519Y16431D01*
X39518Y16431D01*
X39515Y16432D01*
X39511Y16433D01*
X39510Y16433D01*
X39509Y16433D01*
X39505Y16433D01*
X39501Y16433D01*
X39500Y16432D01*
X39499Y16432D01*
X39496Y16431D01*
X39493Y16429D01*
X39492Y16429D01*
X39491Y16428D01*
X39487Y16425D01*
X39425Y16364D01*
X39149Y16249D01*
X38851Y16249D01*
X38575Y16364D01*
X38364Y16575D01*
X38249Y16851D01*
X38249Y17149D01*
X38364Y17425D01*
X38370Y17432D01*
X38371Y17433D01*
X38373Y17436D01*
X38375Y17439D01*
X38376Y17440D01*
X38376Y17441D01*
X38377Y17445D01*
X38378Y17449D01*
X38378Y17450D01*
X38378Y17451D01*
X38378Y17454D01*
X38378Y17458D01*
X38377Y17459D01*
X38377Y17460D01*
X38376Y17464D01*
X38374Y17467D01*
X38374Y17468D01*
X38373Y17469D01*
X38370Y17473D01*
X36126Y19717D01*
X36123Y19719D01*
X36121Y19721D01*
X36119Y19722D01*
X36118Y19723D01*
X36115Y19724D01*
X36112Y19725D01*
X36111Y19725D01*
X36109Y19725D01*
X36106Y19725D01*
X36103Y19726D01*
X36101Y19725D01*
X36099Y19725D01*
X36096Y19724D01*
X36094Y19723D01*
X36092Y19722D01*
X36090Y19722D01*
X36088Y19720D01*
X36086Y19718D01*
X36084Y19717D01*
X36083Y19716D01*
X36081Y19713D01*
X36080Y19711D01*
X36079Y19709D01*
X36078Y19707D01*
X36077Y19705D01*
X36076Y19702D01*
X36076Y19699D01*
X36076Y19698D01*
X36076Y19696D01*
X36076Y19611D01*
X36042Y19530D01*
X35980Y19468D01*
X35899Y19434D01*
X35811Y19434D01*
X35730Y19468D01*
X35712Y19486D01*
X35709Y19488D01*
X35706Y19490D01*
X35705Y19491D01*
X35704Y19491D01*
X35701Y19492D01*
X35697Y19494D01*
X35696Y19494D01*
X35695Y19494D01*
X35694Y19494D01*
X35691Y19494D01*
X35488Y19494D01*
X35393Y19590D01*
X35393Y19591D01*
X35391Y19594D01*
X35389Y19598D01*
X35388Y19599D01*
X35388Y19600D01*
X35386Y19602D01*
X33652Y21336D01*
X33649Y21338D01*
X33646Y21340D01*
X33645Y21341D01*
X33644Y21341D01*
X33640Y21342D01*
X33637Y21344D01*
X33636Y21344D01*
X33635Y21344D01*
X33634Y21344D01*
X33631Y21344D01*
X32278Y21344D01*
X32276Y21344D01*
X32274Y21344D01*
X32271Y21343D01*
X32268Y21343D01*
X32266Y21342D01*
X32265Y21341D01*
X32262Y21339D01*
X32260Y21338D01*
X32258Y21337D01*
X32257Y21336D01*
X32255Y21333D01*
X32253Y21331D01*
X32252Y21329D01*
X32251Y21328D01*
X32250Y21325D01*
X32249Y21322D01*
X32249Y21320D01*
X32249Y21319D01*
X32249Y21316D01*
X32248Y21313D01*
X32249Y21311D01*
X32249Y21309D01*
X32251Y21304D01*
X32286Y21219D01*
X32286Y21131D01*
X32252Y21050D01*
X32190Y20988D01*
X32109Y20954D01*
X31454Y20954D01*
X31450Y20954D01*
X31446Y20953D01*
X31445Y20953D01*
X31444Y20953D01*
X31441Y20951D01*
X31437Y20949D01*
X31436Y20948D01*
X31435Y20948D01*
X31433Y20946D01*
X26841Y16354D01*
X26838Y16350D01*
X26836Y16346D01*
X26835Y16346D01*
X26834Y16342D01*
X26833Y16337D01*
X26833Y16332D01*
X26833Y16327D01*
X26835Y16322D01*
X26841Y16308D01*
X26841Y15692D01*
X26789Y15567D01*
X26693Y15471D01*
X26568Y15419D01*
X26432Y15419D01*
X26307Y15471D01*
X26211Y15567D01*
X26159Y15692D01*
X26159Y16308D01*
X26211Y16433D01*
X26307Y16529D01*
X26433Y16581D01*
X26435Y16581D01*
X26439Y16582D01*
X26440Y16582D01*
X26441Y16582D01*
X26444Y16584D01*
X26448Y16586D01*
X26449Y16587D01*
X26450Y16587D01*
X26452Y16589D01*
X30438Y20575D01*
X30439Y20577D01*
X30441Y20578D01*
X30442Y20581D01*
X30444Y20583D01*
X30444Y20585D01*
X30445Y20587D01*
X30446Y20590D01*
X30447Y20592D01*
X30447Y20594D01*
X30447Y20596D01*
X30446Y20599D01*
X30446Y20602D01*
X30446Y20604D01*
X30445Y20606D01*
X30444Y20608D01*
X30443Y20611D01*
X30442Y20612D01*
X30441Y20614D01*
X30439Y20616D01*
X30437Y20618D01*
X30435Y20619D01*
X30434Y20621D01*
X30429Y20623D01*
X30363Y20650D01*
X30359Y20651D01*
X30354Y20652D01*
X30349Y20652D01*
X30344Y20652D01*
X30344Y20651D01*
X30340Y20650D01*
X30336Y20648D01*
X30336Y20647D01*
X30335Y20647D01*
X30331Y20644D01*
X25688Y16001D01*
X25686Y15998D01*
X25684Y15996D01*
X25684Y15994D01*
X25682Y15993D01*
X25682Y15990D01*
X25680Y15987D01*
X25680Y15986D01*
X25680Y15984D01*
X25680Y15981D01*
X25680Y15978D01*
X25680Y15976D01*
X25680Y15974D01*
X25681Y15971D01*
X25682Y15969D01*
X25683Y15967D01*
X25683Y15965D01*
X25685Y15963D01*
X25687Y15961D01*
X25688Y15959D01*
X25690Y15958D01*
X25692Y15956D01*
X25694Y15955D01*
X25696Y15954D01*
X25698Y15953D01*
X25701Y15952D01*
X25703Y15951D01*
X25706Y15951D01*
X25707Y15951D01*
X25708Y15951D01*
X25709Y15951D01*
X25729Y15951D01*
X25810Y15917D01*
X25872Y15855D01*
X25906Y15774D01*
X25906Y15686D01*
X25872Y15605D01*
X25854Y15587D01*
X25852Y15584D01*
X25850Y15581D01*
X25849Y15580D01*
X25849Y15579D01*
X25848Y15576D01*
X25846Y15572D01*
X25846Y15571D01*
X25846Y15570D01*
X25846Y15569D01*
X25846Y15566D01*
X25846Y13225D01*
X25846Y13224D01*
X25846Y13223D01*
X25847Y13219D01*
X25847Y13216D01*
X25848Y13215D01*
X25848Y13214D01*
X25850Y13210D01*
X25852Y13207D01*
X25853Y13206D01*
X25856Y13203D01*
X25859Y13201D01*
X25860Y13200D01*
X25861Y13200D01*
X25864Y13198D01*
X25868Y13197D01*
X25869Y13197D01*
X25870Y13196D01*
X25875Y13196D01*
X26130Y13196D01*
X26131Y13196D01*
X26132Y13196D01*
X26136Y13197D01*
X26139Y13197D01*
X26140Y13198D01*
X26141Y13198D01*
X26145Y13200D01*
X26148Y13202D01*
X26149Y13203D01*
X26152Y13206D01*
X26154Y13209D01*
X26155Y13210D01*
X26155Y13211D01*
X26157Y13214D01*
X26158Y13218D01*
X26158Y13219D01*
X26159Y13220D01*
X26159Y13225D01*
X26159Y13308D01*
X26211Y13433D01*
X26307Y13529D01*
X26432Y13581D01*
X26568Y13581D01*
X26693Y13529D01*
X26789Y13433D01*
X26841Y13308D01*
X26841Y12692D01*
X26789Y12567D01*
X26693Y12471D01*
X26568Y12419D01*
X26432Y12419D01*
X26307Y12471D01*
X26211Y12567D01*
X26159Y12692D01*
X26159Y12845D01*
X26159Y12846D01*
X26159Y12847D01*
X26158Y12851D01*
X26158Y12854D01*
X26157Y12855D01*
X26157Y12856D01*
X26155Y12860D01*
X26153Y12863D01*
X26152Y12864D01*
X26149Y12867D01*
X26146Y12869D01*
X26145Y12870D01*
X26144Y12870D01*
X26141Y12872D01*
X26137Y12873D01*
X26136Y12873D01*
X26135Y12874D01*
X26130Y12874D01*
X23554Y12874D01*
X23550Y12874D01*
X23546Y12873D01*
X23545Y12873D01*
X23544Y12873D01*
X23541Y12871D01*
X23537Y12869D01*
X23536Y12868D01*
X23535Y12868D01*
X23533Y12866D01*
X14718Y4051D01*
X14716Y4048D01*
X14714Y4046D01*
X14714Y4044D01*
X14712Y4043D01*
X14712Y4040D01*
X14710Y4037D01*
X14710Y4036D01*
X14710Y4034D01*
X14710Y4031D01*
X14710Y4028D01*
X14710Y4026D01*
X14710Y4024D01*
X14711Y4021D01*
X14712Y4019D01*
X14713Y4017D01*
X14713Y4015D01*
X14715Y4013D01*
X14717Y4011D01*
X14718Y4009D01*
X14720Y4008D01*
X14722Y4006D01*
X14724Y4005D01*
X14726Y4004D01*
X14728Y4003D01*
X14731Y4002D01*
X14733Y4001D01*
X14736Y4001D01*
X14737Y4001D01*
X14738Y4001D01*
X14739Y4001D01*
X15442Y4001D01*
X15501Y3942D01*
X15501Y3058D01*
X15442Y2999D01*
X14558Y2999D01*
X14499Y3058D01*
X14499Y3845D01*
X14499Y3846D01*
X14499Y3847D01*
X14498Y3851D01*
X14498Y3854D01*
X14497Y3855D01*
X14497Y3856D01*
X14495Y3860D01*
X14493Y3863D01*
X14492Y3864D01*
X14489Y3867D01*
X14486Y3869D01*
X14485Y3870D01*
X14484Y3870D01*
X14481Y3872D01*
X14477Y3873D01*
X14476Y3873D01*
X14475Y3874D01*
X14470Y3874D01*
X13574Y3874D01*
X13570Y3874D01*
X13566Y3873D01*
X13565Y3873D01*
X13564Y3873D01*
X13561Y3871D01*
X13557Y3869D01*
X13556Y3868D01*
X13555Y3868D01*
X13553Y3866D01*
X12277Y2589D01*
X8568Y2589D01*
G37*
%LPD*%
G36*
X13944Y16299D02*
X13944Y16299D01*
X13946Y16299D01*
X13951Y16301D01*
X14036Y16336D01*
X14061Y16336D01*
X14065Y16336D01*
X14069Y16337D01*
X14070Y16337D01*
X14071Y16337D01*
X14074Y16339D01*
X14078Y16341D01*
X14079Y16342D01*
X14080Y16342D01*
X14082Y16344D01*
X15451Y17713D01*
X15453Y17716D01*
X15455Y17719D01*
X15456Y17720D01*
X15456Y17721D01*
X15457Y17725D01*
X15459Y17728D01*
X15459Y17729D01*
X15459Y17730D01*
X15459Y17731D01*
X15459Y17734D01*
X15459Y24922D01*
X15459Y24924D01*
X15459Y24926D01*
X15458Y24929D01*
X15458Y24932D01*
X15457Y24934D01*
X15456Y24935D01*
X15454Y24938D01*
X15453Y24940D01*
X15452Y24942D01*
X15451Y24943D01*
X15448Y24945D01*
X15446Y24947D01*
X15444Y24948D01*
X15443Y24949D01*
X15440Y24950D01*
X15437Y24951D01*
X15435Y24951D01*
X15434Y24951D01*
X15431Y24951D01*
X15428Y24952D01*
X15426Y24951D01*
X15424Y24951D01*
X15419Y24949D01*
X15334Y24914D01*
X15246Y24914D01*
X15165Y24948D01*
X15103Y25010D01*
X15069Y25091D01*
X15069Y25179D01*
X15103Y25260D01*
X15121Y25278D01*
X15123Y25281D01*
X15125Y25284D01*
X15126Y25285D01*
X15126Y25286D01*
X15127Y25289D01*
X15129Y25293D01*
X15129Y25294D01*
X15129Y25295D01*
X15129Y25296D01*
X15129Y25299D01*
X15129Y28942D01*
X15232Y29044D01*
X15241Y29054D01*
X15243Y29055D01*
X15244Y29057D01*
X15245Y29059D01*
X15247Y29062D01*
X15248Y29063D01*
X15249Y29065D01*
X15249Y29068D01*
X15250Y29071D01*
X15250Y29073D01*
X15250Y29075D01*
X15250Y29077D01*
X15249Y29080D01*
X15249Y29082D01*
X15248Y29084D01*
X15247Y29087D01*
X15246Y29089D01*
X15245Y29091D01*
X15244Y29093D01*
X15242Y29094D01*
X15240Y29097D01*
X15238Y29098D01*
X15237Y29099D01*
X15234Y29101D01*
X15101Y29233D01*
X15029Y29406D01*
X15029Y29594D01*
X15101Y29767D01*
X15233Y29899D01*
X15406Y29971D01*
X15594Y29971D01*
X15767Y29899D01*
X15899Y29767D01*
X15971Y29594D01*
X15971Y29406D01*
X15899Y29233D01*
X15767Y29101D01*
X15634Y29046D01*
X15630Y29043D01*
X15626Y29041D01*
X15623Y29037D01*
X15620Y29033D01*
X15618Y29029D01*
X15616Y29024D01*
X15616Y29019D01*
X15616Y28973D01*
X15459Y28817D01*
X15457Y28814D01*
X15455Y28811D01*
X15454Y28810D01*
X15454Y28809D01*
X15453Y28805D01*
X15451Y28802D01*
X15451Y28801D01*
X15451Y28800D01*
X15451Y28799D01*
X15451Y28796D01*
X15451Y27629D01*
X15451Y27626D01*
X15451Y27623D01*
X15452Y27621D01*
X15452Y27619D01*
X15454Y27617D01*
X15455Y27614D01*
X15456Y27612D01*
X15457Y27611D01*
X15459Y27609D01*
X15461Y27607D01*
X15462Y27606D01*
X15464Y27604D01*
X15467Y27603D01*
X15469Y27602D01*
X15471Y27601D01*
X15473Y27600D01*
X15475Y27600D01*
X15478Y27599D01*
X15480Y27600D01*
X15482Y27600D01*
X15485Y27600D01*
X15488Y27601D01*
X15490Y27601D01*
X15491Y27602D01*
X15494Y27603D01*
X15497Y27605D01*
X15499Y27606D01*
X15499Y27607D01*
X15500Y27607D01*
X15501Y27608D01*
X15562Y27669D01*
X17094Y29202D01*
X17095Y29202D01*
X17097Y29206D01*
X17100Y29210D01*
X17101Y29214D01*
X17103Y29219D01*
X17103Y29224D01*
X17102Y29228D01*
X17101Y29234D01*
X17029Y29406D01*
X17029Y29594D01*
X17101Y29767D01*
X17233Y29899D01*
X17406Y29971D01*
X17594Y29971D01*
X17767Y29899D01*
X17899Y29767D01*
X17971Y29594D01*
X17971Y29406D01*
X17899Y29233D01*
X17767Y29101D01*
X17594Y29029D01*
X17406Y29029D01*
X17403Y29030D01*
X17403Y29031D01*
X17399Y29032D01*
X17394Y29033D01*
X17389Y29032D01*
X17385Y29032D01*
X17384Y29032D01*
X17380Y29030D01*
X17376Y29028D01*
X17371Y29024D01*
X17326Y28978D01*
X17325Y28977D01*
X17324Y28977D01*
X17322Y28973D01*
X17320Y28970D01*
X17320Y28969D01*
X17319Y28968D01*
X17318Y28965D01*
X17317Y28961D01*
X17317Y28960D01*
X17317Y28959D01*
X17317Y28955D01*
X17318Y28952D01*
X17318Y28951D01*
X17318Y28950D01*
X17320Y28946D01*
X17321Y28943D01*
X17322Y28942D01*
X17322Y28941D01*
X17326Y28937D01*
X17328Y28934D01*
X17331Y28932D01*
X17334Y28930D01*
X17335Y28929D01*
X17336Y28929D01*
X17340Y28928D01*
X17343Y28926D01*
X17344Y28926D01*
X17345Y28926D01*
X17346Y28926D01*
X17349Y28926D01*
X19721Y28926D01*
X19725Y28926D01*
X19729Y28927D01*
X19730Y28927D01*
X19731Y28927D01*
X19734Y28929D01*
X19738Y28931D01*
X19739Y28932D01*
X19740Y28932D01*
X19742Y28934D01*
X20228Y29421D01*
X29316Y29421D01*
X29320Y29421D01*
X29324Y29422D01*
X29325Y29422D01*
X29326Y29422D01*
X29329Y29424D01*
X29333Y29426D01*
X29334Y29427D01*
X29335Y29427D01*
X29335Y29428D01*
X29337Y29429D01*
X29355Y29447D01*
X29436Y29481D01*
X29524Y29481D01*
X29605Y29447D01*
X29667Y29385D01*
X29701Y29304D01*
X29701Y29216D01*
X29668Y29136D01*
X29667Y29134D01*
X29666Y29132D01*
X29666Y29130D01*
X29665Y29127D01*
X29666Y29125D01*
X29666Y29123D01*
X29666Y29120D01*
X29666Y29117D01*
X29667Y29116D01*
X29668Y29114D01*
X29669Y29111D01*
X29670Y29109D01*
X29672Y29107D01*
X29673Y29106D01*
X29675Y29104D01*
X29677Y29102D01*
X29679Y29101D01*
X29680Y29100D01*
X29683Y29099D01*
X29685Y29097D01*
X29687Y29097D01*
X29689Y29096D01*
X29695Y29096D01*
X30275Y29096D01*
X30276Y29096D01*
X30277Y29096D01*
X30281Y29097D01*
X30284Y29097D01*
X30285Y29098D01*
X30286Y29098D01*
X30290Y29100D01*
X30293Y29102D01*
X30294Y29103D01*
X30297Y29106D01*
X30299Y29109D01*
X30300Y29110D01*
X30300Y29111D01*
X30302Y29114D01*
X30303Y29118D01*
X30303Y29119D01*
X30304Y29120D01*
X30304Y29125D01*
X30304Y34419D01*
X30338Y34500D01*
X30404Y34566D01*
X30856Y35018D01*
X30927Y35089D01*
X31078Y35241D01*
X31079Y35241D01*
X31081Y35245D01*
X31084Y35248D01*
X31084Y35249D01*
X31085Y35253D01*
X31087Y35258D01*
X31087Y35262D01*
X31086Y35267D01*
X31085Y35272D01*
X31029Y35406D01*
X31029Y35594D01*
X31101Y35767D01*
X31233Y35899D01*
X31406Y35971D01*
X31594Y35971D01*
X31767Y35899D01*
X31899Y35767D01*
X31971Y35594D01*
X31971Y35406D01*
X31899Y35233D01*
X31767Y35101D01*
X31594Y35029D01*
X31504Y35029D01*
X31500Y35029D01*
X31496Y35028D01*
X31495Y35028D01*
X31494Y35028D01*
X31491Y35026D01*
X31487Y35024D01*
X31486Y35023D01*
X31485Y35023D01*
X31483Y35021D01*
X31438Y34976D01*
X31436Y34973D01*
X31434Y34971D01*
X31433Y34969D01*
X31432Y34968D01*
X31431Y34965D01*
X31430Y34962D01*
X31430Y34961D01*
X31430Y34959D01*
X31430Y34956D01*
X31429Y34953D01*
X31430Y34951D01*
X31430Y34949D01*
X31431Y34946D01*
X31432Y34944D01*
X31433Y34942D01*
X31433Y34940D01*
X31435Y34938D01*
X31437Y34936D01*
X31438Y34934D01*
X31439Y34933D01*
X31442Y34931D01*
X31444Y34930D01*
X31446Y34929D01*
X31448Y34928D01*
X31450Y34927D01*
X31453Y34926D01*
X31456Y34926D01*
X31457Y34926D01*
X31459Y34926D01*
X37846Y34926D01*
X37850Y34926D01*
X37854Y34927D01*
X37855Y34927D01*
X37856Y34927D01*
X37859Y34929D01*
X37863Y34931D01*
X37864Y34932D01*
X37865Y34932D01*
X37867Y34934D01*
X38491Y35558D01*
X38493Y35561D01*
X38495Y35564D01*
X38496Y35565D01*
X38496Y35566D01*
X38497Y35569D01*
X38499Y35573D01*
X38499Y35574D01*
X38499Y35575D01*
X38499Y35576D01*
X38499Y35579D01*
X38499Y35751D01*
X38499Y35754D01*
X38499Y35757D01*
X38498Y35759D01*
X38498Y35761D01*
X38496Y35763D01*
X38495Y35766D01*
X38494Y35768D01*
X38493Y35769D01*
X38491Y35771D01*
X38489Y35774D01*
X38488Y35775D01*
X38486Y35776D01*
X38483Y35777D01*
X38481Y35779D01*
X38479Y35779D01*
X38477Y35780D01*
X38475Y35780D01*
X38472Y35781D01*
X38470Y35780D01*
X38468Y35781D01*
X38465Y35780D01*
X38462Y35780D01*
X38460Y35779D01*
X38459Y35778D01*
X38456Y35777D01*
X38453Y35776D01*
X38451Y35774D01*
X38451Y35773D01*
X38450Y35773D01*
X38449Y35772D01*
X38405Y35728D01*
X38324Y35694D01*
X38236Y35694D01*
X38155Y35728D01*
X38113Y35769D01*
X38110Y35772D01*
X38107Y35774D01*
X38106Y35774D01*
X38106Y35775D01*
X38102Y35776D01*
X38098Y35777D01*
X38097Y35778D01*
X38096Y35778D01*
X38093Y35778D01*
X38089Y35778D01*
X38088Y35777D01*
X38087Y35777D01*
X38083Y35776D01*
X38080Y35775D01*
X38079Y35774D01*
X38078Y35774D01*
X38075Y35772D01*
X38072Y35769D01*
X38071Y35769D01*
X38071Y35768D01*
X38069Y35765D01*
X38066Y35761D01*
X38066Y35760D01*
X38065Y35756D01*
X38064Y35752D01*
X38064Y35751D01*
X38063Y35750D01*
X38064Y35747D01*
X38064Y35743D01*
X38064Y35742D01*
X38064Y35741D01*
X38065Y35740D01*
X38066Y35738D01*
X38123Y35600D01*
X38123Y35400D01*
X38047Y35216D01*
X37906Y35075D01*
X37722Y34999D01*
X37522Y34999D01*
X37338Y35075D01*
X37198Y35216D01*
X37121Y35400D01*
X37121Y35600D01*
X37198Y35784D01*
X37338Y35925D01*
X37522Y36001D01*
X37722Y36001D01*
X37906Y35925D01*
X38026Y35804D01*
X38029Y35802D01*
X38032Y35799D01*
X38033Y35799D01*
X38034Y35799D01*
X38038Y35797D01*
X38041Y35796D01*
X38042Y35796D01*
X38043Y35796D01*
X38047Y35796D01*
X38051Y35796D01*
X38052Y35796D01*
X38053Y35796D01*
X38056Y35798D01*
X38060Y35799D01*
X38061Y35799D01*
X38062Y35800D01*
X38064Y35802D01*
X38068Y35804D01*
X38068Y35805D01*
X38069Y35806D01*
X38071Y35809D01*
X38073Y35812D01*
X38073Y35813D01*
X38074Y35814D01*
X38075Y35818D01*
X38076Y35821D01*
X38076Y35822D01*
X38076Y35823D01*
X38076Y35827D01*
X38075Y35831D01*
X38075Y35832D01*
X38075Y35833D01*
X38074Y35836D01*
X38059Y35871D01*
X38059Y35896D01*
X38059Y35900D01*
X38058Y35904D01*
X38058Y35905D01*
X38058Y35906D01*
X38056Y35909D01*
X38054Y35913D01*
X38053Y35914D01*
X38053Y35915D01*
X38051Y35917D01*
X37672Y36296D01*
X37669Y36298D01*
X37666Y36300D01*
X37665Y36301D01*
X37664Y36301D01*
X37660Y36302D01*
X37657Y36304D01*
X37656Y36304D01*
X37655Y36304D01*
X37654Y36304D01*
X37651Y36304D01*
X35604Y36304D01*
X35601Y36304D01*
X35598Y36304D01*
X35596Y36303D01*
X35594Y36303D01*
X35592Y36301D01*
X35589Y36300D01*
X35587Y36299D01*
X35586Y36298D01*
X35584Y36296D01*
X35582Y36294D01*
X35581Y36293D01*
X35579Y36291D01*
X35578Y36288D01*
X35577Y36286D01*
X35576Y36284D01*
X35575Y36282D01*
X35575Y36280D01*
X35574Y36277D01*
X35575Y36275D01*
X35575Y36273D01*
X35575Y36270D01*
X35576Y36267D01*
X35576Y36265D01*
X35577Y36264D01*
X35578Y36261D01*
X35580Y36258D01*
X35581Y36256D01*
X35582Y36256D01*
X35582Y36255D01*
X35583Y36254D01*
X35916Y35921D01*
X35917Y35921D01*
X35917Y35920D01*
X35921Y35918D01*
X35924Y35916D01*
X35925Y35916D01*
X35926Y35915D01*
X35929Y35914D01*
X35933Y35913D01*
X35934Y35913D01*
X35935Y35913D01*
X35939Y35913D01*
X35942Y35913D01*
X35943Y35914D01*
X35944Y35914D01*
X35948Y35915D01*
X35951Y35917D01*
X35952Y35917D01*
X35953Y35918D01*
X35957Y35921D01*
X35960Y35925D01*
X36144Y36001D01*
X36344Y36001D01*
X36528Y35925D01*
X36669Y35784D01*
X36745Y35600D01*
X36745Y35400D01*
X36669Y35216D01*
X36528Y35075D01*
X36344Y34999D01*
X36144Y34999D01*
X35960Y35075D01*
X35820Y35216D01*
X35743Y35400D01*
X35743Y35600D01*
X35747Y35610D01*
X35748Y35610D01*
X35749Y35614D01*
X35750Y35619D01*
X35749Y35624D01*
X35749Y35628D01*
X35749Y35629D01*
X35747Y35633D01*
X35745Y35637D01*
X35741Y35642D01*
X35307Y36076D01*
X35304Y36078D01*
X35301Y36080D01*
X35300Y36081D01*
X35299Y36081D01*
X35295Y36082D01*
X35292Y36084D01*
X35291Y36084D01*
X35290Y36084D01*
X35289Y36084D01*
X35286Y36084D01*
X23289Y36084D01*
X23285Y36084D01*
X23281Y36083D01*
X23280Y36083D01*
X23279Y36083D01*
X23276Y36081D01*
X23272Y36079D01*
X23271Y36078D01*
X23270Y36078D01*
X23268Y36076D01*
X21792Y34599D01*
X19659Y34599D01*
X19655Y34599D01*
X19651Y34598D01*
X19650Y34598D01*
X19649Y34598D01*
X19646Y34596D01*
X19642Y34594D01*
X19641Y34593D01*
X19640Y34593D01*
X19638Y34591D01*
X15890Y30842D01*
X15888Y30841D01*
X15887Y30839D01*
X15886Y30837D01*
X15884Y30834D01*
X15883Y30833D01*
X15882Y30831D01*
X15882Y30828D01*
X15881Y30825D01*
X15881Y30823D01*
X15881Y30821D01*
X15881Y30819D01*
X15882Y30816D01*
X15882Y30814D01*
X15883Y30812D01*
X15884Y30809D01*
X15885Y30807D01*
X15886Y30805D01*
X15887Y30803D01*
X15889Y30802D01*
X15891Y30799D01*
X15893Y30798D01*
X15894Y30797D01*
X15899Y30794D01*
X15965Y30767D01*
X15983Y30749D01*
X15986Y30747D01*
X15989Y30745D01*
X15990Y30744D01*
X15991Y30744D01*
X15994Y30743D01*
X15998Y30741D01*
X15999Y30741D01*
X16000Y30741D01*
X16001Y30741D01*
X16004Y30741D01*
X16397Y30741D01*
X16399Y30741D01*
X16401Y30741D01*
X16404Y30742D01*
X16407Y30742D01*
X16409Y30743D01*
X16410Y30744D01*
X16413Y30746D01*
X16415Y30747D01*
X16417Y30748D01*
X16418Y30749D01*
X16420Y30752D01*
X16422Y30754D01*
X16423Y30756D01*
X16424Y30757D01*
X16425Y30760D01*
X16426Y30763D01*
X16426Y30765D01*
X16426Y30766D01*
X16426Y30769D01*
X16427Y30772D01*
X16426Y30774D01*
X16426Y30776D01*
X16424Y30781D01*
X16389Y30866D01*
X16389Y30954D01*
X16423Y31035D01*
X16485Y31097D01*
X16566Y31131D01*
X16654Y31131D01*
X16735Y31097D01*
X16753Y31079D01*
X16756Y31077D01*
X16759Y31075D01*
X16760Y31074D01*
X16761Y31074D01*
X16764Y31073D01*
X16768Y31071D01*
X16769Y31071D01*
X16770Y31071D01*
X16771Y31071D01*
X16774Y31071D01*
X27971Y31071D01*
X27975Y31071D01*
X27979Y31072D01*
X27980Y31072D01*
X27981Y31072D01*
X27984Y31074D01*
X27988Y31076D01*
X27989Y31077D01*
X27990Y31077D01*
X27992Y31079D01*
X28385Y31473D01*
X28387Y31474D01*
X28388Y31476D01*
X28389Y31478D01*
X28391Y31481D01*
X28392Y31482D01*
X28393Y31484D01*
X28393Y31487D01*
X28394Y31490D01*
X28394Y31492D01*
X28394Y31494D01*
X28394Y31496D01*
X28393Y31499D01*
X28393Y31501D01*
X28392Y31503D01*
X28391Y31506D01*
X28390Y31508D01*
X28389Y31510D01*
X28388Y31512D01*
X28386Y31513D01*
X28384Y31516D01*
X28382Y31517D01*
X28381Y31518D01*
X28376Y31521D01*
X28310Y31548D01*
X28248Y31610D01*
X28214Y31691D01*
X28214Y31716D01*
X28214Y31720D01*
X28213Y31724D01*
X28213Y31725D01*
X28213Y31726D01*
X28211Y31729D01*
X28209Y31733D01*
X28208Y31734D01*
X28208Y31735D01*
X28206Y31737D01*
X24857Y35086D01*
X24854Y35088D01*
X24851Y35090D01*
X24850Y35091D01*
X24849Y35091D01*
X24845Y35092D01*
X24842Y35094D01*
X24841Y35094D01*
X24840Y35094D01*
X24839Y35094D01*
X24836Y35094D01*
X24793Y35094D01*
X24791Y35096D01*
X24787Y35099D01*
X24782Y35100D01*
X24778Y35101D01*
X24773Y35101D01*
X24768Y35101D01*
X24763Y35099D01*
X24594Y35029D01*
X24406Y35029D01*
X24233Y35101D01*
X24101Y35233D01*
X24029Y35406D01*
X24029Y35594D01*
X24101Y35767D01*
X24233Y35899D01*
X24406Y35971D01*
X24594Y35971D01*
X24767Y35899D01*
X24899Y35767D01*
X24971Y35594D01*
X24971Y35439D01*
X24971Y35435D01*
X24972Y35431D01*
X24972Y35430D01*
X24972Y35429D01*
X24974Y35426D01*
X24976Y35422D01*
X24977Y35421D01*
X24977Y35420D01*
X24979Y35418D01*
X25084Y35313D01*
X28433Y31964D01*
X28436Y31962D01*
X28439Y31960D01*
X28440Y31959D01*
X28441Y31959D01*
X28445Y31958D01*
X28448Y31956D01*
X28449Y31956D01*
X28450Y31956D01*
X28451Y31956D01*
X28454Y31956D01*
X28479Y31956D01*
X28560Y31922D01*
X28622Y31860D01*
X28649Y31794D01*
X28651Y31792D01*
X28651Y31790D01*
X28653Y31788D01*
X28655Y31786D01*
X28656Y31785D01*
X28657Y31783D01*
X28660Y31782D01*
X28662Y31780D01*
X28664Y31779D01*
X28666Y31778D01*
X28668Y31777D01*
X28671Y31777D01*
X28673Y31776D01*
X28675Y31776D01*
X28678Y31776D01*
X28680Y31776D01*
X28682Y31777D01*
X28684Y31777D01*
X28687Y31778D01*
X28690Y31779D01*
X28691Y31780D01*
X28693Y31781D01*
X28697Y31785D01*
X28976Y32063D01*
X28978Y32066D01*
X28978Y32067D01*
X28979Y32067D01*
X28980Y32069D01*
X28981Y32070D01*
X28981Y32071D01*
X28982Y32075D01*
X28984Y32078D01*
X28984Y32079D01*
X28984Y32080D01*
X28984Y32081D01*
X28984Y32084D01*
X28984Y32109D01*
X29018Y32190D01*
X29080Y32252D01*
X29161Y32286D01*
X29249Y32286D01*
X29330Y32252D01*
X29392Y32190D01*
X29426Y32109D01*
X29426Y32021D01*
X29392Y31940D01*
X29330Y31878D01*
X29249Y31844D01*
X29224Y31844D01*
X29220Y31844D01*
X29216Y31843D01*
X29215Y31843D01*
X29214Y31843D01*
X29211Y31841D01*
X29207Y31839D01*
X29206Y31838D01*
X29205Y31838D01*
X29203Y31836D01*
X28117Y30749D01*
X19544Y30749D01*
X19541Y30749D01*
X19538Y30749D01*
X19536Y30748D01*
X19534Y30748D01*
X19532Y30746D01*
X19529Y30745D01*
X19527Y30744D01*
X19526Y30743D01*
X19524Y30741D01*
X19522Y30739D01*
X19521Y30738D01*
X19519Y30736D01*
X19518Y30733D01*
X19517Y30731D01*
X19516Y30729D01*
X19515Y30727D01*
X19515Y30725D01*
X19514Y30722D01*
X19515Y30720D01*
X19515Y30718D01*
X19515Y30715D01*
X19516Y30712D01*
X19516Y30710D01*
X19517Y30709D01*
X19518Y30706D01*
X19520Y30703D01*
X19521Y30701D01*
X19522Y30701D01*
X19522Y30700D01*
X19523Y30699D01*
X19584Y30638D01*
X20188Y30034D01*
X20191Y30032D01*
X20194Y30030D01*
X20195Y30029D01*
X20196Y30029D01*
X20200Y30028D01*
X20203Y30026D01*
X20204Y30026D01*
X20205Y30026D01*
X20206Y30026D01*
X20209Y30026D01*
X28271Y30026D01*
X28275Y30026D01*
X28279Y30027D01*
X28280Y30027D01*
X28281Y30027D01*
X28284Y30029D01*
X28288Y30031D01*
X28289Y30032D01*
X28290Y30032D01*
X28292Y30034D01*
X28310Y30052D01*
X28391Y30086D01*
X28479Y30086D01*
X28560Y30052D01*
X28622Y29990D01*
X28656Y29909D01*
X28656Y29821D01*
X28622Y29740D01*
X28560Y29678D01*
X28479Y29644D01*
X28391Y29644D01*
X28310Y29678D01*
X28292Y29696D01*
X28289Y29698D01*
X28286Y29700D01*
X28285Y29701D01*
X28284Y29701D01*
X28281Y29702D01*
X28277Y29704D01*
X28276Y29704D01*
X28275Y29704D01*
X28274Y29704D01*
X28271Y29704D01*
X20063Y29704D01*
X19357Y30411D01*
X19354Y30413D01*
X19351Y30415D01*
X19350Y30416D01*
X19349Y30416D01*
X19345Y30417D01*
X19342Y30419D01*
X19341Y30419D01*
X19340Y30419D01*
X19339Y30419D01*
X19336Y30419D01*
X16004Y30419D01*
X16000Y30419D01*
X15996Y30418D01*
X15995Y30418D01*
X15994Y30418D01*
X15991Y30416D01*
X15987Y30414D01*
X15986Y30413D01*
X15985Y30413D01*
X15983Y30411D01*
X15965Y30393D01*
X15884Y30359D01*
X15796Y30359D01*
X15715Y30393D01*
X15653Y30455D01*
X15626Y30521D01*
X15624Y30523D01*
X15624Y30525D01*
X15622Y30527D01*
X15620Y30529D01*
X15619Y30530D01*
X15618Y30532D01*
X15615Y30533D01*
X15613Y30535D01*
X15611Y30536D01*
X15609Y30537D01*
X15607Y30538D01*
X15604Y30538D01*
X15602Y30539D01*
X15600Y30539D01*
X15597Y30539D01*
X15595Y30539D01*
X15593Y30538D01*
X15591Y30538D01*
X15588Y30537D01*
X15585Y30536D01*
X15584Y30535D01*
X15582Y30534D01*
X15578Y30530D01*
X14909Y29862D01*
X14907Y29859D01*
X14905Y29856D01*
X14904Y29855D01*
X14904Y29854D01*
X14903Y29850D01*
X14901Y29847D01*
X14901Y29846D01*
X14901Y29845D01*
X14901Y29844D01*
X14901Y29841D01*
X14901Y29797D01*
X14899Y29794D01*
X14898Y29794D01*
X14897Y29789D01*
X14896Y29785D01*
X14896Y29780D01*
X14896Y29775D01*
X14898Y29770D01*
X14971Y29594D01*
X14971Y29406D01*
X14899Y29233D01*
X14767Y29101D01*
X14594Y29029D01*
X14584Y29029D01*
X14580Y29029D01*
X14576Y29028D01*
X14575Y29028D01*
X14574Y29028D01*
X14571Y29026D01*
X14567Y29024D01*
X14566Y29023D01*
X14565Y29023D01*
X14563Y29021D01*
X14523Y28981D01*
X13919Y28377D01*
X13917Y28374D01*
X13915Y28371D01*
X13914Y28370D01*
X13914Y28369D01*
X13913Y28365D01*
X13911Y28362D01*
X13911Y28361D01*
X13911Y28360D01*
X13911Y28359D01*
X13911Y28356D01*
X13911Y16328D01*
X13911Y16326D01*
X13911Y16324D01*
X13912Y16321D01*
X13912Y16318D01*
X13913Y16316D01*
X13914Y16315D01*
X13916Y16312D01*
X13917Y16310D01*
X13918Y16308D01*
X13919Y16307D01*
X13922Y16305D01*
X13924Y16303D01*
X13926Y16302D01*
X13927Y16301D01*
X13930Y16300D01*
X13933Y16299D01*
X13935Y16299D01*
X13936Y16299D01*
X13939Y16299D01*
X13942Y16298D01*
X13944Y16299D01*
G37*
%LPC*%
G36*
X17656Y2999D02*
X17656Y2999D01*
X17472Y3075D01*
X17331Y3216D01*
X17255Y3400D01*
X17255Y3600D01*
X17331Y3784D01*
X17472Y3925D01*
X17656Y4001D01*
X17856Y4001D01*
X18040Y3925D01*
X18053Y3911D01*
X18054Y3911D01*
X18054Y3910D01*
X18057Y3908D01*
X18060Y3906D01*
X18061Y3906D01*
X18062Y3905D01*
X18066Y3904D01*
X18070Y3903D01*
X18071Y3903D01*
X18072Y3903D01*
X18075Y3903D01*
X18079Y3903D01*
X18080Y3904D01*
X18081Y3904D01*
X18085Y3905D01*
X18088Y3907D01*
X18089Y3907D01*
X18090Y3908D01*
X18094Y3911D01*
X19033Y4851D01*
X20341Y4851D01*
X20345Y4851D01*
X20349Y4852D01*
X20350Y4852D01*
X20351Y4852D01*
X20354Y4854D01*
X20358Y4856D01*
X20359Y4857D01*
X20360Y4857D01*
X20360Y4858D01*
X20362Y4859D01*
X25299Y9797D01*
X25300Y9798D01*
X25301Y9798D01*
X25303Y9802D01*
X25305Y9805D01*
X25305Y9806D01*
X25306Y9807D01*
X25307Y9810D01*
X25308Y9814D01*
X25308Y9815D01*
X25308Y9816D01*
X25308Y9820D01*
X25307Y9823D01*
X25307Y9824D01*
X25307Y9825D01*
X25305Y9829D01*
X25304Y9832D01*
X25303Y9833D01*
X25303Y9834D01*
X25299Y9838D01*
X24697Y10441D01*
X24694Y10443D01*
X24691Y10445D01*
X24690Y10446D01*
X24689Y10446D01*
X24685Y10447D01*
X24682Y10449D01*
X24681Y10449D01*
X24680Y10449D01*
X24679Y10449D01*
X24676Y10449D01*
X24651Y10449D01*
X24570Y10483D01*
X24508Y10545D01*
X24474Y10626D01*
X24474Y10714D01*
X24508Y10795D01*
X24570Y10857D01*
X24651Y10891D01*
X24739Y10891D01*
X24820Y10857D01*
X24882Y10795D01*
X24916Y10714D01*
X24916Y10689D01*
X24916Y10685D01*
X24917Y10681D01*
X24917Y10680D01*
X24917Y10679D01*
X24919Y10676D01*
X24921Y10672D01*
X24922Y10671D01*
X24922Y10670D01*
X24924Y10668D01*
X25527Y10066D01*
X25528Y10065D01*
X25528Y10064D01*
X25532Y10062D01*
X25535Y10060D01*
X25536Y10060D01*
X25537Y10059D01*
X25540Y10058D01*
X25544Y10057D01*
X25545Y10057D01*
X25546Y10057D01*
X25550Y10057D01*
X25553Y10058D01*
X25554Y10058D01*
X25555Y10058D01*
X25559Y10060D01*
X25562Y10061D01*
X25563Y10062D01*
X25564Y10062D01*
X25568Y10066D01*
X28156Y12653D01*
X28159Y12657D01*
X28161Y12661D01*
X28162Y12661D01*
X28163Y12666D01*
X28164Y12670D01*
X28164Y12675D01*
X28164Y12680D01*
X28162Y12685D01*
X28159Y12692D01*
X28159Y13308D01*
X28211Y13433D01*
X28307Y13529D01*
X28432Y13581D01*
X28568Y13581D01*
X28693Y13529D01*
X28719Y13503D01*
X28722Y13501D01*
X28724Y13499D01*
X28726Y13498D01*
X28727Y13497D01*
X28730Y13496D01*
X28733Y13495D01*
X28734Y13495D01*
X28736Y13494D01*
X28739Y13494D01*
X28742Y13494D01*
X28744Y13495D01*
X28746Y13495D01*
X28749Y13496D01*
X28751Y13496D01*
X28753Y13497D01*
X28755Y13498D01*
X28757Y13500D01*
X28759Y13501D01*
X28761Y13503D01*
X28762Y13504D01*
X28764Y13507D01*
X28765Y13509D01*
X28766Y13511D01*
X28767Y13512D01*
X28768Y13515D01*
X28769Y13518D01*
X28769Y13521D01*
X28769Y13522D01*
X28769Y13523D01*
X28769Y13598D01*
X28770Y13600D01*
X28770Y13601D01*
X28771Y13602D01*
X28772Y13605D01*
X28773Y13609D01*
X28773Y13610D01*
X28773Y13611D01*
X28773Y13615D01*
X28772Y13618D01*
X28772Y13619D01*
X28772Y13620D01*
X28770Y13624D01*
X28769Y13627D01*
X28768Y13628D01*
X28768Y13629D01*
X28764Y13633D01*
X28707Y13691D01*
X28704Y13693D01*
X28701Y13695D01*
X28700Y13696D01*
X28699Y13696D01*
X28695Y13697D01*
X28692Y13699D01*
X28691Y13699D01*
X28690Y13699D01*
X28689Y13699D01*
X28686Y13699D01*
X26289Y13699D01*
X26285Y13699D01*
X26281Y13698D01*
X26280Y13698D01*
X26279Y13698D01*
X26276Y13696D01*
X26272Y13694D01*
X26271Y13693D01*
X26270Y13693D01*
X26268Y13691D01*
X26250Y13673D01*
X26169Y13639D01*
X26081Y13639D01*
X26000Y13673D01*
X25938Y13735D01*
X25904Y13816D01*
X25904Y13904D01*
X25938Y13985D01*
X26000Y14047D01*
X26081Y14081D01*
X26169Y14081D01*
X26250Y14047D01*
X26268Y14029D01*
X26271Y14027D01*
X26274Y14025D01*
X26275Y14024D01*
X26276Y14024D01*
X26279Y14023D01*
X26283Y14021D01*
X26284Y14021D01*
X26285Y14021D01*
X26286Y14021D01*
X26289Y14021D01*
X28832Y14021D01*
X28992Y13861D01*
X28993Y13860D01*
X28993Y13859D01*
X28997Y13857D01*
X29000Y13855D01*
X29001Y13855D01*
X29002Y13854D01*
X29005Y13853D01*
X29009Y13852D01*
X29010Y13852D01*
X29011Y13852D01*
X29015Y13852D01*
X29018Y13853D01*
X29019Y13853D01*
X29020Y13853D01*
X29024Y13855D01*
X29027Y13856D01*
X29028Y13857D01*
X29029Y13857D01*
X29033Y13861D01*
X29138Y13966D01*
X29291Y13966D01*
X29295Y13966D01*
X29299Y13967D01*
X29300Y13967D01*
X29301Y13967D01*
X29304Y13969D01*
X29308Y13971D01*
X29309Y13972D01*
X29310Y13972D01*
X29312Y13974D01*
X30851Y15513D01*
X30853Y15516D01*
X30855Y15519D01*
X30856Y15520D01*
X30856Y15521D01*
X30857Y15525D01*
X30859Y15528D01*
X30859Y15529D01*
X30859Y15530D01*
X30859Y15531D01*
X30859Y15534D01*
X30859Y15577D01*
X30906Y15623D01*
X30908Y15626D01*
X30910Y15629D01*
X30911Y15630D01*
X30911Y15631D01*
X30912Y15635D01*
X30914Y15638D01*
X30914Y15639D01*
X30914Y15640D01*
X30914Y15641D01*
X30914Y15644D01*
X30914Y16366D01*
X30914Y16370D01*
X30913Y16374D01*
X30913Y16375D01*
X30913Y16376D01*
X30911Y16379D01*
X30909Y16383D01*
X30908Y16384D01*
X30908Y16385D01*
X30906Y16387D01*
X30859Y16433D01*
X30859Y16622D01*
X33253Y19016D01*
X35256Y19016D01*
X35260Y19016D01*
X35264Y19017D01*
X35265Y19017D01*
X35266Y19017D01*
X35269Y19019D01*
X35273Y19021D01*
X35274Y19022D01*
X35275Y19022D01*
X35277Y19024D01*
X35295Y19042D01*
X35376Y19076D01*
X35464Y19076D01*
X35545Y19042D01*
X35607Y18980D01*
X35641Y18899D01*
X35641Y18811D01*
X35607Y18730D01*
X35545Y18668D01*
X35464Y18634D01*
X35376Y18634D01*
X35295Y18668D01*
X35277Y18686D01*
X35274Y18688D01*
X35271Y18690D01*
X35270Y18691D01*
X35269Y18691D01*
X35266Y18692D01*
X35262Y18694D01*
X35261Y18694D01*
X35260Y18694D01*
X35259Y18694D01*
X35256Y18694D01*
X33399Y18694D01*
X33395Y18694D01*
X33391Y18693D01*
X33390Y18693D01*
X33389Y18693D01*
X33386Y18691D01*
X33382Y18689D01*
X33381Y18688D01*
X33380Y18688D01*
X33378Y18686D01*
X31241Y16548D01*
X31240Y16547D01*
X31239Y16547D01*
X31237Y16543D01*
X31235Y16540D01*
X31235Y16539D01*
X31234Y16538D01*
X31233Y16535D01*
X31232Y16531D01*
X31232Y16530D01*
X31232Y16529D01*
X31232Y16525D01*
X31233Y16522D01*
X31233Y16521D01*
X31233Y16520D01*
X31235Y16516D01*
X31236Y16513D01*
X31237Y16512D01*
X31237Y16511D01*
X31241Y16507D01*
X31242Y16505D01*
X31243Y16505D01*
X31244Y16504D01*
X31247Y16502D01*
X31250Y16500D01*
X31251Y16499D01*
X31252Y16499D01*
X31255Y16498D01*
X31259Y16497D01*
X31260Y16497D01*
X31261Y16497D01*
X31265Y16497D01*
X31269Y16497D01*
X31270Y16498D01*
X31271Y16498D01*
X31274Y16499D01*
X31277Y16501D01*
X31278Y16501D01*
X31279Y16502D01*
X31283Y16505D01*
X31307Y16529D01*
X31432Y16581D01*
X31568Y16581D01*
X31693Y16529D01*
X31789Y16433D01*
X31841Y16308D01*
X31841Y15692D01*
X31789Y15567D01*
X31693Y15471D01*
X31568Y15419D01*
X31432Y15419D01*
X31307Y15471D01*
X31278Y15500D01*
X31277Y15501D01*
X31274Y15503D01*
X31271Y15505D01*
X31270Y15506D01*
X31269Y15506D01*
X31265Y15507D01*
X31261Y15508D01*
X31260Y15508D01*
X31259Y15508D01*
X31256Y15508D01*
X31252Y15508D01*
X31251Y15507D01*
X31250Y15507D01*
X31246Y15506D01*
X31243Y15504D01*
X31242Y15504D01*
X31241Y15503D01*
X31237Y15500D01*
X31189Y15452D01*
X31187Y15449D01*
X31185Y15446D01*
X31184Y15445D01*
X31184Y15444D01*
X31183Y15440D01*
X31181Y15437D01*
X31181Y15436D01*
X31181Y15435D01*
X31181Y15434D01*
X31181Y15431D01*
X31181Y15388D01*
X29437Y13644D01*
X29284Y13644D01*
X29280Y13644D01*
X29276Y13643D01*
X29275Y13643D01*
X29274Y13643D01*
X29271Y13641D01*
X29267Y13639D01*
X29266Y13638D01*
X29265Y13638D01*
X29263Y13636D01*
X29182Y13554D01*
X29099Y13472D01*
X29097Y13469D01*
X29095Y13466D01*
X29094Y13465D01*
X29094Y13464D01*
X29093Y13460D01*
X29092Y13459D01*
X29092Y13458D01*
X29091Y13457D01*
X29091Y13456D01*
X29091Y13455D01*
X29091Y13454D01*
X29091Y13451D01*
X29091Y12564D01*
X29091Y12560D01*
X29092Y12556D01*
X29092Y12555D01*
X29092Y12554D01*
X29094Y12551D01*
X29096Y12547D01*
X29097Y12546D01*
X29097Y12545D01*
X29099Y12543D01*
X29146Y12497D01*
X29146Y12363D01*
X25075Y8292D01*
X25073Y8291D01*
X25072Y8289D01*
X25071Y8287D01*
X25069Y8284D01*
X25068Y8283D01*
X25067Y8281D01*
X25067Y8278D01*
X25066Y8275D01*
X25066Y8273D01*
X25066Y8271D01*
X25066Y8269D01*
X25067Y8266D01*
X25067Y8264D01*
X25068Y8262D01*
X25069Y8259D01*
X25070Y8257D01*
X25071Y8255D01*
X25072Y8253D01*
X25074Y8252D01*
X25076Y8249D01*
X25078Y8248D01*
X25079Y8247D01*
X25084Y8244D01*
X25150Y8217D01*
X25212Y8155D01*
X25246Y8074D01*
X25246Y7986D01*
X25212Y7905D01*
X25194Y7887D01*
X25192Y7884D01*
X25190Y7881D01*
X25189Y7880D01*
X25189Y7879D01*
X25188Y7876D01*
X25186Y7872D01*
X25186Y7871D01*
X25186Y7870D01*
X25186Y7869D01*
X25186Y7866D01*
X25186Y4030D01*
X25186Y4029D01*
X25186Y4028D01*
X25187Y4024D01*
X25187Y4021D01*
X25188Y4020D01*
X25188Y4019D01*
X25190Y4015D01*
X25192Y4012D01*
X25193Y4011D01*
X25196Y4008D01*
X25199Y4006D01*
X25200Y4005D01*
X25201Y4005D01*
X25204Y4003D01*
X25208Y4002D01*
X25209Y4002D01*
X25210Y4001D01*
X25215Y4001D01*
X25442Y4001D01*
X25501Y3942D01*
X25501Y3058D01*
X25442Y2999D01*
X24558Y2999D01*
X24499Y3058D01*
X24499Y3942D01*
X24558Y4001D01*
X24835Y4001D01*
X24836Y4001D01*
X24837Y4001D01*
X24841Y4002D01*
X24844Y4002D01*
X24845Y4003D01*
X24846Y4003D01*
X24850Y4005D01*
X24853Y4007D01*
X24854Y4008D01*
X24857Y4011D01*
X24859Y4014D01*
X24860Y4015D01*
X24860Y4016D01*
X24862Y4019D01*
X24863Y4023D01*
X24863Y4024D01*
X24864Y4025D01*
X24864Y4030D01*
X24864Y7866D01*
X24864Y7870D01*
X24863Y7874D01*
X24863Y7875D01*
X24863Y7876D01*
X24861Y7879D01*
X24859Y7883D01*
X24858Y7884D01*
X24858Y7885D01*
X24856Y7887D01*
X24838Y7905D01*
X24811Y7971D01*
X24809Y7973D01*
X24809Y7975D01*
X24807Y7977D01*
X24805Y7979D01*
X24804Y7980D01*
X24803Y7982D01*
X24800Y7983D01*
X24798Y7985D01*
X24796Y7986D01*
X24794Y7987D01*
X24792Y7988D01*
X24789Y7988D01*
X24787Y7989D01*
X24785Y7989D01*
X24782Y7989D01*
X24780Y7989D01*
X24778Y7988D01*
X24776Y7988D01*
X24773Y7987D01*
X24770Y7986D01*
X24769Y7985D01*
X24767Y7984D01*
X24763Y7980D01*
X20959Y4177D01*
X20857Y4074D01*
X20374Y4074D01*
X20370Y4074D01*
X20366Y4073D01*
X20365Y4073D01*
X20364Y4073D01*
X20361Y4071D01*
X20357Y4069D01*
X20356Y4068D01*
X20355Y4068D01*
X20353Y4066D01*
X20305Y4017D01*
X20303Y4015D01*
X20301Y4013D01*
X20300Y4011D01*
X20299Y4010D01*
X20298Y4007D01*
X20297Y4005D01*
X20297Y4002D01*
X20296Y4000D01*
X20296Y3998D01*
X20296Y3995D01*
X20297Y3993D01*
X20297Y3991D01*
X20298Y3988D01*
X20298Y3986D01*
X20299Y3984D01*
X20300Y3982D01*
X20302Y3980D01*
X20303Y3978D01*
X20305Y3976D01*
X20306Y3975D01*
X20309Y3973D01*
X20311Y3971D01*
X20313Y3971D01*
X20314Y3970D01*
X20317Y3969D01*
X20320Y3968D01*
X20322Y3968D01*
X20324Y3968D01*
X20326Y3968D01*
X20329Y3968D01*
X20332Y3968D01*
X20333Y3969D01*
X20334Y3969D01*
X20395Y3988D01*
X20453Y3998D01*
X20453Y3559D01*
X20014Y3559D01*
X20023Y3617D01*
X20043Y3677D01*
X20043Y3680D01*
X20044Y3683D01*
X20044Y3685D01*
X20044Y3687D01*
X20044Y3690D01*
X20044Y3692D01*
X20043Y3694D01*
X20043Y3696D01*
X20041Y3699D01*
X20040Y3701D01*
X20039Y3703D01*
X20038Y3705D01*
X20036Y3706D01*
X20034Y3709D01*
X20032Y3710D01*
X20031Y3711D01*
X20028Y3712D01*
X20026Y3714D01*
X20024Y3714D01*
X20022Y3715D01*
X20019Y3715D01*
X20017Y3716D01*
X20015Y3715D01*
X20013Y3716D01*
X20010Y3715D01*
X20007Y3715D01*
X20005Y3714D01*
X20003Y3713D01*
X20001Y3712D01*
X19999Y3711D01*
X19996Y3708D01*
X19995Y3708D01*
X19994Y3707D01*
X19749Y3462D01*
X19647Y3359D01*
X19637Y3359D01*
X19632Y3358D01*
X19628Y3358D01*
X19627Y3358D01*
X19623Y3355D01*
X19619Y3353D01*
X19616Y3350D01*
X19613Y3346D01*
X19610Y3341D01*
X19558Y3216D01*
X19418Y3075D01*
X19233Y2999D01*
X19034Y2999D01*
X18850Y3075D01*
X18709Y3216D01*
X18633Y3400D01*
X18633Y3600D01*
X18709Y3784D01*
X18850Y3925D01*
X19034Y4001D01*
X19233Y4001D01*
X19418Y3925D01*
X19558Y3784D01*
X19559Y3783D01*
X19560Y3781D01*
X19560Y3780D01*
X19562Y3777D01*
X19564Y3775D01*
X19565Y3774D01*
X19566Y3772D01*
X19569Y3771D01*
X19571Y3769D01*
X19573Y3768D01*
X19575Y3767D01*
X19577Y3767D01*
X19580Y3766D01*
X19582Y3766D01*
X19584Y3765D01*
X19587Y3765D01*
X19590Y3765D01*
X19591Y3766D01*
X19593Y3766D01*
X19596Y3767D01*
X19599Y3768D01*
X19600Y3769D01*
X19602Y3770D01*
X19606Y3774D01*
X20228Y4396D01*
X20711Y4396D01*
X20715Y4396D01*
X20719Y4397D01*
X20720Y4397D01*
X20721Y4397D01*
X20724Y4399D01*
X20728Y4401D01*
X20729Y4402D01*
X20730Y4402D01*
X20732Y4404D01*
X28761Y12433D01*
X28763Y12436D01*
X28765Y12439D01*
X28766Y12440D01*
X28766Y12441D01*
X28767Y12445D01*
X28769Y12448D01*
X28769Y12449D01*
X28769Y12450D01*
X28769Y12451D01*
X28769Y12454D01*
X28769Y12477D01*
X28769Y12480D01*
X28769Y12483D01*
X28768Y12484D01*
X28768Y12486D01*
X28766Y12489D01*
X28765Y12491D01*
X28764Y12493D01*
X28763Y12495D01*
X28761Y12497D01*
X28759Y12499D01*
X28758Y12500D01*
X28756Y12501D01*
X28753Y12502D01*
X28751Y12504D01*
X28749Y12504D01*
X28747Y12505D01*
X28745Y12505D01*
X28742Y12506D01*
X28740Y12506D01*
X28738Y12506D01*
X28735Y12505D01*
X28732Y12505D01*
X28730Y12504D01*
X28729Y12504D01*
X28726Y12502D01*
X28723Y12501D01*
X28721Y12499D01*
X28720Y12498D01*
X28719Y12497D01*
X28693Y12471D01*
X28568Y12419D01*
X28432Y12419D01*
X28411Y12428D01*
X28406Y12429D01*
X28402Y12430D01*
X28401Y12430D01*
X28397Y12430D01*
X28392Y12429D01*
X28388Y12427D01*
X28383Y12425D01*
X28379Y12422D01*
X25606Y9648D01*
X20487Y4529D01*
X19179Y4529D01*
X19175Y4529D01*
X19171Y4528D01*
X19170Y4528D01*
X19169Y4528D01*
X19166Y4526D01*
X19162Y4524D01*
X19161Y4523D01*
X19160Y4523D01*
X19158Y4521D01*
X18265Y3627D01*
X18262Y3623D01*
X18259Y3620D01*
X18259Y3619D01*
X18258Y3615D01*
X18256Y3610D01*
X18257Y3606D01*
X18257Y3603D01*
X18257Y3400D01*
X18180Y3216D01*
X18040Y3075D01*
X17856Y2999D01*
X17656Y2999D01*
G37*
%LPD*%
%LPC*%
G36*
X4558Y2999D02*
X4558Y2999D01*
X4499Y3058D01*
X4499Y3942D01*
X4558Y4001D01*
X4595Y4001D01*
X4596Y4001D01*
X4597Y4001D01*
X4601Y4002D01*
X4604Y4002D01*
X4605Y4003D01*
X4606Y4003D01*
X4610Y4005D01*
X4613Y4007D01*
X4614Y4008D01*
X4617Y4011D01*
X4619Y4014D01*
X4620Y4015D01*
X4620Y4016D01*
X4622Y4019D01*
X4623Y4023D01*
X4623Y4024D01*
X4624Y4025D01*
X4624Y4030D01*
X4624Y20692D01*
X4727Y20794D01*
X9787Y25854D01*
X9789Y25857D01*
X9791Y25859D01*
X9791Y25861D01*
X9793Y25862D01*
X9793Y25865D01*
X9795Y25868D01*
X9795Y25869D01*
X9795Y25871D01*
X9795Y25874D01*
X9795Y25877D01*
X9795Y25879D01*
X9795Y25881D01*
X9794Y25884D01*
X9793Y25886D01*
X9792Y25888D01*
X9792Y25890D01*
X9790Y25892D01*
X9788Y25894D01*
X9787Y25896D01*
X9785Y25897D01*
X9783Y25899D01*
X9781Y25900D01*
X9779Y25901D01*
X9777Y25902D01*
X9774Y25903D01*
X9772Y25904D01*
X9769Y25904D01*
X9768Y25904D01*
X9767Y25904D01*
X9766Y25904D01*
X9746Y25904D01*
X9665Y25938D01*
X9603Y26000D01*
X9569Y26081D01*
X9569Y26169D01*
X9603Y26250D01*
X9621Y26268D01*
X9623Y26271D01*
X9625Y26274D01*
X9626Y26275D01*
X9626Y26276D01*
X9627Y26279D01*
X9629Y26283D01*
X9629Y26284D01*
X9629Y26285D01*
X9629Y26286D01*
X9629Y26289D01*
X9629Y26742D01*
X12093Y29205D01*
X12096Y29209D01*
X12099Y29213D01*
X12100Y29218D01*
X12101Y29222D01*
X12101Y29227D01*
X12101Y29232D01*
X12099Y29237D01*
X12029Y29406D01*
X12029Y29594D01*
X12101Y29767D01*
X12233Y29899D01*
X12406Y29971D01*
X12571Y29971D01*
X12575Y29971D01*
X12579Y29972D01*
X12580Y29972D01*
X12581Y29972D01*
X12584Y29974D01*
X12588Y29976D01*
X12589Y29977D01*
X12590Y29977D01*
X12592Y29979D01*
X16331Y33718D01*
X16333Y33721D01*
X16335Y33724D01*
X16336Y33725D01*
X16336Y33726D01*
X16337Y33730D01*
X16339Y33733D01*
X16339Y33734D01*
X16339Y33735D01*
X16339Y33736D01*
X16339Y33739D01*
X16339Y34882D01*
X16481Y35023D01*
X16482Y35025D01*
X16484Y35026D01*
X16485Y35029D01*
X16486Y35031D01*
X16487Y35033D01*
X16488Y35035D01*
X16488Y35037D01*
X16489Y35040D01*
X16489Y35042D01*
X16489Y35044D01*
X16489Y35047D01*
X16489Y35050D01*
X16488Y35052D01*
X16488Y35054D01*
X16486Y35056D01*
X16485Y35059D01*
X16484Y35060D01*
X16483Y35062D01*
X16481Y35064D01*
X16479Y35066D01*
X16478Y35067D01*
X16476Y35068D01*
X16471Y35071D01*
X16460Y35075D01*
X16320Y35216D01*
X16243Y35400D01*
X16243Y35600D01*
X16320Y35784D01*
X16460Y35925D01*
X16644Y36001D01*
X16844Y36001D01*
X17028Y35925D01*
X17169Y35784D01*
X17245Y35600D01*
X17245Y35400D01*
X17169Y35216D01*
X17028Y35075D01*
X16844Y34999D01*
X16840Y34997D01*
X16836Y34994D01*
X16833Y34990D01*
X16830Y34987D01*
X16828Y34982D01*
X16826Y34978D01*
X16826Y34972D01*
X16826Y34913D01*
X16669Y34757D01*
X16667Y34754D01*
X16665Y34751D01*
X16664Y34750D01*
X16664Y34749D01*
X16663Y34745D01*
X16661Y34742D01*
X16661Y34741D01*
X16661Y34740D01*
X16661Y34739D01*
X16661Y34736D01*
X16661Y33593D01*
X12929Y29862D01*
X12927Y29859D01*
X12925Y29856D01*
X12924Y29855D01*
X12924Y29854D01*
X12923Y29850D01*
X12921Y29847D01*
X12921Y29846D01*
X12921Y29845D01*
X12921Y29844D01*
X12921Y29841D01*
X12921Y29798D01*
X12910Y29788D01*
X12910Y29787D01*
X12907Y29784D01*
X12904Y29780D01*
X12903Y29775D01*
X12902Y29771D01*
X12902Y29770D01*
X12902Y29766D01*
X12902Y29761D01*
X12904Y29756D01*
X12971Y29594D01*
X12971Y29406D01*
X12899Y29233D01*
X12767Y29101D01*
X12594Y29029D01*
X12406Y29029D01*
X12400Y29032D01*
X12395Y29033D01*
X12391Y29034D01*
X12390Y29034D01*
X12386Y29034D01*
X12381Y29033D01*
X12377Y29031D01*
X12372Y29029D01*
X12368Y29026D01*
X9959Y26617D01*
X9957Y26614D01*
X9955Y26611D01*
X9954Y26610D01*
X9954Y26609D01*
X9953Y26605D01*
X9951Y26602D01*
X9951Y26601D01*
X9951Y26600D01*
X9951Y26599D01*
X9951Y26596D01*
X9951Y26289D01*
X9951Y26285D01*
X9952Y26281D01*
X9952Y26280D01*
X9952Y26279D01*
X9954Y26276D01*
X9956Y26272D01*
X9957Y26271D01*
X9957Y26270D01*
X9959Y26268D01*
X9977Y26250D01*
X10011Y26169D01*
X10011Y26149D01*
X10011Y26146D01*
X10011Y26143D01*
X10012Y26141D01*
X10012Y26139D01*
X10014Y26137D01*
X10015Y26134D01*
X10016Y26132D01*
X10017Y26131D01*
X10019Y26129D01*
X10021Y26127D01*
X10022Y26126D01*
X10024Y26124D01*
X10027Y26123D01*
X10029Y26122D01*
X10031Y26121D01*
X10033Y26120D01*
X10035Y26120D01*
X10038Y26119D01*
X10040Y26120D01*
X10042Y26120D01*
X10045Y26120D01*
X10048Y26121D01*
X10050Y26121D01*
X10051Y26122D01*
X10054Y26123D01*
X10057Y26125D01*
X10059Y26126D01*
X10059Y26127D01*
X10060Y26127D01*
X10061Y26128D01*
X13113Y29180D01*
X13113Y29181D01*
X13114Y29182D01*
X13116Y29185D01*
X13118Y29188D01*
X13119Y29189D01*
X13119Y29190D01*
X13120Y29193D01*
X13121Y29197D01*
X13121Y29198D01*
X13121Y29199D01*
X13121Y29203D01*
X13121Y29207D01*
X13120Y29208D01*
X13120Y29209D01*
X13119Y29212D01*
X13117Y29216D01*
X13116Y29217D01*
X13113Y29221D01*
X13101Y29233D01*
X13029Y29406D01*
X13029Y29594D01*
X13101Y29767D01*
X13233Y29899D01*
X13406Y29971D01*
X13594Y29971D01*
X13767Y29899D01*
X13899Y29767D01*
X13971Y29594D01*
X13971Y29406D01*
X13899Y29233D01*
X13767Y29101D01*
X13594Y29029D01*
X13429Y29029D01*
X13425Y29029D01*
X13421Y29028D01*
X13420Y29028D01*
X13419Y29028D01*
X13416Y29026D01*
X13412Y29024D01*
X13411Y29023D01*
X13410Y29023D01*
X13408Y29021D01*
X4954Y20567D01*
X4952Y20564D01*
X4950Y20561D01*
X4949Y20560D01*
X4949Y20559D01*
X4948Y20555D01*
X4946Y20552D01*
X4946Y20551D01*
X4946Y20550D01*
X4946Y20549D01*
X4946Y20546D01*
X4946Y4030D01*
X4946Y4029D01*
X4946Y4028D01*
X4947Y4024D01*
X4947Y4021D01*
X4948Y4020D01*
X4948Y4019D01*
X4950Y4015D01*
X4952Y4012D01*
X4953Y4011D01*
X4956Y4008D01*
X4959Y4006D01*
X4960Y4005D01*
X4961Y4005D01*
X4964Y4003D01*
X4968Y4002D01*
X4969Y4002D01*
X4970Y4001D01*
X4975Y4001D01*
X5442Y4001D01*
X5501Y3942D01*
X5501Y3058D01*
X5442Y2999D01*
X4558Y2999D01*
G37*
%LPD*%
%LPC*%
G36*
X24408Y2589D02*
X24408Y2589D01*
X24306Y2692D01*
X22662Y4336D01*
X22659Y4338D01*
X22656Y4340D01*
X22655Y4341D01*
X22654Y4341D01*
X22650Y4342D01*
X22647Y4344D01*
X22646Y4344D01*
X22645Y4344D01*
X22644Y4344D01*
X22641Y4344D01*
X22616Y4344D01*
X22535Y4378D01*
X22473Y4440D01*
X22439Y4521D01*
X22439Y4609D01*
X22473Y4690D01*
X22535Y4752D01*
X22616Y4786D01*
X22704Y4786D01*
X22785Y4752D01*
X22847Y4690D01*
X22881Y4609D01*
X22881Y4584D01*
X22881Y4580D01*
X22882Y4576D01*
X22882Y4575D01*
X22882Y4574D01*
X22884Y4571D01*
X22886Y4567D01*
X22887Y4566D01*
X22887Y4565D01*
X22889Y4563D01*
X24533Y2919D01*
X24536Y2917D01*
X24539Y2915D01*
X24540Y2914D01*
X24541Y2914D01*
X24545Y2913D01*
X24548Y2911D01*
X24549Y2911D01*
X24550Y2911D01*
X24551Y2911D01*
X24554Y2911D01*
X37816Y2911D01*
X37820Y2911D01*
X37824Y2912D01*
X37825Y2912D01*
X37826Y2912D01*
X37829Y2914D01*
X37833Y2916D01*
X37834Y2917D01*
X37835Y2917D01*
X37837Y2919D01*
X38260Y3342D01*
X38263Y3346D01*
X38265Y3350D01*
X38267Y3355D01*
X38268Y3359D01*
X38268Y3364D01*
X38268Y3369D01*
X38266Y3374D01*
X38255Y3400D01*
X38255Y3600D01*
X38331Y3784D01*
X38472Y3925D01*
X38656Y4001D01*
X38856Y4001D01*
X39037Y3925D01*
X39038Y3925D01*
X39042Y3924D01*
X39047Y3923D01*
X39052Y3924D01*
X39056Y3924D01*
X39057Y3924D01*
X39061Y3926D01*
X39065Y3928D01*
X39069Y3932D01*
X39953Y4816D01*
X53361Y4816D01*
X53365Y4816D01*
X53369Y4817D01*
X53370Y4817D01*
X53371Y4817D01*
X53374Y4819D01*
X53378Y4821D01*
X53379Y4822D01*
X53380Y4822D01*
X53382Y4824D01*
X56021Y7463D01*
X56023Y7466D01*
X56024Y7468D01*
X56025Y7468D01*
X56025Y7469D01*
X56026Y7470D01*
X56026Y7471D01*
X56027Y7474D01*
X56028Y7476D01*
X56028Y7477D01*
X56029Y7478D01*
X56029Y7479D01*
X56029Y7480D01*
X56029Y7481D01*
X56029Y7484D01*
X56029Y7544D01*
X56101Y7717D01*
X56233Y7849D01*
X56406Y7921D01*
X56594Y7921D01*
X56767Y7849D01*
X56899Y7717D01*
X56971Y7544D01*
X56971Y7356D01*
X56899Y7183D01*
X56767Y7051D01*
X56594Y6979D01*
X56406Y6979D01*
X56233Y7051D01*
X56169Y7115D01*
X56168Y7116D01*
X56167Y7117D01*
X56164Y7119D01*
X56161Y7121D01*
X56160Y7121D01*
X56159Y7122D01*
X56156Y7123D01*
X56152Y7124D01*
X56151Y7124D01*
X56150Y7124D01*
X56146Y7123D01*
X56142Y7123D01*
X56141Y7123D01*
X56140Y7123D01*
X56137Y7121D01*
X56134Y7120D01*
X56133Y7119D01*
X56132Y7119D01*
X56128Y7115D01*
X53609Y4597D01*
X53507Y4494D01*
X40099Y4494D01*
X40095Y4494D01*
X40091Y4493D01*
X40090Y4493D01*
X40089Y4493D01*
X40086Y4491D01*
X40082Y4489D01*
X40081Y4488D01*
X40080Y4488D01*
X40078Y4486D01*
X39252Y3659D01*
X39251Y3659D01*
X39249Y3655D01*
X39246Y3651D01*
X39245Y3647D01*
X39243Y3642D01*
X39243Y3637D01*
X39244Y3633D01*
X39244Y3632D01*
X39245Y3627D01*
X39257Y3600D01*
X39257Y3400D01*
X39180Y3216D01*
X39040Y3075D01*
X38856Y2999D01*
X38656Y2999D01*
X38473Y3075D01*
X38468Y3076D01*
X38464Y3077D01*
X38463Y3077D01*
X38459Y3077D01*
X38454Y3076D01*
X38450Y3074D01*
X38445Y3072D01*
X38441Y3069D01*
X37962Y2589D01*
X24408Y2589D01*
G37*
%LPD*%
%LPC*%
G36*
X53433Y27149D02*
X53433Y27149D01*
X53374Y27208D01*
X53374Y27401D01*
X53374Y27405D01*
X53373Y27409D01*
X53373Y27410D01*
X53373Y27411D01*
X53371Y27414D01*
X53369Y27418D01*
X53368Y27419D01*
X53368Y27420D01*
X53366Y27422D01*
X53313Y27475D01*
X53279Y27556D01*
X53279Y33396D01*
X53279Y33400D01*
X53278Y33404D01*
X53278Y33405D01*
X53278Y33406D01*
X53276Y33409D01*
X53274Y33413D01*
X53273Y33414D01*
X53273Y33415D01*
X53271Y33417D01*
X51653Y35034D01*
X51653Y35035D01*
X51649Y35037D01*
X51646Y35040D01*
X51645Y35040D01*
X51641Y35041D01*
X51636Y35043D01*
X51632Y35043D01*
X51627Y35042D01*
X51621Y35041D01*
X51594Y35029D01*
X51406Y35029D01*
X51233Y35101D01*
X51101Y35233D01*
X51029Y35406D01*
X51029Y35594D01*
X51101Y35767D01*
X51233Y35899D01*
X51406Y35971D01*
X51594Y35971D01*
X51767Y35899D01*
X51899Y35767D01*
X51971Y35594D01*
X51971Y35406D01*
X51959Y35379D01*
X51959Y35378D01*
X51958Y35374D01*
X51957Y35369D01*
X51958Y35364D01*
X51958Y35360D01*
X51958Y35359D01*
X51960Y35355D01*
X51962Y35351D01*
X51966Y35347D01*
X53621Y33691D01*
X53687Y33625D01*
X53721Y33544D01*
X53721Y30125D01*
X53721Y30121D01*
X53722Y30118D01*
X53722Y30117D01*
X53722Y30116D01*
X53724Y30112D01*
X53726Y30109D01*
X53726Y30108D01*
X53727Y30107D01*
X53730Y30105D01*
X53732Y30102D01*
X53733Y30101D01*
X53734Y30101D01*
X53737Y30099D01*
X53741Y30097D01*
X53742Y30097D01*
X53743Y30097D01*
X53746Y30097D01*
X53750Y30096D01*
X53751Y30096D01*
X53752Y30096D01*
X53756Y30097D01*
X53760Y30098D01*
X53761Y30098D01*
X53765Y30100D01*
X53768Y30102D01*
X53769Y30103D01*
X53772Y30106D01*
X53775Y30109D01*
X53775Y30110D01*
X53775Y30111D01*
X53776Y30112D01*
X53777Y30114D01*
X53788Y30141D01*
X53859Y30212D01*
X53950Y30250D01*
X54050Y30250D01*
X54141Y30212D01*
X54212Y30141D01*
X54250Y30050D01*
X54250Y29950D01*
X54223Y29886D01*
X54222Y29883D01*
X54221Y29880D01*
X54221Y29877D01*
X54221Y29876D01*
X54221Y29875D01*
X54221Y27880D01*
X54221Y27879D01*
X54221Y27878D01*
X54222Y27874D01*
X54222Y27871D01*
X54223Y27870D01*
X54223Y27869D01*
X54225Y27865D01*
X54227Y27862D01*
X54228Y27861D01*
X54231Y27858D01*
X54234Y27856D01*
X54235Y27855D01*
X54236Y27855D01*
X54239Y27853D01*
X54243Y27852D01*
X54244Y27852D01*
X54245Y27851D01*
X54250Y27851D01*
X54567Y27851D01*
X54626Y27792D01*
X54626Y27750D01*
X54626Y27749D01*
X54626Y27748D01*
X54627Y27744D01*
X54627Y27741D01*
X54628Y27740D01*
X54628Y27739D01*
X54630Y27735D01*
X54632Y27732D01*
X54633Y27731D01*
X54636Y27728D01*
X54639Y27726D01*
X54640Y27725D01*
X54641Y27725D01*
X54644Y27723D01*
X54648Y27722D01*
X54649Y27722D01*
X54650Y27721D01*
X54655Y27721D01*
X58416Y27721D01*
X58420Y27721D01*
X58424Y27722D01*
X58425Y27722D01*
X58426Y27722D01*
X58429Y27724D01*
X58433Y27726D01*
X58434Y27727D01*
X58435Y27727D01*
X58437Y27729D01*
X59495Y28787D01*
X59576Y28821D01*
X59596Y28821D01*
X59601Y28822D01*
X59605Y28822D01*
X59609Y28825D01*
X59614Y28827D01*
X59617Y28830D01*
X59620Y28834D01*
X59622Y28838D01*
X59624Y28843D01*
X59624Y28847D01*
X59625Y28852D01*
X59624Y28858D01*
X59621Y28870D01*
X59621Y29130D01*
X59626Y29150D01*
X59634Y29180D01*
X59657Y29267D01*
X59665Y29297D01*
X59688Y29380D01*
X59818Y29605D01*
X60001Y29789D01*
X60226Y29919D01*
X60477Y29986D01*
X60736Y29986D01*
X60987Y29919D01*
X61212Y29789D01*
X61395Y29605D01*
X61525Y29380D01*
X61592Y29130D01*
X61592Y28870D01*
X61585Y28843D01*
X61577Y28814D01*
X61554Y28726D01*
X61546Y28697D01*
X61525Y28620D01*
X61395Y28395D01*
X61212Y28211D01*
X60987Y28081D01*
X60736Y28014D01*
X60477Y28014D01*
X60226Y28081D01*
X60001Y28211D01*
X59830Y28383D01*
X59829Y28383D01*
X59826Y28386D01*
X59822Y28388D01*
X59817Y28390D01*
X59813Y28391D01*
X59812Y28391D01*
X59808Y28391D01*
X59803Y28391D01*
X59798Y28389D01*
X59774Y28379D01*
X59724Y28379D01*
X59720Y28379D01*
X59716Y28378D01*
X59715Y28378D01*
X59714Y28378D01*
X59711Y28376D01*
X59707Y28374D01*
X59706Y28373D01*
X59705Y28373D01*
X59703Y28371D01*
X58645Y27313D01*
X58564Y27279D01*
X54655Y27279D01*
X54654Y27279D01*
X54653Y27279D01*
X54649Y27278D01*
X54646Y27278D01*
X54645Y27277D01*
X54644Y27277D01*
X54640Y27275D01*
X54637Y27273D01*
X54636Y27272D01*
X54633Y27269D01*
X54631Y27266D01*
X54630Y27265D01*
X54630Y27264D01*
X54628Y27261D01*
X54627Y27257D01*
X54627Y27256D01*
X54626Y27255D01*
X54626Y27250D01*
X54626Y27208D01*
X54567Y27149D01*
X54233Y27149D01*
X54221Y27162D01*
X54220Y27162D01*
X54219Y27163D01*
X54216Y27165D01*
X54213Y27167D01*
X54212Y27168D01*
X54211Y27168D01*
X54207Y27169D01*
X54204Y27170D01*
X54203Y27170D01*
X54202Y27170D01*
X54198Y27170D01*
X54194Y27170D01*
X54193Y27169D01*
X54192Y27169D01*
X54189Y27168D01*
X54185Y27166D01*
X54184Y27166D01*
X54183Y27165D01*
X54179Y27162D01*
X54167Y27149D01*
X53833Y27149D01*
X53821Y27162D01*
X53820Y27162D01*
X53819Y27163D01*
X53816Y27165D01*
X53813Y27167D01*
X53812Y27168D01*
X53811Y27168D01*
X53807Y27169D01*
X53804Y27170D01*
X53803Y27170D01*
X53802Y27170D01*
X53798Y27170D01*
X53794Y27170D01*
X53793Y27169D01*
X53792Y27169D01*
X53789Y27168D01*
X53785Y27166D01*
X53784Y27166D01*
X53783Y27165D01*
X53779Y27162D01*
X53767Y27149D01*
X53433Y27149D01*
G37*
%LPD*%
%LPC*%
G36*
X27656Y2999D02*
X27656Y2999D01*
X27472Y3075D01*
X27331Y3216D01*
X27255Y3400D01*
X27255Y3600D01*
X27331Y3784D01*
X27472Y3925D01*
X27656Y4001D01*
X27856Y4001D01*
X27882Y3990D01*
X27887Y3989D01*
X27891Y3988D01*
X27896Y3988D01*
X27901Y3989D01*
X27905Y3991D01*
X27909Y3993D01*
X27910Y3993D01*
X27914Y3996D01*
X28046Y4128D01*
X28048Y4131D01*
X28050Y4134D01*
X28051Y4135D01*
X28051Y4136D01*
X28052Y4140D01*
X28053Y4142D01*
X28054Y4143D01*
X28054Y4144D01*
X28054Y4145D01*
X28054Y4146D01*
X28054Y4149D01*
X28054Y10627D01*
X28157Y10729D01*
X30151Y12723D01*
X30153Y12726D01*
X30155Y12729D01*
X30156Y12730D01*
X30156Y12731D01*
X30157Y12735D01*
X30159Y12738D01*
X30159Y12739D01*
X30159Y12740D01*
X30159Y12741D01*
X30159Y12744D01*
X30159Y13308D01*
X30211Y13433D01*
X30307Y13529D01*
X30432Y13581D01*
X30568Y13581D01*
X30693Y13529D01*
X30789Y13433D01*
X30841Y13308D01*
X30841Y12692D01*
X30789Y12567D01*
X30693Y12471D01*
X30568Y12419D01*
X30432Y12419D01*
X30358Y12450D01*
X30353Y12451D01*
X30349Y12452D01*
X30348Y12452D01*
X30344Y12452D01*
X30339Y12451D01*
X30335Y12449D01*
X30330Y12447D01*
X30326Y12444D01*
X28384Y10502D01*
X28382Y10499D01*
X28380Y10496D01*
X28379Y10495D01*
X28379Y10494D01*
X28378Y10490D01*
X28376Y10487D01*
X28376Y10486D01*
X28376Y10485D01*
X28376Y10484D01*
X28376Y10481D01*
X28376Y4338D01*
X28376Y4336D01*
X28376Y4334D01*
X28377Y4331D01*
X28377Y4328D01*
X28378Y4326D01*
X28379Y4325D01*
X28381Y4322D01*
X28382Y4320D01*
X28383Y4318D01*
X28384Y4317D01*
X28387Y4315D01*
X28389Y4313D01*
X28391Y4312D01*
X28392Y4311D01*
X28395Y4310D01*
X28398Y4309D01*
X28400Y4309D01*
X28401Y4309D01*
X28404Y4309D01*
X28407Y4308D01*
X28409Y4309D01*
X28411Y4309D01*
X28416Y4311D01*
X28501Y4346D01*
X28526Y4346D01*
X28530Y4346D01*
X28534Y4347D01*
X28535Y4347D01*
X28536Y4347D01*
X28539Y4349D01*
X28543Y4351D01*
X28544Y4352D01*
X28545Y4352D01*
X28547Y4354D01*
X35191Y10998D01*
X35193Y11001D01*
X35195Y11004D01*
X35196Y11005D01*
X35196Y11006D01*
X35197Y11010D01*
X35199Y11013D01*
X35199Y11014D01*
X35199Y11015D01*
X35199Y11016D01*
X35199Y11019D01*
X35199Y11044D01*
X35233Y11125D01*
X35295Y11187D01*
X35376Y11221D01*
X35464Y11221D01*
X35545Y11187D01*
X35607Y11125D01*
X35641Y11044D01*
X35641Y10956D01*
X35607Y10875D01*
X35545Y10813D01*
X35464Y10779D01*
X35439Y10779D01*
X35435Y10779D01*
X35431Y10778D01*
X35430Y10778D01*
X35429Y10778D01*
X35426Y10776D01*
X35422Y10774D01*
X35421Y10773D01*
X35420Y10773D01*
X35418Y10771D01*
X31932Y7285D01*
X31930Y7282D01*
X31927Y7279D01*
X31927Y7278D01*
X31927Y7277D01*
X31925Y7273D01*
X31924Y7270D01*
X31924Y7269D01*
X31924Y7268D01*
X31924Y7264D01*
X31924Y7260D01*
X31924Y7259D01*
X31924Y7258D01*
X31926Y7255D01*
X31927Y7251D01*
X31927Y7250D01*
X31928Y7249D01*
X31930Y7246D01*
X31932Y7243D01*
X31933Y7243D01*
X31934Y7242D01*
X31937Y7240D01*
X31940Y7238D01*
X31941Y7238D01*
X31942Y7237D01*
X31946Y7236D01*
X31949Y7235D01*
X31950Y7235D01*
X31951Y7235D01*
X31955Y7235D01*
X31959Y7236D01*
X31960Y7236D01*
X31961Y7236D01*
X31964Y7237D01*
X32021Y7261D01*
X32109Y7261D01*
X32190Y7227D01*
X32252Y7165D01*
X32286Y7084D01*
X32286Y7059D01*
X32286Y7055D01*
X32287Y7051D01*
X32287Y7050D01*
X32287Y7049D01*
X32289Y7046D01*
X32291Y7042D01*
X32292Y7041D01*
X32292Y7040D01*
X32294Y7038D01*
X35449Y3883D01*
X35452Y3881D01*
X35454Y3879D01*
X35456Y3879D01*
X35457Y3877D01*
X35460Y3877D01*
X35463Y3875D01*
X35464Y3875D01*
X35466Y3875D01*
X35469Y3875D01*
X35472Y3875D01*
X35474Y3875D01*
X35476Y3875D01*
X35479Y3876D01*
X35481Y3877D01*
X35483Y3878D01*
X35485Y3878D01*
X35487Y3880D01*
X35489Y3882D01*
X35491Y3883D01*
X35492Y3885D01*
X35494Y3887D01*
X35495Y3889D01*
X35496Y3891D01*
X35497Y3893D01*
X35498Y3896D01*
X35499Y3898D01*
X35499Y3901D01*
X35499Y3902D01*
X35499Y3903D01*
X35499Y3904D01*
X35499Y3942D01*
X35558Y4001D01*
X36442Y4001D01*
X36501Y3942D01*
X36501Y3058D01*
X36442Y2999D01*
X35558Y2999D01*
X35499Y3058D01*
X35499Y3366D01*
X35499Y3370D01*
X35498Y3374D01*
X35498Y3375D01*
X35498Y3376D01*
X35496Y3379D01*
X35494Y3383D01*
X35493Y3384D01*
X35493Y3385D01*
X35491Y3387D01*
X32067Y6811D01*
X32064Y6813D01*
X32061Y6815D01*
X32060Y6816D01*
X32059Y6816D01*
X32055Y6817D01*
X32052Y6819D01*
X32051Y6819D01*
X32050Y6819D01*
X32049Y6819D01*
X32046Y6819D01*
X32021Y6819D01*
X31940Y6853D01*
X31878Y6915D01*
X31844Y6996D01*
X31844Y7084D01*
X31868Y7141D01*
X31869Y7145D01*
X31870Y7148D01*
X31870Y7149D01*
X31870Y7150D01*
X31870Y7154D01*
X31870Y7158D01*
X31869Y7159D01*
X31869Y7160D01*
X31867Y7163D01*
X31866Y7167D01*
X31866Y7168D01*
X31865Y7169D01*
X31862Y7171D01*
X31860Y7174D01*
X31859Y7175D01*
X31855Y7177D01*
X31852Y7179D01*
X31851Y7179D01*
X31850Y7180D01*
X31846Y7181D01*
X31843Y7181D01*
X31842Y7181D01*
X31841Y7181D01*
X31837Y7181D01*
X31833Y7180D01*
X31832Y7180D01*
X31831Y7180D01*
X31828Y7178D01*
X31824Y7176D01*
X31823Y7175D01*
X31822Y7175D01*
X31820Y7173D01*
X28774Y4127D01*
X28772Y4124D01*
X28770Y4121D01*
X28769Y4120D01*
X28769Y4119D01*
X28768Y4115D01*
X28766Y4112D01*
X28766Y4111D01*
X28766Y4110D01*
X28766Y4109D01*
X28766Y4106D01*
X28766Y4081D01*
X28732Y4000D01*
X28670Y3938D01*
X28589Y3904D01*
X28501Y3904D01*
X28420Y3938D01*
X28386Y3972D01*
X28385Y3973D01*
X28384Y3973D01*
X28381Y3975D01*
X28378Y3978D01*
X28377Y3978D01*
X28376Y3978D01*
X28372Y3979D01*
X28369Y3980D01*
X28368Y3980D01*
X28367Y3981D01*
X28363Y3980D01*
X28359Y3980D01*
X28358Y3980D01*
X28357Y3980D01*
X28354Y3978D01*
X28350Y3977D01*
X28350Y3976D01*
X28349Y3976D01*
X28344Y3972D01*
X28187Y3815D01*
X28184Y3811D01*
X28182Y3807D01*
X28181Y3807D01*
X28180Y3802D01*
X28179Y3798D01*
X28179Y3793D01*
X28179Y3788D01*
X28181Y3783D01*
X28257Y3600D01*
X28257Y3400D01*
X28180Y3216D01*
X28040Y3075D01*
X27856Y2999D01*
X27656Y2999D01*
G37*
%LPD*%
%LPC*%
G36*
X49359Y18159D02*
X49359Y18159D01*
X49159Y18359D01*
X49159Y18641D01*
X49331Y18813D01*
X49333Y18815D01*
X49334Y18817D01*
X49335Y18819D01*
X49336Y18820D01*
X49337Y18824D01*
X49339Y18828D01*
X49339Y18829D01*
X49339Y18830D01*
X49339Y18833D01*
X49339Y20545D01*
X49339Y20546D01*
X49339Y20547D01*
X49338Y20551D01*
X49338Y20554D01*
X49337Y20555D01*
X49337Y20556D01*
X49335Y20560D01*
X49333Y20563D01*
X49332Y20564D01*
X49329Y20567D01*
X49326Y20569D01*
X49325Y20570D01*
X49324Y20570D01*
X49321Y20572D01*
X49317Y20573D01*
X49316Y20573D01*
X49315Y20574D01*
X49310Y20574D01*
X49208Y20574D01*
X49149Y20633D01*
X49149Y20967D01*
X49162Y20979D01*
X49162Y20980D01*
X49163Y20981D01*
X49165Y20984D01*
X49167Y20987D01*
X49168Y20988D01*
X49168Y20989D01*
X49169Y20993D01*
X49170Y20996D01*
X49170Y20997D01*
X49170Y20998D01*
X49170Y21002D01*
X49170Y21006D01*
X49169Y21007D01*
X49169Y21008D01*
X49168Y21011D01*
X49166Y21015D01*
X49166Y21016D01*
X49165Y21017D01*
X49162Y21021D01*
X49149Y21033D01*
X49149Y21367D01*
X49208Y21426D01*
X49310Y21426D01*
X49311Y21426D01*
X49312Y21426D01*
X49316Y21427D01*
X49319Y21427D01*
X49320Y21428D01*
X49321Y21428D01*
X49325Y21430D01*
X49328Y21432D01*
X49329Y21433D01*
X49332Y21436D01*
X49334Y21439D01*
X49335Y21440D01*
X49335Y21441D01*
X49337Y21444D01*
X49338Y21448D01*
X49338Y21449D01*
X49339Y21450D01*
X49339Y21455D01*
X49339Y23167D01*
X49339Y23171D01*
X49338Y23175D01*
X49338Y23176D01*
X49336Y23180D01*
X49334Y23183D01*
X49333Y23184D01*
X49333Y23185D01*
X49331Y23187D01*
X49159Y23359D01*
X49159Y23641D01*
X49331Y23813D01*
X49333Y23816D01*
X49335Y23819D01*
X49336Y23820D01*
X49337Y23824D01*
X49339Y23828D01*
X49339Y23829D01*
X49339Y23830D01*
X49339Y23833D01*
X49339Y24561D01*
X49339Y24565D01*
X49338Y24569D01*
X49338Y24570D01*
X49336Y24574D01*
X49334Y24577D01*
X49333Y24578D01*
X49333Y24579D01*
X49331Y24581D01*
X49084Y24828D01*
X49084Y25172D01*
X49328Y25416D01*
X49672Y25416D01*
X49916Y25172D01*
X49916Y24828D01*
X49669Y24581D01*
X49667Y24578D01*
X49665Y24575D01*
X49664Y24574D01*
X49663Y24570D01*
X49661Y24566D01*
X49661Y24565D01*
X49661Y24564D01*
X49661Y24561D01*
X49661Y23833D01*
X49661Y23832D01*
X49661Y23831D01*
X49661Y23829D01*
X49662Y23825D01*
X49662Y23824D01*
X49664Y23820D01*
X49666Y23817D01*
X49667Y23816D01*
X49667Y23815D01*
X49669Y23813D01*
X49841Y23641D01*
X49841Y23359D01*
X49669Y23187D01*
X49667Y23184D01*
X49665Y23181D01*
X49664Y23180D01*
X49663Y23176D01*
X49661Y23172D01*
X49661Y23171D01*
X49661Y23170D01*
X49661Y23167D01*
X49661Y21455D01*
X49661Y21454D01*
X49661Y21453D01*
X49662Y21449D01*
X49662Y21446D01*
X49663Y21445D01*
X49663Y21444D01*
X49665Y21440D01*
X49667Y21437D01*
X49668Y21436D01*
X49671Y21433D01*
X49674Y21431D01*
X49675Y21430D01*
X49676Y21430D01*
X49679Y21428D01*
X49683Y21427D01*
X49684Y21427D01*
X49685Y21426D01*
X49690Y21426D01*
X49792Y21426D01*
X49851Y21367D01*
X49851Y21033D01*
X49838Y21021D01*
X49838Y21020D01*
X49837Y21019D01*
X49835Y21016D01*
X49833Y21013D01*
X49832Y21012D01*
X49832Y21011D01*
X49831Y21007D01*
X49830Y21004D01*
X49830Y21003D01*
X49830Y21002D01*
X49830Y20998D01*
X49830Y20994D01*
X49831Y20993D01*
X49831Y20992D01*
X49832Y20989D01*
X49834Y20985D01*
X49834Y20984D01*
X49835Y20983D01*
X49838Y20979D01*
X49851Y20967D01*
X49851Y20633D01*
X49792Y20574D01*
X49690Y20574D01*
X49689Y20574D01*
X49688Y20574D01*
X49684Y20573D01*
X49681Y20573D01*
X49680Y20572D01*
X49679Y20572D01*
X49675Y20570D01*
X49672Y20568D01*
X49671Y20567D01*
X49668Y20564D01*
X49666Y20561D01*
X49665Y20560D01*
X49665Y20559D01*
X49663Y20556D01*
X49662Y20552D01*
X49662Y20551D01*
X49661Y20550D01*
X49661Y20545D01*
X49661Y18884D01*
X49661Y18881D01*
X49661Y18878D01*
X49662Y18876D01*
X49662Y18874D01*
X49664Y18872D01*
X49665Y18869D01*
X49666Y18867D01*
X49667Y18866D01*
X49669Y18864D01*
X49671Y18862D01*
X49672Y18861D01*
X49674Y18859D01*
X49677Y18858D01*
X49679Y18857D01*
X49681Y18856D01*
X49683Y18855D01*
X49685Y18855D01*
X49688Y18854D01*
X49690Y18855D01*
X49692Y18855D01*
X49695Y18855D01*
X49698Y18856D01*
X49700Y18856D01*
X49701Y18857D01*
X49704Y18858D01*
X49707Y18860D01*
X49709Y18861D01*
X49709Y18862D01*
X49710Y18862D01*
X49711Y18863D01*
X49991Y19143D01*
X49993Y19146D01*
X49995Y19149D01*
X49996Y19150D01*
X49996Y19151D01*
X49997Y19155D01*
X49999Y19158D01*
X49999Y19159D01*
X49999Y19160D01*
X49999Y19161D01*
X49999Y19164D01*
X49999Y35102D01*
X50096Y35198D01*
X50099Y35202D01*
X50101Y35206D01*
X50102Y35206D01*
X50103Y35211D01*
X50104Y35215D01*
X50104Y35220D01*
X50104Y35225D01*
X50102Y35230D01*
X50029Y35406D01*
X50029Y35594D01*
X50101Y35767D01*
X50233Y35899D01*
X50406Y35971D01*
X50594Y35971D01*
X50767Y35899D01*
X50899Y35767D01*
X50971Y35594D01*
X50971Y35406D01*
X50899Y35233D01*
X50767Y35101D01*
X50594Y35029D01*
X50406Y35029D01*
X50402Y35030D01*
X50398Y35031D01*
X50397Y35031D01*
X50393Y35031D01*
X50388Y35030D01*
X50384Y35028D01*
X50379Y35026D01*
X50375Y35023D01*
X50329Y34977D01*
X50327Y34974D01*
X50325Y34971D01*
X50324Y34970D01*
X50324Y34969D01*
X50323Y34965D01*
X50321Y34962D01*
X50321Y34961D01*
X50321Y34960D01*
X50321Y34959D01*
X50321Y34956D01*
X50321Y19018D01*
X49849Y18547D01*
X49847Y18544D01*
X49845Y18541D01*
X49844Y18540D01*
X49844Y18539D01*
X49843Y18535D01*
X49841Y18532D01*
X49841Y18531D01*
X49841Y18530D01*
X49841Y18529D01*
X49841Y18526D01*
X49841Y18359D01*
X49641Y18159D01*
X49359Y18159D01*
G37*
%LPD*%
%LPC*%
G36*
X37278Y2999D02*
X37278Y2999D01*
X37094Y3075D01*
X36953Y3216D01*
X36877Y3400D01*
X36877Y3600D01*
X36885Y3618D01*
X36886Y3622D01*
X36887Y3627D01*
X36886Y3632D01*
X36886Y3636D01*
X36886Y3637D01*
X36884Y3641D01*
X36882Y3645D01*
X36878Y3649D01*
X36192Y4336D01*
X36189Y4338D01*
X36186Y4340D01*
X36185Y4341D01*
X36184Y4341D01*
X36180Y4342D01*
X36177Y4344D01*
X36176Y4344D01*
X36175Y4344D01*
X36174Y4344D01*
X36171Y4344D01*
X36146Y4344D01*
X36065Y4378D01*
X36003Y4440D01*
X35969Y4521D01*
X35969Y4609D01*
X36003Y4690D01*
X36065Y4752D01*
X36146Y4786D01*
X36234Y4786D01*
X36315Y4752D01*
X36377Y4690D01*
X36411Y4609D01*
X36411Y4584D01*
X36411Y4580D01*
X36412Y4576D01*
X36412Y4575D01*
X36412Y4574D01*
X36414Y4571D01*
X36416Y4567D01*
X36417Y4566D01*
X36417Y4565D01*
X36419Y4563D01*
X37055Y3927D01*
X37056Y3926D01*
X37057Y3926D01*
X37060Y3924D01*
X37063Y3921D01*
X37064Y3921D01*
X37065Y3921D01*
X37069Y3920D01*
X37072Y3919D01*
X37073Y3919D01*
X37074Y3918D01*
X37078Y3919D01*
X37082Y3919D01*
X37083Y3919D01*
X37084Y3919D01*
X37087Y3921D01*
X37091Y3922D01*
X37092Y3923D01*
X37093Y3924D01*
X37278Y4001D01*
X37478Y4001D01*
X37662Y3925D01*
X37662Y3924D01*
X37666Y3923D01*
X37671Y3922D01*
X37676Y3923D01*
X37680Y3923D01*
X37681Y3923D01*
X37685Y3925D01*
X37689Y3927D01*
X37694Y3931D01*
X39098Y5336D01*
X53001Y5336D01*
X53005Y5336D01*
X53009Y5337D01*
X53010Y5337D01*
X53011Y5337D01*
X53014Y5339D01*
X53018Y5341D01*
X53019Y5342D01*
X53020Y5342D01*
X53022Y5344D01*
X56021Y8343D01*
X56023Y8346D01*
X56025Y8349D01*
X56026Y8350D01*
X56026Y8351D01*
X56027Y8355D01*
X56029Y8358D01*
X56029Y8359D01*
X56029Y8360D01*
X56029Y8361D01*
X56029Y8364D01*
X56029Y8544D01*
X56101Y8717D01*
X56233Y8849D01*
X56406Y8921D01*
X56594Y8921D01*
X56767Y8849D01*
X56899Y8717D01*
X56971Y8544D01*
X56971Y8356D01*
X56899Y8183D01*
X56767Y8051D01*
X56594Y7979D01*
X56406Y7979D01*
X56233Y8051D01*
X56229Y8055D01*
X56228Y8056D01*
X56227Y8057D01*
X56224Y8059D01*
X56221Y8061D01*
X56220Y8061D01*
X56219Y8062D01*
X56216Y8063D01*
X56212Y8064D01*
X56211Y8064D01*
X56210Y8064D01*
X56206Y8063D01*
X56202Y8063D01*
X56201Y8063D01*
X56200Y8063D01*
X56197Y8061D01*
X56194Y8060D01*
X56193Y8059D01*
X56192Y8059D01*
X56188Y8055D01*
X53249Y5117D01*
X53147Y5014D01*
X39244Y5014D01*
X39240Y5014D01*
X39236Y5013D01*
X39235Y5013D01*
X39234Y5013D01*
X39231Y5011D01*
X39227Y5009D01*
X39226Y5008D01*
X39225Y5008D01*
X39223Y5006D01*
X37874Y3657D01*
X37872Y3653D01*
X37869Y3649D01*
X37867Y3645D01*
X37866Y3640D01*
X37866Y3635D01*
X37866Y3631D01*
X37866Y3630D01*
X37868Y3625D01*
X37879Y3600D01*
X37879Y3400D01*
X37802Y3216D01*
X37662Y3075D01*
X37478Y2999D01*
X37278Y2999D01*
G37*
%LPD*%
%LPC*%
G36*
X36806Y33054D02*
X36806Y33054D01*
X36725Y33088D01*
X36663Y33150D01*
X36629Y33231D01*
X36629Y33319D01*
X36663Y33400D01*
X36725Y33462D01*
X36806Y33496D01*
X36894Y33496D01*
X36975Y33462D01*
X36993Y33444D01*
X36996Y33442D01*
X36999Y33440D01*
X37000Y33439D01*
X37001Y33439D01*
X37004Y33438D01*
X37008Y33436D01*
X37009Y33436D01*
X37010Y33436D01*
X37011Y33436D01*
X37014Y33436D01*
X40181Y33436D01*
X40185Y33436D01*
X40189Y33437D01*
X40190Y33437D01*
X40191Y33437D01*
X40194Y33439D01*
X40198Y33441D01*
X40199Y33442D01*
X40200Y33442D01*
X40202Y33444D01*
X43163Y36406D01*
X56827Y36406D01*
X57303Y35929D01*
X57307Y35927D01*
X57311Y35924D01*
X57315Y35922D01*
X57320Y35921D01*
X57325Y35921D01*
X57329Y35921D01*
X57330Y35921D01*
X57335Y35923D01*
X57522Y36001D01*
X57722Y36001D01*
X57906Y35925D01*
X58047Y35784D01*
X58123Y35600D01*
X58123Y35400D01*
X58047Y35216D01*
X57906Y35075D01*
X57722Y34999D01*
X57522Y34999D01*
X57338Y35075D01*
X57198Y35216D01*
X57121Y35400D01*
X57121Y35600D01*
X57130Y35622D01*
X57131Y35622D01*
X57132Y35626D01*
X57133Y35631D01*
X57132Y35636D01*
X57132Y35641D01*
X57130Y35645D01*
X57128Y35649D01*
X57124Y35654D01*
X56702Y36076D01*
X56699Y36078D01*
X56696Y36080D01*
X56695Y36081D01*
X56694Y36081D01*
X56690Y36082D01*
X56687Y36084D01*
X56686Y36084D01*
X56685Y36084D01*
X56684Y36084D01*
X56681Y36084D01*
X43309Y36084D01*
X43305Y36084D01*
X43301Y36083D01*
X43300Y36083D01*
X43299Y36083D01*
X43296Y36081D01*
X43292Y36079D01*
X43291Y36078D01*
X43290Y36078D01*
X43288Y36076D01*
X40327Y33114D01*
X37014Y33114D01*
X37010Y33114D01*
X37006Y33113D01*
X37005Y33113D01*
X37004Y33113D01*
X37001Y33111D01*
X36997Y33109D01*
X36996Y33108D01*
X36995Y33108D01*
X36993Y33106D01*
X36975Y33088D01*
X36894Y33054D01*
X36806Y33054D01*
G37*
%LPD*%
%LPC*%
G36*
X40034Y2999D02*
X40034Y2999D01*
X39850Y3075D01*
X39709Y3216D01*
X39633Y3400D01*
X39633Y3600D01*
X39709Y3784D01*
X39850Y3925D01*
X40034Y4001D01*
X40233Y4001D01*
X40413Y3926D01*
X40414Y3926D01*
X40418Y3925D01*
X40423Y3924D01*
X40427Y3925D01*
X40432Y3925D01*
X40437Y3927D01*
X40441Y3929D01*
X40445Y3933D01*
X40908Y4396D01*
X54096Y4396D01*
X54100Y4396D01*
X54104Y4397D01*
X54105Y4397D01*
X54106Y4397D01*
X54109Y4399D01*
X54113Y4401D01*
X54114Y4402D01*
X54115Y4402D01*
X54117Y4404D01*
X56027Y6314D01*
X56027Y6315D01*
X56030Y6318D01*
X56033Y6322D01*
X56034Y6327D01*
X56035Y6331D01*
X56035Y6332D01*
X56035Y6336D01*
X56035Y6341D01*
X56033Y6346D01*
X56029Y6356D01*
X56029Y6544D01*
X56101Y6717D01*
X56233Y6849D01*
X56406Y6921D01*
X56594Y6921D01*
X56767Y6849D01*
X56899Y6717D01*
X56971Y6544D01*
X56971Y6356D01*
X56899Y6183D01*
X56767Y6051D01*
X56594Y5979D01*
X56406Y5979D01*
X56241Y6048D01*
X56236Y6049D01*
X56231Y6050D01*
X56227Y6050D01*
X56222Y6049D01*
X56218Y6047D01*
X56213Y6045D01*
X56209Y6042D01*
X54344Y4177D01*
X54242Y4074D01*
X41054Y4074D01*
X41050Y4074D01*
X41046Y4073D01*
X41045Y4073D01*
X41044Y4073D01*
X41041Y4071D01*
X41037Y4069D01*
X41036Y4068D01*
X41035Y4068D01*
X41033Y4066D01*
X40629Y3661D01*
X40628Y3661D01*
X40626Y3657D01*
X40623Y3653D01*
X40622Y3649D01*
X40620Y3644D01*
X40620Y3640D01*
X40621Y3635D01*
X40622Y3629D01*
X40635Y3600D01*
X40635Y3400D01*
X40558Y3216D01*
X40418Y3075D01*
X40233Y2999D01*
X40034Y2999D01*
G37*
%LPD*%
%LPC*%
G36*
X56406Y8979D02*
X56406Y8979D01*
X56233Y9051D01*
X56101Y9183D01*
X56029Y9356D01*
X56029Y9544D01*
X56101Y9717D01*
X56233Y9849D01*
X56406Y9921D01*
X56594Y9921D01*
X56742Y9859D01*
X56746Y9858D01*
X56751Y9857D01*
X56756Y9858D01*
X56760Y9858D01*
X56761Y9858D01*
X56765Y9860D01*
X56769Y9862D01*
X56773Y9866D01*
X60331Y13423D01*
X60333Y13426D01*
X60335Y13429D01*
X60336Y13430D01*
X60336Y13431D01*
X60337Y13435D01*
X60339Y13438D01*
X60339Y13439D01*
X60339Y13440D01*
X60339Y13441D01*
X60339Y13444D01*
X60339Y18133D01*
X60339Y18134D01*
X60339Y18135D01*
X60338Y18138D01*
X60338Y18142D01*
X60337Y18143D01*
X60337Y18144D01*
X60335Y18147D01*
X60333Y18150D01*
X60332Y18151D01*
X60332Y18152D01*
X60329Y18154D01*
X60326Y18157D01*
X60325Y18157D01*
X60324Y18158D01*
X60321Y18159D01*
X60317Y18161D01*
X60316Y18161D01*
X60315Y18161D01*
X60310Y18162D01*
X60195Y18162D01*
X60071Y18213D01*
X59976Y18308D01*
X59924Y18433D01*
X59924Y18567D01*
X59976Y18692D01*
X60071Y18787D01*
X60195Y18838D01*
X60805Y18838D01*
X60929Y18787D01*
X61024Y18692D01*
X61076Y18567D01*
X61076Y18433D01*
X61024Y18308D01*
X60929Y18213D01*
X60805Y18162D01*
X60690Y18162D01*
X60689Y18162D01*
X60688Y18162D01*
X60684Y18161D01*
X60681Y18160D01*
X60680Y18160D01*
X60679Y18159D01*
X60675Y18157D01*
X60672Y18156D01*
X60671Y18155D01*
X60671Y18154D01*
X60668Y18151D01*
X60666Y18149D01*
X60665Y18148D01*
X60665Y18147D01*
X60663Y18143D01*
X60662Y18140D01*
X60662Y18139D01*
X60661Y18138D01*
X60661Y18133D01*
X60661Y13298D01*
X56966Y9603D01*
X56965Y9603D01*
X56963Y9599D01*
X56960Y9595D01*
X56959Y9591D01*
X56957Y9586D01*
X56957Y9582D01*
X56958Y9577D01*
X56959Y9571D01*
X56971Y9544D01*
X56971Y9356D01*
X56899Y9183D01*
X56767Y9051D01*
X56594Y8979D01*
X56406Y8979D01*
G37*
%LPD*%
%LPC*%
G36*
X38851Y13749D02*
X38851Y13749D01*
X38575Y13864D01*
X38364Y14075D01*
X38249Y14351D01*
X38249Y14649D01*
X38250Y14652D01*
X38251Y14657D01*
X38252Y14661D01*
X38253Y14661D01*
X38252Y14666D01*
X38252Y14671D01*
X38251Y14671D01*
X38250Y14675D01*
X38248Y14679D01*
X38247Y14680D01*
X38244Y14684D01*
X37152Y15776D01*
X37149Y15778D01*
X37146Y15780D01*
X37145Y15781D01*
X37144Y15781D01*
X37141Y15782D01*
X37137Y15784D01*
X37136Y15784D01*
X37135Y15784D01*
X37134Y15784D01*
X37131Y15784D01*
X34870Y15784D01*
X34869Y15784D01*
X34868Y15784D01*
X34864Y15783D01*
X34861Y15783D01*
X34860Y15782D01*
X34859Y15782D01*
X34855Y15780D01*
X34852Y15778D01*
X34851Y15777D01*
X34848Y15774D01*
X34846Y15771D01*
X34845Y15770D01*
X34845Y15769D01*
X34843Y15766D01*
X34842Y15762D01*
X34842Y15761D01*
X34841Y15760D01*
X34841Y15755D01*
X34841Y15692D01*
X34789Y15567D01*
X34693Y15471D01*
X34568Y15419D01*
X34432Y15419D01*
X34307Y15471D01*
X34211Y15567D01*
X34159Y15692D01*
X34159Y16308D01*
X34211Y16433D01*
X34307Y16529D01*
X34432Y16581D01*
X34568Y16581D01*
X34693Y16529D01*
X34789Y16433D01*
X34841Y16308D01*
X34841Y16255D01*
X34841Y16254D01*
X34841Y16253D01*
X34842Y16249D01*
X34842Y16246D01*
X34843Y16245D01*
X34843Y16244D01*
X34845Y16240D01*
X34847Y16237D01*
X34848Y16236D01*
X34851Y16233D01*
X34854Y16231D01*
X34855Y16230D01*
X34856Y16230D01*
X34859Y16228D01*
X34863Y16227D01*
X34864Y16227D01*
X34865Y16226D01*
X34870Y16226D01*
X37279Y16226D01*
X37360Y16192D01*
X38475Y15078D01*
X38475Y15077D01*
X38476Y15076D01*
X38479Y15074D01*
X38482Y15072D01*
X38483Y15072D01*
X38484Y15071D01*
X38488Y15070D01*
X38491Y15069D01*
X38493Y15069D01*
X38494Y15069D01*
X38497Y15070D01*
X38501Y15070D01*
X38502Y15070D01*
X38503Y15070D01*
X38506Y15072D01*
X38510Y15073D01*
X38511Y15074D01*
X38512Y15074D01*
X38516Y15078D01*
X38575Y15136D01*
X38851Y15251D01*
X39149Y15251D01*
X39425Y15136D01*
X39636Y14925D01*
X39751Y14649D01*
X39751Y14351D01*
X39636Y14075D01*
X39425Y13864D01*
X39149Y13749D01*
X38851Y13749D01*
G37*
%LPD*%
%LPC*%
G36*
X47359Y18159D02*
X47359Y18159D01*
X47159Y18359D01*
X47159Y18641D01*
X47331Y18813D01*
X47333Y18815D01*
X47334Y18817D01*
X47335Y18819D01*
X47336Y18820D01*
X47337Y18824D01*
X47339Y18828D01*
X47339Y18829D01*
X47339Y18830D01*
X47339Y18833D01*
X47339Y20545D01*
X47339Y20546D01*
X47339Y20547D01*
X47338Y20551D01*
X47338Y20554D01*
X47337Y20555D01*
X47337Y20556D01*
X47335Y20560D01*
X47333Y20563D01*
X47332Y20564D01*
X47329Y20567D01*
X47326Y20569D01*
X47325Y20570D01*
X47324Y20570D01*
X47321Y20572D01*
X47317Y20573D01*
X47316Y20573D01*
X47315Y20574D01*
X47310Y20574D01*
X47208Y20574D01*
X47149Y20633D01*
X47149Y20967D01*
X47162Y20979D01*
X47162Y20980D01*
X47163Y20981D01*
X47165Y20984D01*
X47167Y20987D01*
X47168Y20988D01*
X47168Y20989D01*
X47169Y20993D01*
X47170Y20996D01*
X47170Y20997D01*
X47170Y20998D01*
X47170Y21002D01*
X47170Y21006D01*
X47169Y21007D01*
X47169Y21008D01*
X47168Y21011D01*
X47166Y21015D01*
X47166Y21016D01*
X47165Y21017D01*
X47162Y21021D01*
X47149Y21033D01*
X47149Y21367D01*
X47208Y21426D01*
X47310Y21426D01*
X47311Y21426D01*
X47312Y21426D01*
X47316Y21427D01*
X47319Y21427D01*
X47320Y21428D01*
X47321Y21428D01*
X47325Y21430D01*
X47328Y21432D01*
X47329Y21433D01*
X47332Y21436D01*
X47334Y21439D01*
X47335Y21440D01*
X47335Y21441D01*
X47337Y21444D01*
X47338Y21448D01*
X47338Y21449D01*
X47339Y21450D01*
X47339Y21455D01*
X47339Y23167D01*
X47339Y23171D01*
X47338Y23175D01*
X47338Y23176D01*
X47336Y23180D01*
X47334Y23183D01*
X47333Y23184D01*
X47333Y23185D01*
X47331Y23187D01*
X47159Y23359D01*
X47159Y23641D01*
X47351Y23833D01*
X47353Y23836D01*
X47355Y23839D01*
X47356Y23840D01*
X47357Y23844D01*
X47359Y23848D01*
X47359Y23849D01*
X47359Y23850D01*
X47359Y23853D01*
X47359Y24555D01*
X47359Y24556D01*
X47359Y24557D01*
X47358Y24561D01*
X47358Y24564D01*
X47357Y24565D01*
X47357Y24566D01*
X47355Y24570D01*
X47353Y24573D01*
X47352Y24574D01*
X47349Y24577D01*
X47346Y24579D01*
X47345Y24580D01*
X47344Y24580D01*
X47341Y24582D01*
X47337Y24583D01*
X47336Y24583D01*
X47335Y24584D01*
X47330Y24584D01*
X47328Y24584D01*
X47084Y24828D01*
X47084Y25172D01*
X47328Y25416D01*
X47672Y25416D01*
X47916Y25172D01*
X47916Y24828D01*
X47689Y24601D01*
X47687Y24598D01*
X47685Y24595D01*
X47684Y24594D01*
X47683Y24590D01*
X47681Y24586D01*
X47681Y24585D01*
X47681Y24584D01*
X47681Y24581D01*
X47681Y23813D01*
X47681Y23809D01*
X47682Y23805D01*
X47682Y23804D01*
X47684Y23800D01*
X47686Y23797D01*
X47687Y23796D01*
X47687Y23795D01*
X47689Y23793D01*
X47841Y23641D01*
X47841Y23359D01*
X47669Y23187D01*
X47667Y23184D01*
X47665Y23181D01*
X47664Y23180D01*
X47663Y23176D01*
X47661Y23172D01*
X47661Y23171D01*
X47661Y23170D01*
X47661Y23167D01*
X47661Y21455D01*
X47661Y21454D01*
X47661Y21453D01*
X47662Y21449D01*
X47662Y21446D01*
X47663Y21445D01*
X47663Y21444D01*
X47665Y21440D01*
X47667Y21437D01*
X47668Y21436D01*
X47671Y21433D01*
X47674Y21431D01*
X47675Y21430D01*
X47676Y21430D01*
X47679Y21428D01*
X47683Y21427D01*
X47684Y21427D01*
X47685Y21426D01*
X47690Y21426D01*
X47792Y21426D01*
X47851Y21367D01*
X47851Y21033D01*
X47838Y21021D01*
X47838Y21020D01*
X47837Y21019D01*
X47835Y21016D01*
X47833Y21013D01*
X47832Y21012D01*
X47832Y21011D01*
X47831Y21007D01*
X47830Y21004D01*
X47830Y21003D01*
X47830Y21002D01*
X47830Y20998D01*
X47830Y20994D01*
X47831Y20993D01*
X47831Y20992D01*
X47832Y20989D01*
X47834Y20985D01*
X47834Y20984D01*
X47835Y20983D01*
X47838Y20979D01*
X47851Y20967D01*
X47851Y20633D01*
X47792Y20574D01*
X47690Y20574D01*
X47689Y20574D01*
X47688Y20574D01*
X47684Y20573D01*
X47681Y20573D01*
X47680Y20572D01*
X47679Y20572D01*
X47675Y20570D01*
X47672Y20568D01*
X47671Y20567D01*
X47668Y20564D01*
X47666Y20561D01*
X47665Y20560D01*
X47665Y20559D01*
X47663Y20556D01*
X47662Y20552D01*
X47662Y20551D01*
X47661Y20550D01*
X47661Y20545D01*
X47661Y18833D01*
X47661Y18829D01*
X47662Y18825D01*
X47662Y18824D01*
X47664Y18821D01*
X47664Y18820D01*
X47666Y18817D01*
X47667Y18816D01*
X47667Y18815D01*
X47669Y18813D01*
X47841Y18641D01*
X47841Y18359D01*
X47641Y18159D01*
X47359Y18159D01*
G37*
%LPD*%
%LPC*%
G36*
X49450Y31250D02*
X49450Y31250D01*
X49359Y31288D01*
X49288Y31359D01*
X49250Y31450D01*
X49250Y31550D01*
X49277Y31614D01*
X49278Y31617D01*
X49279Y31620D01*
X49279Y31623D01*
X49279Y31624D01*
X49279Y31625D01*
X49279Y33396D01*
X49279Y33400D01*
X49278Y33404D01*
X49278Y33405D01*
X49278Y33406D01*
X49276Y33409D01*
X49274Y33413D01*
X49273Y33414D01*
X49273Y33415D01*
X49271Y33417D01*
X47653Y35034D01*
X47653Y35035D01*
X47649Y35037D01*
X47646Y35040D01*
X47645Y35040D01*
X47641Y35041D01*
X47636Y35043D01*
X47632Y35043D01*
X47627Y35042D01*
X47621Y35041D01*
X47594Y35029D01*
X47406Y35029D01*
X47233Y35101D01*
X47101Y35233D01*
X47029Y35406D01*
X47029Y35594D01*
X47101Y35767D01*
X47233Y35899D01*
X47406Y35971D01*
X47594Y35971D01*
X47767Y35899D01*
X47899Y35767D01*
X47971Y35594D01*
X47971Y35406D01*
X47959Y35379D01*
X47959Y35378D01*
X47958Y35374D01*
X47957Y35369D01*
X47958Y35364D01*
X47958Y35360D01*
X47958Y35359D01*
X47960Y35355D01*
X47962Y35351D01*
X47966Y35347D01*
X49687Y33625D01*
X49721Y33544D01*
X49721Y31625D01*
X49721Y31622D01*
X49721Y31619D01*
X49722Y31617D01*
X49722Y31616D01*
X49723Y31615D01*
X49723Y31614D01*
X49750Y31550D01*
X49750Y31450D01*
X49712Y31359D01*
X49641Y31288D01*
X49550Y31250D01*
X49450Y31250D01*
G37*
%LPD*%
%LPC*%
G36*
X1831Y1149D02*
X1831Y1149D01*
X1518Y1279D01*
X1279Y1518D01*
X1149Y1831D01*
X1149Y2169D01*
X1279Y2482D01*
X1518Y2721D01*
X1831Y2851D01*
X2169Y2851D01*
X2482Y2721D01*
X2721Y2482D01*
X2851Y2169D01*
X2851Y1831D01*
X2721Y1518D01*
X2482Y1279D01*
X2169Y1149D01*
X1831Y1149D01*
G37*
%LPD*%
%LPC*%
G36*
X62831Y37149D02*
X62831Y37149D01*
X62518Y37279D01*
X62279Y37518D01*
X62149Y37831D01*
X62149Y38169D01*
X62279Y38482D01*
X62518Y38721D01*
X62831Y38851D01*
X63169Y38851D01*
X63482Y38721D01*
X63721Y38482D01*
X63851Y38169D01*
X63851Y37831D01*
X63721Y37518D01*
X63482Y37279D01*
X63169Y37149D01*
X62831Y37149D01*
G37*
%LPD*%
%LPC*%
G36*
X62831Y1149D02*
X62831Y1149D01*
X62518Y1279D01*
X62279Y1518D01*
X62149Y1831D01*
X62149Y2169D01*
X62279Y2482D01*
X62518Y2721D01*
X62831Y2851D01*
X63169Y2851D01*
X63482Y2721D01*
X63721Y2482D01*
X63851Y2169D01*
X63851Y1831D01*
X63721Y1518D01*
X63482Y1279D01*
X63169Y1149D01*
X62831Y1149D01*
G37*
%LPD*%
%LPC*%
G36*
X1831Y37149D02*
X1831Y37149D01*
X1518Y37279D01*
X1279Y37518D01*
X1149Y37831D01*
X1149Y38169D01*
X1279Y38482D01*
X1518Y38721D01*
X1831Y38851D01*
X2169Y38851D01*
X2482Y38721D01*
X2721Y38482D01*
X2851Y38169D01*
X2851Y37831D01*
X2721Y37518D01*
X2482Y37279D01*
X2169Y37149D01*
X1831Y37149D01*
G37*
%LPD*%
%LPC*%
G36*
X62351Y15750D02*
X62351Y15750D01*
X62075Y15864D01*
X61864Y16075D01*
X61750Y16351D01*
X61750Y16649D01*
X61864Y16925D01*
X62075Y17136D01*
X62351Y17250D01*
X62649Y17250D01*
X62925Y17136D01*
X63136Y16925D01*
X63250Y16649D01*
X63250Y16351D01*
X63136Y16075D01*
X62925Y15864D01*
X62649Y15750D01*
X62351Y15750D01*
G37*
%LPD*%
%LPC*%
G36*
X62351Y19750D02*
X62351Y19750D01*
X62075Y19864D01*
X61864Y20075D01*
X61750Y20351D01*
X61750Y20649D01*
X61864Y20925D01*
X62075Y21136D01*
X62351Y21250D01*
X62649Y21250D01*
X62925Y21136D01*
X63136Y20925D01*
X63250Y20649D01*
X63250Y20351D01*
X63136Y20075D01*
X62925Y19864D01*
X62649Y19750D01*
X62351Y19750D01*
G37*
%LPD*%
%LPC*%
G36*
X29034Y2999D02*
X29034Y2999D01*
X28850Y3075D01*
X28709Y3216D01*
X28633Y3400D01*
X28633Y3600D01*
X28709Y3784D01*
X28850Y3925D01*
X29034Y4001D01*
X29233Y4001D01*
X29258Y3991D01*
X29262Y3990D01*
X29267Y3989D01*
X29267Y3988D01*
X29272Y3989D01*
X29277Y3989D01*
X29277Y3990D01*
X29281Y3991D01*
X29285Y3993D01*
X29285Y3994D01*
X29286Y3994D01*
X29290Y3997D01*
X30956Y5663D01*
X30958Y5666D01*
X30960Y5669D01*
X30961Y5670D01*
X30961Y5671D01*
X30962Y5675D01*
X30964Y5678D01*
X30964Y5679D01*
X30964Y5680D01*
X30964Y5681D01*
X30964Y5684D01*
X30964Y5709D01*
X30998Y5790D01*
X31060Y5852D01*
X31141Y5886D01*
X31229Y5886D01*
X31310Y5852D01*
X31372Y5790D01*
X31406Y5709D01*
X31406Y5621D01*
X31372Y5540D01*
X31310Y5478D01*
X31229Y5444D01*
X31204Y5444D01*
X31200Y5444D01*
X31196Y5443D01*
X31195Y5443D01*
X31194Y5443D01*
X31191Y5441D01*
X31187Y5439D01*
X31186Y5438D01*
X31185Y5438D01*
X31183Y5436D01*
X29564Y3817D01*
X29561Y3813D01*
X29559Y3809D01*
X29557Y3804D01*
X29556Y3800D01*
X29556Y3795D01*
X29556Y3790D01*
X29558Y3785D01*
X29635Y3600D01*
X29635Y3400D01*
X29558Y3216D01*
X29418Y3075D01*
X29233Y2999D01*
X29034Y2999D01*
G37*
%LPD*%
%LPC*%
G36*
X45276Y34099D02*
X45276Y34099D01*
X45195Y34133D01*
X45133Y34195D01*
X45099Y34276D01*
X45099Y34364D01*
X45133Y34445D01*
X46034Y35347D01*
X46035Y35347D01*
X46037Y35351D01*
X46040Y35354D01*
X46040Y35355D01*
X46041Y35359D01*
X46043Y35364D01*
X46043Y35368D01*
X46042Y35373D01*
X46041Y35379D01*
X46029Y35406D01*
X46029Y35594D01*
X46101Y35767D01*
X46233Y35899D01*
X46406Y35971D01*
X46594Y35971D01*
X46767Y35899D01*
X46899Y35767D01*
X46971Y35594D01*
X46971Y35406D01*
X46899Y35233D01*
X46767Y35101D01*
X46594Y35029D01*
X46406Y35029D01*
X46379Y35041D01*
X46378Y35041D01*
X46374Y35042D01*
X46369Y35043D01*
X46364Y35042D01*
X46360Y35042D01*
X46359Y35042D01*
X46355Y35040D01*
X46351Y35038D01*
X46347Y35034D01*
X45445Y34133D01*
X45364Y34099D01*
X45276Y34099D01*
G37*
%LPD*%
%LPC*%
G36*
X19058Y34999D02*
X19058Y34999D01*
X18999Y35058D01*
X18999Y35942D01*
X19058Y36001D01*
X19942Y36001D01*
X20001Y35942D01*
X20001Y35058D01*
X19942Y34999D01*
X19058Y34999D01*
G37*
%LPD*%
%LPC*%
G36*
X58558Y34999D02*
X58558Y34999D01*
X58499Y35058D01*
X58499Y35942D01*
X58558Y36001D01*
X59442Y36001D01*
X59501Y35942D01*
X59501Y35058D01*
X59442Y34999D01*
X58558Y34999D01*
G37*
%LPD*%
%LPC*%
G36*
X16278Y2999D02*
X16278Y2999D01*
X16094Y3075D01*
X15953Y3216D01*
X15877Y3400D01*
X15877Y3600D01*
X15953Y3784D01*
X16094Y3925D01*
X16278Y4001D01*
X16478Y4001D01*
X16662Y3925D01*
X16802Y3784D01*
X16879Y3600D01*
X16879Y3400D01*
X16802Y3216D01*
X16662Y3075D01*
X16478Y2999D01*
X16278Y2999D01*
G37*
%LPD*%
%LPC*%
G36*
X6278Y2999D02*
X6278Y2999D01*
X6094Y3075D01*
X5953Y3216D01*
X5877Y3400D01*
X5877Y3600D01*
X5953Y3784D01*
X6094Y3925D01*
X6278Y4001D01*
X6478Y4001D01*
X6662Y3925D01*
X6802Y3784D01*
X6879Y3600D01*
X6879Y3400D01*
X6802Y3216D01*
X6662Y3075D01*
X6478Y2999D01*
X6278Y2999D01*
G37*
%LPD*%
%LPC*%
G36*
X26278Y2999D02*
X26278Y2999D01*
X26094Y3075D01*
X25953Y3216D01*
X25877Y3400D01*
X25877Y3600D01*
X25953Y3784D01*
X26094Y3925D01*
X26278Y4001D01*
X26478Y4001D01*
X26662Y3925D01*
X26802Y3784D01*
X26879Y3600D01*
X26879Y3400D01*
X26802Y3216D01*
X26662Y3075D01*
X26478Y2999D01*
X26278Y2999D01*
G37*
%LPD*%
%LPC*%
G36*
X18022Y34999D02*
X18022Y34999D01*
X17838Y35075D01*
X17698Y35216D01*
X17621Y35400D01*
X17621Y35600D01*
X17698Y35784D01*
X17838Y35925D01*
X18022Y36001D01*
X18222Y36001D01*
X18406Y35925D01*
X18547Y35784D01*
X18623Y35600D01*
X18623Y35400D01*
X18547Y35216D01*
X18406Y35075D01*
X18222Y34999D01*
X18022Y34999D01*
G37*
%LPD*%
%LPC*%
G36*
X56144Y34999D02*
X56144Y34999D01*
X55960Y35075D01*
X55820Y35216D01*
X55743Y35400D01*
X55743Y35600D01*
X55820Y35784D01*
X55960Y35925D01*
X56144Y36001D01*
X56344Y36001D01*
X56528Y35925D01*
X56669Y35784D01*
X56745Y35600D01*
X56745Y35400D01*
X56669Y35216D01*
X56528Y35075D01*
X56344Y34999D01*
X56144Y34999D01*
G37*
%LPD*%
%LPC*%
G36*
X6906Y35029D02*
X6906Y35029D01*
X6733Y35101D01*
X6601Y35233D01*
X6529Y35406D01*
X6529Y35594D01*
X6601Y35767D01*
X6733Y35899D01*
X6906Y35971D01*
X7094Y35971D01*
X7267Y35899D01*
X7399Y35767D01*
X7471Y35594D01*
X7471Y35406D01*
X7399Y35233D01*
X7267Y35101D01*
X7094Y35029D01*
X6906Y35029D01*
G37*
%LPD*%
%LPC*%
G36*
X7906Y35029D02*
X7906Y35029D01*
X7733Y35101D01*
X7601Y35233D01*
X7529Y35406D01*
X7529Y35594D01*
X7601Y35767D01*
X7733Y35899D01*
X7906Y35971D01*
X8094Y35971D01*
X8267Y35899D01*
X8399Y35767D01*
X8471Y35594D01*
X8471Y35406D01*
X8399Y35233D01*
X8267Y35101D01*
X8094Y35029D01*
X7906Y35029D01*
G37*
%LPD*%
%LPC*%
G36*
X30406Y35029D02*
X30406Y35029D01*
X30233Y35101D01*
X30101Y35233D01*
X30029Y35406D01*
X30029Y35594D01*
X30101Y35767D01*
X30233Y35899D01*
X30406Y35971D01*
X30594Y35971D01*
X30767Y35899D01*
X30899Y35767D01*
X30971Y35594D01*
X30971Y35406D01*
X30899Y35233D01*
X30767Y35101D01*
X30594Y35029D01*
X30406Y35029D01*
G37*
%LPD*%
%LPC*%
G36*
X15406Y10029D02*
X15406Y10029D01*
X15233Y10101D01*
X15101Y10233D01*
X15029Y10406D01*
X15029Y10594D01*
X15101Y10767D01*
X15233Y10899D01*
X15406Y10971D01*
X15594Y10971D01*
X15767Y10899D01*
X15899Y10767D01*
X15971Y10594D01*
X15971Y10406D01*
X15899Y10233D01*
X15767Y10101D01*
X15594Y10029D01*
X15406Y10029D01*
G37*
%LPD*%
%LPC*%
G36*
X7406Y10029D02*
X7406Y10029D01*
X7233Y10101D01*
X7101Y10233D01*
X7029Y10406D01*
X7029Y10594D01*
X7101Y10767D01*
X7233Y10899D01*
X7406Y10971D01*
X7594Y10971D01*
X7767Y10899D01*
X7899Y10767D01*
X7971Y10594D01*
X7971Y10406D01*
X7899Y10233D01*
X7767Y10101D01*
X7594Y10029D01*
X7406Y10029D01*
G37*
%LPD*%
%LPC*%
G36*
X8406Y10029D02*
X8406Y10029D01*
X8233Y10101D01*
X8101Y10233D01*
X8029Y10406D01*
X8029Y10594D01*
X8101Y10767D01*
X8233Y10899D01*
X8406Y10971D01*
X8594Y10971D01*
X8767Y10899D01*
X8899Y10767D01*
X8971Y10594D01*
X8971Y10406D01*
X8899Y10233D01*
X8767Y10101D01*
X8594Y10029D01*
X8406Y10029D01*
G37*
%LPD*%
%LPC*%
G36*
X12406Y10029D02*
X12406Y10029D01*
X12233Y10101D01*
X12101Y10233D01*
X12029Y10406D01*
X12029Y10594D01*
X12101Y10767D01*
X12233Y10899D01*
X12406Y10971D01*
X12594Y10971D01*
X12767Y10899D01*
X12899Y10767D01*
X12971Y10594D01*
X12971Y10406D01*
X12899Y10233D01*
X12767Y10101D01*
X12594Y10029D01*
X12406Y10029D01*
G37*
%LPD*%
%LPC*%
G36*
X5406Y10029D02*
X5406Y10029D01*
X5233Y10101D01*
X5101Y10233D01*
X5029Y10406D01*
X5029Y10594D01*
X5101Y10767D01*
X5233Y10899D01*
X5406Y10971D01*
X5594Y10971D01*
X5767Y10899D01*
X5899Y10767D01*
X5971Y10594D01*
X5971Y10406D01*
X5899Y10233D01*
X5767Y10101D01*
X5594Y10029D01*
X5406Y10029D01*
G37*
%LPD*%
%LPC*%
G36*
X6406Y10029D02*
X6406Y10029D01*
X6233Y10101D01*
X6101Y10233D01*
X6029Y10406D01*
X6029Y10594D01*
X6101Y10767D01*
X6233Y10899D01*
X6406Y10971D01*
X6594Y10971D01*
X6767Y10899D01*
X6899Y10767D01*
X6971Y10594D01*
X6971Y10406D01*
X6899Y10233D01*
X6767Y10101D01*
X6594Y10029D01*
X6406Y10029D01*
G37*
%LPD*%
%LPC*%
G36*
X17406Y10029D02*
X17406Y10029D01*
X17233Y10101D01*
X17101Y10233D01*
X17029Y10406D01*
X17029Y10594D01*
X17101Y10767D01*
X17233Y10899D01*
X17406Y10971D01*
X17594Y10971D01*
X17767Y10899D01*
X17899Y10767D01*
X17971Y10594D01*
X17971Y10406D01*
X17899Y10233D01*
X17767Y10101D01*
X17594Y10029D01*
X17406Y10029D01*
G37*
%LPD*%
%LPC*%
G36*
X2906Y29029D02*
X2906Y29029D01*
X2733Y29101D01*
X2601Y29233D01*
X2529Y29406D01*
X2529Y29594D01*
X2601Y29767D01*
X2733Y29899D01*
X2906Y29971D01*
X3094Y29971D01*
X3267Y29899D01*
X3399Y29767D01*
X3471Y29594D01*
X3471Y29406D01*
X3399Y29233D01*
X3267Y29101D01*
X3094Y29029D01*
X2906Y29029D01*
G37*
%LPD*%
%LPC*%
G36*
X18406Y10029D02*
X18406Y10029D01*
X18233Y10101D01*
X18101Y10233D01*
X18029Y10406D01*
X18029Y10594D01*
X18101Y10767D01*
X18233Y10899D01*
X18406Y10971D01*
X18594Y10971D01*
X18767Y10899D01*
X18899Y10767D01*
X18971Y10594D01*
X18971Y10406D01*
X18899Y10233D01*
X18767Y10101D01*
X18594Y10029D01*
X18406Y10029D01*
G37*
%LPD*%
%LPC*%
G36*
X16406Y10029D02*
X16406Y10029D01*
X16233Y10101D01*
X16101Y10233D01*
X16029Y10406D01*
X16029Y10594D01*
X16101Y10767D01*
X16233Y10899D01*
X16406Y10971D01*
X16594Y10971D01*
X16767Y10899D01*
X16899Y10767D01*
X16971Y10594D01*
X16971Y10406D01*
X16899Y10233D01*
X16767Y10101D01*
X16594Y10029D01*
X16406Y10029D01*
G37*
%LPD*%
%LPC*%
G36*
X27406Y35029D02*
X27406Y35029D01*
X27233Y35101D01*
X27101Y35233D01*
X27029Y35406D01*
X27029Y35594D01*
X27101Y35767D01*
X27233Y35899D01*
X27406Y35971D01*
X27594Y35971D01*
X27767Y35899D01*
X27899Y35767D01*
X27971Y35594D01*
X27971Y35406D01*
X27899Y35233D01*
X27767Y35101D01*
X27594Y35029D01*
X27406Y35029D01*
G37*
%LPD*%
%LPC*%
G36*
X1906Y29029D02*
X1906Y29029D01*
X1733Y29101D01*
X1601Y29233D01*
X1529Y29406D01*
X1529Y29594D01*
X1601Y29767D01*
X1733Y29899D01*
X1906Y29971D01*
X2094Y29971D01*
X2267Y29899D01*
X2399Y29767D01*
X2471Y29594D01*
X2471Y29406D01*
X2399Y29233D01*
X2267Y29101D01*
X2094Y29029D01*
X1906Y29029D01*
G37*
%LPD*%
%LPC*%
G36*
X18406Y29029D02*
X18406Y29029D01*
X18233Y29101D01*
X18101Y29233D01*
X18029Y29406D01*
X18029Y29594D01*
X18101Y29767D01*
X18233Y29899D01*
X18406Y29971D01*
X18594Y29971D01*
X18767Y29899D01*
X18899Y29767D01*
X18971Y29594D01*
X18971Y29406D01*
X18899Y29233D01*
X18767Y29101D01*
X18594Y29029D01*
X18406Y29029D01*
G37*
%LPD*%
%LPC*%
G36*
X7906Y29029D02*
X7906Y29029D01*
X7733Y29101D01*
X7601Y29233D01*
X7529Y29406D01*
X7529Y29594D01*
X7601Y29767D01*
X7733Y29899D01*
X7906Y29971D01*
X8094Y29971D01*
X8267Y29899D01*
X8399Y29767D01*
X8471Y29594D01*
X8471Y29406D01*
X8399Y29233D01*
X8267Y29101D01*
X8094Y29029D01*
X7906Y29029D01*
G37*
%LPD*%
%LPC*%
G36*
X6906Y29029D02*
X6906Y29029D01*
X6733Y29101D01*
X6601Y29233D01*
X6529Y29406D01*
X6529Y29594D01*
X6601Y29767D01*
X6733Y29899D01*
X6906Y29971D01*
X7094Y29971D01*
X7267Y29899D01*
X7399Y29767D01*
X7471Y29594D01*
X7471Y29406D01*
X7399Y29233D01*
X7267Y29101D01*
X7094Y29029D01*
X6906Y29029D01*
G37*
%LPD*%
%LPC*%
G36*
X10906Y35029D02*
X10906Y35029D01*
X10733Y35101D01*
X10601Y35233D01*
X10529Y35406D01*
X10529Y35594D01*
X10601Y35767D01*
X10733Y35899D01*
X10906Y35971D01*
X11094Y35971D01*
X11267Y35899D01*
X11399Y35767D01*
X11471Y35594D01*
X11471Y35406D01*
X11399Y35233D01*
X11267Y35101D01*
X11094Y35029D01*
X10906Y35029D01*
G37*
%LPD*%
%LPC*%
G36*
X8906Y29029D02*
X8906Y29029D01*
X8733Y29101D01*
X8601Y29233D01*
X8529Y29406D01*
X8529Y29594D01*
X8601Y29767D01*
X8733Y29899D01*
X8906Y29971D01*
X9094Y29971D01*
X9267Y29899D01*
X9399Y29767D01*
X9471Y29594D01*
X9471Y29406D01*
X9399Y29233D01*
X9267Y29101D01*
X9094Y29029D01*
X8906Y29029D01*
G37*
%LPD*%
%LPC*%
G36*
X16406Y29029D02*
X16406Y29029D01*
X16233Y29101D01*
X16101Y29233D01*
X16029Y29406D01*
X16029Y29594D01*
X16101Y29767D01*
X16233Y29899D01*
X16406Y29971D01*
X16594Y29971D01*
X16767Y29899D01*
X16899Y29767D01*
X16971Y29594D01*
X16971Y29406D01*
X16899Y29233D01*
X16767Y29101D01*
X16594Y29029D01*
X16406Y29029D01*
G37*
%LPD*%
%LPC*%
G36*
X26406Y35029D02*
X26406Y35029D01*
X26233Y35101D01*
X26101Y35233D01*
X26029Y35406D01*
X26029Y35594D01*
X26101Y35767D01*
X26233Y35899D01*
X26406Y35971D01*
X26594Y35971D01*
X26767Y35899D01*
X26899Y35767D01*
X26971Y35594D01*
X26971Y35406D01*
X26899Y35233D01*
X26767Y35101D01*
X26594Y35029D01*
X26406Y35029D01*
G37*
%LPD*%
%LPC*%
G36*
X11906Y35029D02*
X11906Y35029D01*
X11733Y35101D01*
X11601Y35233D01*
X11529Y35406D01*
X11529Y35594D01*
X11601Y35767D01*
X11733Y35899D01*
X11906Y35971D01*
X12094Y35971D01*
X12267Y35899D01*
X12399Y35767D01*
X12471Y35594D01*
X12471Y35406D01*
X12399Y35233D01*
X12267Y35101D01*
X12094Y35029D01*
X11906Y35029D01*
G37*
%LPD*%
%LPC*%
G36*
X5906Y29029D02*
X5906Y29029D01*
X5733Y29101D01*
X5601Y29233D01*
X5529Y29406D01*
X5529Y29594D01*
X5601Y29767D01*
X5733Y29899D01*
X5906Y29971D01*
X6094Y29971D01*
X6267Y29899D01*
X6399Y29767D01*
X6471Y29594D01*
X6471Y29406D01*
X6399Y29233D01*
X6267Y29101D01*
X6094Y29029D01*
X5906Y29029D01*
G37*
%LPD*%
%LPC*%
G36*
X19406Y29029D02*
X19406Y29029D01*
X19233Y29101D01*
X19101Y29233D01*
X19029Y29406D01*
X19029Y29594D01*
X19101Y29767D01*
X19233Y29899D01*
X19406Y29971D01*
X19594Y29971D01*
X19767Y29899D01*
X19899Y29767D01*
X19971Y29594D01*
X19971Y29406D01*
X19899Y29233D01*
X19767Y29101D01*
X19594Y29029D01*
X19406Y29029D01*
G37*
%LPD*%
%LPC*%
G36*
X9906Y29029D02*
X9906Y29029D01*
X9733Y29101D01*
X9601Y29233D01*
X9529Y29406D01*
X9529Y29594D01*
X9601Y29767D01*
X9733Y29899D01*
X9906Y29971D01*
X10094Y29971D01*
X10267Y29899D01*
X10399Y29767D01*
X10471Y29594D01*
X10471Y29406D01*
X10399Y29233D01*
X10267Y29101D01*
X10094Y29029D01*
X9906Y29029D01*
G37*
%LPD*%
%LPC*%
G36*
X19406Y10029D02*
X19406Y10029D01*
X19233Y10101D01*
X19101Y10233D01*
X19029Y10406D01*
X19029Y10594D01*
X19101Y10767D01*
X19233Y10899D01*
X19406Y10971D01*
X19594Y10971D01*
X19767Y10899D01*
X19899Y10767D01*
X19971Y10594D01*
X19971Y10406D01*
X19899Y10233D01*
X19767Y10101D01*
X19594Y10029D01*
X19406Y10029D01*
G37*
%LPD*%
%LPC*%
G36*
X3906Y29029D02*
X3906Y29029D01*
X3733Y29101D01*
X3601Y29233D01*
X3529Y29406D01*
X3529Y29594D01*
X3601Y29767D01*
X3733Y29899D01*
X3906Y29971D01*
X4094Y29971D01*
X4267Y29899D01*
X4399Y29767D01*
X4471Y29594D01*
X4471Y29406D01*
X4399Y29233D01*
X4267Y29101D01*
X4094Y29029D01*
X3906Y29029D01*
G37*
%LPD*%
%LPC*%
G36*
X10906Y29029D02*
X10906Y29029D01*
X10733Y29101D01*
X10601Y29233D01*
X10529Y29406D01*
X10529Y29594D01*
X10601Y29767D01*
X10733Y29899D01*
X10906Y29971D01*
X11094Y29971D01*
X11267Y29899D01*
X11399Y29767D01*
X11471Y29594D01*
X11471Y29406D01*
X11399Y29233D01*
X11267Y29101D01*
X11094Y29029D01*
X10906Y29029D01*
G37*
%LPD*%
%LPC*%
G36*
X29432Y15419D02*
X29432Y15419D01*
X29307Y15471D01*
X29211Y15567D01*
X29159Y15692D01*
X29159Y16308D01*
X29211Y16433D01*
X29307Y16529D01*
X29432Y16581D01*
X29568Y16581D01*
X29693Y16529D01*
X29789Y16433D01*
X29841Y16308D01*
X29841Y15692D01*
X29789Y15567D01*
X29693Y15471D01*
X29568Y15419D01*
X29432Y15419D01*
G37*
%LPD*%
%LPC*%
G36*
X32432Y15419D02*
X32432Y15419D01*
X32307Y15471D01*
X32211Y15567D01*
X32159Y15692D01*
X32159Y16308D01*
X32211Y16433D01*
X32307Y16529D01*
X32432Y16581D01*
X32568Y16581D01*
X32693Y16529D01*
X32789Y16433D01*
X32841Y16308D01*
X32841Y15692D01*
X32789Y15567D01*
X32693Y15471D01*
X32568Y15419D01*
X32432Y15419D01*
G37*
%LPD*%
%LPC*%
G36*
X27432Y15419D02*
X27432Y15419D01*
X27307Y15471D01*
X27211Y15567D01*
X27159Y15692D01*
X27159Y16308D01*
X27211Y16433D01*
X27307Y16529D01*
X27432Y16581D01*
X27568Y16581D01*
X27693Y16529D01*
X27789Y16433D01*
X27841Y16308D01*
X27841Y15692D01*
X27789Y15567D01*
X27693Y15471D01*
X27568Y15419D01*
X27432Y15419D01*
G37*
%LPD*%
%LPC*%
G36*
X28432Y15419D02*
X28432Y15419D01*
X28307Y15471D01*
X28211Y15567D01*
X28159Y15692D01*
X28159Y16308D01*
X28211Y16433D01*
X28307Y16529D01*
X28432Y16581D01*
X28568Y16581D01*
X28693Y16529D01*
X28789Y16433D01*
X28841Y16308D01*
X28841Y15692D01*
X28789Y15567D01*
X28693Y15471D01*
X28568Y15419D01*
X28432Y15419D01*
G37*
%LPD*%
%LPC*%
G36*
X33432Y15419D02*
X33432Y15419D01*
X33307Y15471D01*
X33211Y15567D01*
X33159Y15692D01*
X33159Y16308D01*
X33211Y16433D01*
X33307Y16529D01*
X33432Y16581D01*
X33568Y16581D01*
X33693Y16529D01*
X33789Y16433D01*
X33841Y16308D01*
X33841Y15692D01*
X33789Y15567D01*
X33693Y15471D01*
X33568Y15419D01*
X33432Y15419D01*
G37*
%LPD*%
%LPC*%
G36*
X30432Y15419D02*
X30432Y15419D01*
X30307Y15471D01*
X30211Y15567D01*
X30159Y15692D01*
X30159Y16308D01*
X30211Y16433D01*
X30307Y16529D01*
X30432Y16581D01*
X30568Y16581D01*
X30693Y16529D01*
X30789Y16433D01*
X30841Y16308D01*
X30841Y15692D01*
X30789Y15567D01*
X30693Y15471D01*
X30568Y15419D01*
X30432Y15419D01*
G37*
%LPD*%
%LPC*%
G36*
X63028Y28941D02*
X63028Y28941D01*
X63954Y28941D01*
X63942Y28835D01*
X63917Y28727D01*
X63881Y28622D01*
X63833Y28522D01*
X63774Y28429D01*
X63705Y28342D01*
X63626Y28264D01*
X63540Y28195D01*
X63446Y28136D01*
X63346Y28088D01*
X63242Y28051D01*
X63134Y28027D01*
X63028Y28015D01*
X63028Y28941D01*
G37*
%LPD*%
%LPC*%
G36*
X62803Y28027D02*
X62803Y28027D01*
X62695Y28051D01*
X62591Y28088D01*
X62491Y28136D01*
X62397Y28195D01*
X62311Y28264D01*
X62232Y28342D01*
X62163Y28429D01*
X62104Y28522D01*
X62056Y28622D01*
X62020Y28727D01*
X61995Y28835D01*
X61983Y28941D01*
X62909Y28941D01*
X62909Y28015D01*
X62803Y28027D01*
G37*
%LPD*%
%LPC*%
G36*
X61847Y30910D02*
X61847Y30910D01*
X61847Y31836D01*
X61953Y31824D01*
X62061Y31799D01*
X62165Y31763D01*
X62265Y31715D01*
X62359Y31656D01*
X62445Y31587D01*
X62524Y31508D01*
X62593Y31422D01*
X62652Y31328D01*
X62700Y31228D01*
X62736Y31124D01*
X62761Y31016D01*
X62773Y30910D01*
X61847Y30910D01*
G37*
%LPD*%
%LPC*%
G36*
X61622Y29877D02*
X61622Y29877D01*
X61514Y29902D01*
X61410Y29938D01*
X61310Y29986D01*
X61216Y30045D01*
X61130Y30114D01*
X61051Y30193D01*
X60982Y30279D01*
X60923Y30373D01*
X60875Y30473D01*
X60839Y30577D01*
X60814Y30685D01*
X60802Y30791D01*
X61728Y30791D01*
X61728Y29865D01*
X61622Y29877D01*
G37*
%LPD*%
%LPC*%
G36*
X61847Y30791D02*
X61847Y30791D01*
X62773Y30791D01*
X62761Y30685D01*
X62736Y30577D01*
X62700Y30473D01*
X62652Y30373D01*
X62593Y30279D01*
X62524Y30193D01*
X62445Y30114D01*
X62359Y30045D01*
X62265Y29986D01*
X62165Y29938D01*
X62061Y29902D01*
X61953Y29877D01*
X61847Y29865D01*
X61847Y30791D01*
G37*
%LPD*%
%LPC*%
G36*
X63028Y29059D02*
X63028Y29059D01*
X63028Y29985D01*
X63134Y29973D01*
X63242Y29949D01*
X63346Y29912D01*
X63446Y29864D01*
X63540Y29805D01*
X63626Y29736D01*
X63705Y29658D01*
X63774Y29571D01*
X63833Y29478D01*
X63881Y29378D01*
X63917Y29273D01*
X63942Y29165D01*
X63954Y29059D01*
X63028Y29059D01*
G37*
%LPD*%
%LPC*%
G36*
X60802Y30910D02*
X60802Y30910D01*
X60814Y31016D01*
X60839Y31124D01*
X60875Y31228D01*
X60923Y31328D01*
X60982Y31422D01*
X61051Y31508D01*
X61130Y31587D01*
X61216Y31656D01*
X61310Y31715D01*
X61410Y31763D01*
X61514Y31799D01*
X61622Y31824D01*
X61728Y31836D01*
X61728Y30910D01*
X60802Y30910D01*
G37*
%LPD*%
%LPC*%
G36*
X61983Y29059D02*
X61983Y29059D01*
X61995Y29165D01*
X62020Y29273D01*
X62056Y29378D01*
X62104Y29478D01*
X62163Y29571D01*
X62232Y29658D01*
X62311Y29736D01*
X62397Y29805D01*
X62491Y29864D01*
X62591Y29912D01*
X62695Y29949D01*
X62803Y29973D01*
X62909Y29985D01*
X62909Y29059D01*
X61983Y29059D01*
G37*
%LPD*%
%LPC*%
G36*
X28859Y23159D02*
X28859Y23159D01*
X28659Y23359D01*
X28659Y23641D01*
X28859Y23841D01*
X29141Y23841D01*
X29341Y23641D01*
X29341Y23359D01*
X29141Y23159D01*
X28859Y23159D01*
G37*
%LPD*%
%LPC*%
G36*
X39059Y19441D02*
X39059Y19441D01*
X39749Y19441D01*
X39738Y19353D01*
X39712Y19258D01*
X39675Y19167D01*
X39626Y19082D01*
X39566Y19004D01*
X39496Y18934D01*
X39470Y18914D01*
X39432Y18885D01*
X39418Y18874D01*
X39333Y18825D01*
X39242Y18788D01*
X39147Y18762D01*
X39059Y18751D01*
X39059Y19441D01*
G37*
%LPD*%
%LPC*%
G36*
X38251Y19559D02*
X38251Y19559D01*
X38262Y19647D01*
X38269Y19673D01*
X38277Y19703D01*
X38285Y19732D01*
X38288Y19742D01*
X38325Y19833D01*
X38374Y19918D01*
X38434Y19996D01*
X38504Y20066D01*
X38506Y20067D01*
X38544Y20096D01*
X38544Y20097D01*
X38582Y20126D01*
X38667Y20175D01*
X38758Y20212D01*
X38853Y20238D01*
X38941Y20249D01*
X38941Y19559D01*
X38251Y19559D01*
G37*
%LPD*%
%LPC*%
G36*
X38853Y18762D02*
X38853Y18762D01*
X38758Y18788D01*
X38667Y18825D01*
X38582Y18874D01*
X38504Y18934D01*
X38434Y19004D01*
X38374Y19082D01*
X38325Y19167D01*
X38288Y19258D01*
X38262Y19353D01*
X38251Y19441D01*
X38941Y19441D01*
X38941Y18751D01*
X38853Y18762D01*
G37*
%LPD*%
%LPC*%
G36*
X39059Y19559D02*
X39059Y19559D01*
X39059Y20249D01*
X39147Y20238D01*
X39242Y20212D01*
X39333Y20175D01*
X39418Y20126D01*
X39496Y20066D01*
X39566Y19996D01*
X39626Y19918D01*
X39675Y19833D01*
X39712Y19742D01*
X39738Y19647D01*
X39749Y19559D01*
X39059Y19559D01*
G37*
%LPD*%
%LPC*%
G36*
X34925Y35441D02*
X34925Y35441D01*
X35364Y35441D01*
X35355Y35383D01*
X35330Y35308D01*
X35294Y35238D01*
X35248Y35174D01*
X35192Y35118D01*
X35129Y35072D01*
X35058Y35036D01*
X34983Y35012D01*
X34925Y35002D01*
X34925Y35441D01*
G37*
%LPD*%
%LPC*%
G36*
X11392Y3559D02*
X11392Y3559D01*
X11401Y3617D01*
X11426Y3692D01*
X11461Y3762D01*
X11508Y3826D01*
X11564Y3882D01*
X11627Y3928D01*
X11698Y3964D01*
X11773Y3988D01*
X11831Y3998D01*
X11831Y3559D01*
X11392Y3559D01*
G37*
%LPD*%
%LPC*%
G36*
X34749Y35012D02*
X34749Y35012D01*
X34674Y35036D01*
X34604Y35072D01*
X34540Y35118D01*
X34484Y35174D01*
X34438Y35238D01*
X34402Y35308D01*
X34378Y35383D01*
X34369Y35441D01*
X34807Y35441D01*
X34807Y35002D01*
X34749Y35012D01*
G37*
%LPD*%
%LPC*%
G36*
X15249Y35012D02*
X15249Y35012D01*
X15174Y35036D01*
X15104Y35072D01*
X15040Y35118D01*
X14984Y35174D01*
X14938Y35238D01*
X14902Y35308D01*
X14878Y35383D01*
X14869Y35441D01*
X15307Y35441D01*
X15307Y35002D01*
X15249Y35012D01*
G37*
%LPD*%
%LPC*%
G36*
X14047Y35441D02*
X14047Y35441D01*
X14486Y35441D01*
X14477Y35383D01*
X14452Y35308D01*
X14416Y35238D01*
X14370Y35174D01*
X14314Y35118D01*
X14251Y35072D01*
X14180Y35036D01*
X14105Y35012D01*
X14047Y35002D01*
X14047Y35441D01*
G37*
%LPD*%
%LPC*%
G36*
X14869Y35559D02*
X14869Y35559D01*
X14878Y35617D01*
X14902Y35692D01*
X14938Y35762D01*
X14984Y35826D01*
X15040Y35882D01*
X15104Y35928D01*
X15174Y35964D01*
X15249Y35988D01*
X15307Y35998D01*
X15307Y35559D01*
X14869Y35559D01*
G37*
%LPD*%
%LPC*%
G36*
X30395Y3012D02*
X30395Y3012D01*
X30320Y3036D01*
X30249Y3072D01*
X30186Y3118D01*
X30130Y3174D01*
X30084Y3238D01*
X30048Y3308D01*
X30023Y3383D01*
X30014Y3441D01*
X30453Y3441D01*
X30453Y3002D01*
X30395Y3012D01*
G37*
%LPD*%
%LPC*%
G36*
X30571Y3441D02*
X30571Y3441D01*
X31009Y3441D01*
X31000Y3383D01*
X30976Y3308D01*
X30940Y3238D01*
X30894Y3174D01*
X30838Y3118D01*
X30774Y3072D01*
X30704Y3036D01*
X30629Y3012D01*
X30571Y3002D01*
X30571Y3441D01*
G37*
%LPD*%
%LPC*%
G36*
X31773Y3012D02*
X31773Y3012D01*
X31698Y3036D01*
X31627Y3072D01*
X31564Y3118D01*
X31508Y3174D01*
X31461Y3238D01*
X31426Y3308D01*
X31401Y3383D01*
X31392Y3441D01*
X31831Y3441D01*
X31831Y3002D01*
X31773Y3012D01*
G37*
%LPD*%
%LPC*%
G36*
X31949Y3441D02*
X31949Y3441D01*
X32387Y3441D01*
X32378Y3383D01*
X32354Y3308D01*
X32318Y3238D01*
X32272Y3174D01*
X32216Y3118D01*
X32152Y3072D01*
X32082Y3036D01*
X32007Y3012D01*
X31949Y3002D01*
X31949Y3441D01*
G37*
%LPD*%
%LPC*%
G36*
X41395Y3012D02*
X41395Y3012D01*
X41320Y3036D01*
X41249Y3072D01*
X41186Y3118D01*
X41130Y3174D01*
X41084Y3238D01*
X41048Y3308D01*
X41023Y3383D01*
X41014Y3441D01*
X41453Y3441D01*
X41453Y3002D01*
X41395Y3012D01*
G37*
%LPD*%
%LPC*%
G36*
X54925Y35441D02*
X54925Y35441D01*
X55364Y35441D01*
X55355Y35383D01*
X55330Y35308D01*
X55294Y35238D01*
X55248Y35174D01*
X55192Y35118D01*
X55129Y35072D01*
X55058Y35036D01*
X54983Y35012D01*
X54925Y35002D01*
X54925Y35441D01*
G37*
%LPD*%
%LPC*%
G36*
X41571Y3441D02*
X41571Y3441D01*
X42009Y3441D01*
X42000Y3383D01*
X41976Y3308D01*
X41940Y3238D01*
X41894Y3174D01*
X41838Y3118D01*
X41774Y3072D01*
X41704Y3036D01*
X41629Y3012D01*
X41571Y3002D01*
X41571Y3441D01*
G37*
%LPD*%
%LPC*%
G36*
X42773Y3012D02*
X42773Y3012D01*
X42698Y3036D01*
X42627Y3072D01*
X42564Y3118D01*
X42508Y3174D01*
X42461Y3238D01*
X42426Y3308D01*
X42401Y3383D01*
X42392Y3441D01*
X42831Y3441D01*
X42831Y3002D01*
X42773Y3012D01*
G37*
%LPD*%
%LPC*%
G36*
X42949Y3441D02*
X42949Y3441D01*
X43387Y3441D01*
X43378Y3383D01*
X43354Y3308D01*
X43318Y3238D01*
X43272Y3174D01*
X43216Y3118D01*
X43152Y3072D01*
X43082Y3036D01*
X43007Y3012D01*
X42949Y3002D01*
X42949Y3441D01*
G37*
%LPD*%
%LPC*%
G36*
X54749Y35012D02*
X54749Y35012D01*
X54674Y35036D01*
X54604Y35072D01*
X54540Y35118D01*
X54484Y35174D01*
X54438Y35238D01*
X54402Y35308D01*
X54378Y35383D01*
X54369Y35441D01*
X54807Y35441D01*
X54807Y35002D01*
X54749Y35012D01*
G37*
%LPD*%
%LPC*%
G36*
X33547Y35441D02*
X33547Y35441D01*
X33986Y35441D01*
X33977Y35383D01*
X33952Y35308D01*
X33916Y35238D01*
X33870Y35174D01*
X33814Y35118D01*
X33751Y35072D01*
X33680Y35036D01*
X33605Y35012D01*
X33547Y35002D01*
X33547Y35441D01*
G37*
%LPD*%
%LPC*%
G36*
X10571Y3441D02*
X10571Y3441D01*
X11009Y3441D01*
X11000Y3383D01*
X10976Y3308D01*
X10940Y3238D01*
X10894Y3174D01*
X10838Y3118D01*
X10774Y3072D01*
X10704Y3036D01*
X10629Y3012D01*
X10571Y3002D01*
X10571Y3441D01*
G37*
%LPD*%
%LPC*%
G36*
X10395Y3012D02*
X10395Y3012D01*
X10320Y3036D01*
X10249Y3072D01*
X10186Y3118D01*
X10130Y3174D01*
X10084Y3238D01*
X10048Y3308D01*
X10023Y3383D01*
X10014Y3441D01*
X10453Y3441D01*
X10453Y3002D01*
X10395Y3012D01*
G37*
%LPD*%
%LPC*%
G36*
X53371Y35012D02*
X53371Y35012D01*
X53296Y35036D01*
X53226Y35072D01*
X53162Y35118D01*
X53106Y35174D01*
X53060Y35238D01*
X53024Y35308D01*
X53000Y35383D01*
X52991Y35441D01*
X53429Y35441D01*
X53429Y35002D01*
X53371Y35012D01*
G37*
%LPD*%
%LPC*%
G36*
X33371Y35012D02*
X33371Y35012D01*
X33296Y35036D01*
X33226Y35072D01*
X33162Y35118D01*
X33106Y35174D01*
X33060Y35238D01*
X33024Y35308D01*
X33000Y35383D01*
X32991Y35441D01*
X33429Y35441D01*
X33429Y35002D01*
X33371Y35012D01*
G37*
%LPD*%
%LPC*%
G36*
X11773Y3012D02*
X11773Y3012D01*
X11698Y3036D01*
X11627Y3072D01*
X11564Y3118D01*
X11508Y3174D01*
X11461Y3238D01*
X11426Y3308D01*
X11401Y3383D01*
X11392Y3441D01*
X11831Y3441D01*
X11831Y3002D01*
X11773Y3012D01*
G37*
%LPD*%
%LPC*%
G36*
X11949Y3441D02*
X11949Y3441D01*
X12387Y3441D01*
X12378Y3383D01*
X12354Y3308D01*
X12318Y3238D01*
X12272Y3174D01*
X12216Y3118D01*
X12152Y3072D01*
X12082Y3036D01*
X12007Y3012D01*
X11949Y3002D01*
X11949Y3441D01*
G37*
%LPD*%
%LPC*%
G36*
X20395Y3012D02*
X20395Y3012D01*
X20320Y3036D01*
X20249Y3072D01*
X20186Y3118D01*
X20130Y3174D01*
X20084Y3238D01*
X20048Y3308D01*
X20023Y3383D01*
X20014Y3441D01*
X20453Y3441D01*
X20453Y3002D01*
X20395Y3012D01*
G37*
%LPD*%
%LPC*%
G36*
X20571Y3441D02*
X20571Y3441D01*
X21009Y3441D01*
X21000Y3383D01*
X20976Y3308D01*
X20940Y3238D01*
X20894Y3174D01*
X20838Y3118D01*
X20774Y3072D01*
X20704Y3036D01*
X20629Y3012D01*
X20571Y3002D01*
X20571Y3441D01*
G37*
%LPD*%
%LPC*%
G36*
X21773Y3012D02*
X21773Y3012D01*
X21698Y3036D01*
X21627Y3072D01*
X21564Y3118D01*
X21508Y3174D01*
X21461Y3238D01*
X21426Y3308D01*
X21401Y3383D01*
X21392Y3441D01*
X21831Y3441D01*
X21831Y3002D01*
X21773Y3012D01*
G37*
%LPD*%
%LPC*%
G36*
X21949Y3441D02*
X21949Y3441D01*
X22387Y3441D01*
X22378Y3383D01*
X22354Y3308D01*
X22318Y3238D01*
X22272Y3174D01*
X22216Y3118D01*
X22152Y3072D01*
X22082Y3036D01*
X22007Y3012D01*
X21949Y3002D01*
X21949Y3441D01*
G37*
%LPD*%
%LPC*%
G36*
X10571Y3559D02*
X10571Y3559D01*
X10571Y3998D01*
X10629Y3988D01*
X10704Y3964D01*
X10774Y3928D01*
X10838Y3882D01*
X10894Y3826D01*
X10940Y3762D01*
X10976Y3692D01*
X11000Y3617D01*
X11009Y3559D01*
X10571Y3559D01*
G37*
%LPD*%
%LPC*%
G36*
X13871Y35012D02*
X13871Y35012D01*
X13796Y35036D01*
X13726Y35072D01*
X13662Y35118D01*
X13606Y35174D01*
X13560Y35238D01*
X13524Y35308D01*
X13500Y35383D01*
X13491Y35441D01*
X13929Y35441D01*
X13929Y35002D01*
X13871Y35012D01*
G37*
%LPD*%
%LPC*%
G36*
X53547Y35441D02*
X53547Y35441D01*
X53986Y35441D01*
X53977Y35383D01*
X53952Y35308D01*
X53916Y35238D01*
X53870Y35174D01*
X53814Y35118D01*
X53751Y35072D01*
X53680Y35036D01*
X53605Y35012D01*
X53547Y35002D01*
X53547Y35441D01*
G37*
%LPD*%
%LPC*%
G36*
X42392Y3559D02*
X42392Y3559D01*
X42401Y3617D01*
X42426Y3692D01*
X42461Y3762D01*
X42508Y3826D01*
X42564Y3882D01*
X42627Y3928D01*
X42698Y3964D01*
X42773Y3988D01*
X42831Y3998D01*
X42831Y3559D01*
X42392Y3559D01*
G37*
%LPD*%
%LPC*%
G36*
X21392Y3559D02*
X21392Y3559D01*
X21401Y3617D01*
X21426Y3692D01*
X21461Y3762D01*
X21508Y3826D01*
X21564Y3882D01*
X21627Y3928D01*
X21698Y3964D01*
X21773Y3988D01*
X21831Y3998D01*
X21831Y3559D01*
X21392Y3559D01*
G37*
%LPD*%
%LPC*%
G36*
X42949Y3559D02*
X42949Y3559D01*
X42949Y3998D01*
X43007Y3988D01*
X43082Y3964D01*
X43152Y3928D01*
X43216Y3882D01*
X43272Y3826D01*
X43318Y3762D01*
X43354Y3692D01*
X43378Y3617D01*
X43387Y3559D01*
X42949Y3559D01*
G37*
%LPD*%
%LPC*%
G36*
X41014Y3559D02*
X41014Y3559D01*
X41023Y3617D01*
X41048Y3692D01*
X41084Y3762D01*
X41130Y3826D01*
X41186Y3882D01*
X41249Y3928D01*
X41320Y3964D01*
X41395Y3988D01*
X41453Y3998D01*
X41453Y3559D01*
X41014Y3559D01*
G37*
%LPD*%
%LPC*%
G36*
X20571Y3559D02*
X20571Y3559D01*
X20571Y3998D01*
X20629Y3988D01*
X20704Y3964D01*
X20774Y3928D01*
X20838Y3882D01*
X20894Y3826D01*
X20940Y3762D01*
X20976Y3692D01*
X21000Y3617D01*
X21009Y3559D01*
X20571Y3559D01*
G37*
%LPD*%
%LPC*%
G36*
X11949Y3559D02*
X11949Y3559D01*
X11949Y3998D01*
X12007Y3988D01*
X12082Y3964D01*
X12152Y3928D01*
X12216Y3882D01*
X12272Y3826D01*
X12318Y3762D01*
X12354Y3692D01*
X12378Y3617D01*
X12387Y3559D01*
X11949Y3559D01*
G37*
%LPD*%
%LPC*%
G36*
X21949Y3559D02*
X21949Y3559D01*
X21949Y3998D01*
X22007Y3988D01*
X22082Y3964D01*
X22152Y3928D01*
X22216Y3882D01*
X22272Y3826D01*
X22318Y3762D01*
X22354Y3692D01*
X22378Y3617D01*
X22387Y3559D01*
X21949Y3559D01*
G37*
%LPD*%
%LPC*%
G36*
X30014Y3559D02*
X30014Y3559D01*
X30023Y3617D01*
X30048Y3692D01*
X30084Y3762D01*
X30130Y3826D01*
X30186Y3882D01*
X30249Y3928D01*
X30320Y3964D01*
X30395Y3988D01*
X30453Y3998D01*
X30453Y3559D01*
X30014Y3559D01*
G37*
%LPD*%
%LPC*%
G36*
X31392Y3559D02*
X31392Y3559D01*
X31401Y3617D01*
X31426Y3692D01*
X31461Y3762D01*
X31508Y3826D01*
X31564Y3882D01*
X31627Y3928D01*
X31698Y3964D01*
X31773Y3988D01*
X31831Y3998D01*
X31831Y3559D01*
X31392Y3559D01*
G37*
%LPD*%
%LPC*%
G36*
X30571Y3559D02*
X30571Y3559D01*
X30571Y3998D01*
X30629Y3988D01*
X30704Y3964D01*
X30774Y3928D01*
X30838Y3882D01*
X30894Y3826D01*
X30940Y3762D01*
X30976Y3692D01*
X31000Y3617D01*
X31009Y3559D01*
X30571Y3559D01*
G37*
%LPD*%
%LPC*%
G36*
X15425Y35559D02*
X15425Y35559D01*
X15425Y35998D01*
X15483Y35988D01*
X15558Y35964D01*
X15629Y35928D01*
X15692Y35882D01*
X15748Y35826D01*
X15794Y35762D01*
X15830Y35692D01*
X15855Y35617D01*
X15864Y35559D01*
X15425Y35559D01*
G37*
%LPD*%
%LPC*%
G36*
X10014Y3559D02*
X10014Y3559D01*
X10023Y3617D01*
X10048Y3692D01*
X10084Y3762D01*
X10130Y3826D01*
X10186Y3882D01*
X10249Y3928D01*
X10320Y3964D01*
X10395Y3988D01*
X10453Y3998D01*
X10453Y3559D01*
X10014Y3559D01*
G37*
%LPD*%
%LPC*%
G36*
X41571Y3559D02*
X41571Y3559D01*
X41571Y3998D01*
X41629Y3988D01*
X41704Y3964D01*
X41774Y3928D01*
X41838Y3882D01*
X41894Y3826D01*
X41940Y3762D01*
X41976Y3692D01*
X42000Y3617D01*
X42009Y3559D01*
X41571Y3559D01*
G37*
%LPD*%
%LPC*%
G36*
X31949Y3559D02*
X31949Y3559D01*
X31949Y3998D01*
X32007Y3988D01*
X32082Y3964D01*
X32152Y3928D01*
X32216Y3882D01*
X32272Y3826D01*
X32318Y3762D01*
X32354Y3692D01*
X32378Y3617D01*
X32387Y3559D01*
X31949Y3559D01*
G37*
%LPD*%
%LPC*%
G36*
X32991Y35559D02*
X32991Y35559D01*
X33000Y35617D01*
X33024Y35692D01*
X33060Y35762D01*
X33106Y35826D01*
X33162Y35882D01*
X33226Y35928D01*
X33296Y35964D01*
X33371Y35988D01*
X33429Y35998D01*
X33429Y35559D01*
X32991Y35559D01*
G37*
%LPD*%
%LPC*%
G36*
X33547Y35559D02*
X33547Y35559D01*
X33547Y35998D01*
X33605Y35988D01*
X33680Y35964D01*
X33751Y35928D01*
X33814Y35882D01*
X33870Y35826D01*
X33916Y35762D01*
X33952Y35692D01*
X33977Y35617D01*
X33986Y35559D01*
X33547Y35559D01*
G37*
%LPD*%
%LPC*%
G36*
X15425Y35441D02*
X15425Y35441D01*
X15864Y35441D01*
X15855Y35383D01*
X15830Y35308D01*
X15794Y35238D01*
X15748Y35174D01*
X15692Y35118D01*
X15629Y35072D01*
X15558Y35036D01*
X15483Y35012D01*
X15425Y35002D01*
X15425Y35441D01*
G37*
%LPD*%
%LPC*%
G36*
X34369Y35559D02*
X34369Y35559D01*
X34378Y35617D01*
X34402Y35692D01*
X34438Y35762D01*
X34484Y35826D01*
X34540Y35882D01*
X34604Y35928D01*
X34674Y35964D01*
X34749Y35988D01*
X34807Y35998D01*
X34807Y35559D01*
X34369Y35559D01*
G37*
%LPD*%
%LPC*%
G36*
X52991Y35559D02*
X52991Y35559D01*
X53000Y35617D01*
X53024Y35692D01*
X53060Y35762D01*
X53106Y35826D01*
X53162Y35882D01*
X53226Y35928D01*
X53296Y35964D01*
X53371Y35988D01*
X53429Y35998D01*
X53429Y35559D01*
X52991Y35559D01*
G37*
%LPD*%
%LPC*%
G36*
X54925Y35559D02*
X54925Y35559D01*
X54925Y35998D01*
X54983Y35988D01*
X55058Y35964D01*
X55129Y35928D01*
X55192Y35882D01*
X55248Y35826D01*
X55294Y35762D01*
X55330Y35692D01*
X55355Y35617D01*
X55364Y35559D01*
X54925Y35559D01*
G37*
%LPD*%
%LPC*%
G36*
X54369Y35559D02*
X54369Y35559D01*
X54378Y35617D01*
X54402Y35692D01*
X54438Y35762D01*
X54484Y35826D01*
X54540Y35882D01*
X54604Y35928D01*
X54674Y35964D01*
X54749Y35988D01*
X54807Y35998D01*
X54807Y35559D01*
X54369Y35559D01*
G37*
%LPD*%
%LPC*%
G36*
X34925Y35559D02*
X34925Y35559D01*
X34925Y35998D01*
X34983Y35988D01*
X35058Y35964D01*
X35129Y35928D01*
X35192Y35882D01*
X35248Y35826D01*
X35294Y35762D01*
X35330Y35692D01*
X35355Y35617D01*
X35364Y35559D01*
X34925Y35559D01*
G37*
%LPD*%
%LPC*%
G36*
X53547Y35559D02*
X53547Y35559D01*
X53547Y35998D01*
X53605Y35988D01*
X53680Y35964D01*
X53751Y35928D01*
X53814Y35882D01*
X53870Y35826D01*
X53916Y35762D01*
X53952Y35692D01*
X53977Y35617D01*
X53986Y35559D01*
X53547Y35559D01*
G37*
%LPD*%
%LPC*%
G36*
X14047Y35559D02*
X14047Y35559D01*
X14047Y35998D01*
X14105Y35988D01*
X14180Y35964D01*
X14251Y35928D01*
X14314Y35882D01*
X14370Y35826D01*
X14416Y35762D01*
X14452Y35692D01*
X14477Y35617D01*
X14486Y35559D01*
X14047Y35559D01*
G37*
%LPD*%
%LPC*%
G36*
X13491Y35559D02*
X13491Y35559D01*
X13500Y35617D01*
X13524Y35692D01*
X13560Y35762D01*
X13606Y35826D01*
X13662Y35882D01*
X13726Y35928D01*
X13796Y35964D01*
X13871Y35988D01*
X13929Y35998D01*
X13929Y35559D01*
X13491Y35559D01*
G37*
%LPD*%
%LPC*%
G36*
X34559Y13059D02*
X34559Y13059D01*
X34559Y13576D01*
X34599Y13568D01*
X34661Y13542D01*
X34717Y13505D01*
X34765Y13457D01*
X34802Y13401D01*
X34828Y13339D01*
X34841Y13274D01*
X34841Y13059D01*
X34559Y13059D01*
G37*
%LPD*%
%LPC*%
G36*
X29559Y13059D02*
X29559Y13059D01*
X29559Y13576D01*
X29599Y13568D01*
X29661Y13542D01*
X29717Y13505D01*
X29765Y13457D01*
X29802Y13401D01*
X29828Y13339D01*
X29841Y13274D01*
X29841Y13059D01*
X29559Y13059D01*
G37*
%LPD*%
%LPC*%
G36*
X33559Y13059D02*
X33559Y13059D01*
X33559Y13576D01*
X33599Y13568D01*
X33661Y13542D01*
X33717Y13505D01*
X33765Y13457D01*
X33802Y13401D01*
X33828Y13339D01*
X33841Y13274D01*
X33841Y13059D01*
X33559Y13059D01*
G37*
%LPD*%
%LPC*%
G36*
X32559Y13059D02*
X32559Y13059D01*
X32559Y13576D01*
X32599Y13568D01*
X32661Y13542D01*
X32717Y13505D01*
X32765Y13457D01*
X32802Y13401D01*
X32828Y13339D01*
X32841Y13274D01*
X32841Y13059D01*
X32559Y13059D01*
G37*
%LPD*%
%LPC*%
G36*
X31559Y13059D02*
X31559Y13059D01*
X31559Y13576D01*
X31599Y13568D01*
X31661Y13542D01*
X31717Y13505D01*
X31765Y13457D01*
X31802Y13401D01*
X31828Y13339D01*
X31841Y13274D01*
X31841Y13059D01*
X31559Y13059D01*
G37*
%LPD*%
%LPC*%
G36*
X27559Y13059D02*
X27559Y13059D01*
X27559Y13576D01*
X27599Y13568D01*
X27661Y13542D01*
X27717Y13505D01*
X27765Y13457D01*
X27802Y13401D01*
X27828Y13339D01*
X27841Y13274D01*
X27841Y13059D01*
X27559Y13059D01*
G37*
%LPD*%
%LPC*%
G36*
X31559Y12941D02*
X31559Y12941D01*
X31841Y12941D01*
X31841Y12726D01*
X31828Y12661D01*
X31802Y12599D01*
X31796Y12589D01*
X31765Y12543D01*
X31717Y12495D01*
X31661Y12458D01*
X31599Y12432D01*
X31559Y12424D01*
X31559Y12941D01*
G37*
%LPD*%
%LPC*%
G36*
X27559Y12941D02*
X27559Y12941D01*
X27841Y12941D01*
X27841Y12726D01*
X27828Y12661D01*
X27802Y12599D01*
X27796Y12589D01*
X27765Y12543D01*
X27717Y12495D01*
X27661Y12458D01*
X27599Y12432D01*
X27559Y12424D01*
X27559Y12941D01*
G37*
%LPD*%
%LPC*%
G36*
X34559Y12941D02*
X34559Y12941D01*
X34841Y12941D01*
X34841Y12726D01*
X34828Y12661D01*
X34802Y12599D01*
X34796Y12589D01*
X34765Y12543D01*
X34717Y12495D01*
X34661Y12458D01*
X34599Y12432D01*
X34559Y12424D01*
X34559Y12941D01*
G37*
%LPD*%
%LPC*%
G36*
X32559Y12941D02*
X32559Y12941D01*
X32841Y12941D01*
X32841Y12726D01*
X32828Y12661D01*
X32802Y12599D01*
X32796Y12589D01*
X32765Y12543D01*
X32717Y12495D01*
X32661Y12458D01*
X32599Y12432D01*
X32559Y12424D01*
X32559Y12941D01*
G37*
%LPD*%
%LPC*%
G36*
X33559Y12941D02*
X33559Y12941D01*
X33841Y12941D01*
X33841Y12726D01*
X33828Y12661D01*
X33802Y12599D01*
X33796Y12589D01*
X33765Y12543D01*
X33717Y12495D01*
X33661Y12458D01*
X33599Y12432D01*
X33559Y12424D01*
X33559Y12941D01*
G37*
%LPD*%
%LPC*%
G36*
X29559Y12941D02*
X29559Y12941D01*
X29841Y12941D01*
X29841Y12726D01*
X29828Y12661D01*
X29802Y12599D01*
X29796Y12589D01*
X29765Y12543D01*
X29717Y12495D01*
X29661Y12458D01*
X29599Y12432D01*
X29559Y12424D01*
X29559Y12941D01*
G37*
%LPD*%
%LPC*%
G36*
X33401Y12432D02*
X33401Y12432D01*
X33339Y12458D01*
X33283Y12495D01*
X33235Y12543D01*
X33198Y12599D01*
X33172Y12661D01*
X33159Y12726D01*
X33159Y12941D01*
X33441Y12941D01*
X33441Y12424D01*
X33401Y12432D01*
G37*
%LPD*%
%LPC*%
G36*
X29401Y12432D02*
X29401Y12432D01*
X29339Y12458D01*
X29283Y12495D01*
X29235Y12543D01*
X29198Y12599D01*
X29172Y12661D01*
X29159Y12726D01*
X29159Y12941D01*
X29441Y12941D01*
X29441Y12424D01*
X29401Y12432D01*
G37*
%LPD*%
%LPC*%
G36*
X32401Y12432D02*
X32401Y12432D01*
X32339Y12458D01*
X32283Y12495D01*
X32235Y12543D01*
X32198Y12599D01*
X32172Y12661D01*
X32159Y12726D01*
X32159Y12941D01*
X32441Y12941D01*
X32441Y12424D01*
X32401Y12432D01*
G37*
%LPD*%
%LPC*%
G36*
X27401Y12432D02*
X27401Y12432D01*
X27339Y12458D01*
X27283Y12495D01*
X27235Y12543D01*
X27198Y12599D01*
X27172Y12661D01*
X27159Y12726D01*
X27159Y12941D01*
X27441Y12941D01*
X27441Y12424D01*
X27401Y12432D01*
G37*
%LPD*%
%LPC*%
G36*
X34401Y12432D02*
X34401Y12432D01*
X34339Y12458D01*
X34283Y12495D01*
X34235Y12543D01*
X34198Y12599D01*
X34172Y12661D01*
X34159Y12726D01*
X34159Y12941D01*
X34441Y12941D01*
X34441Y12424D01*
X34401Y12432D01*
G37*
%LPD*%
%LPC*%
G36*
X31401Y12432D02*
X31401Y12432D01*
X31339Y12458D01*
X31283Y12495D01*
X31235Y12543D01*
X31198Y12599D01*
X31172Y12661D01*
X31159Y12726D01*
X31159Y12941D01*
X31441Y12941D01*
X31441Y12424D01*
X31401Y12432D01*
G37*
%LPD*%
%LPC*%
G36*
X32159Y13059D02*
X32159Y13059D01*
X32159Y13274D01*
X32172Y13339D01*
X32198Y13401D01*
X32201Y13405D01*
X32235Y13457D01*
X32283Y13505D01*
X32339Y13542D01*
X32401Y13568D01*
X32441Y13576D01*
X32441Y13059D01*
X32159Y13059D01*
G37*
%LPD*%
%LPC*%
G36*
X31159Y13059D02*
X31159Y13059D01*
X31159Y13274D01*
X31172Y13339D01*
X31198Y13401D01*
X31201Y13405D01*
X31235Y13457D01*
X31283Y13505D01*
X31339Y13542D01*
X31401Y13568D01*
X31441Y13576D01*
X31441Y13059D01*
X31159Y13059D01*
G37*
%LPD*%
%LPC*%
G36*
X33159Y13059D02*
X33159Y13059D01*
X33159Y13274D01*
X33172Y13339D01*
X33198Y13401D01*
X33201Y13405D01*
X33235Y13457D01*
X33283Y13505D01*
X33339Y13542D01*
X33401Y13568D01*
X33441Y13576D01*
X33441Y13059D01*
X33159Y13059D01*
G37*
%LPD*%
%LPC*%
G36*
X27159Y13059D02*
X27159Y13059D01*
X27159Y13274D01*
X27172Y13339D01*
X27198Y13401D01*
X27201Y13405D01*
X27235Y13457D01*
X27283Y13505D01*
X27339Y13542D01*
X27401Y13568D01*
X27441Y13576D01*
X27441Y13059D01*
X27159Y13059D01*
G37*
%LPD*%
%LPC*%
G36*
X34159Y13059D02*
X34159Y13059D01*
X34159Y13274D01*
X34172Y13339D01*
X34198Y13401D01*
X34201Y13405D01*
X34235Y13457D01*
X34283Y13505D01*
X34339Y13542D01*
X34401Y13568D01*
X34441Y13576D01*
X34441Y13059D01*
X34159Y13059D01*
G37*
%LPD*%
%LPC*%
G36*
X29159Y13059D02*
X29159Y13059D01*
X29159Y13274D01*
X29172Y13339D01*
X29198Y13401D01*
X29201Y13405D01*
X29235Y13457D01*
X29283Y13505D01*
X29339Y13542D01*
X29401Y13568D01*
X29441Y13576D01*
X29441Y13059D01*
X29159Y13059D01*
G37*
%LPD*%
%LPC*%
G36*
X49559Y35559D02*
X49559Y35559D01*
X49559Y35967D01*
X49610Y35959D01*
X49681Y35936D01*
X49747Y35903D01*
X49807Y35859D01*
X49859Y35807D01*
X49903Y35747D01*
X49936Y35681D01*
X49959Y35610D01*
X49967Y35559D01*
X49559Y35559D01*
G37*
%LPD*%
%LPC*%
G36*
X23033Y35559D02*
X23033Y35559D01*
X23041Y35610D01*
X23064Y35681D01*
X23097Y35747D01*
X23141Y35807D01*
X23193Y35859D01*
X23253Y35903D01*
X23319Y35936D01*
X23390Y35959D01*
X23441Y35967D01*
X23441Y35559D01*
X23033Y35559D01*
G37*
%LPD*%
%LPC*%
G36*
X43390Y35041D02*
X43390Y35041D01*
X43319Y35064D01*
X43253Y35097D01*
X43193Y35141D01*
X43141Y35193D01*
X43097Y35253D01*
X43064Y35319D01*
X43041Y35390D01*
X43033Y35441D01*
X43441Y35441D01*
X43441Y35033D01*
X43390Y35041D01*
G37*
%LPD*%
%LPC*%
G36*
X23559Y35441D02*
X23559Y35441D01*
X23967Y35441D01*
X23959Y35390D01*
X23936Y35319D01*
X23903Y35253D01*
X23859Y35193D01*
X23807Y35141D01*
X23747Y35097D01*
X23681Y35064D01*
X23610Y35041D01*
X23559Y35033D01*
X23559Y35441D01*
G37*
%LPD*%
%LPC*%
G36*
X29390Y35041D02*
X29390Y35041D01*
X29319Y35064D01*
X29253Y35097D01*
X29193Y35141D01*
X29141Y35193D01*
X29097Y35253D01*
X29064Y35319D01*
X29041Y35390D01*
X29033Y35441D01*
X29441Y35441D01*
X29441Y35033D01*
X29390Y35041D01*
G37*
%LPD*%
%LPC*%
G36*
X29559Y35441D02*
X29559Y35441D01*
X29967Y35441D01*
X29959Y35390D01*
X29936Y35319D01*
X29903Y35253D01*
X29859Y35193D01*
X29807Y35141D01*
X29747Y35097D01*
X29681Y35064D01*
X29610Y35041D01*
X29559Y35033D01*
X29559Y35441D01*
G37*
%LPD*%
%LPC*%
G36*
X3890Y35041D02*
X3890Y35041D01*
X3819Y35064D01*
X3753Y35097D01*
X3693Y35141D01*
X3641Y35193D01*
X3597Y35253D01*
X3564Y35319D01*
X3541Y35390D01*
X3533Y35441D01*
X3941Y35441D01*
X3941Y35033D01*
X3890Y35041D01*
G37*
%LPD*%
%LPC*%
G36*
X43559Y35441D02*
X43559Y35441D01*
X43967Y35441D01*
X43959Y35390D01*
X43936Y35319D01*
X43903Y35253D01*
X43859Y35193D01*
X43807Y35141D01*
X43747Y35097D01*
X43681Y35064D01*
X43610Y35041D01*
X43559Y35033D01*
X43559Y35441D01*
G37*
%LPD*%
%LPC*%
G36*
X49390Y35041D02*
X49390Y35041D01*
X49319Y35064D01*
X49253Y35097D01*
X49193Y35141D01*
X49141Y35193D01*
X49097Y35253D01*
X49064Y35319D01*
X49041Y35390D01*
X49033Y35441D01*
X49441Y35441D01*
X49441Y35033D01*
X49390Y35041D01*
G37*
%LPD*%
%LPC*%
G36*
X4059Y35441D02*
X4059Y35441D01*
X4467Y35441D01*
X4459Y35390D01*
X4436Y35319D01*
X4403Y35253D01*
X4359Y35193D01*
X4307Y35141D01*
X4247Y35097D01*
X4181Y35064D01*
X4110Y35041D01*
X4059Y35033D01*
X4059Y35441D01*
G37*
%LPD*%
%LPC*%
G36*
X9890Y35041D02*
X9890Y35041D01*
X9819Y35064D01*
X9753Y35097D01*
X9693Y35141D01*
X9641Y35193D01*
X9597Y35253D01*
X9564Y35319D01*
X9541Y35390D01*
X9533Y35441D01*
X9941Y35441D01*
X9941Y35033D01*
X9890Y35041D01*
G37*
%LPD*%
%LPC*%
G36*
X23390Y35041D02*
X23390Y35041D01*
X23319Y35064D01*
X23253Y35097D01*
X23193Y35141D01*
X23141Y35193D01*
X23097Y35253D01*
X23064Y35319D01*
X23041Y35390D01*
X23033Y35441D01*
X23441Y35441D01*
X23441Y35033D01*
X23390Y35041D01*
G37*
%LPD*%
%LPC*%
G36*
X49559Y35441D02*
X49559Y35441D01*
X49967Y35441D01*
X49959Y35390D01*
X49936Y35319D01*
X49903Y35253D01*
X49859Y35193D01*
X49807Y35141D01*
X49747Y35097D01*
X49681Y35064D01*
X49610Y35041D01*
X49559Y35033D01*
X49559Y35441D01*
G37*
%LPD*%
%LPC*%
G36*
X10059Y35441D02*
X10059Y35441D01*
X10467Y35441D01*
X10459Y35390D01*
X10436Y35319D01*
X10403Y35253D01*
X10359Y35193D01*
X10307Y35141D01*
X10247Y35097D01*
X10181Y35064D01*
X10110Y35041D01*
X10059Y35033D01*
X10059Y35441D01*
G37*
%LPD*%
%LPC*%
G36*
X5059Y29559D02*
X5059Y29559D01*
X5059Y29967D01*
X5110Y29959D01*
X5181Y29936D01*
X5247Y29903D01*
X5307Y29859D01*
X5359Y29807D01*
X5403Y29747D01*
X5436Y29681D01*
X5459Y29610D01*
X5467Y29559D01*
X5059Y29559D01*
G37*
%LPD*%
%LPC*%
G36*
X4533Y29559D02*
X4533Y29559D01*
X4541Y29610D01*
X4564Y29681D01*
X4597Y29747D01*
X4641Y29807D01*
X4693Y29859D01*
X4753Y29903D01*
X4819Y29936D01*
X4890Y29959D01*
X4941Y29967D01*
X4941Y29559D01*
X4533Y29559D01*
G37*
%LPD*%
%LPC*%
G36*
X5059Y29441D02*
X5059Y29441D01*
X5467Y29441D01*
X5459Y29390D01*
X5436Y29319D01*
X5403Y29253D01*
X5359Y29193D01*
X5307Y29141D01*
X5247Y29097D01*
X5181Y29064D01*
X5110Y29041D01*
X5059Y29033D01*
X5059Y29441D01*
G37*
%LPD*%
%LPC*%
G36*
X4890Y29041D02*
X4890Y29041D01*
X4819Y29064D01*
X4753Y29097D01*
X4693Y29141D01*
X4641Y29193D01*
X4597Y29253D01*
X4564Y29319D01*
X4541Y29390D01*
X4533Y29441D01*
X4941Y29441D01*
X4941Y29033D01*
X4890Y29041D01*
G37*
%LPD*%
%LPC*%
G36*
X56559Y4391D02*
X56559Y4391D01*
X56967Y4391D01*
X56959Y4340D01*
X56936Y4269D01*
X56903Y4203D01*
X56859Y4143D01*
X56807Y4091D01*
X56747Y4047D01*
X56681Y4014D01*
X56610Y3991D01*
X56559Y3983D01*
X56559Y4391D01*
G37*
%LPD*%
%LPC*%
G36*
X56390Y3991D02*
X56390Y3991D01*
X56319Y4014D01*
X56253Y4047D01*
X56193Y4091D01*
X56141Y4143D01*
X56097Y4203D01*
X56064Y4269D01*
X56041Y4340D01*
X56033Y4391D01*
X56441Y4391D01*
X56441Y3983D01*
X56390Y3991D01*
G37*
%LPD*%
%LPC*%
G36*
X49033Y35559D02*
X49033Y35559D01*
X49041Y35610D01*
X49064Y35681D01*
X49097Y35747D01*
X49141Y35807D01*
X49193Y35859D01*
X49253Y35903D01*
X49319Y35936D01*
X49390Y35959D01*
X49441Y35967D01*
X49441Y35559D01*
X49033Y35559D01*
G37*
%LPD*%
%LPC*%
G36*
X43559Y35559D02*
X43559Y35559D01*
X43559Y35967D01*
X43610Y35959D01*
X43681Y35936D01*
X43747Y35903D01*
X43807Y35859D01*
X43859Y35807D01*
X43903Y35747D01*
X43936Y35681D01*
X43959Y35610D01*
X43967Y35559D01*
X43559Y35559D01*
G37*
%LPD*%
%LPC*%
G36*
X43033Y35559D02*
X43033Y35559D01*
X43041Y35610D01*
X43064Y35681D01*
X43097Y35747D01*
X43141Y35807D01*
X43193Y35859D01*
X43253Y35903D01*
X43319Y35936D01*
X43390Y35959D01*
X43441Y35967D01*
X43441Y35559D01*
X43033Y35559D01*
G37*
%LPD*%
%LPC*%
G36*
X29559Y35559D02*
X29559Y35559D01*
X29559Y35967D01*
X29610Y35959D01*
X29681Y35936D01*
X29747Y35903D01*
X29807Y35859D01*
X29859Y35807D01*
X29903Y35747D01*
X29936Y35681D01*
X29959Y35610D01*
X29967Y35559D01*
X29559Y35559D01*
G37*
%LPD*%
%LPC*%
G36*
X29033Y35559D02*
X29033Y35559D01*
X29041Y35610D01*
X29064Y35681D01*
X29097Y35747D01*
X29141Y35807D01*
X29193Y35859D01*
X29253Y35903D01*
X29319Y35936D01*
X29390Y35959D01*
X29441Y35967D01*
X29441Y35559D01*
X29033Y35559D01*
G37*
%LPD*%
%LPC*%
G36*
X23559Y35559D02*
X23559Y35559D01*
X23559Y35967D01*
X23610Y35959D01*
X23681Y35936D01*
X23747Y35903D01*
X23807Y35859D01*
X23859Y35807D01*
X23903Y35747D01*
X23936Y35681D01*
X23959Y35610D01*
X23967Y35559D01*
X23559Y35559D01*
G37*
%LPD*%
%LPC*%
G36*
X3533Y35559D02*
X3533Y35559D01*
X3541Y35610D01*
X3564Y35681D01*
X3597Y35747D01*
X3641Y35807D01*
X3693Y35859D01*
X3753Y35903D01*
X3819Y35936D01*
X3890Y35959D01*
X3941Y35967D01*
X3941Y35559D01*
X3533Y35559D01*
G37*
%LPD*%
%LPC*%
G36*
X10059Y35559D02*
X10059Y35559D01*
X10059Y35967D01*
X10110Y35959D01*
X10181Y35936D01*
X10247Y35903D01*
X10307Y35859D01*
X10359Y35807D01*
X10403Y35747D01*
X10436Y35681D01*
X10459Y35610D01*
X10467Y35559D01*
X10059Y35559D01*
G37*
%LPD*%
%LPC*%
G36*
X4059Y35559D02*
X4059Y35559D01*
X4059Y35967D01*
X4110Y35959D01*
X4181Y35936D01*
X4247Y35903D01*
X4307Y35859D01*
X4359Y35807D01*
X4403Y35747D01*
X4436Y35681D01*
X4459Y35610D01*
X4467Y35559D01*
X4059Y35559D01*
G37*
%LPD*%
%LPC*%
G36*
X9533Y35559D02*
X9533Y35559D01*
X9541Y35610D01*
X9564Y35681D01*
X9597Y35747D01*
X9641Y35807D01*
X9693Y35859D01*
X9753Y35903D01*
X9819Y35936D01*
X9890Y35959D01*
X9941Y35967D01*
X9941Y35559D01*
X9533Y35559D01*
G37*
%LPD*%
%LPC*%
G36*
X10559Y10559D02*
X10559Y10559D01*
X10559Y10967D01*
X10610Y10959D01*
X10681Y10936D01*
X10747Y10903D01*
X10807Y10859D01*
X10859Y10807D01*
X10903Y10747D01*
X10936Y10681D01*
X10959Y10610D01*
X10967Y10559D01*
X10559Y10559D01*
G37*
%LPD*%
%LPC*%
G36*
X10033Y10559D02*
X10033Y10559D01*
X10041Y10610D01*
X10064Y10681D01*
X10097Y10747D01*
X10141Y10807D01*
X10193Y10859D01*
X10253Y10903D01*
X10319Y10936D01*
X10390Y10959D01*
X10441Y10967D01*
X10441Y10559D01*
X10033Y10559D01*
G37*
%LPD*%
%LPC*%
G36*
X11033Y10559D02*
X11033Y10559D01*
X11041Y10610D01*
X11064Y10681D01*
X11097Y10747D01*
X11141Y10807D01*
X11193Y10859D01*
X11253Y10903D01*
X11319Y10936D01*
X11390Y10959D01*
X11441Y10967D01*
X11441Y10559D01*
X11033Y10559D01*
G37*
%LPD*%
%LPC*%
G36*
X11559Y10559D02*
X11559Y10559D01*
X11559Y10967D01*
X11610Y10959D01*
X11681Y10936D01*
X11747Y10903D01*
X11807Y10859D01*
X11859Y10807D01*
X11903Y10747D01*
X11936Y10681D01*
X11959Y10610D01*
X11967Y10559D01*
X11559Y10559D01*
G37*
%LPD*%
%LPC*%
G36*
X56559Y4509D02*
X56559Y4509D01*
X56559Y4917D01*
X56610Y4909D01*
X56681Y4886D01*
X56747Y4853D01*
X56807Y4809D01*
X56859Y4757D01*
X56903Y4697D01*
X56936Y4631D01*
X56959Y4560D01*
X56967Y4509D01*
X56559Y4509D01*
G37*
%LPD*%
%LPC*%
G36*
X56033Y4509D02*
X56033Y4509D01*
X56041Y4560D01*
X56064Y4631D01*
X56097Y4697D01*
X56141Y4757D01*
X56193Y4809D01*
X56253Y4853D01*
X56319Y4886D01*
X56390Y4909D01*
X56441Y4917D01*
X56441Y4509D01*
X56033Y4509D01*
G37*
%LPD*%
%LPC*%
G36*
X10390Y10041D02*
X10390Y10041D01*
X10319Y10064D01*
X10253Y10097D01*
X10193Y10141D01*
X10141Y10193D01*
X10097Y10253D01*
X10064Y10319D01*
X10041Y10390D01*
X10033Y10441D01*
X10441Y10441D01*
X10441Y10033D01*
X10390Y10041D01*
G37*
%LPD*%
%LPC*%
G36*
X10559Y10441D02*
X10559Y10441D01*
X10967Y10441D01*
X10959Y10390D01*
X10936Y10319D01*
X10903Y10253D01*
X10859Y10193D01*
X10807Y10141D01*
X10747Y10097D01*
X10681Y10064D01*
X10610Y10041D01*
X10559Y10033D01*
X10559Y10441D01*
G37*
%LPD*%
%LPC*%
G36*
X11390Y10041D02*
X11390Y10041D01*
X11319Y10064D01*
X11253Y10097D01*
X11193Y10141D01*
X11141Y10193D01*
X11097Y10253D01*
X11064Y10319D01*
X11041Y10390D01*
X11033Y10441D01*
X11441Y10441D01*
X11441Y10033D01*
X11390Y10041D01*
G37*
%LPD*%
%LPC*%
G36*
X11559Y10441D02*
X11559Y10441D01*
X11967Y10441D01*
X11959Y10390D01*
X11936Y10319D01*
X11903Y10253D01*
X11859Y10193D01*
X11807Y10141D01*
X11747Y10097D01*
X11681Y10064D01*
X11610Y10041D01*
X11559Y10033D01*
X11559Y10441D01*
G37*
%LPD*%
%LPC*%
G36*
X56390Y4991D02*
X56390Y4991D01*
X56319Y5014D01*
X56253Y5047D01*
X56193Y5091D01*
X56141Y5143D01*
X56097Y5203D01*
X56064Y5269D01*
X56041Y5340D01*
X56033Y5391D01*
X56441Y5391D01*
X56441Y4983D01*
X56390Y4991D01*
G37*
%LPD*%
%LPC*%
G36*
X56559Y5391D02*
X56559Y5391D01*
X56967Y5391D01*
X56959Y5340D01*
X56936Y5269D01*
X56903Y5203D01*
X56859Y5143D01*
X56807Y5091D01*
X56747Y5047D01*
X56681Y5014D01*
X56610Y4991D01*
X56559Y4983D01*
X56559Y5391D01*
G37*
%LPD*%
%LPC*%
G36*
X56559Y5509D02*
X56559Y5509D01*
X56559Y5917D01*
X56610Y5909D01*
X56681Y5886D01*
X56747Y5853D01*
X56807Y5809D01*
X56859Y5757D01*
X56903Y5697D01*
X56936Y5631D01*
X56959Y5560D01*
X56967Y5509D01*
X56559Y5509D01*
G37*
%LPD*%
%LPC*%
G36*
X56033Y5509D02*
X56033Y5509D01*
X56041Y5560D01*
X56064Y5631D01*
X56097Y5697D01*
X56141Y5757D01*
X56193Y5809D01*
X56253Y5853D01*
X56319Y5886D01*
X56390Y5909D01*
X56441Y5917D01*
X56441Y5509D01*
X56033Y5509D01*
G37*
%LPD*%
%LPC*%
G36*
X60229Y19162D02*
X60229Y19162D01*
X60164Y19175D01*
X60102Y19200D01*
X60047Y19237D01*
X60000Y19284D01*
X59963Y19340D01*
X59937Y19401D01*
X59929Y19441D01*
X60441Y19441D01*
X60441Y19162D01*
X60229Y19162D01*
G37*
%LPD*%
%LPC*%
G36*
X59929Y19559D02*
X59929Y19559D01*
X59937Y19599D01*
X59963Y19660D01*
X60000Y19716D01*
X60047Y19763D01*
X60102Y19800D01*
X60164Y19825D01*
X60229Y19838D01*
X60441Y19838D01*
X60441Y19559D01*
X59929Y19559D01*
G37*
%LPD*%
%LPC*%
G36*
X60559Y19559D02*
X60559Y19559D01*
X60559Y19838D01*
X60771Y19838D01*
X60836Y19825D01*
X60898Y19800D01*
X60953Y19763D01*
X61000Y19716D01*
X61037Y19660D01*
X61063Y19599D01*
X61071Y19559D01*
X60559Y19559D01*
G37*
%LPD*%
%LPC*%
G36*
X60559Y19162D02*
X60559Y19162D01*
X60559Y19441D01*
X61071Y19441D01*
X61063Y19401D01*
X61037Y19340D01*
X61022Y19317D01*
X61000Y19284D01*
X60953Y19237D01*
X60898Y19200D01*
X60836Y19175D01*
X60771Y19162D01*
X60559Y19162D01*
G37*
%LPD*%
%LPC*%
G36*
X45559Y27059D02*
X45559Y27059D01*
X45559Y27416D01*
X45672Y27416D01*
X45916Y27172D01*
X45916Y27059D01*
X45559Y27059D01*
G37*
%LPD*%
%LPC*%
G36*
X47559Y27059D02*
X47559Y27059D01*
X47559Y27416D01*
X47672Y27416D01*
X47916Y27172D01*
X47916Y27059D01*
X47559Y27059D01*
G37*
%LPD*%
%LPC*%
G36*
X49559Y27059D02*
X49559Y27059D01*
X49559Y27416D01*
X49672Y27416D01*
X49916Y27172D01*
X49916Y27059D01*
X49559Y27059D01*
G37*
%LPD*%
%LPC*%
G36*
X49084Y27059D02*
X49084Y27059D01*
X49084Y27172D01*
X49328Y27416D01*
X49441Y27416D01*
X49441Y27059D01*
X49084Y27059D01*
G37*
%LPD*%
%LPC*%
G36*
X45084Y27059D02*
X45084Y27059D01*
X45084Y27172D01*
X45328Y27416D01*
X45441Y27416D01*
X45441Y27059D01*
X45084Y27059D01*
G37*
%LPD*%
%LPC*%
G36*
X47084Y27059D02*
X47084Y27059D01*
X47084Y27172D01*
X47328Y27416D01*
X47441Y27416D01*
X47441Y27059D01*
X47084Y27059D01*
G37*
%LPD*%
%LPC*%
G36*
X47559Y26584D02*
X47559Y26584D01*
X47559Y26941D01*
X47916Y26941D01*
X47916Y26828D01*
X47672Y26584D01*
X47559Y26584D01*
G37*
%LPD*%
%LPC*%
G36*
X49559Y26584D02*
X49559Y26584D01*
X49559Y26941D01*
X49916Y26941D01*
X49916Y26828D01*
X49672Y26584D01*
X49559Y26584D01*
G37*
%LPD*%
%LPC*%
G36*
X45559Y26584D02*
X45559Y26584D01*
X45559Y26941D01*
X45916Y26941D01*
X45916Y26828D01*
X45672Y26584D01*
X45559Y26584D01*
G37*
%LPD*%
%LPC*%
G36*
X45328Y26584D02*
X45328Y26584D01*
X45084Y26828D01*
X45084Y26941D01*
X45441Y26941D01*
X45441Y26584D01*
X45328Y26584D01*
G37*
%LPD*%
%LPC*%
G36*
X49328Y26584D02*
X49328Y26584D01*
X49084Y26828D01*
X49084Y26941D01*
X49441Y26941D01*
X49441Y26584D01*
X49328Y26584D01*
G37*
%LPD*%
%LPC*%
G36*
X47328Y26584D02*
X47328Y26584D01*
X47084Y26828D01*
X47084Y26941D01*
X47441Y26941D01*
X47441Y26584D01*
X47328Y26584D01*
G37*
%LPD*%
%LPC*%
G36*
X3999Y35499D02*
X3999Y35499D01*
X3999Y35501D01*
X4001Y35501D01*
X4001Y35499D01*
X3999Y35499D01*
G37*
%LPD*%
%LPC*%
G36*
X9999Y35499D02*
X9999Y35499D01*
X9999Y35501D01*
X10001Y35501D01*
X10001Y35499D01*
X9999Y35499D01*
G37*
%LPD*%
%LPC*%
G36*
X49499Y26999D02*
X49499Y26999D01*
X49499Y27001D01*
X49501Y27001D01*
X49501Y26999D01*
X49499Y26999D01*
G37*
%LPD*%
%LPC*%
G36*
X47499Y26999D02*
X47499Y26999D01*
X47499Y27001D01*
X47501Y27001D01*
X47501Y26999D01*
X47499Y26999D01*
G37*
%LPD*%
%LPC*%
G36*
X45499Y26999D02*
X45499Y26999D01*
X45499Y27001D01*
X45501Y27001D01*
X45501Y26999D01*
X45499Y26999D01*
G37*
%LPD*%
%LPC*%
G36*
X13987Y35499D02*
X13987Y35499D01*
X13987Y35501D01*
X13989Y35501D01*
X13989Y35499D01*
X13987Y35499D01*
G37*
%LPD*%
%LPC*%
G36*
X56499Y4449D02*
X56499Y4449D01*
X56499Y4451D01*
X56501Y4451D01*
X56501Y4449D01*
X56499Y4449D01*
G37*
%LPD*%
%LPC*%
G36*
X10499Y10499D02*
X10499Y10499D01*
X10499Y10501D01*
X10501Y10501D01*
X10501Y10499D01*
X10499Y10499D01*
G37*
%LPD*%
%LPC*%
G36*
X11499Y10499D02*
X11499Y10499D01*
X11499Y10501D01*
X11501Y10501D01*
X11501Y10499D01*
X11499Y10499D01*
G37*
%LPD*%
%LPC*%
G36*
X38999Y19499D02*
X38999Y19499D01*
X38999Y19501D01*
X39001Y19501D01*
X39001Y19499D01*
X38999Y19499D01*
G37*
%LPD*%
%LPC*%
G36*
X60499Y19499D02*
X60499Y19499D01*
X60499Y19501D01*
X60501Y19501D01*
X60501Y19499D01*
X60499Y19499D01*
G37*
%LPD*%
%LPC*%
G36*
X56499Y5449D02*
X56499Y5449D01*
X56499Y5451D01*
X56501Y5451D01*
X56501Y5449D01*
X56499Y5449D01*
G37*
%LPD*%
%LPC*%
G36*
X42889Y3499D02*
X42889Y3499D01*
X42889Y3501D01*
X42891Y3501D01*
X42891Y3499D01*
X42889Y3499D01*
G37*
%LPD*%
%LPC*%
G36*
X41511Y3499D02*
X41511Y3499D01*
X41511Y3501D01*
X41513Y3501D01*
X41513Y3499D01*
X41511Y3499D01*
G37*
%LPD*%
%LPC*%
G36*
X31889Y3499D02*
X31889Y3499D01*
X31889Y3501D01*
X31891Y3501D01*
X31891Y3499D01*
X31889Y3499D01*
G37*
%LPD*%
%LPC*%
G36*
X21889Y3499D02*
X21889Y3499D01*
X21889Y3501D01*
X21891Y3501D01*
X21891Y3499D01*
X21889Y3499D01*
G37*
%LPD*%
%LPC*%
G36*
X30511Y3499D02*
X30511Y3499D01*
X30511Y3501D01*
X30513Y3501D01*
X30513Y3499D01*
X30511Y3499D01*
G37*
%LPD*%
%LPC*%
G36*
X11889Y3499D02*
X11889Y3499D01*
X11889Y3501D01*
X11891Y3501D01*
X11891Y3499D01*
X11889Y3499D01*
G37*
%LPD*%
%LPC*%
G36*
X10511Y3499D02*
X10511Y3499D01*
X10511Y3501D01*
X10513Y3501D01*
X10513Y3499D01*
X10511Y3499D01*
G37*
%LPD*%
%LPC*%
G36*
X20511Y3499D02*
X20511Y3499D01*
X20511Y3501D01*
X20513Y3501D01*
X20513Y3499D01*
X20511Y3499D01*
G37*
%LPD*%
%LPC*%
G36*
X15365Y35499D02*
X15365Y35499D01*
X15365Y35501D01*
X15367Y35501D01*
X15367Y35499D01*
X15365Y35499D01*
G37*
%LPD*%
%LPC*%
G36*
X23499Y35499D02*
X23499Y35499D01*
X23499Y35501D01*
X23501Y35501D01*
X23501Y35499D01*
X23499Y35499D01*
G37*
%LPD*%
%LPC*%
G36*
X4999Y29499D02*
X4999Y29499D01*
X4999Y29501D01*
X5001Y29501D01*
X5001Y29499D01*
X4999Y29499D01*
G37*
%LPD*%
%LPC*%
G36*
X29499Y35499D02*
X29499Y35499D01*
X29499Y35501D01*
X29501Y35501D01*
X29501Y35499D01*
X29499Y35499D01*
G37*
%LPD*%
%LPC*%
G36*
X33487Y35499D02*
X33487Y35499D01*
X33487Y35501D01*
X33489Y35501D01*
X33489Y35499D01*
X33487Y35499D01*
G37*
%LPD*%
%LPC*%
G36*
X34865Y35499D02*
X34865Y35499D01*
X34865Y35501D01*
X34867Y35501D01*
X34867Y35499D01*
X34865Y35499D01*
G37*
%LPD*%
%LPC*%
G36*
X43499Y35499D02*
X43499Y35499D01*
X43499Y35501D01*
X43501Y35501D01*
X43501Y35499D01*
X43499Y35499D01*
G37*
%LPD*%
%LPC*%
G36*
X49499Y35499D02*
X49499Y35499D01*
X49499Y35501D01*
X49501Y35501D01*
X49501Y35499D01*
X49499Y35499D01*
G37*
%LPD*%
%LPC*%
G36*
X53487Y35499D02*
X53487Y35499D01*
X53487Y35501D01*
X53489Y35501D01*
X53489Y35499D01*
X53487Y35499D01*
G37*
%LPD*%
%LPC*%
G36*
X54865Y35499D02*
X54865Y35499D01*
X54865Y35501D01*
X54867Y35501D01*
X54867Y35499D01*
X54865Y35499D01*
G37*
%LPD*%
%LPC*%
G36*
X27499Y12999D02*
X27499Y12999D01*
X27499Y13001D01*
X27501Y13001D01*
X27501Y12999D01*
X27499Y12999D01*
G37*
%LPD*%
%LPC*%
G36*
X29499Y12999D02*
X29499Y12999D01*
X29499Y13001D01*
X29501Y13001D01*
X29501Y12999D01*
X29499Y12999D01*
G37*
%LPD*%
%LPC*%
G36*
X31499Y12999D02*
X31499Y12999D01*
X31499Y13001D01*
X31501Y13001D01*
X31501Y12999D01*
X31499Y12999D01*
G37*
%LPD*%
%LPC*%
G36*
X32499Y12999D02*
X32499Y12999D01*
X32499Y13001D01*
X32501Y13001D01*
X32501Y12999D01*
X32499Y12999D01*
G37*
%LPD*%
%LPC*%
G36*
X33499Y12999D02*
X33499Y12999D01*
X33499Y13001D01*
X33501Y13001D01*
X33501Y12999D01*
X33499Y12999D01*
G37*
%LPD*%
%LPC*%
G36*
X34499Y12999D02*
X34499Y12999D01*
X34499Y13001D01*
X34501Y13001D01*
X34501Y12999D01*
X34499Y12999D01*
G37*
%LPD*%
%LPC*%
G36*
X61787Y30850D02*
X61787Y30850D01*
X61787Y30851D01*
X61788Y30851D01*
X61788Y30850D01*
X61787Y30850D01*
G37*
%LPD*%
%LPC*%
G36*
X62968Y28999D02*
X62968Y28999D01*
X62968Y29001D01*
X62969Y29001D01*
X62969Y28999D01*
X62968Y28999D01*
G37*
%LPD*%
D10*
X0Y39000D02*
X0Y1000D01*
X2Y940D01*
X7Y879D01*
X16Y820D01*
X29Y761D01*
X45Y702D01*
X65Y645D01*
X88Y590D01*
X115Y535D01*
X144Y483D01*
X177Y432D01*
X213Y383D01*
X251Y337D01*
X293Y293D01*
X337Y251D01*
X383Y213D01*
X432Y177D01*
X483Y144D01*
X535Y115D01*
X590Y88D01*
X645Y65D01*
X702Y45D01*
X761Y29D01*
X820Y16D01*
X879Y7D01*
X940Y2D01*
X1000Y0D01*
X64000Y0D01*
X64060Y2D01*
X64121Y7D01*
X64180Y16D01*
X64239Y29D01*
X64298Y45D01*
X64355Y65D01*
X64410Y88D01*
X64465Y115D01*
X64517Y144D01*
X64568Y177D01*
X64617Y213D01*
X64663Y251D01*
X64707Y293D01*
X64749Y337D01*
X64787Y383D01*
X64823Y432D01*
X64856Y483D01*
X64885Y535D01*
X64912Y590D01*
X64935Y645D01*
X64955Y702D01*
X64971Y761D01*
X64984Y820D01*
X64993Y879D01*
X64998Y940D01*
X65000Y1000D01*
X65000Y39000D01*
X64998Y39060D01*
X64993Y39121D01*
X64984Y39180D01*
X64971Y39239D01*
X64955Y39298D01*
X64935Y39355D01*
X64912Y39410D01*
X64885Y39465D01*
X64856Y39517D01*
X64823Y39568D01*
X64787Y39617D01*
X64749Y39663D01*
X64707Y39707D01*
X64663Y39749D01*
X64617Y39787D01*
X64568Y39823D01*
X64517Y39856D01*
X64465Y39885D01*
X64410Y39912D01*
X64355Y39935D01*
X64298Y39955D01*
X64239Y39971D01*
X64180Y39984D01*
X64121Y39993D01*
X64060Y39998D01*
X64000Y40000D01*
X1000Y40000D01*
X940Y39998D01*
X879Y39993D01*
X820Y39984D01*
X761Y39971D01*
X702Y39955D01*
X645Y39935D01*
X590Y39912D01*
X535Y39885D01*
X483Y39856D01*
X432Y39823D01*
X383Y39787D01*
X337Y39749D01*
X293Y39707D01*
X251Y39663D01*
X213Y39617D01*
X177Y39568D01*
X144Y39517D01*
X115Y39465D01*
X88Y39410D01*
X65Y39355D01*
X45Y39298D01*
X29Y39239D01*
X16Y39180D01*
X7Y39121D01*
X2Y39060D01*
X0Y39000D01*
D11*
X7500Y10500D03*
X8500Y10500D03*
X9500Y10500D03*
X10500Y10500D03*
X11500Y10500D03*
X12500Y10500D03*
X14500Y10500D03*
X15500Y10500D03*
X16500Y10500D03*
X17500Y10500D03*
X18500Y10500D03*
X19500Y10500D03*
X19500Y29500D03*
X18500Y29500D03*
X17500Y29500D03*
X16500Y29500D03*
X15500Y29500D03*
X14500Y29500D03*
X13500Y29500D03*
X12500Y29500D03*
X11000Y29500D03*
X10000Y29500D03*
X9000Y29500D03*
X8000Y29500D03*
X7000Y29500D03*
X6000Y29500D03*
X5000Y29500D03*
X4000Y29500D03*
X3000Y29500D03*
X2000Y29500D03*
X6500Y10500D03*
X5500Y10500D03*
D12*
X59000Y35500D03*
D13*
X57622Y35500D03*
X56244Y35500D03*
X54866Y35500D03*
X53488Y35500D03*
D11*
X44500Y35500D03*
X43500Y35500D03*
D12*
X19500Y35500D03*
D13*
X18122Y35500D03*
X16744Y35500D03*
X15366Y35500D03*
X13988Y35500D03*
D11*
X12000Y35500D03*
X11000Y35500D03*
X10000Y35500D03*
X56500Y11450D03*
X56500Y10450D03*
X56500Y9450D03*
X56500Y8450D03*
X56500Y7450D03*
X56500Y6450D03*
X56500Y5450D03*
X56500Y4450D03*
D14*
X60606Y29000D03*
X62969Y29000D03*
X61787Y30850D03*
D11*
X8000Y35500D03*
X7000Y35500D03*
D12*
X5000Y3500D03*
D13*
X6378Y3500D03*
X7756Y3500D03*
X9134Y3500D03*
X10512Y3500D03*
X11890Y3500D03*
D11*
X5000Y35500D03*
X4000Y35500D03*
D12*
X36000Y3500D03*
D13*
X37378Y3500D03*
X38756Y3500D03*
X40134Y3500D03*
X41512Y3500D03*
X42890Y3500D03*
D12*
X39000Y35500D03*
D13*
X37622Y35500D03*
X36244Y35500D03*
X34866Y35500D03*
X33488Y35500D03*
D11*
X31500Y35500D03*
X30500Y35500D03*
X29500Y35500D03*
X51500Y35500D03*
X50500Y35500D03*
X49500Y35500D03*
X27500Y35500D03*
X26500Y35500D03*
X24500Y35500D03*
X23500Y35500D03*
X47500Y35500D03*
X46500Y35500D03*
D12*
X15000Y3500D03*
D13*
X16378Y3500D03*
X17756Y3500D03*
X19134Y3500D03*
X20512Y3500D03*
X21890Y3500D03*
D12*
X25000Y3500D03*
D13*
X26378Y3500D03*
X27756Y3500D03*
X29134Y3500D03*
X30512Y3500D03*
X31890Y3500D03*
D15*
X40500Y23500D03*
X40500Y28500D03*
X38500Y23500D03*
X38500Y28500D03*
D16*
X27000Y28500D03*
X27000Y23500D03*
X29000Y28500D03*
X29000Y23500D03*
D15*
X36500Y23500D03*
X36500Y28500D03*
D16*
X31000Y28500D03*
X31000Y23500D03*
D17*
X53600Y27500D02*
X54000Y27500D01*
D18*
X54400Y27500D03*
X54000Y27500D03*
X53600Y27500D03*
D19*
X39000Y14500D03*
X39000Y17000D03*
X39000Y19500D03*
D10*
X1350Y38000D02*
X1352Y38050D01*
X1358Y38100D01*
X1368Y38150D01*
X1381Y38198D01*
X1398Y38246D01*
X1419Y38292D01*
X1443Y38336D01*
X1471Y38378D01*
X1502Y38418D01*
X1536Y38455D01*
X1573Y38490D01*
X1612Y38521D01*
X1653Y38550D01*
X1697Y38575D01*
X1743Y38597D01*
X1790Y38615D01*
X1838Y38629D01*
X1887Y38640D01*
X1937Y38647D01*
X1987Y38650D01*
X2038Y38649D01*
X2088Y38644D01*
X2138Y38635D01*
X2186Y38623D01*
X2234Y38606D01*
X2280Y38586D01*
X2325Y38563D01*
X2368Y38536D01*
X2408Y38506D01*
X2446Y38473D01*
X2481Y38437D01*
X2514Y38398D01*
X2543Y38357D01*
X2569Y38314D01*
X2592Y38269D01*
X2611Y38222D01*
X2626Y38174D01*
X2638Y38125D01*
X2646Y38075D01*
X2650Y38025D01*
X2650Y37975D01*
X2646Y37925D01*
X2638Y37875D01*
X2626Y37826D01*
X2611Y37778D01*
X2592Y37731D01*
X2569Y37686D01*
X2543Y37643D01*
X2514Y37602D01*
X2481Y37563D01*
X2446Y37527D01*
X2408Y37494D01*
X2368Y37464D01*
X2325Y37437D01*
X2280Y37414D01*
X2234Y37394D01*
X2186Y37377D01*
X2138Y37365D01*
X2088Y37356D01*
X2038Y37351D01*
X1987Y37350D01*
X1937Y37353D01*
X1887Y37360D01*
X1838Y37371D01*
X1790Y37385D01*
X1743Y37403D01*
X1697Y37425D01*
X1653Y37450D01*
X1612Y37479D01*
X1573Y37510D01*
X1536Y37545D01*
X1502Y37582D01*
X1471Y37622D01*
X1443Y37664D01*
X1419Y37708D01*
X1398Y37754D01*
X1381Y37802D01*
X1368Y37850D01*
X1358Y37900D01*
X1352Y37950D01*
X1350Y38000D01*
X62350Y2000D02*
X62352Y2050D01*
X62358Y2100D01*
X62368Y2150D01*
X62381Y2198D01*
X62398Y2246D01*
X62419Y2292D01*
X62443Y2336D01*
X62471Y2378D01*
X62502Y2418D01*
X62536Y2455D01*
X62573Y2490D01*
X62612Y2521D01*
X62653Y2550D01*
X62697Y2575D01*
X62743Y2597D01*
X62790Y2615D01*
X62838Y2629D01*
X62887Y2640D01*
X62937Y2647D01*
X62987Y2650D01*
X63038Y2649D01*
X63088Y2644D01*
X63138Y2635D01*
X63186Y2623D01*
X63234Y2606D01*
X63280Y2586D01*
X63325Y2563D01*
X63368Y2536D01*
X63408Y2506D01*
X63446Y2473D01*
X63481Y2437D01*
X63514Y2398D01*
X63543Y2357D01*
X63569Y2314D01*
X63592Y2269D01*
X63611Y2222D01*
X63626Y2174D01*
X63638Y2125D01*
X63646Y2075D01*
X63650Y2025D01*
X63650Y1975D01*
X63646Y1925D01*
X63638Y1875D01*
X63626Y1826D01*
X63611Y1778D01*
X63592Y1731D01*
X63569Y1686D01*
X63543Y1643D01*
X63514Y1602D01*
X63481Y1563D01*
X63446Y1527D01*
X63408Y1494D01*
X63368Y1464D01*
X63325Y1437D01*
X63280Y1414D01*
X63234Y1394D01*
X63186Y1377D01*
X63138Y1365D01*
X63088Y1356D01*
X63038Y1351D01*
X62987Y1350D01*
X62937Y1353D01*
X62887Y1360D01*
X62838Y1371D01*
X62790Y1385D01*
X62743Y1403D01*
X62697Y1425D01*
X62653Y1450D01*
X62612Y1479D01*
X62573Y1510D01*
X62536Y1545D01*
X62502Y1582D01*
X62471Y1622D01*
X62443Y1664D01*
X62419Y1708D01*
X62398Y1754D01*
X62381Y1802D01*
X62368Y1850D01*
X62358Y1900D01*
X62352Y1950D01*
X62350Y2000D01*
X62350Y38000D02*
X62352Y38050D01*
X62358Y38100D01*
X62368Y38150D01*
X62381Y38198D01*
X62398Y38246D01*
X62419Y38292D01*
X62443Y38336D01*
X62471Y38378D01*
X62502Y38418D01*
X62536Y38455D01*
X62573Y38490D01*
X62612Y38521D01*
X62653Y38550D01*
X62697Y38575D01*
X62743Y38597D01*
X62790Y38615D01*
X62838Y38629D01*
X62887Y38640D01*
X62937Y38647D01*
X62987Y38650D01*
X63038Y38649D01*
X63088Y38644D01*
X63138Y38635D01*
X63186Y38623D01*
X63234Y38606D01*
X63280Y38586D01*
X63325Y38563D01*
X63368Y38536D01*
X63408Y38506D01*
X63446Y38473D01*
X63481Y38437D01*
X63514Y38398D01*
X63543Y38357D01*
X63569Y38314D01*
X63592Y38269D01*
X63611Y38222D01*
X63626Y38174D01*
X63638Y38125D01*
X63646Y38075D01*
X63650Y38025D01*
X63650Y37975D01*
X63646Y37925D01*
X63638Y37875D01*
X63626Y37826D01*
X63611Y37778D01*
X63592Y37731D01*
X63569Y37686D01*
X63543Y37643D01*
X63514Y37602D01*
X63481Y37563D01*
X63446Y37527D01*
X63408Y37494D01*
X63368Y37464D01*
X63325Y37437D01*
X63280Y37414D01*
X63234Y37394D01*
X63186Y37377D01*
X63138Y37365D01*
X63088Y37356D01*
X63038Y37351D01*
X62987Y37350D01*
X62937Y37353D01*
X62887Y37360D01*
X62838Y37371D01*
X62790Y37385D01*
X62743Y37403D01*
X62697Y37425D01*
X62653Y37450D01*
X62612Y37479D01*
X62573Y37510D01*
X62536Y37545D01*
X62502Y37582D01*
X62471Y37622D01*
X62443Y37664D01*
X62419Y37708D01*
X62398Y37754D01*
X62381Y37802D01*
X62368Y37850D01*
X62358Y37900D01*
X62352Y37950D01*
X62350Y38000D01*
X1350Y2000D02*
X1352Y2050D01*
X1358Y2100D01*
X1368Y2150D01*
X1381Y2198D01*
X1398Y2246D01*
X1419Y2292D01*
X1443Y2336D01*
X1471Y2378D01*
X1502Y2418D01*
X1536Y2455D01*
X1573Y2490D01*
X1612Y2521D01*
X1653Y2550D01*
X1697Y2575D01*
X1743Y2597D01*
X1790Y2615D01*
X1838Y2629D01*
X1887Y2640D01*
X1937Y2647D01*
X1987Y2650D01*
X2038Y2649D01*
X2088Y2644D01*
X2138Y2635D01*
X2186Y2623D01*
X2234Y2606D01*
X2280Y2586D01*
X2325Y2563D01*
X2368Y2536D01*
X2408Y2506D01*
X2446Y2473D01*
X2481Y2437D01*
X2514Y2398D01*
X2543Y2357D01*
X2569Y2314D01*
X2592Y2269D01*
X2611Y2222D01*
X2626Y2174D01*
X2638Y2125D01*
X2646Y2075D01*
X2650Y2025D01*
X2650Y1975D01*
X2646Y1925D01*
X2638Y1875D01*
X2626Y1826D01*
X2611Y1778D01*
X2592Y1731D01*
X2569Y1686D01*
X2543Y1643D01*
X2514Y1602D01*
X2481Y1563D01*
X2446Y1527D01*
X2408Y1494D01*
X2368Y1464D01*
X2325Y1437D01*
X2280Y1414D01*
X2234Y1394D01*
X2186Y1377D01*
X2138Y1365D01*
X2088Y1356D01*
X2038Y1351D01*
X1987Y1350D01*
X1937Y1353D01*
X1887Y1360D01*
X1838Y1371D01*
X1790Y1385D01*
X1743Y1403D01*
X1697Y1425D01*
X1653Y1450D01*
X1612Y1479D01*
X1573Y1510D01*
X1536Y1545D01*
X1502Y1582D01*
X1471Y1622D01*
X1443Y1664D01*
X1419Y1708D01*
X1398Y1754D01*
X1381Y1802D01*
X1368Y1850D01*
X1358Y1900D01*
X1352Y1950D01*
X1350Y2000D01*
D20*
X60263Y19500D02*
X60737Y19500D01*
X60737Y18500D02*
X60263Y18500D01*
D21*
X62500Y20500D03*
X62500Y16500D03*
D22*
X26500Y13240D02*
X26500Y12760D01*
X27500Y12760D02*
X27500Y13240D01*
X28500Y13240D02*
X28500Y12760D01*
X29500Y12760D02*
X29500Y13240D01*
X30500Y13240D02*
X30500Y12760D01*
X31500Y12760D02*
X31500Y13240D01*
X32500Y13240D02*
X32500Y12760D01*
X33500Y12760D02*
X33500Y13240D01*
X34500Y13240D02*
X34500Y12760D01*
X34500Y15760D02*
X34500Y16240D01*
X33500Y16240D02*
X33500Y15760D01*
X32500Y15760D02*
X32500Y16240D01*
X31500Y16240D02*
X31500Y15760D01*
X30500Y15760D02*
X30500Y16240D01*
X29500Y16240D02*
X29500Y15760D01*
X28500Y15760D02*
X28500Y16240D01*
X27500Y16240D02*
X27500Y15760D01*
X26500Y15760D02*
X26500Y16240D01*
D23*
X47500Y21200D03*
X47500Y20800D03*
D17*
X47500Y21200D01*
D23*
X49500Y21200D03*
X49500Y20800D03*
D17*
X49500Y21200D01*
D23*
X45500Y21200D03*
X45500Y20800D03*
D17*
X45500Y21200D01*
D16*
X47500Y23500D03*
X47500Y18500D03*
X49500Y23500D03*
X49500Y18500D03*
X45500Y23500D03*
X45500Y18500D03*
D24*
X45500Y25000D03*
X45500Y27000D03*
X47500Y25000D03*
X47500Y27000D03*
X49500Y25000D03*
X49500Y27000D03*
D25*
X13475Y29315D02*
X13475Y29480D01*
X13475Y29315D02*
X4785Y20625D01*
X4785Y3685D01*
X4950Y3520D01*
X13475Y29480D02*
X13500Y29500D01*
X4950Y3520D02*
X5000Y3500D01*
X33935Y32340D02*
X43725Y32340D01*
X29205Y32065D02*
X28050Y30910D01*
X16610Y30910D01*
D26*
X43725Y32340D03*
X33935Y32340D03*
X29205Y32065D03*
X16610Y30910D03*
D25*
X49500Y25000D02*
X49500Y23500D01*
X17490Y29370D02*
X17490Y29480D01*
X17078Y28958D02*
X15620Y27500D01*
X17078Y28958D02*
X17490Y29370D01*
X15620Y27500D02*
X15620Y17655D01*
X14080Y16115D01*
X17490Y29480D02*
X17500Y29500D01*
X34650Y25685D02*
X37070Y25685D01*
X34650Y25685D02*
X31240Y29095D01*
X30910Y29095D01*
X29480Y29260D02*
X20295Y29260D01*
X19800Y28765D01*
X17270Y28765D01*
X17078Y28958D01*
D26*
X14080Y16115D03*
X37070Y25685D03*
X30910Y29095D03*
X29480Y29260D03*
D25*
X49500Y23500D02*
X49500Y21200D01*
X25685Y13035D02*
X23475Y13035D01*
X25685Y13035D02*
X26455Y13035D01*
X23475Y13035D02*
X14475Y4035D01*
X13495Y4035D01*
X12210Y2750D01*
X8635Y2750D01*
X7920Y3465D01*
X7810Y3465D01*
X26455Y13035D02*
X26500Y13000D01*
X7810Y3465D02*
X7756Y3500D01*
X25685Y13035D02*
X25685Y15730D01*
D26*
X25685Y15730D03*
D25*
X30305Y20845D02*
X30470Y20845D01*
X23953Y14493D02*
X20240Y10780D01*
X23953Y14493D02*
X30305Y20845D01*
X20240Y10780D02*
X20240Y10230D01*
X14465Y4455D01*
X10230Y4455D01*
X9295Y3520D01*
X9185Y3520D01*
X9134Y3500D01*
X23870Y14520D02*
X23925Y14520D01*
X23953Y14493D01*
D26*
X30470Y20845D03*
X23870Y14520D03*
D25*
X14520Y29535D02*
X14520Y29645D01*
X14740Y29865D01*
X14740Y29920D01*
X19580Y34760D01*
X21725Y34760D01*
X23210Y36245D01*
X35365Y36245D01*
X36080Y35530D01*
X36190Y35530D01*
X14520Y29535D02*
X14500Y29500D01*
X36190Y35530D02*
X36244Y35500D01*
X13750Y28435D02*
X13750Y15345D01*
X13750Y28435D02*
X14465Y29150D01*
X14465Y29480D01*
X14500Y29500D01*
D26*
X13750Y15345D03*
D25*
X47520Y23540D02*
X47520Y24970D01*
X47520Y23540D02*
X47500Y23500D01*
X47520Y24970D02*
X47500Y25000D01*
X35855Y19655D02*
X35555Y19655D01*
X35558Y19658D01*
X33710Y21505D01*
X25410Y21505D01*
X14520Y10615D01*
X14520Y10505D01*
X14500Y10500D01*
D26*
X35855Y19655D03*
D25*
X47500Y21200D02*
X47500Y23500D01*
X28490Y12980D02*
X28490Y12760D01*
X25548Y9818D02*
X20420Y4690D01*
X25548Y9818D02*
X28490Y12760D01*
X20420Y4690D02*
X19100Y4690D01*
X17930Y3520D01*
X17765Y3520D01*
X28490Y12980D02*
X28500Y13000D01*
X17765Y3520D02*
X17756Y3500D01*
X24695Y10670D02*
X25548Y9818D01*
D26*
X24695Y10670D03*
D25*
X33320Y18855D02*
X35420Y18855D01*
X33320Y18855D02*
X31020Y16555D01*
X31020Y16500D01*
X31075Y16445D01*
X31075Y15565D01*
X31020Y15510D01*
X31020Y15455D01*
X29370Y13805D01*
X29205Y13805D01*
X29013Y13613D02*
X28930Y13530D01*
X29013Y13613D02*
X29205Y13805D01*
X28930Y13530D02*
X28930Y12485D01*
X28985Y12430D01*
X20790Y4235D01*
X20295Y4235D01*
X19580Y3520D01*
X19140Y3520D01*
X19134Y3500D01*
X26125Y13860D02*
X28765Y13860D01*
X29013Y13613D01*
D26*
X35420Y18855D03*
X26125Y13860D03*
D25*
X12540Y29535D02*
X12540Y29645D01*
X12760Y29865D01*
X12760Y29920D01*
X16500Y33660D01*
X16500Y34815D01*
X16665Y34980D01*
X16665Y35090D01*
X16720Y35145D01*
X16720Y35475D01*
X12540Y29535D02*
X12500Y29500D01*
X16720Y35475D02*
X16744Y35500D01*
X25025Y8030D02*
X25025Y3520D01*
X9790Y26125D02*
X9790Y26675D01*
X12485Y29370D01*
X12485Y29480D01*
X25025Y3520D02*
X25000Y3500D01*
X12485Y29480D02*
X12500Y29500D01*
D26*
X25025Y8030D03*
X9790Y26125D03*
D25*
X45540Y24970D02*
X45540Y23540D01*
X45500Y23500D01*
X45540Y24970D02*
X45500Y25000D01*
X35420Y11000D02*
X28545Y4125D01*
D26*
X35420Y11000D03*
X28545Y4125D03*
D25*
X45500Y21200D02*
X45500Y23500D01*
X30470Y12980D02*
X30470Y12815D01*
X28215Y10560D01*
X28215Y4070D01*
X27775Y3630D01*
X27775Y3520D01*
X30470Y12980D02*
X30500Y13000D01*
X27775Y3520D02*
X27756Y3500D01*
X15455Y29040D02*
X15455Y29480D01*
X15455Y29040D02*
X15290Y28875D01*
X15290Y25135D01*
X15455Y29480D02*
X15500Y29500D01*
D26*
X15290Y25135D03*
D25*
X31185Y5665D02*
X29150Y3630D01*
X29150Y3520D01*
X29134Y3500D01*
D26*
X31185Y5665D03*
D25*
X60500Y13365D02*
X60500Y18500D01*
X60500Y13365D02*
X56540Y9405D01*
X56500Y9450D01*
X35640Y3465D02*
X32065Y7040D01*
X35640Y3465D02*
X35970Y3465D01*
X36000Y3500D01*
D26*
X32065Y7040D03*
D25*
X36190Y4565D02*
X37235Y3520D01*
X37345Y3520D01*
X37378Y3500D01*
X56320Y8415D02*
X56485Y8415D01*
X56320Y8415D02*
X53080Y5175D01*
X39165Y5175D01*
X37510Y3520D01*
X37400Y3520D01*
X56485Y8415D02*
X56500Y8450D01*
X37400Y3520D02*
X37378Y3500D01*
D26*
X36190Y4565D03*
D25*
X24475Y2750D02*
X22660Y4565D01*
X24475Y2750D02*
X37895Y2750D01*
X38610Y3465D01*
X38720Y3465D01*
X38756Y3500D01*
X56210Y7425D02*
X56485Y7425D01*
X56210Y7425D02*
X53440Y4655D01*
X40020Y4655D01*
X38885Y3520D01*
X38775Y3520D01*
X56485Y7425D02*
X56500Y7450D01*
X38775Y3520D02*
X38756Y3500D01*
D26*
X22660Y4565D03*
D25*
X56375Y6435D02*
X56485Y6435D01*
X56375Y6435D02*
X54175Y4235D01*
X40975Y4235D01*
X40260Y3520D01*
X40150Y3520D01*
X56485Y6435D02*
X56500Y6450D01*
X40150Y3520D02*
X40134Y3500D01*
D27*
X54400Y27500D02*
X58520Y27500D01*
X59620Y28600D01*
X59730Y28600D01*
X60115Y28985D01*
X60555Y28985D01*
X60606Y29000D01*
X56500Y11450D02*
X56500Y10450D01*
X56375Y11440D02*
X56265Y11440D01*
X51315Y16390D01*
X39875Y16390D01*
X39270Y16995D01*
X39050Y16995D01*
X56375Y11440D02*
X56500Y11450D01*
X39050Y16995D02*
X39000Y17000D01*
X27115Y28490D02*
X27005Y28490D01*
X27115Y28490D02*
X27500Y28105D01*
X28435Y28105D01*
X28765Y28435D01*
X28820Y28435D01*
X28875Y28490D01*
X28985Y28490D01*
X27005Y28490D02*
X27000Y28500D01*
X28985Y28490D02*
X29000Y28500D01*
X30855Y28490D02*
X30965Y28490D01*
X30855Y28490D02*
X30470Y28875D01*
X29535Y28875D01*
X29095Y28435D01*
X30965Y28490D02*
X31000Y28500D01*
X29095Y28435D02*
X29000Y28500D01*
X9515Y10725D02*
X9515Y10505D01*
X9515Y10725D02*
X9680Y10890D01*
X9680Y10945D01*
X13695Y14960D01*
X13860Y14960D01*
X26730Y27830D01*
X27280Y27830D01*
X27445Y27995D01*
X9515Y10505D02*
X9500Y10500D01*
X27445Y27995D02*
X27500Y28105D01*
X31460Y35310D02*
X31460Y35475D01*
X31048Y34898D02*
X30525Y34375D01*
X31048Y34898D02*
X31460Y35310D01*
X30525Y34375D02*
X30525Y28985D01*
X31460Y35475D02*
X31500Y35500D01*
X30525Y28985D02*
X30470Y28875D01*
X38720Y35475D02*
X38995Y35475D01*
X38720Y35475D02*
X37950Y34705D01*
X31240Y34705D01*
X31048Y34898D01*
X38995Y35475D02*
X39000Y35500D01*
X38940Y17215D02*
X38940Y17105D01*
X38940Y17215D02*
X28490Y27665D01*
X28490Y27995D01*
X38940Y17105D02*
X39000Y17000D01*
X28490Y27995D02*
X28435Y28105D01*
X51500Y35500D02*
X53500Y33500D01*
X53500Y27600D02*
X53600Y27500D01*
X53500Y27600D02*
X53500Y33500D01*
X26510Y16335D02*
X26510Y16005D01*
X26510Y16335D02*
X31350Y21175D01*
X32065Y21175D01*
X45320Y34320D02*
X46500Y35500D01*
X26510Y16005D02*
X26500Y16000D01*
D26*
X32065Y21175D03*
X45320Y34320D03*
D25*
X27115Y23540D02*
X27005Y23540D01*
X27115Y23540D02*
X28435Y24860D01*
X36850Y33275D02*
X40260Y33275D01*
X43230Y36245D01*
X56760Y36245D01*
X57475Y35530D01*
X57585Y35530D01*
X27005Y23540D02*
X27000Y23500D01*
X57585Y35530D02*
X57622Y35500D01*
D26*
X28435Y24860D03*
X36850Y33275D03*
D25*
X40535Y28600D02*
X40535Y28545D01*
X40535Y28600D02*
X44055Y32120D01*
X44055Y34925D01*
X44495Y35365D01*
X44495Y35475D01*
X40535Y28545D02*
X40500Y28500D01*
X44495Y35475D02*
X44500Y35500D01*
X38500Y28545D02*
X38390Y28545D01*
X35200Y31735D01*
X34540Y31735D01*
X28435Y31735D02*
X24915Y35255D01*
X24860Y35255D01*
X24640Y35475D01*
X24530Y35475D01*
X38500Y28545D02*
X38500Y28500D01*
X24530Y35475D02*
X24500Y35500D01*
D26*
X34540Y31735D03*
X28435Y31735D03*
D25*
X30195Y23540D02*
X30965Y23540D01*
X30195Y23540D02*
X26565Y27170D01*
X30965Y23540D02*
X31000Y23500D01*
D26*
X26565Y27170D03*
D25*
X37730Y36465D02*
X38280Y35915D01*
X37730Y36465D02*
X6380Y36465D01*
X5500Y35585D01*
X5060Y35585D01*
X5005Y35530D01*
X5000Y35500D01*
D26*
X38280Y35915D03*
D27*
X37235Y16005D02*
X34540Y16005D01*
X37235Y16005D02*
X38720Y14520D01*
X38995Y14520D01*
X34540Y16005D02*
X34500Y16000D01*
X38995Y14520D02*
X39000Y14500D01*
X49500Y33500D02*
X47500Y35500D01*
X49500Y33500D02*
X49500Y31500D01*
D28*
X49500Y31500D03*
X54000Y30000D03*
D27*
X54000Y27500D01*
D25*
X45485Y18590D02*
X45485Y18535D01*
X45485Y18590D02*
X41140Y22935D01*
X35365Y22935D01*
X29810Y28490D01*
X28435Y29865D02*
X20130Y29865D01*
X19415Y30580D01*
X15840Y30580D01*
X45485Y18535D02*
X45500Y18500D01*
D26*
X29810Y28490D03*
X28435Y29865D03*
X15840Y30580D03*
D25*
X45500Y20800D02*
X45500Y18500D01*
X37070Y28380D02*
X37070Y28765D01*
X31515Y34320D01*
D26*
X31515Y34320D03*
D25*
X47500Y20800D02*
X47500Y18500D01*
D28*
X45100Y20350D03*
D25*
X37070Y28380D01*
X49500Y18535D02*
X49610Y18535D01*
X50160Y19085D01*
X50160Y35035D01*
X50490Y35365D01*
X50490Y35475D01*
X49500Y18535D02*
X49500Y18500D01*
X50490Y35475D02*
X50500Y35500D01*
X49500Y20800D02*
X49500Y18500D01*
M02*
